  0
SECTION
  2
HEADER
  9
$ACADVER
  1
AC1032
  9
$ACADMAINTVER
 90
      158
  9
$DWGCODEPAGE
  3
ANSI_1252
  9
$LASTSAVEDBY
  1
Carlos
  9
$REQUIREDVERSIONS
160
                 0
  9
$INSBASE
 10
0.0
 20
0.0
 30
0.0
  9
$EXTMIN
 10
-367.7072941582882
 20
47.33955436032312
 30
0.0
  9
$EXTMAX
 10
367.3951052850394
 20
496.0297731825016
 30
0.0
  9
$LIMMIN
 10
0.0
 20
0.0
  9
$LIMMAX
 10
12.0
 20
9.0
  9
$ORTHOMODE
 70
     0
  9
$REGENMODE
 70
     1
  9
$FILLMODE
 70
     1
  9
$QTEXTMODE
 70
     0
  9
$MIRRTEXT
 70
     0
  9
$LTSCALE
 40
1.0
  9
$ATTMODE
 70
     1
  9
$TEXTSIZE
 40
0.2
  9
$TRACEWID
 40
0.05
  9
$TEXTSTYLE
  7
STANDARD
  9
$CLAYER
  8
0
  9
$CELTYPE
  6
Continuous
  9
$CECOLOR
 62
   256
  9
$CELTSCALE
 40
1.0
  9
$DISPSILH
 70
     0
  9
$DIMSCALE
 40
1.0
  9
$DIMASZ
 40
0.18
  9
$DIMEXO
 40
0.0625
  9
$DIMDLI
 40
0.38
  9
$DIMRND
 40
0.0
  9
$DIMDLE
 40
0.0
  9
$DIMEXE
 40
0.18
  9
$DIMTP
 40
0.0
  9
$DIMTM
 40
0.0
  9
$DIMTXT
 40
0.18
  9
$DIMCEN
 40
0.09
  9
$DIMTSZ
 40
0.0
  9
$DIMTOL
 70
     0
  9
$DIMLIM
 70
     0
  9
$DIMTIH
 70
     1
  9
$DIMTOH
 70
     1
  9
$DIMSE1
 70
     0
  9
$DIMSE2
 70
     0
  9
$DIMTAD
 70
     0
  9
$DIMZIN
 70
     0
  9
$DIMBLK
  1

  9
$DIMASO
 70
     1
  9
$DIMSHO
 70
     1
  9
$DIMPOST
  1

  9
$DIMAPOST
  1

  9
$DIMALT
 70
     0
  9
$DIMALTD
 70
     2
  9
$DIMALTF
 40
25.4
  9
$DIMLFAC
 40
1.0
  9
$DIMTOFL
 70
     0
  9
$DIMTVP
 40
0.0
  9
$DIMTIX
 70
     0
  9
$DIMSOXD
 70
     0
  9
$DIMSAH
 70
     0
  9
$DIMBLK1
  1

  9
$DIMBLK2
  1

  9
$DIMSTYLE
  2
Standard
  9
$DIMCLRD
 70
     0
  9
$DIMCLRE
 70
     0
  9
$DIMCLRT
 70
     0
  9
$DIMTFAC
 40
1.0
  9
$DIMGAP
 40
0.09
  9
$DIMJUST
 70
     0
  9
$DIMSD1
 70
     0
  9
$DIMSD2
 70
     0
  9
$DIMTOLJ
 70
     1
  9
$DIMTZIN
 70
     0
  9
$DIMALTZ
 70
     0
  9
$DIMALTTZ
 70
     0
  9
$DIMUPT
 70
     0
  9
$DIMDEC
 70
     4
  9
$DIMTDEC
 70
     4
  9
$DIMALTU
 70
     2
  9
$DIMALTTD
 70
     2
  9
$DIMTXSTY
  7
STANDARD
  9
$DIMAUNIT
 70
     0
  9
$DIMADEC
 70
     0
  9
$DIMALTRND
 40
0.0
  9
$DIMAZIN
 70
     0
  9
$DIMDSEP
 70
    46
  9
$DIMATFIT
 70
     3
  9
$DIMFRAC
 70
     0
  9
$DIMLDRBLK
  1

  9
$DIMLUNIT
 70
     2
  9
$DIMLWD
 70
    -2
  9
$DIMLWE
 70
    -2
  9
$DIMTMOVE
 70
     0
  9
$DIMFXL
 40
1.0
  9
$DIMFXLON
 70
     0
  9
$DIMJOGANG
 40
0.7853981633974483
  9
$DIMTFILL
 70
     0
  9
$DIMTFILLCLR
 70
     0
  9
$DIMARCSYM
 70
     0
  9
$DIMLTYPE
  6

  9
$DIMLTEX1
  6

  9
$DIMLTEX2
  6

  9
$DIMTXTDIRECTION
 70
     0
  9
$LUNITS
 70
     2
  9
$LUPREC
 70
     4
  9
$SKETCHINC
 40
0.1
  9
$FILLETRAD
 40
0.0
  9
$AUNITS
 70
     0
  9
$AUPREC
 70
     0
  9
$MENU
  1
.
  9
$ELEVATION
 40
0.0
  9
$PELEVATION
 40
0.0
  9
$THICKNESS
 40
0.0
  9
$LIMCHECK
 70
     0
  9
$CHAMFERA
 40
0.0
  9
$CHAMFERB
 40
0.0
  9
$CHAMFERC
 40
0.0
  9
$CHAMFERD
 40
0.0
  9
$SKPOLY
 70
     0
  9
$TDCREATE
 40
2459049.392002315
  9
$TDUCREATE
 40
2459049.308668982
  9
$TDUPDATE
 40
2459049.459375000
  9
$TDUUPDATE
 40
2459049.376041666
  9
$TDINDWG
 40
0.0673726852
  9
$TDUSRTIMER
 40
0.0673726852
  9
$USRTIMER
 70
     1
  9
$ANGBASE
 50
0.0
  9
$ANGDIR
 70
     0
  9
$PDMODE
 70
     0
  9
$PDSIZE
 40
0.0
  9
$PLINEWID
 40
0.0
  9
$SPLFRAME
 70
     0
  9
$SPLINETYPE
 70
     6
  9
$SPLINESEGS
 70
     8
  9
$HANDSEED
  5
10275
  9
$SURFTAB1
 70
     6
  9
$SURFTAB2
 70
     6
  9
$SURFTYPE
 70
     6
  9
$SURFU
 70
     6
  9
$SURFV
 70
     6
  9
$UCSBASE
  2

  9
$UCSNAME
  2

  9
$UCSORG
 10
0.0
 20
0.0
 30
0.0
  9
$UCSXDIR
 10
1.0
 20
0.0
 30
0.0
  9
$UCSYDIR
 10
0.0
 20
1.0
 30
0.0
  9
$UCSORTHOREF
  2

  9
$UCSORTHOVIEW
 70
     0
  9
$UCSORGTOP
 10
0.0
 20
0.0
 30
0.0
  9
$UCSORGBOTTOM
 10
0.0
 20
0.0
 30
0.0
  9
$UCSORGLEFT
 10
0.0
 20
0.0
 30
0.0
  9
$UCSORGRIGHT
 10
0.0
 20
0.0
 30
0.0
  9
$UCSORGFRONT
 10
0.0
 20
0.0
 30
0.0
  9
$UCSORGBACK
 10
0.0
 20
0.0
 30
0.0
  9
$PUCSBASE
  2

  9
$PUCSNAME
  2

  9
$PUCSORG
 10
0.0
 20
0.0
 30
0.0
  9
$PUCSXDIR
 10
1.0
 20
0.0
 30
0.0
  9
$PUCSYDIR
 10
0.0
 20
1.0
 30
0.0
  9
$PUCSORTHOREF
  2

  9
$PUCSORTHOVIEW
 70
     0
  9
$PUCSORGTOP
 10
0.0
 20
0.0
 30
0.0
  9
$PUCSORGBOTTOM
 10
0.0
 20
0.0
 30
0.0
  9
$PUCSORGLEFT
 10
0.0
 20
0.0
 30
0.0
  9
$PUCSORGRIGHT
 10
0.0
 20
0.0
 30
0.0
  9
$PUCSORGFRONT
 10
0.0
 20
0.0
 30
0.0
  9
$PUCSORGBACK
 10
0.0
 20
0.0
 30
0.0
  9
$USERI1
 70
     0
  9
$USERI2
 70
     0
  9
$USERI3
 70
     0
  9
$USERI4
 70
     0
  9
$USERI5
 70
     0
  9
$USERR1
 40
0.0
  9
$USERR2
 40
0.0
  9
$USERR3
 40
0.0
  9
$USERR4
 40
0.0
  9
$USERR5
 40
0.0
  9
$WORLDVIEW
 70
     1
  9
$SHADEDGE
 70
     3
  9
$SHADEDIF
 70
    70
  9
$TILEMODE
 70
     1
  9
$MAXACTVP
 70
    64
  9
$PINSBASE
 10
0.0
 20
0.0
 30
0.0
  9
$PLIMCHECK
 70
     0
  9
$PEXTMIN
 10
1.000000000000000E+20
 20
1.000000000000000E+20
 30
1.000000000000000E+20
  9
$PEXTMAX
 10
-1.000000000000000E+20
 20
-1.000000000000000E+20
 30
-1.000000000000000E+20
  9
$PLIMMIN
 10
0.0
 20
0.0
  9
$PLIMMAX
 10
12.0
 20
9.0
  9
$UNITMODE
 70
     0
  9
$VISRETAIN
 70
     1
  9
$PLINEGEN
 70
     0
  9
$PSLTSCALE
 70
     1
  9
$TREEDEPTH
 70
  3020
  9
$CMLSTYLE
  2
Standard
  9
$CMLJUST
 70
     0
  9
$CMLSCALE
 40
1.0
  9
$PROXYGRAPHICS
 70
     1
  9
$MEASUREMENT
 70
     0
  9
$CELWEIGHT
370
    -1
  9
$ENDCAPS
280
     0
  9
$JOINSTYLE
280
     0
  9
$LWDISPLAY
290
     0
  9
$INSUNITS
 70
     4
  9
$HYPERLINKBASE
  1

  9
$STYLESHEET
  1

  9
$XEDIT
290
     1
  9
$CEPSNTYPE
380
     0
  9
$PSTYLEMODE
290
     1
  9
$FINGERPRINTGUID
  2
{F65AC46D-B72B-E741-B91B-27CFCF053B32}
  9
$VERSIONGUID
  2
{9185800D-CA66-4544-A7D7-0693F7133A15}
  9
$EXTNAMES
290
     1
  9
$PSVPSCALE
 40
0.0
  9
$OLESTARTUP
290
     0
  9
$SORTENTS
280
   127
  9
$INDEXCTL
280
     0
  9
$HIDETEXT
280
     0
  9
$XCLIPFRAME
280
     2
  9
$HALOGAP
280
     0
  9
$OBSCOLOR
 70
   257
  9
$OBSLTYPE
280
     0
  9
$INTERSECTIONDISPLAY
280
     0
  9
$INTERSECTIONCOLOR
 70
   257
  9
$DIMASSOC
280
     1
  9
$PROJECTNAME
  1

  9
$CAMERADISPLAY
290
     0
  9
$LENSLENGTH
 40
50.0
  9
$CAMERAHEIGHT
 40
0.0
  9
$STEPSPERSEC
 40
2.0
  9
$STEPSIZE
 40
6.0
  9
$3DDWFPREC
 40
2.0
  9
$PSOLWIDTH
 40
0.25
  9
$PSOLHEIGHT
 40
4.0
  9
$LOFTANG1
 40
1.570796326794896
  9
$LOFTANG2
 40
1.570796326794896
  9
$LOFTMAG1
 40
0.0
  9
$LOFTMAG2
 40
0.0
  9
$LOFTPARAM
 70
     7
  9
$LOFTNORMALS
280
     1
  9
$LATITUDE
 40
37.795
  9
$LONGITUDE
 40
-122.394
  9
$NORTHDIRECTION
 40
0.0
  9
$TIMEZONE
 70
 -8000
  9
$LIGHTGLYPHDISPLAY
280
     1
  9
$TILEMODELIGHTSYNCH
280
     1
  9
$CMATERIAL
347
10005
  9
$SOLIDHIST
280
     0
  9
$SHOWHIST
280
     1
  9
$DWFFRAME
280
     2
  9
$DGNFRAME
280
     0
  9
$REALWORLDSCALE
290
     1
  9
$INTERFERECOLOR
 62
     1
  9
$INTERFEREOBJVS
345
10027
  9
$INTERFEREVPVS
346
10024
  9
$CSHADOW
280
     0
  9
$SHADOWPLANELOCATION
 40
0.0
  0
ENDSEC
  0
SECTION
  2
CLASSES
  0
CLASS
  1
ACDBDICTIONARYWDFLT
  2
AcDbDictionaryWithDefault
  3
ObjectDBX Classes
 90
        0
 91
        1
280
     0
281
     0
  0
CLASS
  1
MATERIAL
  2
AcDbMaterial
  3
ObjectDBX Classes
 90
     1153
 91
        3
280
     0
281
     0
  0
CLASS
  1
VISUALSTYLE
  2
AcDbVisualStyle
  3
ObjectDBX Classes
 90
     4095
 91
       24
280
     0
281
     0
  0
CLASS
  1
TABLESTYLE
  2
AcDbTableStyle
  3
ObjectDBX Classes
 90
     4095
 91
        1
280
     0
281
     0
  0
CLASS
  1
SCALE
  2
AcDbScale
  3
ObjectDBX Classes
 90
     1153
 91
       17
280
     0
281
     0
  0
CLASS
  1
MLEADERSTYLE
  2
AcDbMLeaderStyle
  3
ACDB_MLEADERSTYLE_CLASS
 90
     4095
 91
        1
280
     0
281
     0
  0
CLASS
  1
ACDBSECTIONVIEWSTYLE
  2
AcDbSectionViewStyle
  3
ObjectDBX Classes
 90
     1025
 91
        1
280
     0
281
     0
  0
CLASS
  1
ACDBDETAILVIEWSTYLE
  2
AcDbDetailViewStyle
  3
ObjectDBX Classes
 90
     1025
 91
        1
280
     0
281
     0
  0
CLASS
  1
DICTIONARYVAR
  2
AcDbDictionaryVar
  3
ObjectDBX Classes
 90
        0
 91
        9
280
     0
281
     0
  0
CLASS
  1
CELLSTYLEMAP
  2
AcDbCellStyleMap
  3
ObjectDBX Classes
 90
     1152
 91
        2
280
     0
281
     0
  0
ENDSEC
  0
SECTION
  2
TABLES
  0
TABLE
  2
VPORT
  5
8
330
0
100
AcDbSymbolTable
 70
     1
  0
VPORT
  5
10059
330
8
100
AcDbSymbolTableRecord
100
AcDbViewportTableRecord
  2
*Active
 70
     0
 10
0.0
 20
0.0
 11
1.0
 21
1.0
 12
185.6541048229414
 22
61.87595141314216
 13
0.0
 23
0.0
 14
1.0
 24
1.0
 15
0.0
 25
0.0
 16
0.0
 26
0.0
 36
1.0
 17
0.0
 27
0.0
 37
0.0
 40
1152.607411629239
 41
1.775057383320581
 42
50.0
 43
0.0
 44
0.0
 50
0.0
 51
0.0
 71
     0
 72
  1000
 73
     1
 74
     3
 75
     1
 76
     0
 77
     0
 78
     0
281
     0
 65
     1
110
0.0
120
0.0
130
0.0
111
1.0
121
0.0
131
0.0
112
0.0
122
1.0
132
0.0
 79
     0
146
0.0
348
10023
 60
     3
 61
     5
292
     1
282
     1
141
0.0
142
0.0
 63
   250
421
  3355443
1001
ACAD_NAV_VCDISPLAY
1070
     1
  0
ENDTAB
  0
TABLE
  2
LTYPE
  5
5
330
0
100
AcDbSymbolTable
 70
     3
  0
LTYPE
  5
14
330
5
100
AcDbSymbolTableRecord
100
AcDbLinetypeTableRecord
  2
BYBLOCK
 70
     0
  3

 72
    65
 73
     0
 40
0.0
  0
LTYPE
  5
15
330
5
100
AcDbSymbolTableRecord
100
AcDbLinetypeTableRecord
  2
BYLAYER
 70
     0
  3

 72
    65
 73
     0
 40
0.0
  0
LTYPE
  5
10001
330
5
100
AcDbSymbolTableRecord
100
AcDbLinetypeTableRecord
  2
Continuous
 70
     0
  3
Solid line
 72
    65
 73
     0
 40
0.0
  0
ENDTAB
  0
TABLE
  2
LAYER
  5
2
102
{ACAD_XDICTIONARY
360
1026C
102
}
330
0
100
AcDbSymbolTable
 70
     3
  0
LAYER
  5
50
102
{ACAD_XDICTIONARY
360
1008F
102
}
330
2
100
AcDbSymbolTableRecord
100
AcDbLayerTableRecord
  2
0
 70
     0
 62
     7
  6
Continuous
370
    -3
390
10003
347
10015
348
0
  0
LAYER
  5
10094
330
2
100
AcDbSymbolTableRecord
100
AcDbLayerTableRecord
  2
bottom
 70
     0
 62
    40
  6
Continuous
370
    -3
390
10003
347
10015
348
0
1001
AcAecLayerStandard
1000

1000

1001
AcCmTransparency
1071
        0
  0
LAYER
  5
100B5
330
2
100
AcDbSymbolTableRecord
100
AcDbLayerTableRecord
  2
Plate
 70
     0
 62
   131
  6
Continuous
370
    -3
390
10003
347
10015
348
0
1001
AcAecLayerStandard
1000

1000

1001
AcCmTransparency
1071
        0
  0
ENDTAB
  0
TABLE
  2
STYLE
  5
3
330
0
100
AcDbSymbolTable
 70
     1
  0
STYLE
  5
11
330
3
100
AcDbSymbolTableRecord
100
AcDbTextStyleTableRecord
  2
STANDARD
 70
     0
 40
0.0
 41
1.0
 50
0.0
 71
     0
 42
0.2
  3

  4

  0
ENDTAB
  0
TABLE
  2
VIEW
  5
6
330
0
100
AcDbSymbolTable
 70
     1
  0
ENDTAB
  0
TABLE
  2
UCS
  5
7
330
0
100
AcDbSymbolTable
 70
     0
  0
ENDTAB
  0
TABLE
  2
APPID
  5
9
330
0
100
AcDbSymbolTable
 70
     5
  0
APPID
  5
12
330
9
100
AcDbSymbolTableRecord
100
AcDbRegAppTableRecord
  2
ACAD
 70
     0
  0
APPID
  5
10058
330
9
100
AcDbSymbolTableRecord
100
AcDbRegAppTableRecord
  2
ACAD_NAV_VCDISPLAY
 70
     0
  0
APPID
  5
1005B
330
9
100
AcDbSymbolTableRecord
100
AcDbRegAppTableRecord
  2
ACAD_EXEMPT_FROM_CAD_STANDARDS
 70
     0
  0
APPID
  5
10095
330
9
100
AcDbSymbolTableRecord
100
AcDbRegAppTableRecord
  2
AcAecLayerStandard
 70
     0
  0
APPID
  5
10096
330
9
100
AcDbSymbolTableRecord
100
AcDbRegAppTableRecord
  2
AcCmTransparency
 70
     0
  0
ENDTAB
  0
TABLE
  2
DIMSTYLE
  5
A
330
0
100
AcDbSymbolTable
 70
     2
100
AcDbDimStyleTable
 71
     1
340
10053
  0
DIMSTYLE
105
10053
330
A
100
AcDbSymbolTableRecord
100
AcDbDimStyleTableRecord
  2
Standard
 70
     0
340
11
  0
ENDTAB
  0
TABLE
  2
BLOCK_RECORD
  5
1
330
0
100
AcDbSymbolTable
 70
    15
  0
BLOCK_RECORD
  5
1F
330
1
100
AcDbSymbolTableRecord
100
AcDbBlockTableRecord
  2
*MODEL_SPACE
340
10055
 70
     0
280
     1
281
     0
  0
BLOCK_RECORD
  5
1B
330
1
100
AcDbSymbolTableRecord
100
AcDbBlockTableRecord
  2
*PAPER_SPACE
340
10056
 70
     0
280
     1
281
     0
  0
BLOCK_RECORD
  5
1007E
330
1
100
AcDbSymbolTableRecord
100
AcDbBlockTableRecord
  2
A$Cd025c019
340
0
 70
     4
280
     1
281
     0
  0
BLOCK_RECORD
  5
10200
330
1
100
AcDbSymbolTableRecord
100
AcDbBlockTableRecord
  2
A$C3ad44b7d
340
0
 70
     4
280
     1
281
     0
  0
ENDTAB
  0
ENDSEC
  0
SECTION
  2
BLOCKS
  0
BLOCK
  5
20
330
1F
100
AcDbEntity
  8
0
100
AcDbBlockBegin
  2
*MODEL_SPACE
 70
     0
 10
0.0
 20
0.0
 30
0.0
  3
*MODEL_SPACE
  1

  0
ENDBLK
  5
21
330
1F
100
AcDbEntity
  8
0
100
AcDbBlockEnd
  0
BLOCK
  5
1C
330
1B
100
AcDbEntity
 67
     1
  8
0
100
AcDbBlockBegin
  2
*PAPER_SPACE
 70
     0
 10
0.0
 20
0.0
 30
0.0
  3
*PAPER_SPACE
  1

  0
ENDBLK
  5
1D
330
1B
100
AcDbEntity
 67
     1
  8
0
100
AcDbBlockEnd
  0
BLOCK
  5
10081
330
1007E
100
AcDbEntity
  8
0
100
AcDbBlockBegin
  2
A$Cd025c019
 70
     0
 10
0.0
 20
0.0
 30
0.0
  3
A$Cd025c019
  1

  0
LWPOLYLINE
  5
1007F
330
1007E
100
AcDbEntity
  8
0
  6
Continuous
100
AcDbPolyline
 90
        6
 70
     1
 43
0.0
 10
1.499999564988968
 20
113.6323463407132
 10
-0.0000004350110316
 20
111.0342701293598
 10
1.499999564988968
 20
108.4361939180065
 10
4.499999564988968
 20
108.4361939180065
 10
5.999999564988968
 20
111.0342701293598
 10
4.499999564988968
 20
113.6323463407132
  0
LWPOLYLINE
  5
10080
330
1007E
100
AcDbEntity
  8
0
  6
Continuous
100
AcDbPolyline
 90
        6
 70
     1
 43
0.0
 10
1.499999564988911
 20
5.196152263000996
 10
-0.0000004350110885
 20
2.59807605164768
 10
1.499999564988911
 20
-0.0000001597056354
 10
4.499999564988911
 20
-0.0000001597056354
 10
5.999999564988911
 20
2.59807605164768
 10
4.499999564988911
 20
5.196152263000996
  0
ENDBLK
  5
10082
330
1007E
100
AcDbEntity
  8
0
100
AcDbBlockEnd
  0
BLOCK
  5
10203
330
10200
100
AcDbEntity
  8
0
100
AcDbBlockBegin
  2
A$C3ad44b7d
 70
     0
 10
0.0
 20
0.0
 30
0.0
  3
A$C3ad44b7d
  1

  0
CIRCLE
  5
10201
330
10200
100
AcDbEntity
  8
0
100
AcDbCircle
 10
227.9887489354375
 20
1.749998093391326
 30
0.0
 40
1.75
  0
CIRCLE
  5
10202
330
10200
100
AcDbEntity
  8
0
100
AcDbCircle
 10
1.749998935438497
 20
1.749998093391383
 30
0.0
 40
1.75
  0
ENDBLK
  5
10204
330
10200
100
AcDbEntity
  8
0
100
AcDbBlockEnd
  0
ENDSEC
  0
SECTION
  2
ENTITIES
  0
LWPOLYLINE
  5
108
330
1F
100
AcDbEntity
  8
0
100
AcDbPolyline
 90
       27
 70
     1
 43
0.0
 10
-190.023944938082
 20
60.48857624540414
 10
-190.023944938082
 20
47.48857624540413
 10
-361.3926959380811
 20
47.48857624540441
 42
-0.414213562373091
 10
-366.392695938081
 20
52.48857624540441
 10
-366.392695938081
 20
165.8285762454041
 42
-0.4142135623730847
 10
-361.3926959380809
 20
170.8285762454038
 10
-280.1203665052548
 20
170.8285762454036
 10
-192.3404135707906
 20
189.4867812247095
 42
-0.1051042352656744
 10
-175.7074783053703
 20
189.4867812247095
 10
-87.92752537090608
 20
170.8285762454036
 10
-7.153945938082074
 20
170.8285762454033
 42
-0.4142135623730951
 10
-2.153945938082074
 20
165.8285762454033
 10
-2.153945938082209
 20
52.48857624540391
 42
-0.4142135623730878
 10
-7.153945938082095
 20
47.48857624540391
 10
-178.023944938082
 20
47.48857624540415
 10
-178.023944938082
 20
60.48857624540414
 10
-16.65394593808231
 20
60.48857624540395
 42
0.4142135623730934
 10
-15.15394593808226
 20
61.98857624540401
 10
-15.15394593808212
 20
156.3285762454036
 42
0.4142135623731003
 10
-16.65394593808231
 20
157.8285762454038
 10
-89.29388042935991
 20
157.8285762454037
 10
-184.0239459380805
 20
177.964073256713
 10
-278.7540114468013
 20
157.828576245404
 10
-351.8926959380814
 20
157.8285762454041
 42
0.414213562373109
 10
-353.3926959380814
 20
156.3285762454041
 10
-353.3926959380813
 20
61.98857624540434
 42
0.4142135623731055
 10
-351.8926959380814
 20
60.48857624540449
  0
LWPOLYLINE
  5
10071
330
1F
100
AcDbEntity
  8
0
  6
Continuous
100
AcDbPolyline
 90
        6
 70
     1
 43
0.0
 10
-360.4407929769374
 20
165.9747494956136
 10
-361.9407929769374
 20
163.3766732842603
 10
-360.4407929769374
 20
160.778597072907
 10
-357.4407929769374
 20
160.778597072907
 10
-355.9407929769374
 20
163.3766732842603
 10
-357.4407929769374
 20
165.9747494956136
  0
LWPOLYLINE
  5
10072
330
1F
100
AcDbEntity
  8
0
  6
Continuous
100
AcDbPolyline
 90
        6
 70
     1
 43
0.0
 10
-360.4407929769375
 20
57.53855541790146
 10
-361.9407929769375
 20
54.94047920654814
 10
-360.4407929769375
 20
52.34240299519483
 10
-357.4407929769375
 20
52.34240299519483
 10
-355.9407929769375
 20
54.94047920654814
 10
-357.4407929769375
 20
57.53855541790146
  0
LWPOLYLINE
  5
10083
330
1F
100
AcDbEntity
  8
0
  6
Continuous
100
AcDbPolyline
 90
        6
 70
     1
 43
0.0
 10
-11.10584889922597
 20
57.53855541790098
 10
-12.60584889922597
 20
54.94047920654766
 10
-11.10584889922597
 20
52.34240299519434
 10
-8.105848899225968
 20
52.34240299519434
 10
-6.605848899225968
 20
54.94047920654766
 10
-8.105848899225961
 20
57.53855541790098
  0
LWPOLYLINE
  5
10084
330
1F
100
AcDbEntity
  8
0
  6
Continuous
100
AcDbPolyline
 90
        6
 70
     1
 43
0.0
 10
-11.10584889922583
 20
165.9747494956131
 10
-12.60584889922583
 20
163.3766732842598
 10
-11.10584889922583
 20
160.7785970729065
 10
-8.105848899225833
 20
160.7785970729065
 10
-6.605848899225833
 20
163.3766732842598
 10
-8.105848899225833
 20
165.9747494956131
  0
LWPOLYLINE
  5
10087
330
1F
100
AcDbEntity
  8
0
  6
Continuous
100
AcDbPolyline
 90
        6
 70
     1
 43
0.0
 10
-242.172695938081
 20
57.53855541790146
 10
-243.672695938081
 20
54.94047920654814
 10
-242.172695938081
 20
52.34240299519483
 10
-239.172695938081
 20
52.34240299519483
 10
-237.672695938081
 20
54.94047920654814
 10
-239.172695938081
 20
57.53855541790146
  0
LWPOLYLINE
  5
1008A
330
1F
100
AcDbEntity
  8
0
  6
Continuous
100
AcDbPolyline
 90
        6
 70
     1
 43
0.0
 10
-129.3739459380822
 20
57.53855541790098
 10
-130.8739459380822
 20
54.94047920654766
 10
-129.3739459380822
 20
52.34240299519434
 10
-126.3739459380822
 20
52.34240299519434
 10
-124.8739459380822
 20
54.94047920654766
 10
-126.3739459380822
 20
57.53855541790098
  0
LWPOLYLINE
  5
1008C
330
1F
100
AcDbEntity
  8
0
  6
Continuous
100
AcDbPolyline
 90
        6
 70
     1
 43
0.0
 10
-129.3739459380822
 20
175.2723123969178
 10
-130.8739459380822
 20
172.6742361855645
 10
-129.3739459380822
 20
170.0761599742112
 10
-126.3739459380822
 20
170.0761599742112
 10
-124.8739459380822
 20
172.6742361855645
 10
-126.3739459380822
 20
175.2723123969178
  0
LWPOLYLINE
  5
1008E
330
1F
100
AcDbEntity
  8
0
  6
Continuous
100
AcDbPolyline
 90
        6
 70
     1
 43
0.0
 10
-242.172695938081
 20
175.1662998117845
 10
-243.672695938081
 20
172.5682236004312
 10
-242.172695938081
 20
169.9701473890779
 10
-239.172695938081
 20
169.9701473890779
 10
-237.672695938081
 20
172.5682236004312
 10
-239.172695938081
 20
175.1662998117845
  0
LWPOLYLINE
  5
10101
330
1F
100
AcDbEntity
  8
0
100
AcDbPolyline
 90
       44
 70
     1
 43
0.0
 10
188.196298015694
 20
77.64492973279465
 10
264.9952513088555
 20
61.32080828094365
 10
264.9952513088555
 20
61.31226344547923
 42
0.4142135623730898
 10
266.4952513088556
 20
59.81226344547917
 10
283.5552513088556
 20
59.81226344547926
 42
0.4142135623730968
 10
285.0552513088555
 20
61.31226344547923
 10
285.0552513088556
 20
61.9522634454793
 10
321.2452513088556
 20
61.95226344547933
 42
0.4142135623730959
 10
322.7452513088555
 20
63.45226344547928
 10
322.7452513088555
 20
81.00226344547929
 10
325.4052513088557
 20
81.00226344547929
 42
0.4142135623730912
 10
326.9052513088557
 20
82.50226344547929
 10
326.9052513088555
 20
100.0522634454792
 10
329.4752513088555
 20
100.0522634454792
 42
0.4142135623730909
 10
330.9752513088556
 20
101.5522634454793
 10
330.9752513088556
 20
119.1022634454792
 10
333.6452513088555
 20
119.1022634454792
 42
0.4142135623731194
 10
335.1452513088556
 20
120.6022634454793
 10
335.1452513088556
 20
156.7122634454793
 42
0.4142135623731081
 10
333.6452513088555
 20
158.2122634454793
 10
307.0452513088556
 20
158.2122634454793
 42
0.4142135623731075
 10
305.5452513088555
 20
156.7122634454793
 10
305.5452513088555
 20
139.1622634454793
 10
279.2370171164707
 20
139.1622634454793
 10
282.8055410463839
 20
155.950848572544
 42
0.4142135623730889
 10
281.6501871815099
 20
157.7299375098714
 10
255.6510239540054
 20
163.2562302518076
 42
0.4142135623730829
 10
253.8719350166779
 20
162.1008763869334
 10
253.8712560321496
 20
162.097682015877
 10
194.4570065334981
 20
174.7265706035148
 42
0.4142135623730569
 10
192.6779175961708
 20
173.5712167386408
 10
189.1309441508199
 20
156.8840186701218
 42
0.4142135623730985
 10
190.2862980156941
 20
155.1049297327945
 10
197.9201748147692
 20
153.4822991281705
 10
194.2709441508199
 20
136.3140186701221
 42
0.4142135623730665
 10
195.426298015694
 20
134.5349297327947
 10
203.2692318206835
 20
132.8678626898007
 10
199.62094415082
 20
115.704018670122
 42
0.4142135623730747
 10
200.7762980156941
 20
113.9249297327947
 10
203.9689039933419
 20
113.2463203834187
 10
200.2176107343231
 20
95.5978731675553
 10
192.3670065334981
 20
97.26657060351477
 42
0.4142135623731297
 10
190.5879175961708
 20
96.11121673864074
 10
187.0409441508199
 20
79.42401867012205
 42
0.4142135623731054
  0
LWPOLYLINE
  5
10107
330
1F
100
AcDbEntity
  8
0
100
AcDbPolyline
 90
       44
 70
     1
 43
0.0
 10
18.87525130885541
 20
119.1022634454792
 10
18.87525130885541
 20
101.5522634454793
 42
0.4142135623730603
 10
20.37525130885553
 20
100.0522634454792
 10
23.13525130885535
 20
100.0522634454792
 10
23.1352513088554
 20
82.50226344547929
 42
0.4142135623730777
 10
24.6352513088554
 20
81.0022634454792
 10
27.3052513088557
 20
81.0022634454792
 10
27.30525130885542
 20
63.45226344547928
 42
0.4142135623730985
 10
28.80525130885542
 20
61.95226344547939
 10
84.03525130885569
 20
61.9522634454793
 10
84.03525130885569
 20
61.31226344547929
 42
0.4142135623730951
 10
85.53525130885546
 20
59.81226344547952
 10
104.0652228418696
 20
59.81226344547923
 42
0.0100084863467082
 10
104.1252557170976
 20
59.81346524228718
 10
106.7133483340658
 20
59.91712872468403
 42
0.0423770652102079
 10
106.9651829950642
 20
59.94870552677537
 10
180.9042046020169
 20
75.6649297327948
 42
0.414213562373091
 10
182.0595584668911
 20
77.444018670122
 10
178.4092371138122
 20
94.61743041708883
 10
186.2542046020172
 20
96.2849297327947
 42
0.4142135623730319
 10
187.4095584668911
 20
98.06401867012207
 10
183.8625850215399
 20
114.7512167386407
 42
0.4142135623730739
 10
182.0834960842128
 20
115.9065706035148
 10
178.8907537548024
 20
115.227932271677
 10
175.1413142707204
 20
132.8676581621568
 10
182.993815802998
 20
134.5367588883663
 42
0.4142135623731101
 10
184.1491696678721
 20
136.3158478256938
 10
176.6399739788826
 20
171.6438359620793
 42
0.4142135623730918
 10
174.8608850415552
 20
172.7991898269533
 10
124.5477337430801
 20
162.1047993801657
 42
0.4134306528506967
 10
122.7694839082801
 20
163.2562313665761
 10
96.77031543620115
 20
157.7299375098714
 42
0.4142135623730883
 10
95.61496157132699
 20
155.950848572544
 10
99.18348550124036
 20
139.1622634454793
 10
47.96965130885553
 20
139.1622634454793
 10
47.96965130885553
 20
156.7602634454793
 42
0.414213562373102
 10
46.46965130885535
 20
158.2602634454795
 10
19.86965130885551
 20
158.2602634454793
 42
0.414213562373102
 10
18.36965130885551
 20
156.7602634454793
 10
18.36965130885534
 20
139.1622634454793
 10
16.19650130885543
 20
139.1622634454793
 42
0.414213562373109
 10
14.69650130885532
 20
137.6622634454793
 10
14.69650130885566
 20
120.6022634454793
 42
0.4142135623730951
 10
16.19650130885543
 20
119.1022634454795
  0
LWPOLYLINE
  5
10108
330
1F
100
AcDbEntity
  8
0
100
AcDbPolyline
 90
       20
 70
     1
 43
0.0
 10
329.8652513088557
 20
97.42226344547937
 42
-0.4142135623730959
 10
331.3652513088556
 20
98.9222634454793
 10
333.9352513088556
 20
98.9222634454793
 10
333.9352513088556
 20
116.4722634454793
 42
-0.414213562373109
 10
335.4352513088556
 20
117.9722634454792
 10
352.4952513088555
 20
117.9722634454792
 42
-0.4142135623730898
 10
353.9952513088555
 20
116.4722634454793
 10
353.9952513088555
 20
99.41226344547928
 42
-0.4142135623730882
 10
352.4952513088555
 20
97.91226344547935
 10
349.9252513088557
 20
97.91226344547931
 10
349.9252513088557
 20
80.3622634454793
 42
-0.4142135623730909
 10
348.4252513088555
 20
78.86226344547918
 10
345.7652513088556
 20
78.86226344547925
 10
345.7652513088556
 20
61.31226344547923
 42
-0.4142135623730968
 10
344.2652513088556
 20
59.81226344547926
 10
327.2052513088555
 20
59.81226344547931
 42
-0.4142135623730968
 10
325.7052513088556
 20
61.31226344547918
 10
325.7052513088555
 20
78.37226344547929
 42
-0.4142135623731064
 10
327.2052513088555
 20
79.8722634454792
 10
329.8652513088557
 20
79.8722634454792
  0
LWPOLYLINE
  5
1010B
330
1F
100
AcDbEntity
  8
0
100
AcDbPolyline
 90
       12
 70
     1
 43
0.0
 10
366.4652513088561
 20
52.34226344547922
 42
-0.4142135623730888
 10
361.4652513088562
 20
47.34226344547919
 10
7.226501308856541
 20
47.34226344547926
 42
-0.4142135623730961
 10
2.226501308856541
 20
52.34226344547919
 10
2.226501308856313
 20
165.6822634454791
 42
-0.414213562373091
 10
7.22650130885637
 20
170.6822634454791
 10
88.49883074168273
 20
170.6822634454791
 10
176.2787836761472
 20
189.3404684247849
 42
-0.1051042352656724
 10
192.9117189415676
 20
189.3404684247848
 10
280.6916718760319
 20
170.6822634454791
 10
361.4652513088562
 20
170.6822634454792
 42
-0.414213562373091
 10
366.4652513088562
 20
165.6822634454791
  0
CIRCLE
  5
10115
330
1F
100
AcDbEntity
  8
0
  6
Continuous
100
AcDbCircle
 10
9.676305865969197
 20
163.2370367223453
 30
0.0
 40
1.75
  0
CIRCLE
  5
10123
330
1F
100
AcDbEntity
  8
0
  6
Continuous
100
AcDbCircle
 10
127.9498811854567
 20
172.4227574991676
 30
0.0
 40
1.75
  0
CIRCLE
  5
10125
330
1F
100
AcDbEntity
  8
0
  6
Continuous
100
AcDbCircle
 10
240.7486311854555
 20
172.5287700843009
 30
0.0
 40
1.75
  0
CIRCLE
  5
10127
330
1F
100
AcDbEntity
  8
0
  6
Continuous
100
AcDbCircle
 10
359.0167282243118
 20
163.2312071829963
 30
0.0
 40
1.75
  0
CIRCLE
  5
10129
330
1F
100
AcDbEntity
  8
0
  6
Continuous
100
AcDbCircle
 10
359.0167282243117
 20
54.79501310528412
 30
0.0
 40
1.75
  0
CIRCLE
  5
1012D
330
1F
100
AcDbEntity
  8
0
  6
Continuous
100
AcDbCircle
 10
9.681784146600193
 20
54.79501310528461
 30
0.0
 40
1.75
  0
CIRCLE
  5
1012E
330
1F
100
AcDbEntity
  8
0
  6
Continuous
100
AcDbCircle
 10
127.9498811854567
 20
54.79501310528461
 30
0.0
 40
1.75
  0
CIRCLE
  5
1012F
330
1F
100
AcDbEntity
  8
0
  6
Continuous
100
AcDbCircle
 10
240.7486311854555
 20
54.79501310528412
 30
0.0
 40
1.75
  0
LWPOLYLINE
  5
10142
330
1F
100
AcDbEntity
  8
0
  6
Continuous
100
AcDbPolyline
 90
        6
 70
     1
 43
0.0
 10
-361.2340467532842
 20
318.2911608534011
 10
-362.7340467532842
 20
315.6930846420479
 10
-361.2340467532842
 20
313.0950084306945
 10
-358.2340467532842
 20
313.0950084306945
 10
-356.7340467532842
 20
315.6930846420479
 10
-358.2340467532842
 20
318.2911608534011
  0
LWPOLYLINE
  5
10143
330
1F
100
AcDbEntity
  8
0
  6
Continuous
100
AcDbPolyline
 90
        6
 70
     1
 43
0.0
 10
-361.2340467532842
 20
209.854966775689
 10
-362.7340467532842
 20
207.2568905643357
 10
-361.2340467532842
 20
204.6588143529823
 10
-358.2340467532842
 20
204.6588143529823
 10
-356.7340467532842
 20
207.2568905643357
 10
-358.2340467532842
 20
209.854966775689
  0
LWPOLYLINE
  5
10144
330
1F
100
AcDbEntity
  8
0
  6
Continuous
100
AcDbPolyline
 90
        6
 70
     1
 43
0.0
 10
-11.89910267557275
 20
209.8549667756885
 10
-13.39910267557275
 20
207.2568905643351
 10
-11.89910267557275
 20
204.6588143529818
 10
-8.899102675572748
 20
204.6588143529818
 10
-7.399102675572748
 20
207.2568905643351
 10
-8.899102675572748
 20
209.8549667756885
  0
LWPOLYLINE
  5
10145
330
1F
100
AcDbEntity
  8
0
  6
Continuous
100
AcDbPolyline
 90
        6
 70
     1
 43
0.0
 10
-11.89910267557263
 20
318.2911608534007
 10
-13.39910267557263
 20
315.6930846420473
 10
-11.89910267557263
 20
313.095008430694
 10
-8.899102675572635
 20
313.095008430694
 10
-7.399102675572635
 20
315.6930846420473
 10
-8.899102675572635
 20
318.2911608534007
  0
LWPOLYLINE
  5
10146
330
1F
100
AcDbEntity
  8
0
  6
Continuous
100
AcDbPolyline
 90
        6
 70
     1
 43
0.0
 10
-242.9659497144278
 20
209.854966775689
 10
-244.4659497144277
 20
207.2568905643357
 10
-242.9659497144278
 20
204.6588143529823
 10
-239.9659497144277
 20
204.6588143529823
 10
-238.4659497144277
 20
207.2568905643357
 10
-239.9659497144277
 20
209.854966775689
  0
LWPOLYLINE
  5
10149
330
1F
100
AcDbEntity
  8
0
  6
Continuous
100
AcDbPolyline
 90
        6
 70
     1
 43
0.0
 10
-130.167199714429
 20
209.8549667756885
 10
-131.667199714429
 20
207.2568905643351
 10
-130.167199714429
 20
204.6588143529818
 10
-127.167199714429
 20
204.6588143529818
 10
-125.667199714429
 20
207.2568905643351
 10
-127.167199714429
 20
209.8549667756885
  0
LWPOLYLINE
  5
1014B
330
1F
100
AcDbEntity
  8
0
  6
Continuous
100
AcDbPolyline
 90
        6
 70
     1
 43
0.0
 10
-130.167199714429
 20
327.5887237547053
 10
-131.667199714429
 20
324.990647543352
 10
-130.167199714429
 20
322.3925713319987
 10
-127.167199714429
 20
322.3925713319987
 10
-125.667199714429
 20
324.990647543352
 10
-127.167199714429
 20
327.5887237547053
  0
LWPOLYLINE
  5
1014D
330
1F
100
AcDbEntity
  8
0
  6
Continuous
100
AcDbPolyline
 90
        6
 70
     1
 43
0.0
 10
-242.9659497144278
 20
327.482711169572
 10
-244.4659497144277
 20
324.8846349582187
 10
-242.9659497144278
 20
322.2865587468654
 10
-239.9659497144277
 20
322.2865587468654
 10
-238.4659497144277
 20
324.8846349582187
 10
-239.9659497144277
 20
327.482711169572
  0
LWPOLYLINE
  5
101A3
330
1F
100
AcDbEntity
  8
0
100
AcDbPolyline
 90
       18
 70
     1
 43
0.0
 10
-178.8168622312547
 20
199.8137112424166
 10
-178.8168622312546
 20
215.0494740878433
 42
0.4142135623730951
 10
-179.8168622312547
 20
216.0494740878433
 10
-189.8168622312546
 20
216.0494740878433
 42
0.4142135623730951
 10
-190.8168622312547
 20
215.0494740878433
 10
-190.8168622312547
 20
199.8137112424166
 10
-362.1856132312542
 20
199.8137112424165
 42
-0.4142135623730951
 10
-367.1856132312544
 20
204.8137112424167
 10
-367.1856132312543
 20
318.1537112424166
 42
-0.4142135623730951
 10
-362.1856132312542
 20
323.1537112424165
 10
-280.9132837984281
 20
323.1537112424165
 10
-193.1333308639635
 20
341.8119162217222
 42
-0.1051042352656731
 10
-176.5003955985433
 20
341.8119162217222
 10
-88.72044266407881
 20
323.1537112424165
 10
-7.94686323125444
 20
323.1537112424165
 42
-0.4142135623730951
 10
-2.94686323125444
 20
318.1537112424166
 10
-2.94686323125444
 20
204.8137112424167
 42
-0.4142135623730961
 10
-7.94686323125444
 20
199.8137112424166
  0
LWPOLYLINE
  5
101A4
330
1F
100
AcDbEntity
  8
0
100
AcDbPolyline
 90
        8
 70
     1
 43
0.0
 10
-31.44686323125467
 20
253.4137112424167
 10
-19.44686323125466
 20
253.4137112424167
 42
0.414213562373017
 10
-18.44686323125467
 20
254.4137112424166
 10
-18.44686323125478
 20
266.4137112424167
 42
0.4142135623729417
 10
-19.44686323125466
 20
267.4137112424165
 10
-31.44686323125467
 20
267.4137112424168
 42
0.414213562372965
 10
-32.44686323125478
 20
266.4137112424165
 10
-32.44686323125467
 20
254.4137112424169
 42
0.4142135623729936
  0
LWPOLYLINE
  5
101A5
330
1F
100
AcDbEntity
  8
0
100
AcDbPolyline
 90
        8
 70
     1
 43
0.0
 10
-231.7996476685975
 20
236.3489323025383
 10
-243.5374188774027
 20
233.8539920127252
 42
0.4142135623731154
 10
-244.3076547873193
 20
232.6679327211736
 10
-241.812714497506
 20
220.9301615123678
 42
0.4142135623729082
 10
-240.6266552059541
 20
220.1599256024517
 10
-228.8888839971484
 20
222.6548658922649
 42
0.4142135623730307
 10
-228.1186480872325
 20
223.8409251838166
 10
-230.6135883770456
 20
235.5786963926222
 42
0.4142135623730889
  0
LWPOLYLINE
  5
101A6
330
1F
100
AcDbEntity
  8
0
100
AcDbPolyline
 90
        8
 70
     1
 43
0.0
 10
-287.9768632312544
 20
231.4537112424167
 42
-0.4142135623732667
 10
-286.9768632312544
 20
230.4537112424167
 10
-286.9768632312545
 20
218.4537112424167
 42
-0.4142135623732407
 10
-287.9768632312544
 20
217.4537112424167
 10
-299.9768632312545
 20
217.4537112424166
 42
-0.4142135623731368
 10
-300.9768632312543
 20
218.4537112424167
 10
-300.9768632312543
 20
230.4537112424167
 42
-0.4142135623730118
 10
-299.9768632312547
 20
231.4537112424167
  0
LWPOLYLINE
  5
101A7
330
1F
100
AcDbEntity
  8
0
100
AcDbPolyline
 90
        8
 70
     1
 43
0.0
 10
-131.8901380854637
 20
294.448696392622
 10
-134.3850783752769
 20
282.7109251838164
 42
0.4142135623731062
 10
-133.6148424653607
 20
281.5248658922648
 10
-121.877071256555
 20
279.0299256024517
 42
0.414213562373093
 10
-120.6910119650035
 20
279.8001615123677
 10
-118.1960716751904
 20
291.5379327211735
 42
0.4142135623731424
 10
-118.9663075851068
 20
292.723992012725
 10
-130.7040787939121
 20
295.2189323025382
 42
0.4142135623732441
  0
LWPOLYLINE
  5
101A8
330
1F
100
AcDbEntity
  8
0
100
AcDbPolyline
 90
        8
 70
     1
 43
0.0
 10
-220.3139429933402
 20
257.2386504312518
 10
-217.8190027035269
 20
245.5008792224461
 42
0.4142135623729887
 10
-216.6329434119753
 20
244.7306433125301
 10
-204.8951722031692
 20
247.2255836023432
 42
0.4142135623730114
 10
-204.1249362932534
 20
248.4116428938949
 10
-206.6198765830662
 20
260.1494141027004
 42
0.4142135623730319
 10
-207.8059358746179
 20
260.9196500126165
 10
-219.543707083424
 20
258.4247097228033
 42
0.414213562373036
  0
LWPOLYLINE
  5
101A9
330
1F
100
AcDbEntity
  8
0
100
AcDbPolyline
 90
        8
 70
     1
 43
0.0
 10
-87.10686323125457
 20
236.5037112424166
 42
-0.4142135623731276
 10
-88.10686323125469
 20
237.5037112424167
 10
-88.10686323125464
 20
249.5037112424167
 42
-0.4142135623731315
 10
-87.10686323125457
 20
250.5037112424167
 10
-75.10686323125452
 20
250.5037112424167
 42
-0.4142135623730709
 10
-74.10686323125441
 20
249.5037112424167
 10
-74.10686323125446
 20
237.5037112424167
 42
-0.4142135623730801
 10
-75.10686323125452
 20
236.5037112424166
  0
LWPOLYLINE
  5
101AA
330
1F
100
AcDbEntity
  8
0
100
AcDbPolyline
 90
        8
 70
     1
 43
0.0
 10
-228.9339429933397
 20
274.8886504312518
 10
-226.4390027035268
 20
263.1508792224461
 42
0.4142135623730747
 10
-225.2529434119752
 20
262.3806433125303
 10
-213.5151722031695
 20
264.8755836023434
 42
0.4142135623730871
 10
-212.7449362932536
 20
266.0616428938948
 10
-215.2398765830666
 20
277.7994141027006
 42
0.4142135623731745
 10
-216.4259358746186
 20
278.5696500126166
 10
-228.163707083424
 20
276.0747097228034
 42
0.4142135623731685
  0
LWPOLYLINE
  5
101AB
330
1F
100
AcDbEntity
  8
0
100
AcDbPolyline
 90
        8
 70
     1
 43
0.0
 10
-94.15686323125465
 20
287.6037112424167
 10
-94.15686323125454
 20
275.6037112424166
 42
0.4142135623730964
 10
-93.1568632312546
 20
274.6037112424167
 10
-81.15686323125443
 20
274.6037112424167
 42
0.41421356237303
 10
-80.1568632312543
 20
275.6037112424166
 10
-80.15686323125464
 20
287.6037112424167
 42
0.414213562373017
 10
-81.15686323125453
 20
288.6037112424166
 10
-93.1568632312546
 20
288.6037112424166
 42
0.4142135623729871
  0
LWPOLYLINE
  5
101AC
330
1F
100
AcDbEntity
  8
0
100
AcDbPolyline
 90
        8
 70
     1
 43
0.0
 10
-114.9811306713819
 20
277.5641481821866
 42
-0.4142135623730237
 10
-115.7513665812978
 20
278.7502074737381
 10
-113.2564262914847
 20
290.4879786825437
 42
-0.4142135623730747
 10
-112.0703669999333
 20
291.2582145924598
 10
-100.3325957911276
 20
288.7632743026466
 42
-0.4142135623729396
 10
-99.56235988121159
 20
287.5772150110951
 10
-102.0573001710248
 20
275.8394438022894
 42
-0.4142135623732013
 10
-103.2433594625763
 20
275.0692078923735
  0
LWPOLYLINE
  5
101AD
330
1F
100
AcDbEntity
  8
0
100
AcDbPolyline
 90
        8
 70
     1
 43
0.0
 10
-56.06686323125467
 20
306.6537112424167
 42
-0.414213562373257
 10
-55.06686323125473
 20
307.6537112424166
 10
-43.06686323125461
 20
307.6537112424166
 42
-0.4142135623730105
 10
-42.06686323125473
 20
306.6537112424167
 10
-42.06686323125461
 20
294.6537112424165
 42
-0.414213562373017
 10
-43.06686323125461
 20
293.6537112424166
 10
-55.06686323125473
 20
293.6537112424166
 42
-0.4142135623731197
 10
-56.06686323125462
 20
294.6537112424165
  0
LWPOLYLINE
  5
101AE
330
1F
100
AcDbEntity
  8
0
100
AcDbPolyline
 90
        8
 70
     1
 43
0.0
 10
-185.4912244992746
 20
252.3723606039732
 10
-187.9861647890878
 20
264.1101318127789
 42
0.4142135623731442
 10
-189.1722240806391
 20
264.8803677226949
 10
-200.9099952894448
 20
262.3854274328818
 42
0.4142135623731379
 10
-201.6802311993611
 20
261.1993681413301
 10
-199.1852909095477
 20
249.4615969325245
 42
0.4142135623730431
 10
-197.9992316179961
 20
248.6913610226086
 10
-186.2614604091906
 20
251.1863013124216
 42
0.4142135623731808
  0
LWPOLYLINE
  5
101AF
330
1F
100
AcDbEntity
  8
0
100
AcDbPolyline
 90
        8
 70
     1
 43
0.0
 10
-229.6996476685974
 20
295.2189323025381
 42
-0.4142135623730093
 10
-228.5135883770458
 20
294.4486963926221
 10
-226.0186480872324
 20
282.7109251838164
 42
-0.4142135623732113
 10
-226.7888839971483
 20
281.5248658922649
 10
-238.526655205954
 20
279.0299256024517
 42
-0.4142135623730296
 10
-239.7127144975055
 20
279.8001615123677
 10
-242.207654787319
 20
291.5379327211736
 42
-0.4142135623731277
 10
-241.4374188774029
 20
292.723992012725
  0
LWPOLYLINE
  5
101B0
330
1F
100
AcDbEntity
  8
0
100
AcDbPolyline
 90
        8
 70
     1
 43
0.0
 10
-156.2337311730645
 20
300.6454274328815
 10
-167.9715023818702
 20
303.1403677226947
 42
0.4142135623730951
 10
-169.1575616734216
 20
302.3701318127785
 10
-171.6525019632347
 20
290.6323606039731
 42
0.414213562373094
 10
-170.8822660533188
 20
289.4463013124214
 10
-159.1444948445133
 20
286.9513610226083
 42
0.41421356237309
 10
-157.9584355529617
 20
287.7215969325245
 10
-155.4634952631486
 20
299.45936814133
 42
0.4142135623731736
  0
LWPOLYLINE
  5
101B1
330
1F
100
AcDbEntity
  8
0
100
AcDbPolyline
 90
        8
 70
     1
 43
0.0
 10
-110.1711306713819
 20
297.5541481821863
 42
-0.4142135623731099
 10
-110.941366581298
 20
298.7402074737382
 10
-108.4464262914847
 20
310.4779786825438
 42
-0.4142135623730905
 10
-107.2603669999331
 20
311.2482145924598
 10
-95.52259579112785
 20
308.7532743026466
 42
-0.414213562373066
 10
-94.7523598812117
 20
307.5672150110951
 10
-97.24730017102485
 20
295.8294438022894
 42
-0.414213562373077
 10
-98.43335946257623
 20
295.0592078923737
  0
LWPOLYLINE
  5
101B2
330
1F
100
AcDbEntity
  8
0
100
AcDbPolyline
 90
        8
 70
     1
 43
0.0
 10
-165.532266053319
 20
268.8363013124213
 42
-0.414213562373094
 10
-166.3025019632349
 20
270.022360603973
 10
-163.8075616734219
 20
281.7601318127786
 42
-0.4142135623731379
 10
-162.6215023818701
 20
282.5303677226947
 10
-150.8837311730644
 20
280.0354274328817
 42
-0.4142135623730838
 10
-150.1134952631484
 20
278.8493681413302
 10
-152.6084355529615
 20
267.1115969325246
 42
-0.4142135623729461
 10
-153.7944948445134
 20
266.3413610226085
  0
LWPOLYLINE
  5
101B3
330
1F
100
AcDbEntity
  8
0
100
AcDbPolyline
 90
        8
 70
     1
 43
0.0
 10
-206.6192316179964
 20
266.3413610226086
 10
-194.8814604091905
 20
268.8363013124215
 42
0.4142135623731745
 10
-194.1112244992744
 20
270.0223606039731
 10
-196.6061647890875
 20
281.7601318127787
 42
0.4142135623729553
 10
-197.7922240806391
 20
282.5303677226947
 10
-209.5299952894448
 20
280.0354274328817
 42
0.4142135623731725
 10
-210.300231199361
 20
278.8493681413302
 10
-207.8052909095481
 20
267.1115969325246
 42
0.4142135623730319
  0
LWPOLYLINE
  5
101B4
330
1F
100
AcDbEntity
  8
0
100
AcDbPolyline
 90
        8
 70
     1
 43
0.0
 10
-275.986863231255
 20
235.443711242417
 42
-0.4142135623730534
 10
-276.9868632312545
 20
236.4437112424166
 10
-276.9868632312543
 20
248.4437112424167
 42
-0.4142135623729806
 10
-275.986863231255
 20
249.4437112424168
 10
-263.986863231255
 20
249.4437112424167
 42
-0.4142135623731368
 10
-262.9868632312547
 20
248.4437112424167
 10
-262.9868632312547
 20
236.4437112424166
 42
-0.414213562372991
 10
-263.9868632312549
 20
235.4437112424168
  0
LWPOLYLINE
  5
101B5
330
1F
100
AcDbEntity
  8
0
100
AcDbPolyline
 90
        8
 70
     1
 43
0.0
 10
-298.2968632312547
 20
274.6037112424167
 10
-286.2968632312547
 20
274.6037112424166
 42
0.4142135623730222
 10
-285.2968632312546
 20
275.6037112424166
 10
-285.2968632312547
 20
287.6037112424167
 42
0.4142135623729701
 10
-286.2968632312547
 20
288.6037112424166
 10
-298.2968632312547
 20
288.6037112424166
 42
0.4142135623729286
 10
-299.2968632312547
 20
287.6037112424167
 10
-299.2968632312546
 20
275.6037112424166
 42
0.4142135623729494
  0
LWPOLYLINE
  5
101B6
330
1F
100
AcDbEntity
  8
0
100
AcDbPolyline
 90
        8
 70
     1
 43
0.0
 10
-174.2964262914847
 20
322.9379786825437
 42
-0.4142135623732175
 10
-173.1103669999332
 20
323.7082145924597
 10
-159.044604501381
 20
320.7184444785004
 42
-0.4142135623731705
 10
-158.2743685914648
 20
319.5323851869487
 10
-160.7693088812781
 20
307.7946139781432
 42
-0.4142135623729461
 10
-161.9553681728295
 20
307.0243780682272
 10
-176.0211306713816
 20
310.0141481821867
 42
-0.4142135623732085
 10
-176.7913665812976
 20
311.2002074737381
  0
LWPOLYLINE
  5
101B7
330
1F
100
AcDbEntity
  8
0
100
AcDbPolyline
 90
        8
 70
     1
 43
0.0
 10
-211.0659358746181
 20
299.1796500126165
 10
-222.8037070834237
 20
296.6847097228035
 42
0.4142135623729686
 10
-223.5739429933401
 20
295.4986504312517
 10
-221.0790027035268
 20
283.7608792224461
 42
0.414213562373344
 10
-219.8929434119753
 20
282.99064331253
 10
-208.1551722031695
 20
285.4855836023432
 42
0.4142135623730871
 10
-207.3849362932536
 20
286.6716428938945
 10
-209.8798765830666
 20
298.4094141027004
 42
0.4142135623730788
  0
LWPOLYLINE
  5
101B8
330
1F
100
AcDbEntity
  8
0
100
AcDbPolyline
 90
        8
 70
     1
 43
0.0
 10
-295.6168632312543
 20
249.5037112424167
 42
-0.4142135623731159
 10
-294.6168632312545
 20
250.5037112424168
 10
-282.6168632312544
 20
250.5037112424166
 42
-0.4142135623730326
 10
-281.616863231255
 20
249.5037112424167
 10
-281.616863231255
 20
237.5037112424167
 42
-0.4142135623732407
 10
-282.616863231255
 20
236.5037112424167
 10
-294.6168632312545
 20
236.5037112424166
 42
-0.4142135623731368
 10
-295.6168632312543
 20
237.5037112424167
  0
LWPOLYLINE
  5
101B9
330
1F
100
AcDbEntity
  8
0
100
AcDbPolyline
 90
        8
 70
     1
 43
0.0
 10
-266.2468632312547
 20
275.6037112424166
 10
-266.2468632312547
 20
287.6037112424167
 42
0.4142135623730013
 10
-267.246863231255
 20
288.6037112424166
 10
-279.2468632312547
 20
288.6037112424167
 42
0.4142135623730847
 10
-280.2468632312547
 20
287.6037112424166
 10
-280.2468632312546
 20
275.6037112424166
 42
0.4142135623729494
 10
-279.2468632312547
 20
274.6037112424167
 10
-267.2468632312547
 20
274.6037112424167
 42
0.4142135623730118
  0
LWPOLYLINE
  5
101BA
330
1F
100
AcDbEntity
  8
0
100
AcDbPolyline
 90
        8
 70
     1
 43
0.0
 10
-61.60986323125484
 20
255.5537112424166
 10
-44.84686323125487
 20
255.5537112424167
 42
0.4142135623731308
 10
-43.84686323125476
 20
256.5537112424167
 10
-43.8468632312547
 20
268.5537112424166
 42
0.4142135623731354
 10
-44.84686323125487
 20
269.5537112424166
 10
-61.60986323125491
 20
269.5537112424166
 42
0.4142135623730569
 10
-62.6098632312549
 20
268.5537112424166
 10
-62.60986323125485
 20
256.5537112424166
 42
0.4142135623730563
  0
LWPOLYLINE
  5
101BB
330
1F
100
AcDbEntity
  8
0
100
AcDbPolyline
 90
        8
 70
     1
 43
0.0
 10
-82.74686323125463
 20
230.4537112424167
 10
-82.74686323125463
 20
218.4537112424167
 42
0.4142135623733018
 10
-81.7468632312544
 20
217.4537112424166
 10
-69.74686323125462
 20
217.4537112424167
 42
0.4142135623732517
 10
-68.74686323125468
 20
218.4537112424167
 10
-68.74686323125462
 20
230.4537112424167
 42
0.4142135623732583
 10
-69.74686323125462
 20
231.4537112424167
 10
-81.7468632312544
 20
231.4537112424168
 42
0.4142135623731354
  0
LWPOLYLINE
  5
101BC
330
1F
100
AcDbEntity
  8
0
100
AcDbPolyline
 90
        8
 70
     1
 43
0.0
 10
-127.9210119650035
 20
222.9101615123678
 42
-0.4142135623730925
 10
-129.107071256555
 20
222.1399256024518
 10
-140.8448424653611
 20
224.6348658922649
 42
-0.4142135623732277
 10
-141.6150783752769
 20
225.8209251838164
 10
-139.1201380854637
 20
237.5586963926221
 42
-0.414213562372989
 10
-137.9340787939123
 20
238.3289323025382
 10
-126.1963075851065
 20
235.8339920127251
 42
-0.4142135623731823
 10
-125.4260716751905
 20
234.6479327211735
  0
LWPOLYLINE
  5
101BD
330
1F
100
AcDbEntity
  8
0
100
AcDbPolyline
 90
        8
 70
     1
 43
0.0
 10
-235.2666552059541
 20
240.7699256024517
 10
-223.5288839971484
 20
243.264865892265
 42
0.4142135623730296
 10
-222.7586480872324
 20
244.4509251838164
 10
-225.2535883770455
 20
256.1886963926221
 42
0.4142135623731154
 10
-226.4396476685973
 20
256.9589323025383
 10
-238.1774188774028
 20
254.4639920127252
 42
0.4142135623731379
 10
-238.9476547873191
 20
253.2779327211735
 10
-236.4527144975061
 20
241.5401615123679
 42
0.4142135623730889
  0
LWPOLYLINE
  5
101BE
330
1F
100
AcDbEntity
  8
0
100
AcDbPolyline
 90
        8
 70
     1
 43
0.0
 10
-250.0123598812116
 20
258.1402074737382
 42
-0.4142135623729787
 10
-250.7825957911276
 20
256.9541481821867
 10
-262.5203669999332
 20
254.4592078923735
 42
-0.4142135623729359
 10
-263.7064262914849
 20
255.2294438022895
 10
-266.201366581298
 20
266.9672150110951
 42
-0.4142135623730625
 10
-265.431130671382
 20
268.1532743026467
 10
-253.6933594625763
 20
270.6482145924598
 42
-0.4142135623729686
 10
-252.5073001710244
 20
269.8779786825438
  0
LWPOLYLINE
  5
101BF
330
1F
100
AcDbEntity
  8
0
100
AcDbPolyline
 90
        8
 70
     1
 43
0.0
 10
-257.5813665812981
 20
249.3172150110951
 10
-255.0864262914847
 20
237.5794438022895
 42
0.4142135623730463
 10
-253.9003669999333
 20
236.8092078923735
 10
-242.1625957911278
 20
239.3041481821866
 42
0.4142135623730736
 10
-241.3923598812117
 20
240.4902074737382
 10
-243.8873001710245
 20
252.2279786825439
 42
0.414213562373191
 10
-245.0733594625759
 20
252.9982145924599
 10
-256.8111306713819
 20
250.5032743026467
 42
0.4142135623728829
  0
LWPOLYLINE
  5
101C0
330
1F
100
AcDbEntity
  8
0
100
AcDbPolyline
 90
        8
 70
     1
 43
0.0
 10
-51.29686323125463
 20
250.5037112424167
 42
-0.414213562373136
 10
-50.29686323125452
 20
249.5037112424167
 10
-50.29686323125457
 20
237.5037112424167
 42
-0.4142135623731451
 10
-51.29686323125463
 20
236.5037112424167
 10
-63.29686323125452
 20
236.5037112424166
 42
-0.4142135623731272
 10
-64.29686323125469
 20
237.5037112424167
 10
-64.29686323125463
 20
249.5037112424167
 42
-0.4142135623731312
 10
-63.29686323125452
 20
250.5037112424167
  0
LWPOLYLINE
  5
101C1
330
1F
100
AcDbEntity
  8
0
100
AcDbPolyline
 90
        8
 70
     1
 43
0.0
 10
-144.4738498794428
 20
258.1694141027006
 42
-0.4142135623730522
 10
-143.2877905878912
 20
258.9396500126165
 10
-131.5500193790855
 20
256.4447097228035
 42
-0.4142135623731062
 10
-130.7797834691693
 20
255.2586504312518
 10
-133.2747237589826
 20
243.520879222446
 42
-0.4142135623730768
 10
-134.460783050534
 20
242.7506433125302
 10
-146.19855425934
 20
245.2455836023431
 42
-0.414213562373094
 10
-146.968790169256
 20
246.4316428938948
  0
LWPOLYLINE
  5
101C2
330
1F
100
AcDbEntity
  8
0
100
AcDbPolyline
 90
        8
 70
     1
 43
0.0
 10
-300.6668632312545
 20
237.5037112424167
 42
-0.4142135623730793
 10
-301.6668632312546
 20
236.5037112424166
 10
-313.6668632312545
 20
236.5037112424165
 42
-0.4142135623731368
 10
-314.6668632312547
 20
237.5037112424167
 10
-314.6668632312545
 20
249.5037112424167
 42
-0.4142135623730744
 10
-313.6668632312545
 20
250.5037112424167
 10
-301.6668632312546
 20
250.5037112424167
 42
-0.4142135623731159
 10
-300.6668632312549
 20
249.5037112424167
  0
LWPOLYLINE
  5
101C3
330
1F
100
AcDbEntity
  8
0
100
AcDbPolyline
 90
        8
 70
     1
 43
0.0
 10
-132.2500193790856
 20
276.0747097228036
 42
-0.4142135623731528
 10
-131.4797834691693
 20
274.8886504312517
 10
-133.9747237589826
 20
263.1508792224461
 42
-0.4142135623730905
 10
-135.1607830505342
 20
262.3806433125301
 10
-146.8985542593401
 20
264.875583602343
 42
-0.4142135623730031
 10
-147.6687901692558
 20
266.0616428938947
 10
-145.1738498794426
 20
277.7994141027004
 42
-0.4142135623732604
 10
-143.9877905878911
 20
278.5696500126163
  0
LWPOLYLINE
  5
101C4
330
1F
100
AcDbEntity
  8
0
100
AcDbPolyline
 90
        8
 70
     1
 43
0.0
 10
-268.346863231255
 20
216.3137112424167
 42
-0.4142135623732407
 10
-269.346863231255
 20
215.3137112424167
 10
-281.3468632312551
 20
215.313711242417
 42
-0.4142135623731106
 10
-282.3468632312545
 20
216.3137112424167
 10
-282.346863231255
 20
228.3137112424167
 42
-0.4142135623731262
 10
-281.3468632312551
 20
229.3137112424168
 10
-269.346863231255
 20
229.3137112424167
 42
-0.4142135623730951
 10
-268.3468632312547
 20
228.3137112424167
  0
LWPOLYLINE
  5
101C5
330
1F
100
AcDbEntity
  8
0
100
AcDbPolyline
 90
        8
 70
     1
 43
0.0
 10
-271.606863231255
 20
256.5537112424167
 42
-0.4142135623730744
 10
-272.6068632312545
 20
255.5537112424167
 10
-284.6068632312551
 20
255.5537112424168
 42
-0.414213562373168
 10
-285.6068632312547
 20
256.5537112424167
 10
-285.6068632312546
 20
268.5537112424166
 42
-0.4142135623732303
 10
-284.6068632312551
 20
269.5537112424166
 10
-272.6068632312545
 20
269.5537112424168
 42
-0.4142135623732199
 10
-271.6068632312544
 20
268.5537112424166
  0
LWPOLYLINE
  5
101C6
330
1F
100
AcDbEntity
  8
0
100
AcDbPolyline
 90
        8
 70
     1
 43
0.0
 10
-303.6568632312547
 20
255.5537112424167
 42
-0.4142135623730951
 10
-304.6568632312546
 20
256.5537112424167
 10
-304.6568632312548
 20
268.5537112424166
 42
-0.4142135623730744
 10
-303.6568632312547
 20
269.5537112424166
 10
-291.6568632312544
 20
269.5537112424167
 42
-0.4142135623732303
 10
-290.6568632312546
 20
268.5537112424166
 10
-290.6568632312546
 20
256.5537112424167
 42
-0.4142135623729494
 10
-291.6568632312543
 20
255.5537112424167
  0
LWPOLYLINE
  5
101C7
330
1F
100
AcDbEntity
  8
0
100
AcDbPolyline
 90
        8
 70
     1
 43
0.0
 10
-262.941366581298
 20
228.7072150110951
 10
-260.4464262914847
 20
216.9694438022895
 42
0.4142135623730463
 10
-259.2603669999334
 20
216.1992078923735
 10
-247.5225957911276
 20
218.6941481821867
 42
0.4142135623731165
 10
-246.7523598812117
 20
219.8802074737382
 10
-249.2473001710248
 20
231.6179786825438
 42
0.4142135623729574
 10
-250.4333594625759
 20
232.3882145924597
 10
-262.1711306713819
 20
229.8932743026468
 42
0.4142135623730951
  0
LWPOLYLINE
  5
101C8
330
1F
100
AcDbEntity
  8
0
100
AcDbPolyline
 90
        8
 70
     1
 43
0.0
 10
-244.6523598812116
 20
278.7502074737382
 10
-247.147300171025
 20
290.4879786825437
 42
0.4142135623731808
 10
-248.3333594625763
 20
291.2582145924598
 10
-260.0711306713821
 20
288.7632743026466
 42
0.4142135623730625
 10
-260.8413665812979
 20
287.5772150110951
 10
-258.3464262914847
 20
275.8394438022894
 42
0.4142135623730296
 10
-257.1603669999332
 20
275.0692078923735
 10
-245.4225957911275
 20
277.5641481821866
 42
0.4142135623730625
  0
LWPOLYLINE
  5
101C9
330
1F
100
AcDbEntity
  8
0
100
AcDbPolyline
 90
        8
 70
     1
 43
0.0
 10
-36.51686323125472
 20
247.3637112424168
 42
-0.4142135623731614
 10
-35.51686323125478
 20
248.3637112424166
 10
-23.51686323125477
 20
248.3637112424167
 42
-0.4142135623731966
 10
-22.51686323125438
 20
247.3637112424166
 10
-22.51686323125477
 20
235.3637112424166
 42
-0.4142135623730235
 10
-23.5168632312546
 20
234.3637112424167
 10
-35.51686323125466
 20
234.3637112424167
 42
-0.4142135623729962
 10
-36.51686323125455
 20
235.3637112424166
  0
LWPOLYLINE
  5
101CA
330
1F
100
AcDbEntity
  8
0
100
AcDbPolyline
 90
        8
 70
     1
 43
0.0
 10
-204.9402311993608
 20
299.45936814133
 10
-202.4452909095479
 20
287.7215969325245
 42
0.414213562373018
 10
-201.259231617996
 20
286.9513610226085
 10
-189.5214604091904
 20
289.4463013124216
 42
0.414213562372985
 10
-188.7512244992744
 20
290.6323606039731
 10
-191.2461647890874
 20
302.370131812779
 42
0.4142135623729258
 10
-192.4322240806392
 20
303.1403677226947
 10
-204.1699952894449
 20
300.6454274328816
 42
0.414213562373139
  0
LWPOLYLINE
  5
101CB
330
1F
100
AcDbEntity
  8
0
100
AcDbPolyline
 90
        8
 70
     1
 43
0.0
 10
-151.9084355529615
 20
247.4815969325245
 42
-0.4142135623732013
 10
-153.0944948445129
 20
246.7113610226085
 10
-164.832266053319
 20
249.2063013124215
 42
-0.4142135623731023
 10
-165.6025019632348
 20
250.3923606039731
 10
-163.1075616734218
 20
262.1301318127787
 42
-0.4142135623730951
 10
-161.9215023818701
 20
262.9003677226948
 10
-150.1837311730643
 20
260.4054274328817
 42
-0.4142135623731093
 10
-149.4134952631484
 20
259.2193681413302
  0
LWPOLYLINE
  5
101CC
330
1F
100
AcDbEntity
  8
0
100
AcDbPolyline
 90
        8
 70
     1
 43
0.0
 10
-144.8300193790855
 20
239.7947097228035
 10
-156.5677905878912
 20
242.2896500126167
 42
0.4142135623729991
 10
-157.7538498794432
 20
241.5194141027005
 10
-160.2487901692558
 20
229.7816428938948
 42
0.4142135623731431
 10
-159.4785542593399
 20
228.5955836023432
 10
-147.740783050534
 20
226.1006433125302
 42
0.4142135623730736
 10
-146.5547237589827
 20
226.8708792224461
 10
-144.0597834691693
 20
238.6086504312517
 42
0.4142135623730799
  0
LWPOLYLINE
  5
101CD
330
1F
100
AcDbEntity
  8
0
100
AcDbPolyline
 90
        8
 70
     1
 43
0.0
 10
-194.5322240806391
 20
244.2703677226949
 42
-0.4142135623731442
 10
-193.3461647890875
 20
243.5001318127789
 10
-190.8512244992743
 20
231.7623606039732
 42
-0.4142135623731277
 10
-191.6214604091906
 20
230.5763013124216
 10
-203.3592316179962
 20
228.0813610226084
 42
-0.4142135623731808
 10
-204.5452909095479
 20
228.8515969325245
 10
-207.0402311993607
 20
240.5893681413302
 42
-0.414213562372989
 10
-206.2699952894449
 20
241.7754274328817
  0
LWPOLYLINE
  5
101CE
330
1F
100
AcDbEntity
  8
0
100
AcDbPolyline
 90
        8
 70
     1
 43
0.0
 10
-176.3875616734217
 20
245.4801318127787
 10
-178.8825019632349
 20
233.7423606039731
 42
0.4142135623732604
 10
-178.1122660533189
 20
232.5563013124215
 10
-166.3744948445132
 20
230.0613610226083
 42
0.414213562373037
 10
-165.1884355529614
 20
230.8315969325245
 10
-162.6934952631485
 20
242.5693681413301
 42
0.4142135623731705
 10
-163.4637311730647
 20
243.7554274328817
 10
-175.2015023818704
 20
246.2503677226948
 42
0.4142135623730625
  0
LWPOLYLINE
  5
101CF
330
1F
100
AcDbEntity
  8
0
100
AcDbPolyline
 90
        8
 70
     1
 43
0.0
 10
-213.165935874618
 20
240.3096500126165
 10
-224.903707083424
 20
237.8147097228035
 42
0.4142135623731195
 10
-225.6739429933402
 20
236.6286504312518
 10
-223.1790027035269
 20
224.8908792224462
 42
0.4142135623730685
 10
-221.9929434119753
 20
224.1206433125301
 10
-210.2551722031693
 20
226.6155836023432
 42
0.4142135623730736
 10
-209.4849362932534
 20
227.8016428938948
 10
-211.9798765830665
 20
239.5394141027006
 42
0.4142135623729726
  0
LWPOLYLINE
  5
101D0
330
1F
100
AcDbEntity
  8
0
100
AcDbPolyline
 90
        8
 70
     1
 43
0.0
 10
-26.67686323125475
 20
216.3137112424167
 42
-0.4142135623732524
 10
-27.67686323125474
 20
215.3137112424167
 10
-39.67686323125457
 20
215.3137112424166
 42
-0.4142135623732589
 10
-40.67686323125463
 20
216.3137112424167
 10
-40.67686323125451
 20
228.3137112424167
 42
-0.4142135623732524
 10
-39.67686323125457
 20
229.3137112424167
 10
-27.67686323125474
 20
229.3137112424167
 42
-0.4142135623732577
 10
-26.67686323125469
 20
228.3137112424167
  0
LWPOLYLINE
  5
101D1
330
1F
100
AcDbEntity
  8
0
100
AcDbPolyline
 90
        8
 70
     1
 43
0.0
 10
-88.80686323125457
 20
268.5537112424166
 42
-0.4142135623731186
 10
-87.80686323125463
 20
269.5537112424166
 10
-75.80686323125462
 20
269.5537112424166
 42
-0.4142135623732785
 10
-74.80686323125457
 20
268.5537112424166
 10
-74.80686323125468
 20
256.5537112424167
 42
-0.414213562373257
 10
-75.80686323125462
 20
255.5537112424167
 10
-87.80686323125463
 20
255.5537112424166
 42
-0.4142135623731509
 10
-88.8068632312545
 20
256.5537112424167
  0
LWPOLYLINE
  5
101D2
330
1F
100
AcDbEntity
  8
0
100
AcDbPolyline
 90
        8
 70
     1
 43
0.0
 10
-108.9311306713819
 20
237.3241481821867
 42
-0.4142135623730364
 10
-109.7013665812979
 20
238.5102074737382
 10
-107.2064262914846
 20
250.2479786825438
 42
-0.4142135623731753
 10
-106.0203669999333
 20
251.0182145924598
 10
-94.28259579112761
 20
248.5232743026466
 42
-0.4142135623731178
 10
-93.51235988121164
 20
247.3372150110952
 10
-96.00730017102462
 20
235.5994438022895
 42
-0.4142135623730346
 10
-97.19335946257627
 20
234.8292078923735
  0
LWPOLYLINE
  5
101D3
330
1F
100
AcDbEntity
  8
0
100
AcDbPolyline
 90
       26
 70
     1
 43
0.0
 10
-306.0268632312546
 20
218.4537112424167
 42
-0.4142135623731262
 10
-307.0268632312547
 20
217.4537112424165
 10
-307.1138616283666
 20
217.4537112424166
 10
-307.1138616283665
 20
216.8687147209438
 42
-0.4142142039451535
 10
-308.1138617922793
 20
215.8687126943861
 10
-313.113862611843
 20
215.868712694386
 42
-0.4142142039449661
 10
-314.1138627757562
 20
216.8687147209437
 10
-314.1138627757562
 20
217.4537112424166
 10
-330.9898636867534
 20
217.4537112424166
 10
-330.9898636867534
 20
216.8687147209436
 42
-0.4142136583902775
 10
-331.9898619880208
 20
215.8687126943857
 10
-336.9898609449397
 20
215.8687126943854
 42
-0.4142147495034969
 10
-337.9898629714976
 20
216.8687147209435
 10
-337.9898629714976
 20
217.4537112424166
 10
-338.0768632312546
 20
217.4537112424166
 42
-0.4142135623732667
 10
-339.0768632312547
 20
218.4537112424167
 10
-339.0768632312544
 20
230.4537112424167
 42
-0.4142135623730118
 10
-338.0768632312547
 20
231.4537112424167
 10
-337.9898632312586
 20
231.4537112424167
 10
-337.9898629714976
 20
233.8087123939781
 42
-0.4142147495029662
 10
-336.9898609449401
 20
234.808714420536
 10
-308.1138617922797
 20
234.8087144205365
 42
-0.414214203946579
 10
-307.1138616283665
 20
233.8087123939785
 10
-307.1138632312595
 20
231.4537112424167
 10
-307.0268632312547
 20
231.4537112424166
 42
-0.4142135623729858
 10
-306.0268632312544
 20
230.4537112424167
  0
LWPOLYLINE
  5
101D4
330
1F
100
AcDbEntity
  8
0
100
AcDbPolyline
 90
        8
 70
     1
 43
0.0
 10
-152.2485542593399
 20
285.4855836023432
 10
-140.5107830505339
 20
282.99064331253
 42
0.4142135623730747
 10
-139.3247237589826
 20
283.760879222446
 10
-136.8297834691696
 20
295.4986504312517
 42
0.4142135623731125
 10
-137.6000193790855
 20
296.6847097228035
 10
-149.3377905878911
 20
299.1796500126166
 42
0.4142135623731257
 10
-150.5238498794426
 20
298.4094141027004
 10
-153.0187901692557
 20
286.6716428938945
 42
0.4142135623732154
  0
LWPOLYLINE
  5
101D5
330
1F
100
AcDbEntity
  8
0
100
AcDbPolyline
 90
        8
 70
     1
 43
0.0
 10
-249.4623598812112
 20
298.7402074737382
 42
-0.4142135623729787
 10
-250.2325957911271
 20
297.5541481821866
 10
-261.9703669999331
 20
295.0592078923733
 42
-0.414213562372989
 10
-263.1564262914848
 20
295.8294438022894
 10
-265.6513665812979
 20
307.567215011095
 42
-0.4142135623730625
 10
-264.8811306713819
 20
308.7532743026466
 10
-253.1433594625759
 20
311.2482145924598
 42
-0.4142135623730747
 10
-251.9573001710248
 20
310.4779786825438
  0
LWPOLYLINE
  5
101D6
330
1F
100
AcDbEntity
  8
0
100
AcDbPolyline
 90
        8
 70
     1
 43
0.0
 10
-109.2873001710245
 20
218.9494438022895
 10
-106.7923598812116
 20
230.6872150110953
 42
0.4142135623731605
 10
-107.5625957911275
 20
231.8732743026466
 10
-119.3003669999332
 20
234.3682145924601
 42
0.4142135623731634
 10
-120.4864262914847
 20
233.5979786825438
 10
-122.9813665812978
 20
221.860207473738
 42
0.4142135623730976
 10
-122.2111306713818
 20
220.6741481821866
 10
-110.4733594625763
 20
218.1792078923734
 42
0.4142135623730289
  0
LWPOLYLINE
  5
101D7
330
1F
100
AcDbEntity
  8
0
100
AcDbPolyline
 90
       24
 70
     1
 43
0.0
 10
-128.7611220968652
 20
314.2816441870461
 42
-0.0236356848440723
 10
-128.6697283792322
 20
314.2576537808058
 10
-128.54624459034
 20
314.838599332061
 42
-0.414213658390015
 10
-127.3601865390544
 20
315.6088375774355
 10
-122.469449555673
 20
314.5692793402156
 42
-0.0236321423580752
 10
-122.378069261515
 20
314.5452935130941
 10
-120.1779741414975
 20
314.0776488590362
 42
-0.4142147495030705
 10
-119.4077366706555
 20
312.8915871638672
 10
-122.929760229305
 20
296.321769083552
 42
-0.4142147495031614
 10
-124.1158219244741
 20
295.5515316127085
 10
-152.3608112144402
 20
301.5551894205901
 42
-0.0236316764320144
 10
-152.4521896866365
 20
301.5791748604413
 10
-154.6522866286154
 20
302.0468199017694
 42
-0.4142142039465869
 10
-155.4225222775174
 20
303.2328812096729
 10
-151.9004987188678
 20
319.8026992899882
 42
-0.4142142039448949
 10
-150.7144388456406
 20
320.5729371480974
 10
-145.8237000403174
 20
319.5333785236118
 42
-0.0236316764314986
 10
-145.732321568123
 20
319.5093930837606
 10
-143.5322246261419
 20
319.0417480424323
 42
-0.4142142039450185
 10
-142.7619889772398
 20
317.8556867345286
 10
-142.8836170593545
 20
317.2834715972546
 42
-0.0236356829407833
 10
-142.7903669999333
 20
317.2682145924597
 10
-131.0525957911276
 20
314.7732743026468
 42
-0.0236316354305632
 10
-130.9612174792621
 20
314.7492888968745
  0
LWPOLYLINE
  5
101D8
330
1F
100
AcDbEntity
  8
0
100
AcDbPolyline
 90
        8
 70
     1
 43
0.0
 10
-109.6311306713819
 20
256.9541481821866
 10
-97.89335946257592
 20
254.4592078923734
 42
0.4142135623731839
 10
-96.70730017102455
 20
255.2294438022895
 10
-94.21235988121157
 20
266.9672150110951
 42
0.4142135623730784
 10
-94.98259579112755
 20
268.1532743026468
 10
-106.7203669999331
 20
270.6482145924598
 42
0.414213562373093
 10
-107.9064262914847
 20
269.8779786825438
 10
-110.401366581298
 20
258.1402074737382
 42
0.4142135623729504
  0
LWPOLYLINE
  5
101D9
330
1F
100
AcDbEntity
  8
0
100
AcDbPolyline
 90
        8
 70
     1
 43
0.0
 10
-325.4868632312547
 20
250.5037112424167
 10
-337.4868632312545
 20
250.5037112424167
 42
0.4142135623731888
 10
-338.4868632312548
 20
249.5037112424168
 10
-338.4868632312547
 20
237.5037112424167
 42
0.4142135623729858
 10
-337.4868632312545
 20
236.5037112424166
 10
-325.4868632312547
 20
236.5037112424166
 42
0.4142135623731262
 10
-324.4868632312546
 20
237.5037112424167
 10
-324.4868632312546
 20
249.5037112424167
 42
0.4142135623730744
  0
LWPOLYLINE
  5
101DA
330
1F
100
AcDbEntity
  8
0
100
AcDbPolyline
 90
        8
 70
     1
 43
0.0
 10
-342.2424632312547
 20
293.7017112424166
 10
-330.2424632312544
 20
293.7017112424166
 42
0.4142135623729494
 10
-329.2424632312544
 20
294.7017112424166
 10
-329.2424632312548
 20
306.7017112424167
 42
0.4142135623730534
 10
-330.2424632312547
 20
307.7017112424166
 10
-342.2424632312547
 20
307.7017112424166
 42
0.4142135623730013
 10
-343.2424632312549
 20
306.7017112424167
 10
-343.2424632312547
 20
294.7017112424166
 42
0.4142135623732823
  0
LWPOLYLINE
  5
101DB
330
1F
100
AcDbEntity
  8
0
100
AcDbPolyline
 90
        8
 70
     1
 43
0.0
 10
-247.5676547873191
 20
270.9279327211734
 10
-245.0727144975054
 20
259.1901615123679
 42
0.4142135623728786
 10
-243.8866552059547
 20
258.419925602452
 10
-232.1488839971483
 20
260.9148658922649
 42
0.4142135623729686
 10
-231.3786480872323
 20
262.1009251838166
 10
-233.8735883770456
 20
273.8386963926221
 42
0.4142135623732461
 10
-235.0596476685973
 20
274.6089323025381
 10
-246.7974188774029
 20
272.1139920127249
 42
0.4142135623730296
  0
LWPOLYLINE
  5
101DC
330
1F
100
AcDbEntity
  8
0
100
AcDbPolyline
 90
        8
 70
     1
 43
0.0
 10
-127.5648424653608
 20
241.284865892265
 42
-0.4142135623730552
 10
-128.3350783752767
 20
242.4709251838165
 10
-125.8401380854637
 20
254.208696392622
 42
-0.4142135623731972
 10
-124.6540787939123
 20
254.9789323025381
 10
-112.9163075851066
 20
252.483992012725
 42
-0.4142135623732333
 10
-112.1460716751903
 20
251.2979327211735
 10
-114.6410119650038
 20
239.5601615123678
 42
-0.4142135623732547
 10
-115.8270712565551
 20
238.7899256024518
  0
LWPOLYLINE
  5
101DD
330
1F
100
AcDbEntity
  8
0
100
AcDbPolyline
 90
        8
 70
     1
 43
0.0
 10
-88.38686323125466
 20
229.3137112424167
 10
-100.3868632312547
 20
229.3137112424168
 42
0.4142135623731288
 10
-101.3868632312546
 20
228.3137112424167
 10
-101.3868632312545
 20
216.3137112424167
 42
0.4142135623729832
 10
-100.3868632312547
 20
215.3137112424166
 10
-88.38686323125466
 20
215.3137112424167
 42
0.4142135623731445
 10
-87.38686323125461
 20
216.3137112424167
 10
-87.38686323125454
 20
228.3137112424167
 42
0.4142135623731276
  0
LWPOLYLINE
  5
101DE
330
1F
100
AcDbEntity
  8
0
100
AcDbPolyline
 90
        8
 70
     1
 43
0.0
 10
-49.69686323125455
 20
218.4537112424167
 42
-0.4142135623731451
 10
-50.69686323125461
 20
217.4537112424167
 10
-62.69686323125466
 20
217.4537112424169
 42
-0.4142135623731038
 10
-63.69686323125467
 20
218.4537112424167
 10
-63.69686323125501
 20
230.4537112424167
 42
-0.4142135623730727
 10
-62.69686323125466
 20
231.4537112424167
 10
-50.69686323125461
 20
231.4537112424167
 42
-0.4142135623732589
 10
-49.69686323125461
 20
230.4537112424167
  0
LWPOLYLINE
  5
101DF
330
1F
100
AcDbEntity
  8
0
100
AcDbPolyline
 90
        8
 70
     1
 43
0.0
 10
-113.6163075851065
 20
272.113992012725
 42
-0.4142135623730144
 10
-112.8460716751907
 20
270.9279327211734
 10
-115.3410119650037
 20
259.1901615123679
 42
-0.4142135623730074
 10
-116.5270712565551
 20
258.4199256024518
 10
-128.2648424653609
 20
260.9148658922649
 42
-0.4142135623731129
 10
-129.0350783752769
 20
262.1009251838164
 10
-126.5401380854636
 20
273.8386963926221
 42
-0.4142135623732426
 10
-125.3540787939122
 20
274.6089323025381
  0
LWPOLYLINE
  5
101E0
330
1F
100
AcDbEntity
  8
0
100
AcDbPolyline
 90
       27
 70
     1
 43
0.0
 10
-336.4548645123893
 20
274.6037121261212
 10
-334.0168632312544
 20
274.6037112424167
 10
-319.5788636549244
 20
274.6037112424167
 10
-319.5788636549244
 20
274.0187140056877
 42
0.4142142039450806
 10
-318.5788634910118
 20
273.0187119791301
 10
-313.5788626714479
 20
273.0187119791301
 42
0.4142142039450182
 10
-312.5788625075348
 20
274.0187140056877
 10
-312.578862507535
 20
274.6037112424167
 10
-312.4918632312543
 20
274.6037112424167
 42
0.4142135623732407
 10
-311.4918632312546
 20
275.6037112424166
 10
-311.491863231255
 20
287.6037112424167
 42
0.4142135623730326
 10
-312.4918632312543
 20
288.6037112424165
 10
-312.5788632312596
 20
288.6037112424166
 10
-312.5788625075351
 20
290.9587116787223
 42
0.4142142039466519
 10
-313.5788626714479
 20
291.95871370528
 10
-342.4548618241084
 20
291.9587137052803
 42
0.4142147495031379
 10
-343.4548638506661
 20
290.9587116787223
 10
-343.4548632312587
 20
288.6037112424166
 10
-350.6856132312547
 20
288.6037112424167
 42
0.4142135623730847
 10
-351.6856132312547
 20
287.6037112424166
 10
-351.6856132312545
 20
275.6037112424166
 42
0.4142135623729598
 10
-350.6856132312547
 20
274.6037112424167
 10
-343.4548638506661
 20
274.6037112424167
 10
-343.4548638506661
 20
274.0187140056877
 42
0.4142147495033355
 10
-342.4548618241084
 20
273.0187119791298
 10
-337.4548628671897
 20
273.0187119791301
 42
0.4142136583901161
 10
-336.454864565922
 20
274.0187140056877
  0
LWPOLYLINE
  5
101E1
330
1F
100
AcDbEntity
  8
0
100
AcDbPolyline
 90
       16
 70
     1
 43
0.0
 10
-50.20686323125443
 20
274.6037112424167
 10
-47.76886363793141
 20
274.6037107522012
 10
-47.76886365492441
 20
274.0187140056877
 42
0.4142142039449571
 10
-46.76886349101152
 20
273.0187119791302
 10
-41.76886267144777
 20
273.01871197913
 42
0.4142142039450897
 10
-40.76886250753489
 20
274.0187140056877
 10
-40.76886250753517
 20
290.9587116787223
 42
0.4142142039466805
 10
-41.76886267144777
 20
291.9587137052803
 10
-70.64486182410826
 20
291.9587137052803
 42
0.4142147495031354
 10
-71.64486385066607
 20
290.9587116787223
 10
-71.64486385066613
 20
274.0187140056877
 42
0.4142147495030936
 10
-70.644861824109
 20
273.0187119791298
 10
-65.64486286719045
 20
273.01871197913
 42
0.4142136583901613
 10
-64.64486456592266
 20
274.0187140056877
 10
-64.64486456592266
 20
274.6037112424162
 10
-62.20686323125471
 20
274.6037112424166
  0
LWPOLYLINE
  5
101E2
330
1F
100
AcDbEntity
  8
0
100
AcDbPolyline
 90
       16
 70
     1
 43
0.0
 10
-320.1688636379311
 20
269.5537114875298
 10
-322.6068632312426
 20
269.553711416709
 10
-334.6068632312546
 20
269.5537112424165
 10
-337.0448645123889
 20
269.5537104702568
 10
-337.0448645659219
 20
270.1387084791405
 42
0.4142142039463501
 10
-338.0448647298344
 20
271.1387105057031
 10
-343.0448655493984
 20
271.1387105057031
 42
0.4142142039450495
 10
-344.0448657133115
 20
270.1387084791455
 10
-344.0448657133112
 20
253.198710806111
 42
0.4142142039467247
 10
-343.0448655493983
 20
252.1987087795531
 10
-314.168866396738
 20
252.1987087795532
 42
0.4142147495032315
 10
-313.1688643701801
 20
253.1987108061112
 10
-313.1688643701801
 20
270.1387084791458
 42
0.4142147495033772
 10
-314.1688663967382
 20
271.1387105057037
 10
-319.1688653536569
 20
271.1387105057033
 42
0.4142136583906781
 10
-320.1688636549245
 20
270.1387084791438
  0
LWPOLYLINE
  5
101E3
330
1F
100
AcDbEntity
  8
0
100
AcDbPolyline
 90
       16
 70
     1
 43
0.0
 10
-210.3486360607385
 20
318.8151034498775
 10
-212.7333594625758
 20
318.3082145924597
 10
-224.471130671382
 20
315.8132743026464
 10
-226.8558556145682
 20
315.3063845787839
 10
-226.9774835920844
 20
315.8785989664821
 42
0.4142142039449338
 10
-228.163543465312
 20
316.6488368245913
 10
-233.0542822706353
 20
315.6092782001056
 42
0.4142142039450686
 10
-233.8245179195372
 20
314.4232168922018
 10
-230.3024943608876
 20
297.8533988118868
 42
0.4142142039467195
 10
-229.1164344876598
 20
297.0831609537775
 10
-200.8714451976941
 20
303.0868187616594
 42
0.4142147495031124
 10
-200.1012077268501
 20
304.272880456829
 10
-203.6232312854998
 20
320.8426985371441
 42
0.4142147495035818
 10
-204.8092929806692
 20
321.6129360079877
 10
-209.7000299640508
 20
320.5733777707676
 42
0.4142136583903045
 10
-210.4702637910107
 20
319.3873168501296
  0
CIRCLE
  5
101F3
330
1F
100
AcDbEntity
  8
0
100
AcDbCircle
 10
298.3951052850395
 20
228.4230968393077
 30
0.0
 40
1.75
  0
CIRCLE
  5
101F4
330
1F
100
AcDbEntity
  8
0
100
AcDbCircle
 10
72.15635528504049
 20
228.4230968393078
 30
0.0
 40
1.75
  0
LWPOLYLINE
  5
101FD
330
1F
100
AcDbEntity
  8
0
100
AcDbPolyline
 90
       12
 70
     1
 43
0.0
 10
8.15635528504049
 20
199.7231693400193
 42
-0.4142135623730992
 10
3.156355285040547
 20
204.7231693400193
 10
3.15635528504049
 20
318.0631693400189
 42
-0.4142135623731076
 10
8.15635528504049
 20
323.0631693400188
 10
89.42868471786701
 20
323.0631693400188
 10
177.2086376523311
 20
341.7213743193244
 42
-0.1051042352656794
 10
193.8415729177514
 20
341.7213743193245
 10
281.6215258522155
 20
323.0631693400187
 10
362.3951052850393
 20
323.0631693400188
 42
-0.4142135623731034
 10
367.3951052850394
 20
318.0631693400187
 10
367.3951052850394
 20
204.7231693400191
 42
-0.4142135623730992
 10
362.3951052850395
 20
199.7231693400192
  0
CIRCLE
  5
101FF
330
1F
100
AcDbEntity
  8
0
  6
Continuous
100
AcDbCircle
 10
185.2757302850399
 20
228.4230968393077
 30
0.0
 40
1.75
  0
CIRCLE
  5
10219
330
1F
100
AcDbEntity
  8
0
  6
Continuous
100
AcDbCircle
 10
10.60431239489503
 20
315.6140767891221
 30
0.0
 40
1.75
  0
CIRCLE
  5
1021A
330
1F
100
AcDbEntity
  8
0
  6
Continuous
100
AcDbCircle
 10
128.8778877143825
 20
324.7997975659445
 30
0.0
 40
1.75
  0
CIRCLE
  5
1021B
330
1F
100
AcDbEntity
  8
0
  6
Continuous
100
AcDbCircle
 10
241.6766377143813
 20
324.9058101510777
 30
0.0
 40
1.75
  0
CIRCLE
  5
1021C
330
1F
100
AcDbEntity
  8
0
  6
Continuous
100
AcDbCircle
 10
359.9447347532376
 20
315.6082472497731
 30
0.0
 40
1.75
  0
CIRCLE
  5
1021D
330
1F
100
AcDbEntity
  8
0
  6
Continuous
100
AcDbCircle
 10
359.9447347532375
 20
207.1720531720609
 30
0.0
 40
1.75
  0
CIRCLE
  5
1021E
330
1F
100
AcDbEntity
  8
0
  6
Continuous
100
AcDbCircle
 10
10.60979067552603
 20
207.1720531720614
 30
0.0
 40
1.75
  0
CIRCLE
  5
1021F
330
1F
100
AcDbEntity
  8
0
  6
Continuous
100
AcDbCircle
 10
128.8778877143825
 20
207.1720531720614
 30
0.0
 40
1.75
  0
CIRCLE
  5
10220
330
1F
100
AcDbEntity
  8
0
  6
Continuous
100
AcDbCircle
 10
241.6766377143813
 20
207.1720531720609
 30
0.0
 40
1.75
  0
LWPOLYLINE
  5
10237
330
1F
100
AcDbEntity
  8
0
100
AcDbPolyline
 90
       27
 70
     1
 43
0.0
 10
-191.3385431582892
 20
366.1574722325486
 10
-191.3385431582892
 20
353.1574722325486
 10
-362.7072941582883
 20
353.1574722325489
 42
-0.414213562373091
 10
-367.7072941582882
 20
358.1574722325489
 10
-367.7072941582882
 20
471.4974722325485
 42
-0.4142135623730847
 10
-362.7072941582881
 20
476.4974722325482
 10
-281.4349647254621
 20
476.497472232548
 10
-193.6550117909978
 20
495.1556772118538
 42
-0.1051042352656744
 10
-177.0220765255775
 20
495.1556772118538
 10
-89.24212359111335
 20
476.497472232548
 10
-8.468544158289319
 20
476.4974722325478
 42
-0.4142135623730951
 10
-3.468544158289319
 20
471.4974722325478
 10
-3.468544158289432
 20
358.1574722325484
 42
-0.4142135623730878
 10
-8.468544158289319
 20
353.1574722325483
 10
-179.3385431582893
 20
353.1574722325486
 10
-179.3385431582892
 20
366.1574722325486
 10
-17.96854415828954
 20
366.1574722325483
 42
0.4142135623730934
 10
-16.46854415828949
 20
367.6574722325485
 10
-16.46854415828937
 20
461.9974722325481
 42
0.4142135623731003
 10
-17.96854415828954
 20
463.4974722325482
 10
-90.60847864956713
 20
463.4974722325481
 10
-185.3385441582877
 20
483.6329692438575
 10
-280.0686096670085
 20
463.4974722325484
 10
-353.2072941582886
 20
463.4974722325485
 42
0.414213562373109
 10
-354.7072941582886
 20
461.9974722325484
 10
-354.7072941582885
 20
367.6574722325488
 42
0.4142135623731055
 10
-353.2072941582886
 20
366.1574722325489
  0
LWPOLYLINE
  5
10238
330
1F
100
AcDbEntity
  8
0
  6
Continuous
100
AcDbPolyline
 90
        6
 70
     1
 43
0.0
 10
-361.7553911971447
 20
471.643645482758
 10
-363.2553911971446
 20
469.0455692714047
 10
-361.7553911971447
 20
466.4474930600514
 10
-358.7553911971447
 20
466.4474930600514
 10
-357.2553911971447
 20
469.0455692714047
 10
-358.7553911971447
 20
471.643645482758
  0
LWPOLYLINE
  5
10239
330
1F
100
AcDbEntity
  8
0
  6
Continuous
100
AcDbPolyline
 90
        6
 70
     1
 43
0.0
 10
-361.7553911971447
 20
363.2074514050459
 10
-363.2553911971447
 20
360.6093751936926
 10
-361.7553911971447
 20
358.0112989823393
 10
-358.7553911971447
 20
358.0112989823393
 10
-357.2553911971447
 20
360.6093751936926
 10
-358.7553911971447
 20
363.2074514050459
  0
LWPOLYLINE
  5
1023A
330
1F
100
AcDbEntity
  8
0
  6
Continuous
100
AcDbPolyline
 90
        6
 70
     1
 43
0.0
 10
-12.42044711943322
 20
363.2074514050454
 10
-13.92044711943322
 20
360.6093751936921
 10
-12.42044711943322
 20
358.0112989823387
 10
-9.420447119433219
 20
358.0112989823387
 10
-7.920447119433219
 20
360.6093751936921
 10
-9.420447119433219
 20
363.2074514050454
  0
LWPOLYLINE
  5
1023B
330
1F
100
AcDbEntity
  8
0
  6
Continuous
100
AcDbPolyline
 90
        6
 70
     1
 43
0.0
 10
-12.4204471194331
 20
471.6436454827575
 10
-13.92044711943311
 20
469.0455692714042
 10
-12.4204471194331
 20
466.4474930600509
 10
-9.420447119433106
 20
466.4474930600509
 10
-7.920447119433106
 20
469.0455692714042
 10
-9.420447119433106
 20
471.6436454827575
  0
LWPOLYLINE
  5
1023C
330
1F
100
AcDbEntity
  8
0
  6
Continuous
100
AcDbPolyline
 90
        6
 70
     1
 43
0.0
 10
-243.4872941582882
 20
363.2074514050459
 10
-244.9872941582882
 20
360.6093751936926
 10
-243.4872941582882
 20
358.0112989823393
 10
-240.4872941582882
 20
358.0112989823393
 10
-238.9872941582882
 20
360.6093751936926
 10
-240.4872941582882
 20
363.2074514050459
  0
LWPOLYLINE
  5
1023D
330
1F
100
AcDbEntity
  8
0
  6
Continuous
100
AcDbPolyline
 90
        6
 70
     1
 43
0.0
 10
-130.6885441582894
 20
363.2074514050454
 10
-132.1885441582894
 20
360.6093751936921
 10
-130.6885441582894
 20
358.0112989823387
 10
-127.6885441582894
 20
358.0112989823387
 10
-126.1885441582894
 20
360.6093751936921
 10
-127.6885441582894
 20
363.2074514050454
  0
LWPOLYLINE
  5
1023E
330
1F
100
AcDbEntity
  8
0
  6
Continuous
100
AcDbPolyline
 90
        6
 70
     1
 43
0.0
 10
-130.6885441582894
 20
480.9412083840622
 10
-132.1885441582894
 20
478.3431321727089
 10
-130.6885441582894
 20
475.7450559613555
 10
-127.6885441582894
 20
475.7450559613555
 10
-126.1885441582894
 20
478.3431321727089
 10
-127.6885441582894
 20
480.9412083840622
  0
LWPOLYLINE
  5
1023F
330
1F
100
AcDbEntity
  8
0
  6
Continuous
100
AcDbPolyline
 90
        6
 70
     1
 43
0.0
 10
-243.4872941582882
 20
480.8351957989288
 10
-244.9872941582882
 20
478.2371195875756
 10
-243.4872941582882
 20
475.6390433762223
 10
-240.4872941582882
 20
475.6390433762223
 10
-238.9872941582882
 20
478.2371195875756
 10
-240.4872941582882
 20
480.8351957989288
  0
LWPOLYLINE
  5
10250
330
1F
100
AcDbEntity
  8
0
100
AcDbPolyline
 90
       44
 70
     1
 43
0.0
 10
188.3104348853807
 20
383.4044000626333
 10
265.1093881785422
 20
367.0802786107823
 10
265.1093881785422
 20
367.0717337753179
 42
0.4142135623730898
 10
266.6093881785423
 20
365.5717337753178
 10
283.6693881785422
 20
365.571733775318
 42
0.4142135623730968
 10
285.1693881785422
 20
367.0717337753179
 10
285.1693881785424
 20
367.711733775318
 10
321.3593881785423
 20
367.711733775318
 42
0.4142135623730959
 10
322.8593881785422
 20
369.211733775318
 10
322.8593881785422
 20
386.761733775318
 10
325.5193881785424
 20
386.761733775318
 42
0.4142135623730912
 10
327.0193881785424
 20
388.261733775318
 10
327.0193881785422
 20
405.8117337753179
 10
329.5893881785422
 20
405.8117337753179
 42
0.4142135623730909
 10
331.0893881785422
 20
407.3117337753179
 10
331.0893881785422
 20
424.8617337753178
 10
333.7593881785422
 20
424.8617337753178
 42
0.4142135623731194
 10
335.2593881785423
 20
426.361733775318
 10
335.2593881785423
 20
462.4717337753179
 42
0.4142135623731081
 10
333.7593881785422
 20
463.971733775318
 10
307.1593881785422
 20
463.971733775318
 42
0.4142135623731075
 10
305.6593881785422
 20
462.4717337753179
 10
305.6593881785422
 20
444.921733775318
 10
279.3511539861574
 20
444.921733775318
 10
282.9196779160707
 20
461.7103189023826
 42
0.4142135623730889
 10
281.7643240511966
 20
463.4894078397101
 10
255.7651608236921
 20
469.0157005816462
 42
0.4142135623730829
 10
253.9860718863646
 20
467.8603467167721
 10
253.9853929018363
 20
467.8571523457157
 10
194.5711434031848
 20
480.4860409333535
 42
0.4142135623730569
 10
192.7920544658575
 20
479.3306870684794
 10
189.2450810205067
 20
462.6434889999605
 42
0.4142135623730985
 10
190.4004348853808
 20
460.8644000626331
 10
198.034311684456
 20
459.2417694580092
 10
194.3850810205066
 20
442.0734889999607
 42
0.4142135623730665
 10
195.5404348853807
 20
440.2944000626333
 10
203.3833686903703
 20
438.6273330196394
 10
199.7350810205067
 20
421.4634889999606
 42
0.4142135623730747
 10
200.8904348853808
 20
419.6844000626334
 10
204.0830408630287
 20
419.0057907132574
 10
200.3317476040098
 20
401.3573434973939
 10
192.4811434031848
 20
403.0260409333534
 42
0.4142135623731297
 10
190.7020544658575
 20
401.8706870684794
 10
187.1550810205066
 20
385.1834889999608
 42
0.4142135623731054
  0
LWPOLYLINE
  5
10251
330
1F
100
AcDbEntity
  8
0
100
AcDbPolyline
 90
       44
 70
     1
 43
0.0
 10
18.98938817854213
 20
424.8617337753178
 10
18.98938817854213
 20
407.3117337753179
 42
0.4142135623730603
 10
20.48938817854224
 20
405.8117337753179
 10
23.24938817854206
 20
405.8117337753179
 10
23.24938817854212
 20
388.261733775318
 42
0.4142135623730777
 10
24.74938817854212
 20
386.7617337753179
 10
27.41938817854242
 20
386.7617337753179
 10
27.41938817854214
 20
369.211733775318
 42
0.4142135623730985
 10
28.91938817854214
 20
367.7117337753181
 10
84.1493881785424
 20
367.711733775318
 10
84.1493881785424
 20
367.071733775318
 42
0.4142135623730951
 10
85.64938817854217
 20
365.5717337753182
 10
104.1793597115563
 20
365.5717337753179
 42
0.0100084863467082
 10
104.2393925867843
 20
365.5729355721259
 10
106.8274852037526
 20
365.6765990545228
 42
0.0423770652102079
 10
107.0793198647509
 20
365.708175856614
 10
181.0183414717037
 20
381.4244000626335
 42
0.414213562373091
 10
182.1736953365778
 20
383.2034889999606
 10
178.5233739834989
 20
400.3769007469275
 10
186.3683414717039
 20
402.0444000626334
 42
0.4142135623730319
 10
187.5236953365778
 20
403.8234889999607
 10
183.9767218912267
 20
420.5106870684794
 42
0.4142135623730739
 10
182.1976329538995
 20
421.6660409333535
 10
179.0048906244892
 20
420.9874026015156
 10
175.2554511404071
 20
438.6271284919954
 10
183.1079526726847
 20
440.2962292182049
 42
0.4142135623731101
 10
184.2633065375588
 20
442.0753181555324
 10
176.7541108485693
 20
477.403306291918
 42
0.4142135623730918
 10
174.9750219112419
 20
478.558660156792
 10
124.6618706127669
 20
467.8642697100043
 42
0.4134306528506967
 10
122.8836207779668
 20
469.0157016964148
 10
96.88445230588786
 20
463.4894078397101
 42
0.4142135623730883
 10
95.72909844101372
 20
461.7103189023826
 10
99.2976223709271
 20
444.921733775318
 10
48.08378817854225
 20
444.921733775318
 10
48.08378817854225
 20
462.519733775318
 42
0.414213562373102
 10
46.58378817854208
 20
464.0197337753182
 10
19.98378817854223
 20
464.0197337753179
 42
0.414213562373102
 10
18.48378817854223
 20
462.519733775318
 10
18.48378817854205
 20
444.921733775318
 10
16.31063817854215
 20
444.921733775318
 42
0.414213562373109
 10
14.81063817854203
 20
443.421733775318
 10
14.81063817854237
 20
426.361733775318
 42
0.4142135623730951
 10
16.31063817854215
 20
424.8617337753182
  0
LWPOLYLINE
  5
10252
330
1F
100
AcDbEntity
  8
0
100
AcDbPolyline
 90
       20
 70
     1
 43
0.0
 10
329.9793881785423
 20
403.181733775318
 42
-0.4142135623730959
 10
331.4793881785423
 20
404.6817337753179
 10
334.0493881785424
 20
404.6817337753179
 10
334.0493881785424
 20
422.2317337753179
 42
-0.414213562373109
 10
335.5493881785423
 20
423.7317337753179
 10
352.6093881785422
 20
423.7317337753179
 42
-0.4142135623730898
 10
354.1093881785422
 20
422.2317337753179
 10
354.1093881785422
 20
405.171733775318
 42
-0.4142135623730882
 10
352.6093881785422
 20
403.6717337753179
 10
350.0393881785424
 20
403.6717337753179
 10
350.0393881785424
 20
386.121733775318
 42
-0.4142135623730909
 10
348.5393881785423
 20
384.6217337753179
 10
345.8793881785423
 20
384.6217337753179
 10
345.8793881785423
 20
367.0717337753179
 42
-0.4142135623730968
 10
344.3793881785423
 20
365.571733775318
 10
327.3193881785422
 20
365.571733775318
 42
-0.4142135623730968
 10
325.8193881785423
 20
367.0717337753178
 10
325.8193881785422
 20
384.131733775318
 42
-0.4142135623731064
 10
327.3193881785422
 20
385.6317337753179
 10
329.9793881785423
 20
385.6317337753179
  0
LWPOLYLINE
  5
10253
330
1F
100
AcDbEntity
  8
0
100
AcDbPolyline
 90
       12
 70
     1
 43
0.0
 10
366.5793881785428
 20
358.1017337753179
 42
-0.4142135623730888
 10
361.5793881785429
 20
353.1017337753179
 10
7.340638178543258
 20
353.1017337753179
 42
-0.4142135623730961
 10
2.340638178543258
 20
358.1017337753179
 10
2.340638178543031
 20
471.4417337753178
 42
-0.414213562373091
 10
7.340638178543088
 20
476.4417337753178
 10
88.61296761136944
 20
476.4417337753178
 10
176.3929205458339
 20
495.0999387546236
 42
-0.1051042352656724
 10
193.0258558112543
 20
495.0999387546235
 10
280.8058087457187
 20
476.4417337753178
 10
361.5793881785429
 20
476.4417337753179
 42
-0.414213562373091
 10
366.5793881785429
 20
471.4417337753178
  0
CIRCLE
  5
10254
330
1F
100
AcDbEntity
  8
0
  6
Continuous
100
AcDbCircle
 10
9.790442735655915
 20
468.996507052184
 30
0.0
 40
1.75
  0
CIRCLE
  5
10255
330
1F
100
AcDbEntity
  8
0
  6
Continuous
100
AcDbCircle
 10
128.0640180551434
 20
478.1822278290063
 30
0.0
 40
1.75
  0
CIRCLE
  5
10256
330
1F
100
AcDbEntity
  8
0
  6
Continuous
100
AcDbCircle
 10
240.8627680551422
 20
478.2882404141396
 30
0.0
 40
1.75
  0
CIRCLE
  5
10257
330
1F
100
AcDbEntity
  8
0
  6
Continuous
100
AcDbCircle
 10
359.1308650939985
 20
468.9906775128349
 30
0.0
 40
1.75
  0
CIRCLE
  5
10258
330
1F
100
AcDbEntity
  8
0
  6
Continuous
100
AcDbCircle
 10
359.1308650939984
 20
360.5544834351228
 30
0.0
 40
1.75
  0
CIRCLE
  5
10259
330
1F
100
AcDbEntity
  8
0
  6
Continuous
100
AcDbCircle
 10
9.795921016286911
 20
360.5544834351233
 30
0.0
 40
1.75
  0
CIRCLE
  5
1025A
330
1F
100
AcDbEntity
  8
0
  6
Continuous
100
AcDbCircle
 10
128.0640180551434
 20
360.5544834351233
 30
0.0
 40
1.75
  0
CIRCLE
  5
1025B
330
1F
100
AcDbEntity
  8
0
  6
Continuous
100
AcDbCircle
 10
240.8627680551422
 20
360.5544834351228
 30
0.0
 40
1.75
  0
LWPOLYLINE
  5
10268
330
1F
100
AcDbEntity
  8
0
100
AcDbPolyline
 90
       18
 70
     1
 43
0.0
 10
190.597420644799
 20
47.33955436032323
 10
190.597420644799
 20
62.57531720574988
 42
0.4142135623730951
 10
189.597420644799
 20
63.57531720574988
 10
179.597420644799
 20
63.57531720574986
 42
0.4142135623730951
 10
178.5974206447989
 20
62.57531720574985
 10
178.5974206447989
 20
47.33955436032323
 10
7.228669644799424
 20
47.33955436032312
 42
-0.4142135623730951
 10
2.22866964479931
 20
52.33955436032323
 10
2.228669644799424
 20
165.6795543603231
 42
-0.4142135623730951
 10
7.228669644799424
 20
170.6795543603231
 10
88.50099907762563
 20
170.6795543603231
 10
176.2809520120901
 20
189.3377593396287
 42
-0.1051042352656731
 10
192.9138872775103
 20
189.3377593396287
 10
280.6938402119749
 20
170.6795543603231
 10
361.4674196447992
 20
170.6795543603231
 42
-0.4142135623730951
 10
366.4674196447992
 20
165.6795543603231
 10
366.4674196447992
 20
52.33955436032323
 42
-0.4142135623730961
 10
361.4674196447992
 20
47.33955436032323
  0
ENDSEC
  0
SECTION
  2
OBJECTS
  0
DICTIONARY
  5
C
330
0
100
AcDbDictionary
281
     1
  3
ACAD_CIP_PREVIOUS_PRODUCT_INFO
350
1005A
  3
ACAD_COLOR
350
10036
  3
ACAD_DETAILVIEWSTYLE
350
10051
  3
ACAD_GROUP
350
D
  3
ACAD_LAYOUT
350
10037
  3
ACAD_MATERIAL
350
10004
  3
ACAD_MLEADERSTYLE
350
1004D
  3
ACAD_MLINESTYLE
350
17
  3
ACAD_PLOTSETTINGS
350
10054
  3
ACAD_PLOTSTYLENAME
350
10002
  3
ACAD_SCALELIST
350
1003B
  3
ACAD_SECTIONVIEWSTYLE
350
1004F
  3
ACAD_TABLESTYLE
350
10038
  3
ACAD_VISUALSTYLE
350
1001D
  3
ACDB_RECOMPOSE_DATA
350
10274
  3
AcDbVariableDictionary
350
10074
  0
DICTIONARY
  5
1026C
330
2
100
AcDbDictionary
280
     1
281
     1
  3
ACAD_LAYERSTATES
360
1026D
  0
DICTIONARY
  5
1008F
330
50
100
AcDbDictionary
280
     1
281
     1
  3
ADSK_XREC_LAYER_RECONCILED
360
10090
  0
XRECORD
  5
1005A
102
{ACAD_REACTORS
330
C
102
}
330
C
100
AcDbXrecord
280
     1
300
ACD
300
2020
300
ACD_F_S
  0
DICTIONARY
  5
10036
102
{ACAD_REACTORS
330
C
102
}
330
C
100
AcDbDictionary
281
     1
  0
DICTIONARY
  5
10051
102
{ACAD_REACTORS
330
C
102
}
330
C
100
AcDbDictionary
281
     1
  3
Imperial24
350
10052
  0
DICTIONARY
  5
D
330
C
100
AcDbDictionary
281
     1
  0
DICTIONARY
  5
10037
102
{ACAD_REACTORS
330
C
102
}
330
C
100
AcDbDictionary
281
     1
  3
Model
350
10055
  3
Presentacin1
350
10056
  0
DICTIONARY
  5
10004
102
{ACAD_REACTORS
330
C
102
}
330
C
100
AcDbDictionary
281
     1
  3
ByBlock
350
1000D
  3
ByLayer
350
10005
  3
Global
350
10015
  0
DICTIONARY
  5
1004D
102
{ACAD_REACTORS
330
C
102
}
330
C
100
AcDbDictionary
281
     1
  3
Standard
350
1004E
  0
DICTIONARY
  5
17
330
C
100
AcDbDictionary
281
     1
  3
Standard
350
1003A
  0
DICTIONARY
  5
10054
102
{ACAD_REACTORS
330
C
102
}
330
C
100
AcDbDictionary
281
     1
  0
ACDBDICTIONARYWDFLT
  5
10002
102
{ACAD_REACTORS
330
C
102
}
330
C
100
AcDbDictionary
281
     1
  3
Normal
350
10003
100
AcDbDictionaryWithDefault
340
10003
  0
DICTIONARY
  5
1003B
102
{ACAD_REACTORS
330
C
102
}
330
C
100
AcDbDictionary
281
     1
  3
A0
350
1003C
  3
A1
350
1003D
  3
A2
350
1003E
  3
A3
350
1003F
  3
A4
350
10040
  3
A5
350
10041
  3
A6
350
10042
  3
A7
350
10043
  3
A8
350
10044
  3
A9
350
10045
  3
B0
350
10046
  3
B1
350
10047
  3
B2
350
10048
  3
B3
350
10049
  3
B4
350
1004A
  3
B5
350
1004B
  3
B6
350
1004C
  0
DICTIONARY
  5
1004F
102
{ACAD_REACTORS
330
C
102
}
330
C
100
AcDbDictionary
281
     1
  3
Imperial24
350
10050
  0
DICTIONARY
  5
10038
102
{ACAD_REACTORS
330
C
102
}
330
C
100
AcDbDictionary
281
     1
  3
Standard
350
10039
  0
DICTIONARY
  5
1001D
102
{ACAD_REACTORS
330
C
102
}
330
C
100
AcDbDictionary
281
     1
  3
2dWireframe
350
10023
  3
Basic
350
10022
  3
Brighten
350
10029
  3
ColorChange
350
1002D
  3
Conceptual
350
10026
  3
Dim
350
10028
  3
EdgeColorOff
350
10035
  3
Facepattern
350
1002C
  3
Flat
350
1001E
  3
FlatWithEdges
350
1001F
  3
Gouraud
350
10020
  3
GouraudWithEdges
350
10021
  3
Hidden
350
10025
  3
JitterOff
350
10033
  3
Linepattern
350
1002B
  3
OverhangOff
350
10034
  3
Realistic
350
10027
  3
Shaded
350
10032
  3
Shaded with edges
350
10031
  3
Shades of Gray
350
1002E
  3
Sketchy
350
1002F
  3
Thicken
350
1002A
  3
Wireframe
350
10024
  3
X-Ray
350
10030
  0
XRECORD
  5
10274
102
{ACAD_REACTORS
330
C
102
}
330
C
100
AcDbXrecord
280
     1
 90
        1
330
10039
  0
DICTIONARY
  5
10074
102
{ACAD_REACTORS
330
C
102
}
330
C
100
AcDbDictionary
281
     1
  3
CANNOSCALE
350
1007A
  3
CMLEADERSTYLE
350
10076
  3
CTABLESTYLE
350
10075
  3
CVIEWDETAILSTYLE
350
10077
  3
CVIEWSECTIONSTYLE
350
10078
  3
LAYEREVAL
350
1007C
  3
LAYERNOTIFY
350
1007D
  3
LIGHTINGUNITS
350
1007B
  3
MSLTSCALE
350
10079
  0
DICTIONARY
  5
1026D
102
{ACAD_REACTORS
330
1026C
102
}
330
1026C
100
AcDbDictionary
281
     1
  0
XRECORD
  5
10090
102
{ACAD_REACTORS
330
1008F
102
}
330
1008F
100
AcDbXrecord
280
     1
290
     1
  0
ACDBDETAILVIEWSTYLE
  5
10052
102
{ACAD_REACTORS
330
10051
102
}
330
10051
100
AcDbModelDocViewStyle
 70
     0
  3
Imperial24
290
     0
300
Imperial24
 90
        0
100
AcDbDetailViewStyle
 70
     0
 71
     0
 90
        3
 71
     1
340
11
 62
   256
 40
0.24
340
0
 62
   256
 40
0.24
300

 40
0.36
280
     3
 71
     2
340
0
 90
       25
 62
   256
 71
     3
340
11
 62
   256
 40
0.24
 90
        1
 40
0.75
 90
        1
300
%<\AcVar ViewType \f "%tc1">% %<\AcVar ViewDetailId>%\PESCALA %<\AcVar ViewScale \f "%sn">%
 71
     4
340
0
 90
       25
 62
   256
340
0
 90
       25
 62
   256
280
     0
  0
LAYOUT
  5
10055
102
{ACAD_REACTORS
330
10037
102
}
330
10037
100
AcDbPlotSettings
  1

  2
HP Photosmart 5520 series (Red)
  4

  6

 40
0.0
 41
0.0
 42
0.0
 43
0.0
 44
0.0
 45
0.0
 46
0.0
 47
0.0
 48
0.0
 49
0.0
140
0.0
141
0.0
142
1.0
143
1.0
 70
  1712
 72
     0
 73
     0
 74
     0
  7

 75
     0
147
1.0
 76
     0
 77
     2
 78
   300
148
0.0
149
0.0
100
AcDbLayout
  1
Model
 70
     1
 71
     0
 10
0.0
 20
0.0
 11
12.0
 21
9.0
 12
0.0
 22
0.0
 32
0.0
 14
0.0
 24
0.0
 34
0.0
 15
0.0
 25
0.0
 35
0.0
146
0.0
 13
0.0
 23
0.0
 33
0.0
 16
1.0
 26
0.0
 36
0.0
 17
0.0
 27
1.0
 37
0.0
 76
     0
330
1F
331
10059
  0
LAYOUT
  5
10056
102
{ACAD_REACTORS
330
10037
102
}
330
10037
100
AcDbPlotSettings
  1

  2
HP Photosmart 5520 series (Red)
  4

  6

 40
0.0
 41
0.0
 42
0.0
 43
0.0
 44
0.0
 45
0.0
 46
0.0
 47
0.0
 48
0.0
 49
0.0
140
0.0
141
0.0
142
1.0
143
1.0
 70
   688
 72
     0
 73
     0
 74
     5
  7

 75
    16
147
1.0
 76
     0
 77
     2
 78
   300
148
0.0
149
0.0
100
AcDbLayout
  1
Presentacin1
 70
     1
 71
     1
 10
0.0
 20
0.0
 11
12.0
 21
9.0
 12
0.0
 22
0.0
 32
0.0
 14
1.000000000000000E+20
 24
1.000000000000000E+20
 34
1.000000000000000E+20
 15
-1.000000000000000E+20
 25
-1.000000000000000E+20
 35
-1.000000000000000E+20
146
0.0
 13
0.0
 23
0.0
 33
0.0
 16
1.0
 26
0.0
 36
0.0
 17
0.0
 27
1.0
 37
0.0
 76
     0
330
1B
  0
MATERIAL
  5
1000D
102
{ACAD_XDICTIONARY
360
1000E
102
}
102
{ACAD_REACTORS
330
10004
102
}
330
10004
100
AcDbMaterial
  1
ByBlock
 72
     0
 43
0.0008202099737533
 43
0.0
 43
0.0
 43
0.0
 43
0.0
 43
0.0008202099737533
 43
0.0
 43
0.0
 43
0.0
 43
0.0
 43
1.0
 43
0.0
 43
0.0
 43
0.0
 43
0.0
 43
1.0
 77
     0
 47
0.0008202099737533
 47
0.0
 47
0.0
 47
0.0
 47
0.0
 47
0.0008202099737533
 47
0.0
 47
0.0
 47
0.0
 47
0.0
 47
1.0
 47
0.0
 47
0.0
 47
0.0
 47
0.0
 47
1.0
171
     0
 49
0.0008202099737533
 49
0.0
 49
0.0
 49
0.0
 49
0.0
 49
0.0008202099737533
 49
0.0
 49
0.0
 49
0.0
 49
0.0
 49
1.0
 49
0.0
 49
0.0
 49
0.0
 49
0.0
 49
1.0
175
     0
142
0.0008202099737533
142
0.0
142
0.0
142
0.0
142
0.0
142
0.0008202099737533
142
0.0
142
0.0
142
0.0
142
0.0
142
1.0
142
0.0
142
0.0
142
0.0
142
0.0
142
1.0
179
     0
144
0.0008202099737533
144
0.0
144
0.0
144
0.0
144
0.0
144
0.0008202099737533
144
0.0
144
0.0
144
0.0
144
0.0
144
1.0
144
0.0
144
0.0
144
0.0
144
0.0
144
1.0
147
0.0008202099737533
147
0.0
147
0.0
147
0.0
147
0.0
147
0.0008202099737533
147
0.0
147
0.0
147
0.0
147
0.0
147
1.0
147
0.0
147
0.0
147
0.0
147
0.0
147
1.0
  0
MATERIAL
  5
10005
102
{ACAD_XDICTIONARY
360
10006
102
}
102
{ACAD_REACTORS
330
10004
102
}
330
10004
100
AcDbMaterial
  1
ByLayer
 72
     0
 43
0.0008202099737533
 43
0.0
 43
0.0
 43
0.0
 43
0.0
 43
0.0008202099737533
 43
0.0
 43
0.0
 43
0.0
 43
0.0
 43
1.0
 43
0.0
 43
0.0
 43
0.0
 43
0.0
 43
1.0
 77
     0
 47
0.0008202099737533
 47
0.0
 47
0.0
 47
0.0
 47
0.0
 47
0.0008202099737533
 47
0.0
 47
0.0
 47
0.0
 47
0.0
 47
1.0
 47
0.0
 47
0.0
 47
0.0
 47
0.0
 47
1.0
171
     0
 49
0.0008202099737533
 49
0.0
 49
0.0
 49
0.0
 49
0.0
 49
0.0008202099737533
 49
0.0
 49
0.0
 49
0.0
 49
0.0
 49
1.0
 49
0.0
 49
0.0
 49
0.0
 49
0.0
 49
1.0
175
     0
142
0.0008202099737533
142
0.0
142
0.0
142
0.0
142
0.0
142
0.0008202099737533
142
0.0
142
0.0
142
0.0
142
0.0
142
1.0
142
0.0
142
0.0
142
0.0
142
0.0
142
1.0
179
     0
144
0.0008202099737533
144
0.0
144
0.0
144
0.0
144
0.0
144
0.0008202099737533
144
0.0
144
0.0
144
0.0
144
0.0
144
1.0
144
0.0
144
0.0
144
0.0
144
0.0
144
1.0
147
0.0008202099737533
147
0.0
147
0.0
147
0.0
147
0.0
147
0.0008202099737533
147
0.0
147
0.0
147
0.0
147
0.0
147
1.0
147
0.0
147
0.0
147
0.0
147
0.0
147
1.0
  0
MATERIAL
  5
10015
102
{ACAD_XDICTIONARY
360
10016
102
}
102
{ACAD_REACTORS
330
10004
102
}
330
10004
100
AcDbMaterial
  1
Global
 72
     0
 43
0.0008202099737533
 43
0.0
 43
0.0
 43
0.0
 43
0.0
 43
0.0008202099737533
 43
0.0
 43
0.0
 43
0.0
 43
0.0
 43
1.0
 43
0.0
 43
0.0
 43
0.0
 43
0.0
 43
1.0
 77
     0
 47
0.0008202099737533
 47
0.0
 47
0.0
 47
0.0
 47
0.0
 47
0.0008202099737533
 47
0.0
 47
0.0
 47
0.0
 47
0.0
 47
1.0
 47
0.0
 47
0.0
 47
0.0
 47
0.0
 47
1.0
171
     0
 49
0.0008202099737533
 49
0.0
 49
0.0
 49
0.0
 49
0.0
 49
0.0008202099737533
 49
0.0
 49
0.0
 49
0.0
 49
0.0
 49
1.0
 49
0.0
 49
0.0
 49
0.0
 49
0.0
 49
1.0
175
     0
142
0.0008202099737533
142
0.0
142
0.0
142
0.0
142
0.0
142
0.0008202099737533
142
0.0
142
0.0
142
0.0
142
0.0
142
1.0
142
0.0
142
0.0
142
0.0
142
0.0
142
1.0
179
     0
144
0.0008202099737533
144
0.0
144
0.0
144
0.0
144
0.0
144
0.0008202099737533
144
0.0
144
0.0
144
0.0
144
0.0
144
1.0
144
0.0
144
0.0
144
0.0
144
0.0
144
1.0
147
0.0008202099737533
147
0.0
147
0.0
147
0.0
147
0.0
147
0.0008202099737533
147
0.0
147
0.0
147
0.0
147
0.0
147
1.0
147
0.0
147
0.0
147
0.0
147
0.0
147
1.0
  0
MLEADERSTYLE
  5
1004E
102
{ACAD_REACTORS
330
1004D
102
}
330
1004D
100
AcDbMLeaderStyle
179
     2
170
     2
171
     1
172
     0
 90
        2
 40
0.0
 41
0.0
173
     1
 91
-1056964608
340
14
 92
       -2
290
     1
 42
0.09
291
     1
 43
0.36
  3
Standard
 44
0.18
300

342
11
174
     1
178
     6
175
     1
176
     0
 93
-1056964608
 45
0.18
292
     0
297
     0
 46
0.18
 94
-1056964608
 47
1.0
 49
1.0
140
1.0
293
     1
141
0.0
294
     1
177
     0
142
1.0
295
     0
296
     0
143
0.125
271
     0
272
     9
273
     9
298
     0
  0
MLINESTYLE
  5
1003A
102
{ACAD_REACTORS
330
17
102
}
330
17
100
AcDbMlineStyle
  2
STANDARD
 70
     0
  3

 62
   256
 51
90.0
 52
90.0
 71
     2
 49
0.5
 62
   256
  6
BYLAYER
 49
-0.5
 62
   256
  6
BYLAYER
  0
ACDBPLACEHOLDER
  5
10003
102
{ACAD_REACTORS
330
10002
102
}
330
10002
  0
SCALE
  5
1003C
102
{ACAD_REACTORS
330
1003B
102
}
330
1003B
100
AcDbScale
 70
     0
300
1:1
140
1.0
141
1.0
290
     1
  0
SCALE
  5
1003D
102
{ACAD_REACTORS
330
1003B
102
}
330
1003B
100
AcDbScale
 70
     0
300
1/128" = 1'-0"
140
0.0078125
141
12.0
290
     0
  0
SCALE
  5
1003E
102
{ACAD_REACTORS
330
1003B
102
}
330
1003B
100
AcDbScale
 70
     0
300
1/64" = 1'-0"
140
0.015625
141
12.0
290
     0
  0
SCALE
  5
1003F
102
{ACAD_REACTORS
330
1003B
102
}
330
1003B
100
AcDbScale
 70
     0
300
1/32" = 1'-0"
140
0.03125
141
12.0
290
     0
  0
SCALE
  5
10040
102
{ACAD_REACTORS
330
1003B
102
}
330
1003B
100
AcDbScale
 70
     0
300
1/16" = 1'-0"
140
0.0625
141
12.0
290
     0
  0
SCALE
  5
10041
102
{ACAD_REACTORS
330
1003B
102
}
330
1003B
100
AcDbScale
 70
     0
300
3/32" = 1'-0"
140
0.09375
141
12.0
290
     0
  0
SCALE
  5
10042
102
{ACAD_REACTORS
330
1003B
102
}
330
1003B
100
AcDbScale
 70
     0
300
1/8" = 1'-0"
140
0.125
141
12.0
290
     0
  0
SCALE
  5
10043
102
{ACAD_REACTORS
330
1003B
102
}
330
1003B
100
AcDbScale
 70
     0
300
3/16" = 1'-0"
140
0.1875
141
12.0
290
     0
  0
SCALE
  5
10044
102
{ACAD_REACTORS
330
1003B
102
}
330
1003B
100
AcDbScale
 70
     0
300
1/4" = 1'-0"
140
0.25
141
12.0
290
     0
  0
SCALE
  5
10045
102
{ACAD_REACTORS
330
1003B
102
}
330
1003B
100
AcDbScale
 70
     0
300
3/8" = 1'-0"
140
0.375
141
12.0
290
     0
  0
SCALE
  5
10046
102
{ACAD_REACTORS
330
1003B
102
}
330
1003B
100
AcDbScale
 70
     0
300
1/2" = 1'-0"
140
0.5
141
12.0
290
     0
  0
SCALE
  5
10047
102
{ACAD_REACTORS
330
1003B
102
}
330
1003B
100
AcDbScale
 70
     0
300
3/4" = 1'-0"
140
0.75
141
12.0
290
     0
  0
SCALE
  5
10048
102
{ACAD_REACTORS
330
1003B
102
}
330
1003B
100
AcDbScale
 70
     0
300
1" = 1'-0"
140
1.0
141
12.0
290
     0
  0
SCALE
  5
10049
102
{ACAD_REACTORS
330
1003B
102
}
330
1003B
100
AcDbScale
 70
     0
300
1-1/2" = 1'-0"
140
1.5
141
12.0
290
     0
  0
SCALE
  5
1004A
102
{ACAD_REACTORS
330
1003B
102
}
330
1003B
100
AcDbScale
 70
     0
300
3" = 1'-0"
140
3.0
141
12.0
290
     0
  0
SCALE
  5
1004B
102
{ACAD_REACTORS
330
1003B
102
}
330
1003B
100
AcDbScale
 70
     0
300
6" = 1'-0"
140
6.0
141
12.0
290
     0
  0
SCALE
  5
1004C
102
{ACAD_REACTORS
330
1003B
102
}
330
1003B
100
AcDbScale
 70
     0
300
1'-0" = 1'-0"
140
12.0
141
12.0
290
     0
  0
ACDBSECTIONVIEWSTYLE
  5
10050
102
{ACAD_REACTORS
330
1004F
102
}
330
1004F
100
AcDbModelDocViewStyle
 70
     0
  3
Imperial24
290
     0
300
Imperial24
 90
        0
100
AcDbSectionViewStyle
 70
     0
 71
     0
 90
       78
 71
     1
340
11
 62
   256
 40
0.24
340
0
340
0
 62
   256
 40
0.24
300
I, O, Q, S, X, Z
 40
0.48
 90
        3
 40
0.18
 90
        1
 71
     2
340
0
 90
       25
 62
   256
340
0
 90
       50
 62
   256
 40
0.24
 40
0.0
 40
0.24
 71
     3
340
11
 62
   256
 40
0.24
 90
        1
 40
0.75
 90
        1
300
%<\AcVar ViewType \f "%tc1">% %<\AcVar ViewSectionStartId>%-%<\AcVar ViewSectionEndId>%\PESCALA %<\AcVar ViewScale \f "%sn">%
 71
     4
 62
   256
 62
   257
300
ANSI31
 40
1.0
 90
        0
290
     0
290
     0
 90
        6
 40
0.0
 40
1.570796326794896
 40
0.2617993877991494
 40
1.308996938995747
 40
-0.2617993877991494
 40
1.832595714594046
  0
TABLESTYLE
  5
10039
102
{ACAD_XDICTIONARY
360
10272
102
}
102
{ACAD_REACTORS
330
10038
102
}
330
10038
100
AcDbTableStyle
280
     0
  3
Standard
 70
     0
 71
     0
 40
0.06
 41
0.06
280
     0
281
     0
  7
STANDARD
140
0.18
170
     2
 62
     0
 63
     7
283
     0
 90
      512
 91
        0
  1

274
    -2
284
     1
 64
     0
275
    -2
285
     1
 65
     0
276
    -2
286
     1
 66
     0
277
    -2
287
     1
 67
     0
278
    -2
288
     1
 68
     0
279
    -2
289
     1
 69
     0
  7
STANDARD
140
0.25
170
     5
 62
     0
 63
     7
283
     0
 90
      512
 91
        0
  1

274
    -2
284
     1
 64
     0
275
    -2
285
     1
 65
     0
276
    -2
286
     1
 66
     0
277
    -2
287
     1
 67
     0
278
    -2
288
     1
 68
     0
279
    -2
289
     1
 69
     0
  7
STANDARD
140
0.18
170
     5
 62
     0
 63
     7
283
     0
 90
      512
 91
        0
  1

274
    -2
284
     1
 64
     0
275
    -2
285
     1
 65
     0
276
    -2
286
     1
 66
     0
277
    -2
287
     1
 67
     0
278
    -2
288
     1
 68
     0
279
    -2
289
     1
 69
     0
  0
VISUALSTYLE
  5
10023
102
{ACAD_REACTORS
330
1001D
102
}
330
1001D
100
AcDbVisualStyle
  2
2dWireframe
 70
     4
177
     3
291
     0
 70
    58
 90
        0
176
     1
 90
        2
176
     1
 90
        0
176
     1
 90
        0
176
     1
 40
0.6
176
     1
 40
30.0
176
     1
 62
     7
420
 16777215
176
     1
 90
        1
176
     1
 90
        4
176
     1
 62
     7
176
     1
 62
   257
176
     1
 90
        1
176
     1
 90
        1
176
     1
 40
1.0
176
     1
 90
        0
176
     1
 62
   257
176
     1
 40
1.0
176
     1
 90
        1
176
     1
 90
        6
176
     1
 90
        2
176
     1
 62
     7
176
     1
 90
        5
176
     1
 90
        0
176
     1
 90
        0
176
     1
290
     0
176
     1
 90
        1
176
     1
 40
0.0
176
     1
 90
        0
176
     1
290
     1
176
     1
290
     1
176
     1
290
     0
176
     1
290
     0
176
     1
290
     0
176
     1
290
     0
176
     1
290
     0
176
     1
290
     0
176
     1
290
     0
176
     1
 90
       50
176
     1
 40
0.0
176
     1
 40
1.0
176
     1
 90
        0
176
     1
 62
    18
420
        0
176
     1
 90
       50
176
     1
 90
        3
176
     1
 62
     5
420
      255
176
     1
290
     0
176
     1
 90
       50
176
     1
 90
       50
176
     1
 90
       50
176
     1
290
     0
176
     1
 90
       50
176
     1
 62
   256
176
     0
 40
1.0
176
     0
 90
        2
176
     1
  1
strokes_ogs.tif
176
     1
290
     0
176
     1
 40
1.0
176
     1
 40
1.0
176
     1
  0
VISUALSTYLE
  5
10022
102
{ACAD_REACTORS
330
1001D
102
}
330
1001D
100
AcDbVisualStyle
  2
Basic
 70
     7
177
     3
291
     1
 70
    58
 90
        1
176
     1
 90
        0
176
     1
 90
        1
176
     1
 90
        0
176
     1
 40
0.6
176
     1
 40
30.0
176
     1
 62
     7
420
 16777215
176
     1
 90
        0
176
     1
 90
        4
176
     1
 62
     7
176
     1
 62
   257
176
     1
 90
        1
176
     1
 90
        1
176
     1
 40
1.0
176
     1
 90
        8
176
     1
 62
     7
176
     1
 40
1.0
176
     1
 90
        1
176
     1
 90
        6
176
     1
 90
        2
176
     1
 62
     7
176
     1
 90
        5
176
     1
 90
        0
176
     1
 90
        0
176
     1
290
     0
176
     1
 90
        1
176
     1
 40
0.0
176
     1
 90
        0
176
     1
290
     0
176
     1
290
     1
176
     1
290
     1
176
     1
290
     0
176
     1
290
     0
176
     1
290
     0
176
     1
290
     0
176
     1
290
     0
176
     1
290
     0
176
     1
 90
       50
176
     1
 40
0.0
176
     1
 40
1.0
176
     1
 90
        0
176
     1
 62
    18
420
        0
176
     1
 90
       50
176
     1
 90
        3
176
     1
 62
     5
420
      255
176
     1
290
     0
176
     1
 90
       50
176
     1
 90
       50
176
     1
 90
       50
176
     1
290
     0
176
     1
 90
       50
176
     1
 62
   256
176
     0
 40
1.0
176
     0
 90
        2
176
     1
  1
strokes_ogs.tif
176
     1
290
     0
176
     1
 40
1.0
176
     1
 40
1.0
176
     1
  0
VISUALSTYLE
  5
10029
102
{ACAD_REACTORS
330
1001D
102
}
330
1001D
100
AcDbVisualStyle
  2
Brighten
 70
    12
177
     3
291
     1
 70
    58
 90
        2
176
     1
 90
        2
176
     1
 90
        0
176
     1
 90
        0
176
     1
 40
0.6
176
     1
 40
30.0
176
     1
 62
     7
420
 16777215
176
     1
 90
        1
176
     1
 90
        4
176
     1
 62
     7
176
     1
 62
   257
176
     1
 90
        1
176
     1
 90
        1
176
     1
 40
1.0
176
     1
 90
        8
176
     1
 62
     7
176
     1
 40
1.0
176
     1
 90
        1
176
     1
 90
        6
176
     1
 90
        2
176
     1
 62
     7
176
     1
 90
        5
176
     1
 90
        0
176
     1
 90
        0
176
     1
290
     0
176
     1
 90
        1
176
     1
 40
50.0
176
     1
 90
        0
176
     1
290
     0
176
     1
290
     1
176
     1
290
     1
176
     1
290
     0
176
     1
290
     0
176
     1
290
     0
176
     1
290
     0
176
     1
290
     0
176
     1
290
     0
176
     1
 90
       50
176
     1
 40
0.0
176
     1
 40
1.0
176
     1
 90
        0
176
     1
 62
    18
420
        0
176
     1
 90
       50
176
     1
 90
        3
176
     1
 62
     5
420
      255
176
     1
290
     0
176
     1
 90
       50
176
     1
 90
       50
176
     1
 90
       50
176
     1
290
     0
176
     1
 90
       50
176
     1
 62
   256
176
     0
 40
1.0
176
     0
 90
        2
176
     1
  1
strokes_ogs.tif
176
     1
290
     0
176
     1
 40
1.0
176
     1
 40
1.0
176
     1
  0
VISUALSTYLE
  5
1002D
102
{ACAD_REACTORS
330
1001D
102
}
330
1001D
100
AcDbVisualStyle
  2
ColorChange
 70
    16
177
     3
291
     1
 70
    58
 90
        2
176
     1
 90
        2
176
     1
 90
        3
176
     1
 90
        0
176
     1
 40
0.6
176
     1
 40
30.0
176
     1
 62
     8
420
  8421504
176
     1
 90
        1
176
     1
 90
        4
176
     1
 62
     7
176
     1
 62
   257
176
     1
 90
        1
176
     1
 90
        1
176
     1
 40
1.0
176
     1
 90
        8
176
     1
 62
     8
420
  8421504
176
     1
 40
1.0
176
     1
 90
        1
176
     1
 90
        6
176
     1
 90
        2
176
     1
 62
     7
176
     1
 90
        5
176
     1
 90
        0
176
     1
 90
        0
176
     1
290
     0
176
     1
 90
        1
176
     1
 40
0.0
176
     1
 90
        0
176
     1
290
     0
176
     1
290
     1
176
     1
290
     1
176
     1
290
     0
176
     1
290
     0
176
     1
290
     0
176
     1
290
     0
176
     1
290
     0
176
     1
290
     0
176
     1
 90
       50
176
     1
 40
0.0
176
     1
 40
1.0
176
     1
 90
        0
176
     1
 62
    18
420
        0
176
     1
 90
       50
176
     1
 90
        3
176
     1
 62
     5
420
      255
176
     1
290
     0
176
     1
 90
       50
176
     1
 90
       50
176
     1
 90
       50
176
     1
290
     0
176
     1
 90
       50
176
     1
 62
   256
176
     0
 40
1.0
176
     0
 90
        2
176
     1
  1
strokes_ogs.tif
176
     1
290
     0
176
     1
 40
1.0
176
     1
 40
1.0
176
     1
  0
VISUALSTYLE
  5
10026
102
{ACAD_REACTORS
330
1001D
102
}
330
1001D
100
AcDbVisualStyle
  2
Conceptual
 70
     9
177
     3
291
     0
 70
    58
 90
        3
176
     1
 90
        2
176
     1
 90
        0
176
     1
 90
        0
176
     1
 40
0.6
176
     1
 40
30.0
176
     1
 62
     7
420
 16777215
176
     1
 90
        2
176
     1
 90
        2
176
     1
 62
     7
176
     1
 62
   257
176
     1
 90
        1
176
     1
 90
        1
176
     1
 40
179.0
176
     1
 90
        8
176
     1
 62
     7
176
     1
 40
1.0
176
     1
 90
        1
176
     1
 90
        6
176
     1
 90
        2
176
     1
 62
     7
176
     1
 90
        3
176
     1
 90
        0
176
     1
 90
        0
176
     1
290
     0
176
     1
 90
        1
176
     1
 40
0.0
176
     1
 90
        0
176
     1
290
     0
176
     1
290
     1
176
     1
290
     1
176
     1
290
     0
176
     1
290
     0
176
     1
290
     0
176
     1
290
     0
176
     1
290
     0
176
     1
290
     0
176
     1
 90
       50
176
     1
 40
0.0
176
     1
 40
1.0
176
     1
 90
        0
176
     1
 62
    18
420
        0
176
     1
 90
       50
176
     1
 90
        3
176
     1
 62
     5
420
      255
176
     1
290
     0
176
     1
 90
       50
176
     1
 90
       50
176
     1
 90
       50
176
     1
290
     0
176
     1
 90
       50
176
     1
 62
   256
176
     0
 40
1.0
176
     0
 90
        2
176
     1
  1
strokes_ogs.tif
176
     1
290
     0
176
     1
 40
1.0
176
     1
 40
1.0
176
     1
  0
VISUALSTYLE
  5
10028
102
{ACAD_REACTORS
330
1001D
102
}
330
1001D
100
AcDbVisualStyle
  2
Dim
 70
    11
177
     3
291
     1
 70
    58
 90
        2
176
     1
 90
        2
176
     1
 90
        0
176
     1
 90
        0
176
     1
 40
0.6
176
     1
 40
30.0
176
     1
 62
     7
420
 16777215
176
     1
 90
        1
176
     1
 90
        4
176
     1
 62
     7
176
     1
 62
   257
176
     1
 90
        1
176
     1
 90
        1
176
     1
 40
1.0
176
     1
 90
        8
176
     1
 62
     7
176
     1
 40
1.0
176
     1
 90
        1
176
     1
 90
        6
176
     1
 90
        2
176
     1
 62
     7
176
     1
 90
        5
176
     1
 90
        0
176
     1
 90
        0
176
     1
290
     0
176
     1
 90
        1
176
     1
 40
-50.0
176
     1
 90
        0
176
     1
290
     0
176
     1
290
     1
176
     1
290
     1
176
     1
290
     0
176
     1
290
     0
176
     1
290
     0
176
     1
290
     0
176
     1
290
     0
176
     1
290
     0
176
     1
 90
       50
176
     1
 40
0.0
176
     1
 40
1.0
176
     1
 90
        0
176
     1
 62
    18
420
        0
176
     1
 90
       50
176
     1
 90
        3
176
     1
 62
     5
420
      255
176
     1
290
     0
176
     1
 90
       50
176
     1
 90
       50
176
     1
 90
       50
176
     1
290
     0
176
     1
 90
       50
176
     1
 62
   256
176
     0
 40
1.0
176
     0
 90
        2
176
     1
  1
strokes_ogs.tif
176
     1
290
     0
176
     1
 40
1.0
176
     1
 40
1.0
176
     1
  0
VISUALSTYLE
  5
10035
102
{ACAD_REACTORS
330
1001D
102
}
330
1001D
100
AcDbVisualStyle
  2
EdgeColorOff
 70
    22
177
     3
291
     1
 70
    58
 90
        2
176
     0
 90
        2
176
     0
 90
        0
176
     0
 90
        0
176
     0
 40
0.6
176
     0
 40
30.0
176
     0
 62
     7
420
 16777215
176
     0
 90
        1
176
     0
 90
        4
176
     0
 62
     7
176
     0
 62
   257
176
     0
 90
        1
176
     0
 90
        1
176
     0
 40
1.0
176
     0
 90
        8
176
     2
 62
     7
176
     0
 40
1.0
176
     0
 90
        1
176
     0
 90
        6
176
     0
 90
        2
176
     0
 62
     7
176
     0
 90
        5
176
     0
 90
        0
176
     0
 90
        0
176
     0
290
     0
176
     0
 90
        1
176
     0
 40
0.0
176
     0
 90
        0
176
     0
290
     0
176
     1
290
     1
176
     1
290
     1
176
     1
290
     0
176
     1
290
     0
176
     1
290
     0
176
     1
290
     0
176
     1
290
     0
176
     1
290
     0
176
     1
 90
       50
176
     0
 40
0.0
176
     0
 40
1.0
176
     0
 90
        0
176
     0
 62
    18
420
        0
176
     0
 90
       50
176
     0
 90
        3
176
     0
 62
     5
420
      255
176
     0
290
     0
176
     1
 90
       50
176
     0
 90
       50
176
     0
 90
       50
176
     0
290
     0
176
     1
 90
       50
176
     0
 62
   256
176
     0
 40
1.0
176
     0
 90
        2
176
     0
  1
strokes_ogs.tif
176
     0
290
     0
176
     1
 40
1.0
176
     0
 40
1.0
176
     0
  0
VISUALSTYLE
  5
1002C
102
{ACAD_REACTORS
330
1001D
102
}
330
1001D
100
AcDbVisualStyle
  2
Facepattern
 70
    15
177
     3
291
     1
 70
    58
 90
        2
176
     1
 90
        2
176
     1
 90
        0
176
     1
 90
        0
176
     1
 40
0.6
176
     1
 40
30.0
176
     1
 62
     7
420
 16777215
176
     1
 90
        1
176
     1
 90
        4
176
     1
 62
     7
176
     1
 62
   257
176
     1
 90
        1
176
     1
 90
        1
176
     1
 40
1.0
176
     1
 90
        8
176
     1
 62
     7
176
     1
 40
1.0
176
     1
 90
        1
176
     1
 90
        6
176
     1
 90
        2
176
     1
 62
     7
176
     1
 90
        5
176
     1
 90
        0
176
     1
 90
        0
176
     1
290
     0
176
     1
 90
        1
176
     1
 40
0.0
176
     1
 90
        0
176
     1
290
     0
176
     1
290
     1
176
     1
290
     1
176
     1
290
     0
176
     1
290
     0
176
     1
290
     0
176
     1
290
     0
176
     1
290
     0
176
     1
290
     0
176
     1
 90
       50
176
     1
 40
0.0
176
     1
 40
1.0
176
     1
 90
        0
176
     1
 62
    18
420
        0
176
     1
 90
       50
176
     1
 90
        3
176
     1
 62
     5
420
      255
176
     1
290
     0
176
     1
 90
       50
176
     1
 90
       50
176
     1
 90
       50
176
     1
290
     0
176
     1
 90
       50
176
     1
 62
   256
176
     0
 40
1.0
176
     0
 90
        2
176
     1
  1
strokes_ogs.tif
176
     1
290
     0
176
     1
 40
1.0
176
     1
 40
1.0
176
     1
  0
VISUALSTYLE
  5
1001E
102
{ACAD_REACTORS
330
1001D
102
}
330
1001D
100
AcDbVisualStyle
  2
Flat
 70
     0
177
     3
291
     1
 70
    58
 90
        2
176
     1
 90
        1
176
     1
 90
        1
176
     1
 90
        2
176
     1
 40
0.6
176
     1
 40
30.0
176
     1
 62
     7
420
 16777215
176
     1
 90
        0
176
     1
 90
        0
176
     1
 62
     7
176
     1
 62
   257
176
     1
 90
        1
176
     1
 90
        1
176
     1
 40
1.0
176
     1
 90
        8
176
     1
 62
     7
176
     1
 40
1.0
176
     1
 90
        1
176
     1
 90
        6
176
     1
 90
        2
176
     1
 62
     7
176
     1
 90
        5
176
     1
 90
        0
176
     1
 90
        0
176
     1
290
     0
176
     1
 90
       13
176
     1
 40
0.0
176
     1
 90
        0
176
     1
290
     0
176
     1
290
     1
176
     1
290
     1
176
     1
290
     0
176
     1
290
     0
176
     1
290
     0
176
     1
290
     0
176
     1
290
     0
176
     1
290
     0
176
     1
 90
       50
176
     1
 40
0.0
176
     1
 40
1.0
176
     1
 90
        0
176
     1
 62
    18
420
        0
176
     1
 90
       50
176
     1
 90
        3
176
     1
 62
     5
420
      255
176
     1
290
     0
176
     1
 90
       50
176
     1
 90
       50
176
     1
 90
       50
176
     1
290
     0
176
     1
 90
       50
176
     1
 62
   256
176
     0
 40
1.0
176
     0
 90
        2
176
     1
  1
strokes_ogs.tif
176
     1
290
     0
176
     1
 40
1.0
176
     1
 40
1.0
176
     1
  0
VISUALSTYLE
  5
1001F
102
{ACAD_REACTORS
330
1001D
102
}
330
1001D
100
AcDbVisualStyle
  2
FlatWithEdges
 70
     1
177
     3
291
     1
 70
    58
 90
        2
176
     1
 90
        1
176
     1
 90
        1
176
     1
 90
        2
176
     1
 40
0.6
176
     1
 40
30.0
176
     1
 62
     7
420
 16777215
176
     1
 90
        1
176
     1
 90
        0
176
     1
 62
     7
176
     1
 62
   257
176
     1
 90
        1
176
     1
 90
        1
176
     1
 40
1.0
176
     1
 90
        0
176
     1
 62
   257
176
     1
 40
1.0
176
     1
 90
        1
176
     1
 90
        6
176
     1
 90
        2
176
     1
 62
     7
176
     1
 90
        5
176
     1
 90
        0
176
     1
 90
        0
176
     1
290
     0
176
     1
 90
       13
176
     1
 40
0.0
176
     1
 90
        0
176
     1
290
     0
176
     1
290
     1
176
     1
290
     1
176
     1
290
     0
176
     1
290
     0
176
     1
290
     0
176
     1
290
     0
176
     1
290
     0
176
     1
290
     0
176
     1
 90
       50
176
     1
 40
0.0
176
     1
 40
1.0
176
     1
 90
        0
176
     1
 62
    18
420
        0
176
     1
 90
       50
176
     1
 90
        3
176
     1
 62
     5
420
      255
176
     1
290
     0
176
     1
 90
       50
176
     1
 90
       50
176
     1
 90
       50
176
     1
290
     0
176
     1
 90
       50
176
     1
 62
   256
176
     0
 40
1.0
176
     0
 90
        2
176
     1
  1
strokes_ogs.tif
176
     1
290
     0
176
     1
 40
1.0
176
     1
 40
1.0
176
     1
  0
VISUALSTYLE
  5
10020
102
{ACAD_REACTORS
330
1001D
102
}
330
1001D
100
AcDbVisualStyle
  2
Gouraud
 70
     2
177
     3
291
     1
 70
    58
 90
        2
176
     1
 90
        2
176
     1
 90
        1
176
     1
 90
        2
176
     1
 40
0.6
176
     1
 40
30.0
176
     1
 62
     7
420
 16777215
176
     1
 90
        0
176
     1
 90
        0
176
     1
 62
     7
176
     1
 62
   257
176
     1
 90
        1
176
     1
 90
        1
176
     1
 40
1.0
176
     1
 90
        0
176
     1
 62
     7
176
     1
 40
1.0
176
     1
 90
        1
176
     1
 90
        6
176
     1
 90
        2
176
     1
 62
     7
176
     1
 90
        5
176
     1
 90
        0
176
     1
 90
        0
176
     1
290
     0
176
     1
 90
       13
176
     1
 40
0.0
176
     1
 90
        0
176
     1
290
     0
176
     1
290
     1
176
     1
290
     1
176
     1
290
     0
176
     1
290
     0
176
     1
290
     0
176
     1
290
     0
176
     1
290
     0
176
     1
290
     0
176
     1
 90
       50
176
     1
 40
0.0
176
     1
 40
1.0
176
     1
 90
        0
176
     1
 62
    18
420
        0
176
     1
 90
       50
176
     1
 90
        3
176
     1
 62
     5
420
      255
176
     1
290
     0
176
     1
 90
       50
176
     1
 90
       50
176
     1
 90
       50
176
     1
290
     0
176
     1
 90
       50
176
     1
 62
   256
176
     0
 40
1.0
176
     0
 90
        2
176
     1
  1
strokes_ogs.tif
176
     1
290
     0
176
     1
 40
1.0
176
     1
 40
1.0
176
     1
  0
VISUALSTYLE
  5
10021
102
{ACAD_REACTORS
330
1001D
102
}
330
1001D
100
AcDbVisualStyle
  2
GouraudWithEdges
 70
     3
177
     3
291
     1
 70
    58
 90
        2
176
     1
 90
        2
176
     1
 90
        1
176
     1
 90
        2
176
     1
 40
0.6
176
     1
 40
30.0
176
     1
 62
     7
420
 16777215
176
     1
 90
        1
176
     1
 90
        0
176
     1
 62
     7
176
     1
 62
   257
176
     1
 90
        1
176
     1
 90
        1
176
     1
 40
1.0
176
     1
 90
        0
176
     1
 62
   257
176
     1
 40
1.0
176
     1
 90
        1
176
     1
 90
        6
176
     1
 90
        2
176
     1
 62
     7
176
     1
 90
        5
176
     1
 90
        0
176
     1
 90
        0
176
     1
290
     0
176
     1
 90
       13
176
     1
 40
0.0
176
     1
 90
        0
176
     1
290
     0
176
     1
290
     1
176
     1
290
     1
176
     1
290
     0
176
     1
290
     0
176
     1
290
     0
176
     1
290
     0
176
     1
290
     0
176
     1
290
     0
176
     1
 90
       50
176
     1
 40
0.0
176
     1
 40
1.0
176
     1
 90
        0
176
     1
 62
    18
420
        0
176
     1
 90
       50
176
     1
 90
        3
176
     1
 62
     5
420
      255
176
     1
290
     0
176
     1
 90
       50
176
     1
 90
       50
176
     1
 90
       50
176
     1
290
     0
176
     1
 90
       50
176
     1
 62
   256
176
     0
 40
1.0
176
     0
 90
        2
176
     1
  1
strokes_ogs.tif
176
     1
290
     0
176
     1
 40
1.0
176
     1
 40
1.0
176
     1
  0
VISUALSTYLE
  5
10025
102
{ACAD_REACTORS
330
1001D
102
}
330
1001D
100
AcDbVisualStyle
  2
Hidden
 70
     6
177
     3
291
     0
 70
    58
 90
        1
176
     1
 90
        2
176
     1
 90
        2
176
     1
 90
        0
176
     1
 40
0.6
176
     1
 40
30.0
176
     1
 62
     7
420
 16777215
176
     1
 90
        2
176
     1
 90
        2
176
     1
 62
     7
176
     1
 62
   257
176
     1
 90
        2
176
     1
 90
        1
176
     1
 40
40.0
176
     1
 90
        0
176
     1
 62
   257
176
     1
 40
1.0
176
     1
 90
        1
176
     1
 90
        6
176
     1
 90
        2
176
     1
 62
     7
176
     1
 90
        3
176
     1
 90
        0
176
     1
 90
        0
176
     1
290
     0
176
     1
 90
        1
176
     1
 40
0.0
176
     1
 90
        0
176
     1
290
     0
176
     1
290
     1
176
     1
290
     1
176
     1
290
     0
176
     1
290
     0
176
     1
290
     0
176
     1
290
     0
176
     1
290
     0
176
     1
290
     0
176
     1
 90
       50
176
     1
 40
0.0
176
     1
 40
1.0
176
     1
 90
        0
176
     1
 62
    18
420
        0
176
     1
 90
       50
176
     1
 90
        3
176
     1
 62
     5
420
      255
176
     1
290
     0
176
     1
 90
       50
176
     1
 90
       50
176
     1
 90
       50
176
     1
290
     0
176
     1
 90
       50
176
     1
 62
   256
176
     0
 40
1.0
176
     0
 90
        2
176
     1
  1
strokes_ogs.tif
176
     1
290
     0
176
     1
 40
1.0
176
     1
 40
1.0
176
     1
  0
VISUALSTYLE
  5
10033
102
{ACAD_REACTORS
330
1001D
102
}
330
1001D
100
AcDbVisualStyle
  2
JitterOff
 70
    20
177
     3
291
     1
 70
    58
 90
        2
176
     0
 90
        2
176
     0
 90
        0
176
     0
 90
        0
176
     0
 40
0.6
176
     0
 40
30.0
176
     0
 62
     7
420
 16777215
176
     0
 90
        1
176
     0
 90
        4
176
     0
 62
     7
176
     0
 62
   257
176
     0
 90
        1
176
     0
 90
        1
176
     0
 40
1.0
176
     0
 90
       10
176
     2
 62
     7
176
     0
 40
1.0
176
     0
 90
        1
176
     0
 90
        6
176
     0
 90
        2
176
     0
 62
     7
176
     0
 90
        5
176
     0
 90
        0
176
     0
 90
        0
176
     0
290
     0
176
     0
 90
        1
176
     0
 40
0.0
176
     0
 90
        0
176
     0
290
     0
176
     1
290
     1
176
     1
290
     1
176
     1
290
     0
176
     1
290
     0
176
     1
290
     0
176
     1
290
     0
176
     1
290
     0
176
     1
290
     0
176
     1
 90
       50
176
     0
 40
0.0
176
     0
 40
1.0
176
     0
 90
        0
176
     0
 62
    18
420
        0
176
     0
 90
       50
176
     0
 90
        3
176
     0
 62
     5
420
      255
176
     0
290
     0
176
     1
 90
       50
176
     0
 90
       50
176
     0
 90
       50
176
     0
290
     0
176
     1
 90
       50
176
     0
 62
   256
176
     0
 40
1.0
176
     0
 90
        2
176
     0
  1
strokes_ogs.tif
176
     0
290
     0
176
     1
 40
1.0
176
     0
 40
1.0
176
     0
  0
VISUALSTYLE
  5
1002B
102
{ACAD_REACTORS
330
1001D
102
}
330
1001D
100
AcDbVisualStyle
  2
Linepattern
 70
    14
177
     3
291
     1
 70
    58
 90
        2
176
     1
 90
        2
176
     1
 90
        0
176
     1
 90
        0
176
     1
 40
0.6
176
     1
 40
30.0
176
     1
 62
     7
420
 16777215
176
     1
 90
        1
176
     1
 90
        4
176
     1
 62
     7
176
     1
 62
   257
176
     1
 90
        7
176
     1
 90
        7
176
     1
 40
1.0
176
     1
 90
        8
176
     1
 62
     7
176
     1
 40
1.0
176
     1
 90
        1
176
     1
 90
        6
176
     1
 90
        2
176
     1
 62
     7
176
     1
 90
        5
176
     1
 90
        0
176
     1
 90
        0
176
     1
290
     0
176
     1
 90
        1
176
     1
 40
0.0
176
     1
 90
        0
176
     1
290
     0
176
     1
290
     1
176
     1
290
     1
176
     1
290
     0
176
     1
290
     0
176
     1
290
     0
176
     1
290
     0
176
     1
290
     0
176
     1
290
     0
176
     1
 90
       50
176
     1
 40
0.0
176
     1
 40
1.0
176
     1
 90
        0
176
     1
 62
    18
420
        0
176
     1
 90
       50
176
     1
 90
        3
176
     1
 62
     5
420
      255
176
     1
290
     0
176
     1
 90
       50
176
     1
 90
       50
176
     1
 90
       50
176
     1
290
     0
176
     1
 90
       50
176
     1
 62
   256
176
     0
 40
1.0
176
     0
 90
        2
176
     1
  1
strokes_ogs.tif
176
     1
290
     0
176
     1
 40
1.0
176
     1
 40
1.0
176
     1
  0
VISUALSTYLE
  5
10034
102
{ACAD_REACTORS
330
1001D
102
}
330
1001D
100
AcDbVisualStyle
  2
OverhangOff
 70
    21
177
     3
291
     1
 70
    58
 90
        2
176
     0
 90
        2
176
     0
 90
        0
176
     0
 90
        0
176
     0
 40
0.6
176
     0
 40
30.0
176
     0
 62
     7
420
 16777215
176
     0
 90
        1
176
     0
 90
        4
176
     0
 62
     7
176
     0
 62
   257
176
     0
 90
        1
176
     0
 90
        1
176
     0
 40
1.0
176
     0
 90
        9
176
     2
 62
     7
176
     0
 40
1.0
176
     0
 90
        1
176
     0
 90
        6
176
     0
 90
        2
176
     0
 62
     7
176
     0
 90
        5
176
     0
 90
        0
176
     0
 90
        0
176
     0
290
     0
176
     0
 90
        1
176
     0
 40
0.0
176
     0
 90
        0
176
     0
290
     0
176
     1
290
     1
176
     1
290
     1
176
     1
290
     0
176
     1
290
     0
176
     1
290
     0
176
     1
290
     0
176
     1
290
     0
176
     1
290
     0
176
     1
 90
       50
176
     0
 40
0.0
176
     0
 40
1.0
176
     0
 90
        0
176
     0
 62
    18
420
        0
176
     0
 90
       50
176
     0
 90
        3
176
     0
 62
     5
420
      255
176
     0
290
     0
176
     1
 90
       50
176
     0
 90
       50
176
     0
 90
       50
176
     0
290
     0
176
     1
 90
       50
176
     0
 62
   256
176
     0
 40
1.0
176
     0
 90
        2
176
     0
  1
strokes_ogs.tif
176
     0
290
     0
176
     1
 40
1.0
176
     0
 40
1.0
176
     0
  0
VISUALSTYLE
  5
10027
102
{ACAD_REACTORS
330
1001D
102
}
330
1001D
100
AcDbVisualStyle
  2
Realistic
 70
     8
177
     3
291
     0
 70
    58
 90
        2
176
     1
 90
        3
176
     1
 90
        0
176
     1
 90
        2
176
     1
 40
0.6
176
     1
 40
30.0
176
     1
 62
     7
420
 16777215
176
     1
 90
        0
176
     1
 90
        0
176
     1
 62
     7
176
     1
 62
   257
176
     1
 90
        1
176
     1
 90
        1
176
     1
 40
1.0
176
     1
 90
        8
176
     1
 62
   257
176
     1
 40
1.0
176
     1
 90
        1
176
     1
 90
        6
176
     1
 90
        2
176
     1
 62
     7
176
     1
 90
        3
176
     1
 90
        0
176
     1
 90
        0
176
     1
290
     0
176
     1
 90
       13
176
     1
 40
0.0
176
     1
 90
        0
176
     1
290
     0
176
     1
290
     1
176
     1
290
     1
176
     1
290
     0
176
     1
290
     0
176
     1
290
     0
176
     1
290
     0
176
     1
290
     0
176
     1
290
     0
176
     1
 90
       50
176
     1
 40
0.0
176
     1
 40
1.0
176
     1
 90
        0
176
     1
 62
    18
420
        0
176
     1
 90
       50
176
     1
 90
        3
176
     1
 62
     5
420
      255
176
     1
290
     0
176
     1
 90
       50
176
     1
 90
       50
176
     1
 90
       50
176
     1
290
     0
176
     1
 90
       50
176
     1
 62
   256
176
     0
 40
1.0
176
     0
 90
        2
176
     1
  1
strokes_ogs.tif
176
     1
290
     0
176
     1
 40
1.0
176
     1
 40
1.0
176
     1
  0
VISUALSTYLE
  5
10032
102
{ACAD_REACTORS
330
1001D
102
}
330
1001D
100
AcDbVisualStyle
  2
Shaded
 70
    27
177
     3
291
     0
 70
    58
 90
        2
176
     1
 90
        2
176
     1
 90
        1
176
     1
 90
        2
176
     1
 40
0.6
176
     1
 40
30.0
176
     1
 62
     7
420
 16777215
176
     1
 90
        0
176
     1
 90
        4
176
     1
 62
     7
176
     1
 62
   257
176
     1
 90
        1
176
     1
 90
        1
176
     1
 40
1.0
176
     1
 90
        8
176
     1
 62
   257
176
     1
 40
1.0
176
     1
 90
        1
176
     1
 90
        6
176
     1
 90
        2
176
     1
 62
     8
420
  7895160
176
     1
 90
        3
176
     1
 90
        0
176
     1
 90
        0
176
     1
290
     0
176
     1
 90
        5
176
     1
 40
0.0
176
     1
 90
        0
176
     1
290
     0
176
     1
290
     1
176
     1
290
     1
176
     1
290
     0
176
     1
290
     0
176
     1
290
     0
176
     1
290
     0
176
     1
290
     0
176
     1
290
     0
176
     1
 90
       50
176
     1
 40
0.0
176
     1
 40
1.0
176
     1
 90
        0
176
     1
 62
    18
420
        0
176
     1
 90
       50
176
     1
 90
        3
176
     1
 62
     5
420
      255
176
     1
290
     0
176
     1
 90
       50
176
     1
 90
       50
176
     1
 90
       50
176
     1
290
     0
176
     1
 90
       50
176
     1
 62
   256
176
     0
 40
1.0
176
     0
 90
        2
176
     1
  1
strokes_ogs.tif
176
     1
290
     0
176
     1
 40
1.0
176
     1
 40
1.0
176
     1
  0
VISUALSTYLE
  5
10031
102
{ACAD_REACTORS
330
1001D
102
}
330
1001D
100
AcDbVisualStyle
  2
Shaded with edges
 70
    26
177
     3
291
     0
 70
    58
 90
        2
176
     1
 90
        2
176
     1
 90
        1
176
     1
 90
        2
176
     1
 40
0.6
176
     1
 40
30.0
176
     1
 62
     7
420
 16777215
176
     1
 90
        1
176
     1
 90
        2
176
     1
 62
     7
176
     1
 62
   257
176
     1
 90
        2
176
     1
 90
        1
176
     1
 40
1.0
176
     1
 90
        8
176
     1
 62
   257
176
     1
 40
1.0
176
     1
 90
        1
176
     1
 90
        6
176
     1
 90
        2
176
     1
 62
     7
176
     1
 90
        3
176
     1
 90
        0
176
     1
 90
        0
176
     1
290
     0
176
     1
 90
        5
176
     1
 40
0.0
176
     1
 90
        0
176
     1
290
     0
176
     1
290
     1
176
     1
290
     1
176
     1
290
     0
176
     1
290
     0
176
     1
290
     0
176
     1
290
     0
176
     1
290
     0
176
     1
290
     0
176
     1
 90
       50
176
     1
 40
0.0
176
     1
 40
1.0
176
     1
 90
        0
176
     1
 62
    18
420
        0
176
     1
 90
       50
176
     1
 90
        3
176
     1
 62
     5
420
      255
176
     1
290
     0
176
     1
 90
       50
176
     1
 90
       50
176
     1
 90
       50
176
     1
290
     0
176
     1
 90
       50
176
     1
 62
   256
176
     0
 40
1.0
176
     0
 90
        2
176
     1
  1
strokes_ogs.tif
176
     1
290
     0
176
     1
 40
1.0
176
     1
 40
1.0
176
     1
  0
VISUALSTYLE
  5
1002E
102
{ACAD_REACTORS
330
1001D
102
}
330
1001D
100
AcDbVisualStyle
  2
Shades of Gray
 70
    23
177
     3
291
     0
 70
    58
 90
        2
176
     1
 90
        2
176
     1
 90
        3
176
     1
 90
        0
176
     1
 40
0.6
176
     1
 40
30.0
176
     1
 62
     7
420
 16777215
176
     1
 90
        2
176
     1
 90
        2
176
     1
 62
     7
176
     1
 62
     7
176
     1
 90
        1
176
     1
 90
        1
176
     1
 40
40.0
176
     1
 90
        8
176
     1
 62
     7
176
     1
 40
1.0
176
     1
 90
        1
176
     1
 90
        6
176
     1
 90
        2
176
     1
 62
     7
176
     1
 90
        3
176
     1
 90
        0
176
     1
 90
        0
176
     1
290
     0
176
     1
 90
        1
176
     1
 40
0.0
176
     1
 90
        0
176
     1
290
     0
176
     1
290
     1
176
     1
290
     1
176
     1
290
     0
176
     1
290
     0
176
     1
290
     0
176
     1
290
     0
176
     1
290
     0
176
     1
290
     0
176
     1
 90
       50
176
     1
 40
0.0
176
     1
 40
1.0
176
     1
 90
        0
176
     1
 62
    18
420
        0
176
     1
 90
       50
176
     1
 90
        3
176
     1
 62
     5
420
      255
176
     1
290
     0
176
     1
 90
       50
176
     1
 90
       50
176
     1
 90
       50
176
     1
290
     0
176
     1
 90
       50
176
     1
 62
   256
176
     0
 40
1.0
176
     0
 90
        2
176
     1
  1
strokes_ogs.tif
176
     1
290
     0
176
     1
 40
1.0
176
     1
 40
1.0
176
     1
  0
VISUALSTYLE
  5
1002F
102
{ACAD_REACTORS
330
1001D
102
}
330
1001D
100
AcDbVisualStyle
  2
Sketchy
 70
    24
177
     3
291
     0
 70
    58
 90
        1
176
     1
 90
        2
176
     1
 90
        2
176
     1
 90
        0
176
     1
 40
0.6
176
     1
 40
30.0
176
     1
 62
     7
420
 16777215
176
     1
 90
        2
176
     1
 90
        2
176
     1
 62
     7
176
     1
 62
     7
176
     1
 90
        1
176
     1
 90
        1
176
     1
 40
40.0
176
     1
 90
       11
176
     1
 62
     7
176
     1
 40
1.0
176
     1
 90
        1
176
     1
 90
        6
176
     1
 90
        2
176
     1
 62
     7
176
     1
 90
        6
176
     1
 90
        0
176
     1
 90
        0
176
     1
290
     0
176
     1
 90
        1
176
     1
 40
0.0
176
     1
 90
        0
176
     1
290
     0
176
     1
290
     1
176
     1
290
     1
176
     1
290
     0
176
     1
290
     0
176
     1
290
     0
176
     1
290
     0
176
     1
290
     0
176
     1
290
     0
176
     1
 90
       50
176
     1
 40
0.0
176
     1
 40
1.0
176
     1
 90
        0
176
     1
 62
    18
420
        0
176
     1
 90
       50
176
     1
 90
        3
176
     1
 62
     5
420
      255
176
     1
290
     0
176
     1
 90
       50
176
     1
 90
       50
176
     1
 90
       50
176
     1
290
     0
176
     1
 90
       50
176
     1
 62
   256
176
     0
 40
1.0
176
     0
 90
        2
176
     1
  1
strokes_ogs.tif
176
     1
290
     0
176
     1
 40
1.0
176
     1
 40
1.0
176
     1
  0
VISUALSTYLE
  5
1002A
102
{ACAD_REACTORS
330
1001D
102
}
330
1001D
100
AcDbVisualStyle
  2
Thicken
 70
    13
177
     3
291
     1
 70
    58
 90
        2
176
     1
 90
        2
176
     1
 90
        0
176
     1
 90
        0
176
     1
 40
0.6
176
     1
 40
30.0
176
     1
 62
     7
420
 16777215
176
     1
 90
        1
176
     1
 90
        4
176
     1
 62
     7
176
     1
 62
   257
176
     1
 90
        1
176
     1
 90
        1
176
     1
 40
1.0
176
     1
 90
       12
176
     1
 62
     7
176
     1
 40
1.0
176
     1
 90
        1
176
     1
 90
        6
176
     1
 90
        2
176
     1
 62
     7
176
     1
 90
        5
176
     1
 90
        0
176
     1
 90
        0
176
     1
290
     0
176
     1
 90
        1
176
     1
 40
0.0
176
     1
 90
        0
176
     1
290
     0
176
     1
290
     1
176
     1
290
     1
176
     1
290
     0
176
     1
290
     0
176
     1
290
     0
176
     1
290
     0
176
     1
290
     0
176
     1
290
     0
176
     1
 90
       50
176
     1
 40
0.0
176
     1
 40
1.0
176
     1
 90
        0
176
     1
 62
    18
420
        0
176
     1
 90
       50
176
     1
 90
        3
176
     1
 62
     5
420
      255
176
     1
290
     0
176
     1
 90
       50
176
     1
 90
       50
176
     1
 90
       50
176
     1
290
     0
176
     1
 90
       50
176
     1
 62
   256
176
     0
 40
1.0
176
     0
 90
        2
176
     1
  1
strokes_ogs.tif
176
     1
290
     0
176
     1
 40
1.0
176
     1
 40
1.0
176
     1
  0
VISUALSTYLE
  5
10024
102
{ACAD_REACTORS
330
1001D
102
}
330
1001D
100
AcDbVisualStyle
  2
Wireframe
 70
     5
177
     3
291
     0
 70
    58
 90
        0
176
     1
 90
        2
176
     1
 90
        0
176
     1
 90
        0
176
     1
 40
0.6
176
     1
 40
30.0
176
     1
 62
     7
420
 16777215
176
     1
 90
        1
176
     1
 90
        4
176
     1
 62
     7
176
     1
 62
   257
176
     1
 90
        1
176
     1
 90
        1
176
     1
 40
1.0
176
     1
 90
        0
176
     1
 62
   257
176
     1
 40
1.0
176
     1
 90
        1
176
     1
 90
        6
176
     1
 90
        2
176
     1
 62
     7
176
     1
 90
        3
176
     1
 90
        0
176
     1
 90
        0
176
     1
290
     0
176
     1
 90
        1
176
     1
 40
0.0
176
     1
 90
        0
176
     1
290
     0
176
     1
290
     1
176
     1
290
     1
176
     1
290
     0
176
     1
290
     0
176
     1
290
     0
176
     1
290
     0
176
     1
290
     0
176
     1
290
     0
176
     1
 90
       50
176
     1
 40
0.0
176
     1
 40
1.0
176
     1
 90
        0
176
     1
 62
    18
420
        0
176
     1
 90
       50
176
     1
 90
        3
176
     1
 62
     5
420
      255
176
     1
290
     0
176
     1
 90
       50
176
     1
 90
       50
176
     1
 90
       50
176
     1
290
     0
176
     1
 90
       50
176
     1
 62
   256
176
     0
 40
1.0
176
     0
 90
        2
176
     1
  1
strokes_ogs.tif
176
     1
290
     0
176
     1
 40
1.0
176
     1
 40
1.0
176
     1
  0
VISUALSTYLE
  5
10030
102
{ACAD_REACTORS
330
1001D
102
}
330
1001D
100
AcDbVisualStyle
  2
X-Ray
 70
    25
177
     3
291
     0
 70
    58
 90
        2
176
     1
 90
        2
176
     1
 90
        1
176
     1
 90
        1
176
     1
 40
0.5
176
     1
 40
30.0
176
     1
 62
     7
420
 16777215
176
     1
 90
        1
176
     1
 90
        0
176
     1
 62
     7
176
     1
 62
   257
176
     1
 90
        1
176
     1
 90
        1
176
     1
 40
1.0
176
     1
 90
        8
176
     1
 62
     7
176
     1
 40
1.0
176
     1
 90
        1
176
     1
 90
        6
176
     1
 90
        2
176
     1
 62
     7
176
     1
 90
        3
176
     1
 90
        0
176
     1
 90
        0
176
     1
290
     0
176
     1
 90
       13
176
     1
 40
0.0
176
     1
 90
        0
176
     1
290
     0
176
     1
290
     1
176
     1
290
     1
176
     1
290
     0
176
     1
290
     0
176
     1
290
     0
176
     1
290
     0
176
     1
290
     0
176
     1
290
     0
176
     1
 90
       50
176
     1
 40
0.0
176
     1
 40
1.0
176
     1
 90
        0
176
     1
 62
    18
420
        0
176
     1
 90
       50
176
     1
 90
        3
176
     1
 62
     5
420
      255
176
     1
290
     0
176
     1
 90
       50
176
     1
 90
       50
176
     1
 90
       50
176
     1
290
     0
176
     1
 90
       50
176
     1
 62
   256
176
     0
 40
1.0
176
     0
 90
        2
176
     1
  1
strokes_ogs.tif
176
     1
290
     0
176
     1
 40
1.0
176
     1
 40
1.0
176
     1
  0
DICTIONARYVAR
  5
1007A
102
{ACAD_REACTORS
330
10074
102
}
330
10074
100
DictionaryVariables
280
     0
  1
1:1
  0
DICTIONARYVAR
  5
10076
102
{ACAD_REACTORS
330
10074
102
}
330
10074
100
DictionaryVariables
280
     0
  1
STANDARD
  0
DICTIONARYVAR
  5
10075
102
{ACAD_REACTORS
330
10074
102
}
330
10074
100
DictionaryVariables
280
     0
  1
STANDARD
  0
DICTIONARYVAR
  5
10077
102
{ACAD_REACTORS
330
10074
102
}
330
10074
100
DictionaryVariables
280
     0
  1
Imperial24
  0
DICTIONARYVAR
  5
10078
102
{ACAD_REACTORS
330
10074
102
}
330
10074
100
DictionaryVariables
280
     0
  1
Imperial24
  0
DICTIONARYVAR
  5
1007C
102
{ACAD_REACTORS
330
10074
102
}
330
10074
100
DictionaryVariables
280
     0
  1
1
  0
DICTIONARYVAR
  5
1007D
102
{ACAD_REACTORS
330
10074
102
}
330
10074
100
DictionaryVariables
280
     0
  1
15
  0
DICTIONARYVAR
  5
1007B
102
{ACAD_REACTORS
330
10074
102
}
330
10074
100
DictionaryVariables
280
     0
  1
0
  0
DICTIONARYVAR
  5
10079
102
{ACAD_REACTORS
330
10074
102
}
330
10074
100
DictionaryVariables
280
     0
  1
0
  0
DICTIONARY
  5
1000E
330
1000D
100
AcDbDictionary
280
     1
281
     1
  3
BUMPTILE
360
10010
  3
DIFFUSETILE
360
1000F
  3
OPACITYTILE
360
10013
  3
REFLECTIONTILE
360
10012
  3
REFRACTIONTILE
360
10014
  3
SPECULARTILE
360
10011
  0
DICTIONARY
  5
10006
330
10005
100
AcDbDictionary
280
     1
281
     1
  3
BUMPTILE
360
10008
  3
DIFFUSETILE
360
10007
  3
OPACITYTILE
360
1000B
  3
REFLECTIONTILE
360
1000A
  3
REFRACTIONTILE
360
1000C
  3
SPECULARTILE
360
10009
  0
DICTIONARY
  5
10016
330
10015
100
AcDbDictionary
280
     1
281
     1
  3
BUMPTILE
360
10018
  3
DIFFUSETILE
360
10017
  3
OPACITYTILE
360
1001B
  3
REFLECTIONTILE
360
1001A
  3
REFRACTIONTILE
360
1001C
  3
SPECULARTILE
360
10019
  0
DICTIONARY
  5
10272
330
10039
100
AcDbDictionary
280
     1
281
     1
  3
ACAD_ROUNDTRIP_2008_TABLESTYLE_CELLSTYLEMAP
360
10273
  0
XRECORD
  5
10010
102
{ACAD_REACTORS
330
1000E
102
}
330
1000E
100
AcDbXrecord
280
     1
270
     1
271
     1
  0
XRECORD
  5
1000F
102
{ACAD_REACTORS
330
1000E
102
}
330
1000E
100
AcDbXrecord
280
     1
270
     1
271
     1
  0
XRECORD
  5
10013
102
{ACAD_REACTORS
330
1000E
102
}
330
1000E
100
AcDbXrecord
280
     1
270
     1
271
     1
  0
XRECORD
  5
10012
102
{ACAD_REACTORS
330
1000E
102
}
330
1000E
100
AcDbXrecord
280
     1
270
     1
271
     1
  0
XRECORD
  5
10014
102
{ACAD_REACTORS
330
1000E
102
}
330
1000E
100
AcDbXrecord
280
     1
270
     1
271
     1
  0
XRECORD
  5
10011
102
{ACAD_REACTORS
330
1000E
102
}
330
1000E
100
AcDbXrecord
280
     1
270
     1
271
     1
  0
XRECORD
  5
10008
102
{ACAD_REACTORS
330
10006
102
}
330
10006
100
AcDbXrecord
280
     1
270
     1
271
     1
  0
XRECORD
  5
10007
102
{ACAD_REACTORS
330
10006
102
}
330
10006
100
AcDbXrecord
280
     1
270
     1
271
     1
  0
XRECORD
  5
1000B
102
{ACAD_REACTORS
330
10006
102
}
330
10006
100
AcDbXrecord
280
     1
270
     1
271
     1
  0
XRECORD
  5
1000A
102
{ACAD_REACTORS
330
10006
102
}
330
10006
100
AcDbXrecord
280
     1
270
     1
271
     1
  0
XRECORD
  5
1000C
102
{ACAD_REACTORS
330
10006
102
}
330
10006
100
AcDbXrecord
280
     1
270
     1
271
     1
  0
XRECORD
  5
10009
102
{ACAD_REACTORS
330
10006
102
}
330
10006
100
AcDbXrecord
280
     1
270
     1
271
     1
  0
XRECORD
  5
10018
102
{ACAD_REACTORS
330
10016
102
}
330
10016
100
AcDbXrecord
280
     1
270
     1
271
     1
  0
XRECORD
  5
10017
102
{ACAD_REACTORS
330
10016
102
}
330
10016
100
AcDbXrecord
280
     1
270
     1
271
     1
  0
XRECORD
  5
1001B
102
{ACAD_REACTORS
330
10016
102
}
330
10016
100
AcDbXrecord
280
     1
270
     1
271
     1
  0
XRECORD
  5
1001A
102
{ACAD_REACTORS
330
10016
102
}
330
10016
100
AcDbXrecord
280
     1
270
     1
271
     1
  0
XRECORD
  5
1001C
102
{ACAD_REACTORS
330
10016
102
}
330
10016
100
AcDbXrecord
280
     1
270
     1
271
     1
  0
XRECORD
  5
10019
102
{ACAD_REACTORS
330
10016
102
}
330
10016
100
AcDbXrecord
280
     1
270
     1
271
     1
  0
CELLSTYLEMAP
  5
10273
102
{ACAD_REACTORS
330
10272
102
}
330
10272
100
AcDbCellStyleMap
 90
        3
300
CELLSTYLE
  1
TABLEFORMAT_BEGIN
 90
        5
170
     1
 91
        0
 92
    32768
 62
   257
 93
        1
300
CONTENTFORMAT
  1
CONTENTFORMAT_BEGIN
 90
        0
 91
        0
 92
      512
 93
        0
300

 40
0.0
140
1.0
 94
        5
 62
     0
340
11
144
0.25
309
CONTENTFORMAT_END
171
     0
 94
        0
309
TABLEFORMAT_END
  1
CELLSTYLE_BEGIN
 90
        1
 91
        1
300
_TITLE
309
CELLSTYLE_END
300
CELLSTYLE
  1
TABLEFORMAT_BEGIN
 90
        5
170
     1
 91
        0
 92
        0
 62
   257
 93
        1
300
CONTENTFORMAT
  1
CONTENTFORMAT_BEGIN
 90
        0
 91
        0
 92
      512
 93
        0
300

 40
0.0
140
1.0
 94
        5
 62
     0
340
11
144
0.18
309
CONTENTFORMAT_END
171
     0
 94
        0
309
TABLEFORMAT_END
  1
CELLSTYLE_BEGIN
 90
        2
 91
        1
300
_HEADER
309
CELLSTYLE_END
300
CELLSTYLE
  1
TABLEFORMAT_BEGIN
 90
        5
170
     1
 91
        0
 92
        0
 62
   257
 93
        1
300
CONTENTFORMAT
  1
CONTENTFORMAT_BEGIN
 90
        0
 91
        0
 92
      512
 93
        0
300

 40
0.0
140
1.0
 94
        2
 62
     0
340
11
144
0.18
309
CONTENTFORMAT_END
171
     0
 94
        0
309
TABLEFORMAT_END
  1
CELLSTYLE_BEGIN
 90
        3
 91
        2
300
_DATA
309
CELLSTYLE_END
  0
ENDSEC
  0
SECTION
  2
ACDSDATA
 70
     2
 71
     8
  0
ACDSSCHEMA
 90
        0
  1
AcDb_Thumbnail_Schema
  2
AcDbDs::ID
280
    10
 91
        8
  2
Thumbnail_Data
280
    15
 91
        0
101
ACDSRECORD
 95
        0
 90
        1
  2
AcDbDs::TreatedAsObjectData
280
     1
291
     1
101
ACDSRECORD
 95
        0
 90
        2
  2
AcDbDs::Legacy
280
     1
291
     1
101
ACDSRECORD
  1
AcDbDs::ID
 90
        3
  2
AcDs:Indexable
280
     1
291
     1
101
ACDSRECORD
  1
AcDbDs::ID
 90
        4
  2
AcDbDs::HandleAttribute
280
     7
282
     1
  0
ACDSSCHEMA
 90
        1
  1
AcDbDs::TreatedAsObjectDataSchema
  2
AcDbDs::TreatedAsObjectData
280
     1
 91
        0
  0
ACDSSCHEMA
 90
        2
  1
AcDbDs::LegacySchema
  2
AcDbDs::Legacy
280
     1
 91
        0
  0
ACDSSCHEMA
 90
        3
  1
AcDbDs::IndexedPropertySchema
  2
AcDs:Indexable
280
     1
 91
        0
  0
ACDSSCHEMA
 90
        4
  1
AcDbDs::HandleAttributeSchema
  2
AcDbDs::HandleAttribute
280
     7
 91
        1
284
     1
  0
ACDSRECORD
 90
        0
  2
AcDbDs::ID
280
    10
320
10055
  2
Thumbnail_Data
280
    15
 94
     1759
310
89504E470D0A1A0A0000000D4948445200000100000000900803000000D0BD45A300000300504C5445212830FFFFFF2128300000000000000000000000000000000000000000000000000000330000660000990000CC0000FF0033000033330033660033990033CC0033FF0066000066330066660066990066CC0066FF0099
310
000099330099660099990099CC0099FF00CC0000CC3300CC6600CC9900CCCC00CCFF00FF0000FF3300FF6600FF9900FFCC00FFFF3300003300333300663300993300CC3300FF3333003333333333663333993333CC3333FF3366003366333366663366993366CC3366FF3399003399333399663399993399CC3399FF33CC00
310
33CC3333CC6633CC9933CCCC33CCFF33FF0033FF3333FF6633FF9933FFCC33FFFF6600006600336600666600996600CC6600FF6633006633336633666633996633CC6633FF6666006666336666666666996666CC6666FF6699006699336699666699996699CC6699FF66CC0066CC3366CC6666CC9966CCCC66CCFF66FF0066
310
FF3366FF6666FF9966FFCC66FFFF9900009900339900669900999900CC9900FF9933009933339933669933999933CC9933FF9966009966339966669966999966CC9966FF9999009999339999669999999999CC9999FF99CC0099CC3399CC6699CC9999CCCC99CCFF99FF0099FF3399FF6699FF9999FFCC99FFFFCC0000CC00
310
33CC0066CC0099CC00CCCC00FFCC3300CC3333CC3366CC3399CC33CCCC33FFCC6600CC6633CC6666CC6699CC66CCCC66FFCC9900CC9933CC9966CC9999CC99CCCC99FFCCCC00CCCC33CCCC66CCCC99CCCCCCCCCCFFCCFF00CCFF33CCFF66CCFF99CCFFCCCCFFFFFF0000FF0033FF0066FF0099FF00CCFF00FFFF3300FF3333
310
FF3366FF3399FF33CCFF33FFFF6600FF6633FF6666FF6699FF66CCFF66FFFF9900FF9933FF9966FF9999FF99CCFF99FFFFCC00FFCC33FFCC66FFCC99FFCCCCFFCCFFFFFF00FFFF33FFFF66FFFF99FFFFCCFFFFFF0000000D0D0D1A1A1A2828283535354343435050505D5D5D6B6B6B787878868686939393A1A1A1AEAEAEBB
310
BBBBC9C9C9D6D6D6E4E4E4F1F1F1FFFFFF0000000000000000000000000000000000000000000000000000000000002E4550F10000021F4944415478DAED9BEB8A03210C46F3FEEF9BFF0B5D6F6352A7EE32D0C473A005AB08F9261ACDA422000000000000000000FF40555F9F27467FBFE9C59EFAADF7A3A57EC59441474A
310
D388D1FAE7D1BFC3AA6266B620EE7E11C3A8336925B6FD32DD74075260FDC8D4FA40F9DDB3B5FB838411E0F3A152FCBC36870E991A7A199048001D16BA2B405B165905F0A730BFA7F600A7438E1140F45D87733C3A460051C703CE12409D6DE1A425A0EEAE905400FD4C80B47B8035CB3B45AA1719320AD04DBF9E8C4209B0
310
C7E2C2670666B47F4FAC100A6C8DD58766FEBE1CC15E4A2C4D4E6C33C9358E963429B11218EA3EB6D801E715A1661F0CE2EEDE5315B58F74D3A8280A0C478196E81CF21ACDBFF74D0A1305C68CDE9C1A2F9D2DEF9951001BBDED6A2FCF3EA900FDFEDAECEEBBE398E43BC403B4E6758FF1002FD24D2F0CFE74BC8FB4041C17
310
B0AF43F48C255043DFB4134A5E0FE8BB9F7847BE9ADDC9EB01B2BCF19FE10143D0936B18946963746D53DFF0B01ED0E39D3A57A5741EA05ED3BE02AF7A2C4CD4E5CC27A6C4A2DC061F4A89C5CD89512526DB5562A1F2C03729B11E0876AAC4C45E200256898997047B9F129BAAC46CC959440FB88B13548951254695981BEF
310
A9123B4500AAC4A812BB3D4C9459A912A34A8C2AB18097814F04188F416351C1F4579BB45562CE73BF6610FB9520A3FD54893D3333000000000000000000000000000000000000000000000000000000000000000000C0C9FC0088F468B51A6D18810000000049454E44AE426082F5F0F6E35FA92913F0579F10B17FF9B0CF
310
7A17259565B54A449F7570EB8448BB6D5C9748DB3B3B7399BDA4AA6CE1352744DC877F7B40420A8A6A77DDCBAE6E3820618E66A8BC7F9BA825356B48F589D2A9AA3E0B335CBF18FADAEC9C84D13806990F4955CF6D9603E2F441B3E9B66E35884B1B435D647006611BB758516227018C67C0914584C4B002E06B0190761000
310
D634E924069DFC23B2054CCEBEA353975B0B3031B8AD0530E2A457908A1B03063E301C7FDEA48A3A0B0C83405F299CFB7361F380B10F001336B2AB0069F045208515606E31D1B7EEB29E0869019889018310800FE694B70930D1E470A19F7D695301860BFDD00260CA07262A55712D005331606AB1105280619BEA588DEF01
310
612D20613AFCFBFFF94A9747A2B900DA94C79FF94A711C4D0878A6283A5DEFB78AA2DE1679FF8084D7DE0D072466B6E655EF87223849EFE880847E485E0F2D176066A2AA04E8C6B6584764E64F7E5CFB3D9E1021843CC21FDD9CFF175A7726540000000049454E44AE426082
  0
ENDSEC
  0
EOF
