%TF.GenerationSoftware,KiCad,Pcbnew,(5.1.6)-1*%
%TF.CreationDate,2020-07-07T18:39:20+02:00*%
%TF.ProjectId,Proyecto A,50726f79-6563-4746-9f20-412e6b696361,rev?*%
%TF.SameCoordinates,Original*%
%TF.FileFunction,Soldermask,Top*%
%TF.FilePolarity,Negative*%
%FSLAX46Y46*%
G04 Gerber Fmt 4.6, Leading zero omitted, Abs format (unit mm)*
G04 Created by KiCad (PCBNEW (5.1.6)-1) date 2020-07-07 18:39:20*
%MOMM*%
%LPD*%
G01*
G04 APERTURE LIST*
%ADD10C,3.987800*%
%ADD11C,1.750000*%
%ADD12O,1.200000X1.800000*%
%ADD13O,1.200000X2.300000*%
%ADD14C,0.650000*%
%ADD15R,0.300000X1.450000*%
%ADD16R,0.575000X1.450000*%
%ADD17C,1.800000*%
%ADD18R,1.800000X1.800000*%
%ADD19C,3.048000*%
G04 APERTURE END LIST*
D10*
%TO.C,K4*%
X179960000Y-10940000D03*
D11*
X174991010Y-9883809D03*
X184928990Y-11996191D03*
%TD*%
D12*
%TO.C,USB1*%
X226882400Y10048000D03*
X235522400Y10048000D03*
D13*
X226882400Y5868000D03*
X235522400Y5868000D03*
D14*
X234092400Y6398000D03*
X228312400Y6398000D03*
D15*
X231452400Y4953000D03*
X230952400Y4953000D03*
X230452400Y4953000D03*
X231952400Y4953000D03*
X229952400Y4953000D03*
X232452400Y4953000D03*
X229452400Y4953000D03*
X232952400Y4953000D03*
D16*
X233652400Y4953000D03*
X228752400Y4953000D03*
X234427400Y4953000D03*
X227977400Y4953000D03*
%TD*%
D17*
%TO.C,D2*%
X65940000Y-84260000D03*
D18*
X63400000Y-84260000D03*
%TD*%
D17*
%TO.C,D3*%
X65937400Y-79717000D03*
D18*
X63397400Y-79717000D03*
%TD*%
D10*
%TO.C,SPLIT_BKS1*%
X378551880Y-5151680D03*
D11*
X373471880Y-5151680D03*
X383631880Y-5151680D03*
%TD*%
D10*
%TO.C,FUNC1*%
X215120000Y-96320000D03*
D11*
X210151010Y-95263809D03*
X220088990Y-97376191D03*
%TD*%
D10*
%TO.C,lgui1*%
X184823540Y-89870840D03*
D11*
X179854550Y-88814649D03*
X189792530Y-90927031D03*
D19*
X171725207Y-94227752D03*
X195017347Y-99178650D03*
D10*
X174893781Y-79320783D03*
X198185921Y-84271680D03*
%TD*%
%TO.C,RSHIFT2*%
X374470100Y-62324540D03*
D11*
X369390100Y-62324540D03*
X379550100Y-62324540D03*
D19*
X362563850Y-55339540D03*
X386376350Y-55339540D03*
D10*
X362563850Y-70579540D03*
X386376350Y-70579540D03*
%TD*%
%TO.C,CAPS2*%
X97300000Y-43270000D03*
D11*
X92220000Y-43270000D03*
X102380000Y-43270000D03*
%TD*%
D10*
%TO.C,BACKSPACE1*%
X368990000Y-5170000D03*
D11*
X363910000Y-5170000D03*
X374070000Y-5170000D03*
D19*
X357083750Y1815000D03*
X380896250Y1815000D03*
D10*
X357083750Y-13425000D03*
X380896250Y-13425000D03*
%TD*%
%TO.C,FUNCT1*%
X391130000Y-62300000D03*
D11*
X386050000Y-62300000D03*
X396210000Y-62300000D03*
%TD*%
D10*
%TO.C,RCTL1*%
X382710000Y-81430000D03*
D11*
X377630000Y-81430000D03*
X387790000Y-81430000D03*
%TD*%
D10*
%TO.C,RALT1*%
X303997400Y-83847000D03*
D11*
X299028410Y-84903191D03*
X308966390Y-82790809D03*
%TD*%
D10*
%TO.C,space2*%
X263591480Y-90922400D03*
D11*
X258622490Y-91978591D03*
X268560470Y-89866209D03*
D19*
X253397673Y-100230210D03*
X276689813Y-95279312D03*
D10*
X250229099Y-85323240D03*
X273521239Y-80372343D03*
%TD*%
%TO.C,FUNC2*%
X212830000Y-95830000D03*
D11*
X207861010Y-94773809D03*
X217798990Y-96886191D03*
%TD*%
D10*
%TO.C,SPCE2*%
X182530000Y-89390000D03*
D11*
X177561010Y-88333809D03*
X187498990Y-90446191D03*
D19*
X169431667Y-93746912D03*
X192723807Y-98697810D03*
D10*
X172600241Y-78839943D03*
X195892381Y-83790840D03*
%TD*%
%TO.C,ALT1*%
X149287400Y-83857000D03*
D11*
X144318410Y-82800809D03*
X154256390Y-84913191D03*
%TD*%
D10*
%TO.C,CTRL1*%
X95520000Y-81360000D03*
D11*
X90440000Y-81360000D03*
X100600000Y-81360000D03*
%TD*%
D10*
%TO.C,RSHIFT1*%
X364940000Y-62350000D03*
D11*
X359860000Y-62350000D03*
X370020000Y-62350000D03*
%TD*%
D10*
%TO.C,/1*%
X338730000Y-62310000D03*
D11*
X333650000Y-62310000D03*
X343810000Y-62310000D03*
%TD*%
D10*
%TO.C,.>1*%
X319700000Y-62300000D03*
D11*
X314620000Y-62300000D03*
X324780000Y-62300000D03*
%TD*%
D10*
%TO.C,\u002C<1*%
X299180000Y-63860000D03*
D11*
X294211010Y-64916191D03*
X304148990Y-62803809D03*
%TD*%
D10*
%TO.C,M1*%
X280560000Y-67850000D03*
D11*
X275591010Y-68906191D03*
X285528990Y-66793809D03*
%TD*%
D10*
%TO.C,N1*%
X261940000Y-71800000D03*
D11*
X256971010Y-72856191D03*
X266908990Y-70743809D03*
%TD*%
D10*
%TO.C,B2*%
X243280000Y-75750000D03*
D11*
X238311010Y-76806191D03*
X248248990Y-74693809D03*
%TD*%
D10*
%TO.C,B1*%
X210010000Y-75750000D03*
D11*
X205041010Y-74693809D03*
X214978990Y-76806191D03*
%TD*%
D10*
%TO.C,V1*%
X191370000Y-71800000D03*
D11*
X186401010Y-70743809D03*
X196338990Y-72856191D03*
%TD*%
D10*
%TO.C,C8*%
X172750000Y-67830000D03*
D11*
X167781010Y-66773809D03*
X177718990Y-68886191D03*
%TD*%
D10*
%TO.C,X1*%
X154100000Y-63880000D03*
D11*
X149131010Y-62823809D03*
X159068990Y-64936191D03*
%TD*%
D10*
%TO.C,Z1*%
X133600000Y-62300000D03*
D11*
X128520000Y-62300000D03*
X138680000Y-62300000D03*
%TD*%
D10*
%TO.C,SHIFT1*%
X102650000Y-62310000D03*
D11*
X97570000Y-62310000D03*
X107730000Y-62310000D03*
D19*
X90743750Y-55325000D03*
X114556250Y-55325000D03*
D10*
X90743750Y-70565000D03*
X114556250Y-70565000D03*
%TD*%
%TO.C,RETURN1*%
X375050000Y-43280000D03*
D11*
X369970000Y-43280000D03*
X380130000Y-43280000D03*
D19*
X363143750Y-50265000D03*
X386956250Y-50265000D03*
D10*
X363143750Y-35025000D03*
X386956250Y-35025000D03*
%TD*%
%TO.C,'1*%
X344100000Y-43280000D03*
D11*
X339020000Y-43280000D03*
X349180000Y-43280000D03*
%TD*%
D10*
%TO.C,;1*%
X325060000Y-43280000D03*
D11*
X319980000Y-43280000D03*
X330140000Y-43280000D03*
%TD*%
D10*
%TO.C,L1*%
X304570000Y-43250000D03*
D11*
X299601010Y-44306191D03*
X309538990Y-42193809D03*
%TD*%
D10*
%TO.C,K11*%
X285910000Y-47240000D03*
D11*
X280941010Y-48296191D03*
X290878990Y-46183809D03*
%TD*%
D10*
%TO.C,J1*%
X267290000Y-51180000D03*
D11*
X262321010Y-52236191D03*
X272258990Y-50123809D03*
%TD*%
D10*
%TO.C,H1*%
X248640000Y-55150000D03*
D11*
X243671010Y-56206191D03*
X253608990Y-54093809D03*
%TD*%
D10*
%TO.C,G1*%
X204650000Y-55130000D03*
D11*
X199681010Y-54073809D03*
X209618990Y-56186191D03*
%TD*%
D10*
%TO.C,F2*%
X186020000Y-51190000D03*
D11*
X181051010Y-50133809D03*
X190988990Y-52246191D03*
%TD*%
D10*
%TO.C,D18*%
X167380000Y-47240000D03*
D11*
X162411010Y-46183809D03*
X172348990Y-48296191D03*
%TD*%
D10*
%TO.C,S1*%
X148760000Y-43280000D03*
D11*
X143791010Y-42223809D03*
X153728990Y-44336191D03*
%TD*%
D10*
%TO.C,A1*%
X128260000Y-43250000D03*
D11*
X123180000Y-43250000D03*
X133340000Y-43250000D03*
%TD*%
D10*
%TO.C,CAPS1*%
X102040000Y-43290000D03*
D11*
X96960000Y-43290000D03*
X107120000Y-43290000D03*
%TD*%
D10*
%TO.C,PGDN1*%
X71890000Y-41130000D03*
D11*
X66810000Y-41130000D03*
X76970000Y-41130000D03*
%TD*%
D10*
%TO.C,K\u005C1*%
X377950000Y-24230000D03*
D11*
X372870000Y-24230000D03*
X383030000Y-24230000D03*
%TD*%
D10*
%TO.C,]1*%
X354120000Y-24200000D03*
D11*
X349040000Y-24200000D03*
X359200000Y-24200000D03*
%TD*%
D10*
%TO.C,[1*%
X335050000Y-24230000D03*
D11*
X329970000Y-24230000D03*
X340130000Y-24230000D03*
%TD*%
D10*
%TO.C,P1*%
X316420000Y-23170000D03*
D11*
X311340000Y-23170000D03*
X321500000Y-23170000D03*
%TD*%
D10*
%TO.C,O1*%
X295940000Y-25590000D03*
D11*
X290971010Y-26646191D03*
X300908990Y-24533809D03*
%TD*%
D10*
%TO.C,I1*%
X277310000Y-29570000D03*
D11*
X272341010Y-30626191D03*
X282278990Y-28513809D03*
%TD*%
D10*
%TO.C,U2*%
X258670000Y-33530000D03*
D11*
X253701010Y-34586191D03*
X263638990Y-32473809D03*
%TD*%
D10*
%TO.C,Y2*%
X240030000Y-37490000D03*
D11*
X235061010Y-38546191D03*
X244998990Y-36433809D03*
%TD*%
D10*
%TO.C,T1*%
X203940000Y-35510000D03*
D11*
X198971010Y-34453809D03*
X208908990Y-36566191D03*
%TD*%
D10*
%TO.C,R10*%
X185320000Y-31560000D03*
D11*
X180351010Y-30503809D03*
X190288990Y-32616191D03*
%TD*%
D10*
%TO.C,E1*%
X166690000Y-27590000D03*
D11*
X161721010Y-26533809D03*
X171658990Y-28646191D03*
%TD*%
D10*
%TO.C,W1*%
X148050000Y-23620000D03*
D11*
X143081010Y-22563809D03*
X153018990Y-24676191D03*
%TD*%
D10*
%TO.C,Q1*%
X127550000Y-24210000D03*
D11*
X122470000Y-24210000D03*
X132630000Y-24210000D03*
%TD*%
D10*
%TO.C,TAB1*%
X103760000Y-24220000D03*
D11*
X98680000Y-24220000D03*
X108840000Y-24220000D03*
%TD*%
D10*
%TO.C,PGUP1*%
X75950000Y-22070000D03*
D11*
X70870000Y-22070000D03*
X81030000Y-22070000D03*
%TD*%
D10*
%TO.C,K_14*%
X359480000Y-5190000D03*
D11*
X354400000Y-5190000D03*
X364560000Y-5190000D03*
%TD*%
D10*
%TO.C,=+1*%
X340410000Y-5180000D03*
D11*
X335330000Y-5180000D03*
X345490000Y-5180000D03*
%TD*%
D10*
%TO.C,_-1*%
X321790000Y-3040000D03*
D11*
X316710000Y-3040000D03*
X326870000Y-3040000D03*
%TD*%
D10*
%TO.C,K10*%
X301280000Y-5030000D03*
D11*
X296311010Y-6086191D03*
X306248990Y-3973809D03*
%TD*%
D10*
%TO.C,K9*%
X282640000Y-8980000D03*
D11*
X277671010Y-10036191D03*
X287608990Y-7923809D03*
%TD*%
D10*
%TO.C,K8*%
X264030000Y-12910000D03*
D11*
X259061010Y-13966191D03*
X268998990Y-11853809D03*
%TD*%
D10*
%TO.C,K7*%
X245380000Y-16870000D03*
D11*
X240411010Y-17926191D03*
X250348990Y-15813809D03*
%TD*%
D10*
%TO.C,K6*%
X217230000Y-18850000D03*
D11*
X212261010Y-17793809D03*
X222198990Y-19906191D03*
%TD*%
D10*
%TO.C,k5*%
X198610000Y-14900000D03*
D11*
X193641010Y-13843809D03*
X203578990Y-15956191D03*
%TD*%
D10*
%TO.C,K3*%
X161340000Y-6970000D03*
D11*
X156371010Y-5913809D03*
X166308990Y-8026191D03*
%TD*%
D10*
%TO.C,K2*%
X140830000Y-3000000D03*
D11*
X135750000Y-3000000D03*
X145910000Y-3000000D03*
%TD*%
D10*
%TO.C,K1*%
X122200000Y-5170000D03*
D11*
X117120000Y-5170000D03*
X127280000Y-5170000D03*
%TD*%
D10*
%TO.C,KK0*%
X103140000Y-5150000D03*
D11*
X98060000Y-5150000D03*
X108220000Y-5150000D03*
%TD*%
D10*
%TO.C,Esc1*%
X80110000Y-3020000D03*
D11*
X75030000Y-3020000D03*
X85190000Y-3020000D03*
%TD*%
D17*
%TO.C,D1*%
X65937400Y-88767000D03*
D18*
X63397400Y-88767000D03*
%TD*%
M02*
