M48
; DRILL file {KiCad (5.1.6)-1} date 07/07/20 18:39:32
; FORMAT={3:3/ absolute / metric / suppress leading zeros}
; #@! TF.CreationDate,2020-07-07T18:39:32+02:00
; #@! TF.GenerationSoftware,Kicad,Pcbnew,(5.1.6)-1
FMAT,2
METRIC,TZ
T1C0.400
T2C0.600
T3C0.900
T4C1.470
T5C0.650
T6C1.750
T7C3.048
T8C3.988
%
G90
G05
T1
X67986Y-51648
X68327Y-45587
X70521Y-89223
X71115Y-78247
X73685Y-60071
X76106Y-79799
X76126Y-88748
X76129Y-83988
X78247Y-50259
X80797Y-50546
X80924Y-67183
X81128Y-86584
X84282Y-32535
X84366Y-89538
X85935Y-44380
X87020Y-14732
X88036Y-86995
X90068Y-16002
X90650Y-86330
X93315Y-32314
X93727Y-49787
X93751Y-16891
X124527Y-49187
X131216Y-85725
X135012Y-80925
X135153Y-81915
X139471Y-90043
X141503Y-88392
X142502Y-87665
X145527Y-48387
X153361Y-89252
X154254Y-80682
X155970Y-88702
X156713Y-87975
X157018Y-80528
X158006Y-80682
X161569Y-3175
X163927Y-51987
X166014Y-15240
X166268Y1651
X166791Y-81098
X167157Y-4699
X167284Y-80228
X169062Y-79883
X172745Y2540
X173888Y-84836
X175285Y-89027
X176338Y-90043
X181527Y-57387
X181635Y127
X181927Y-61003
X182727Y-58187
X191927Y-57460
X191927Y-60730
X202527Y-25587
X203855Y-94229
X204144Y-87061
X204860Y-94426
X204971Y-87622
X205039Y-95410
X205727Y-64187
X205864Y-88072
X207527Y-42387
X207727Y-83987
X210327Y-8187
X210327Y-43679
X210927Y-45587
X213127Y-42952
X213527Y-68387
X213528Y-57661
X214727Y-52387
X214927Y-59187
X215127Y-61187
X215301Y-67612
X216687Y-6604
X218205Y-62442
X218233Y-53034
X218298Y-39083
X218327Y-46187
X218465Y-4699
X218709Y-72779
X219127Y-52587
X221300Y-65601
X222456Y-69204
X222927Y-38987
X222927Y-72387
X223327Y-70785
X224127Y-1587
X225577Y-4953
X226127Y-47387
X226613Y-38930
X227482Y2921
X227482Y-3302
X227833Y-39119
X227992Y-48178
X228371Y1143
X228927Y-65387
X228959Y-46725
X229377Y-99548
X230104Y-85533
X230229Y-86525
X230617Y-87447
X230673Y2194
X230987Y-3527
X231038Y1397
X231673Y2194
X231985Y-3591
X232646Y3649
X233068Y-5297
X233451Y2921
X233527Y-69587
X234594Y-6731
X235803Y-55801
X235961Y-15855
X236245Y-1651
X236685Y-54402
X236758Y-55503
X236927Y-61789
X241452Y-102743
X245389Y2413
X247167Y-92710
X252120Y-92710
X253517Y-3429
X254787Y-92710
X255676Y-1143
X263327Y-57587
X266471Y-2511
X269773Y-3302
X269773Y-92202
X271678Y-1905
X273329Y-93091
X273964Y-16510
X275615Y-13208
X276377Y-11938
X282527Y-53587
X300888Y-89027
X301127Y-50787
X302793Y-90805
X321127Y-49587
X335694Y-65461
X339527Y-48187
X352831Y-12573
X353466Y-81915
X356641Y-84582
X357149Y-16941
X360451Y-16129
X365150Y-20701
X367388Y-66256
X371527Y-45587
X383127Y-45587
X385247Y-32499
X386232Y-12319
X386558Y-5540
X390296Y-25654
X391693Y-52705
X392201Y-29083
X392328Y-18288
X393169Y-74300
X394683Y-74765
X395410Y-73577
X396646Y-17653
X396646Y-26289
X396727Y-72987
X398327Y-59987
X398424Y-51689
X398932Y-25781
T3
X63397Y-79717
X65937Y-79717
X63397Y-88767
X65937Y-88767
X63400Y-84260
X65940Y-84260
T4
X164181Y-43963
X170921Y-42799
X206811Y-72473
X213551Y-71309
X331240Y-21690
X337590Y-19150
X340290Y-40740
X346640Y-38200
X209631Y-92553
X216371Y-91389
X365180Y-2630
X371530Y-90
X235775Y-35798
X241458Y-31993
X99950Y-21680
X106300Y-19140
X200741Y-32233
X207481Y-31069
X145561Y-40003
X152301Y-38839
X182821Y-47913
X189561Y-46749
X239025Y-74058
X244708Y-70253
X350310Y-21660
X356660Y-19120
X91710Y-78820
X98060Y-76280
X299743Y-82155
X305426Y-78350
X374742Y-2612
X381092Y-72
X182121Y-28283
X188861Y-27119
X72140Y-19530
X78490Y-16990
X176761Y-7663
X183501Y-6499
X291685Y-23898
X297368Y-20093
X146089Y-80580
X152828Y-79416
X254415Y-31838
X260098Y-28033
X276305Y-66158
X281988Y-62353
X300315Y-41558
X305998Y-37753
X334920Y-59770
X341270Y-57230
X378900Y-78890
X385250Y-76350
X278385Y-7288
X284068Y-3483
X241125Y-15178
X246808Y-11373
X118390Y-2630
X124740Y-90
X201451Y-51853
X208191Y-50689
X371240Y-40740
X377590Y-38200
X273055Y-27878
X278738Y-24073
X294925Y-62168
X300608Y-58363
X244385Y-53458
X250068Y-49653
X315890Y-59760
X322240Y-57220
X387320Y-59760
X393670Y-57220
X297025Y-3338
X302708Y467
X355670Y-2650
X362020Y-110
X76300Y-480
X82650Y2060
X312610Y-20630
X318960Y-18090
X129790Y-59760
X136140Y-57220
X98230Y-40750
X104580Y-38210
X361130Y-59810
X367480Y-57270
X281655Y-45548
X287338Y-41743
X98840Y-59770
X105190Y-57230
X259337Y-89230
X265020Y-85425
X181625Y-86594
X188364Y-85430
X317980Y-500
X324330Y2040
X99330Y-2610
X105680Y-70
X123740Y-21670
X130090Y-19130
X137020Y-460
X143370Y2080
X374140Y-21690
X380490Y-19150
X169551Y-64553
X176291Y-63389
X124450Y-40710
X130800Y-38170
X257685Y-70108
X263368Y-66303
X150901Y-60603
X157641Y-59439
X93490Y-40730
X99840Y-38190
X211921Y-93043
X218661Y-91879
X370660Y-59785
X377010Y-57245
X195411Y-11623
X202151Y-10459
X163491Y-24313
X170231Y-23149
X158141Y-3693
X164881Y-2529
X259775Y-11218
X265458Y-7413
X68080Y-38590
X74430Y-36050
X188171Y-68523
X194911Y-67359
X263035Y-49488
X268718Y-45683
X321250Y-40740
X327600Y-38200
X179331Y-86113
X186071Y-84949
X214031Y-15573
X220771Y-14409
X144851Y-20343
X151591Y-19179
X336600Y-2640
X342950Y-100
T5
X228312Y6398
X234092Y6398
T6
X149131Y-62824
X159069Y-64936
X92220Y-43270
X102380Y-43270
X210151Y-95264
X220089Y-97376
X369390Y-62325
X379550Y-62325
X193641Y-13844
X203579Y-15956
X161721Y-26534
X171659Y-28646
X156371Y-5914
X166309Y-8026
X259061Y-13966
X268999Y-11854
X66810Y-41130
X76970Y-41130
X186401Y-70744
X196339Y-72856
X262321Y-52236
X272259Y-50124
X319980Y-43280
X330140Y-43280
X177561Y-88334
X187499Y-90446
X212261Y-17794
X222199Y-19906
X143081Y-22564
X153019Y-24676
X335330Y-5180
X345490Y-5180
X162411Y-46184
X172349Y-48296
X205041Y-74694
X214979Y-76806
X329970Y-24230
X340130Y-24230
X339020Y-43280
X349180Y-43280
X207861Y-94774
X217799Y-96886
X363910Y-5170
X374070Y-5170
X235061Y-38546
X244999Y-36434
X98680Y-24220
X108840Y-24220
X198971Y-34454
X208909Y-36566
X143791Y-42224
X153729Y-44336
X181051Y-50134
X190989Y-52246
X238311Y-76806
X248249Y-74694
X349040Y-24200
X359200Y-24200
X90440Y-81360
X100600Y-81360
X299028Y-84903
X308966Y-82791
X373472Y-5152
X383632Y-5152
X180351Y-30504
X190289Y-32616
X70870Y-22070
X81030Y-22070
X174991Y-9884
X184929Y-11996
X290971Y-26646
X300909Y-24534
X144318Y-82801
X154256Y-84913
X253701Y-34586
X263639Y-32474
X275591Y-68906
X285529Y-66794
X299601Y-44306
X309539Y-42194
X333650Y-62310
X343810Y-62310
X377630Y-81430
X387790Y-81430
X277671Y-10036
X287609Y-7924
X240411Y-17926
X250349Y-15814
X117120Y-5170
X127280Y-5170
X199681Y-54074
X209619Y-56186
X369970Y-43280
X380130Y-43280
X272341Y-30626
X282279Y-28514
X294211Y-64916
X304149Y-62804
X243671Y-56206
X253609Y-54094
X314620Y-62300
X324780Y-62300
X386050Y-62300
X396210Y-62300
X296311Y-6086
X306249Y-3974
X354400Y-5190
X364560Y-5190
X75030Y-3020
X85190Y-3020
X311340Y-23170
X321500Y-23170
X128520Y-62300
X138680Y-62300
X96960Y-43290
X107120Y-43290
X359860Y-62350
X370020Y-62350
X280941Y-48296
X290879Y-46184
X97570Y-62310
X107730Y-62310
X258622Y-91979
X268560Y-89866
X179855Y-88815
X189793Y-90927
X316710Y-3040
X326870Y-3040
X98060Y-5150
X108220Y-5150
X122470Y-24210
X132630Y-24210
X135750Y-3000
X145910Y-3000
X372870Y-24230
X383030Y-24230
X167781Y-66774
X177719Y-68886
X123180Y-43250
X133340Y-43250
X256971Y-72856
X266909Y-70744
T7
X363144Y-50265
X386956Y-50265
X90744Y-55325
X114556Y-55325
X253398Y-100230
X276690Y-95279
X171725Y-94228
X195017Y-99179
X362564Y-55340
X386376Y-55340
X169432Y-93747
X192724Y-98698
X357084Y1815
X380896Y1815
T8
X95520Y-81360
X303997Y-83847
X378552Y-5152
X185320Y-31560
X75950Y-22070
X179960Y-10940
X295940Y-25590
X149287Y-83857
X258670Y-33530
X280560Y-67850
X304570Y-43250
X338730Y-62310
X382710Y-81430
X282640Y-8980
X245380Y-16870
X122200Y-5170
X204650Y-55130
X363144Y-35025
X375050Y-43280
X386956Y-35025
X277310Y-29570
X299180Y-63860
X248640Y-55150
X319700Y-62300
X391130Y-62300
X301280Y-5030
X359480Y-5190
X80110Y-3020
X316420Y-23170
X133600Y-62300
X102040Y-43290
X364940Y-62350
X285910Y-47240
X90744Y-70565
X102650Y-62310
X114556Y-70565
X250229Y-85323
X263591Y-90922
X273521Y-80372
X174894Y-79321
X184824Y-89871
X198186Y-84272
X321790Y-3040
X103140Y-5150
X127550Y-24210
X140830Y-3000
X377950Y-24230
X172750Y-67830
X128260Y-43250
X261940Y-71800
X154100Y-63880
X97300Y-43270
X215120Y-96320
X362564Y-70580
X374470Y-62325
X386376Y-70580
X198610Y-14900
X166690Y-27590
X161340Y-6970
X264030Y-12910
X71890Y-41130
X191370Y-71800
X267290Y-51180
X325060Y-43280
X172600Y-78840
X182530Y-89390
X195892Y-83791
X217230Y-18850
X148050Y-23620
X340410Y-5180
X167380Y-47240
X210010Y-75750
X335050Y-24230
X344100Y-43280
X212830Y-95830
X357084Y-13425
X368990Y-5170
X380896Y-13425
X240030Y-37490
X103760Y-24220
X203940Y-35510
X148760Y-43280
X186020Y-51190
X243280Y-75750
X354120Y-24200
T2
G00X226882Y9748
M15
G01X226882Y10348
M16
G05
G00X226882Y5318
M15
G01X226882Y6418
M16
G05
G00X235522Y9748
M15
G01X235522Y10348
M16
G05
G00X235522Y5318
M15
G01X235522Y6418
M16
G05
T0
M30
