%TF.GenerationSoftware,KiCad,Pcbnew,(5.1.6)-1*%
%TF.CreationDate,2020-07-07T18:39:20+02:00*%
%TF.ProjectId,Proyecto A,50726f79-6563-4746-9f20-412e6b696361,rev?*%
%TF.SameCoordinates,Original*%
%TF.FileFunction,Soldermask,Bot*%
%TF.FilePolarity,Negative*%
%FSLAX46Y46*%
G04 Gerber Fmt 4.6, Leading zero omitted, Abs format (unit mm)*
G04 Created by KiCad (PCBNEW (5.1.6)-1) date 2020-07-07 18:39:20*
%MOMM*%
%LPD*%
G01*
G04 APERTURE LIST*
%ADD10C,2.250000*%
%ADD11C,3.987800*%
%ADD12C,1.750000*%
%ADD13O,1.200000X1.800000*%
%ADD14O,1.200000X2.300000*%
%ADD15C,0.650000*%
%ADD16R,1.200000X0.900000*%
%ADD17C,1.800000*%
%ADD18R,1.800000X1.800000*%
%ADD19C,0.100000*%
%ADD20R,1.800000X1.100000*%
%ADD21C,3.048000*%
%ADD22R,0.900000X1.200000*%
%ADD23R,1.500000X1.000000*%
G04 APERTURE END LIST*
D10*
%TO.C,K4*%
X183500686Y-6499106D03*
D11*
X179960000Y-10940000D03*
D10*
X176761353Y-7663362D03*
D12*
X174991010Y-9883809D03*
X184928990Y-11996191D03*
%TD*%
%TO.C,C21*%
G36*
G01*
X171042650Y-86115499D02*
X170130150Y-86115499D01*
G75*
G02*
X169886400Y-85871749I0J243750D01*
G01*
X169886400Y-85384249D01*
G75*
G02*
X170130150Y-85140499I243750J0D01*
G01*
X171042650Y-85140499D01*
G75*
G02*
X171286400Y-85384249I0J-243750D01*
G01*
X171286400Y-85871749D01*
G75*
G02*
X171042650Y-86115499I-243750J0D01*
G01*
G37*
G36*
G01*
X171042650Y-87990499D02*
X170130150Y-87990499D01*
G75*
G02*
X169886400Y-87746749I0J243750D01*
G01*
X169886400Y-87259249D01*
G75*
G02*
X170130150Y-87015499I243750J0D01*
G01*
X171042650Y-87015499D01*
G75*
G02*
X171286400Y-87259249I0J-243750D01*
G01*
X171286400Y-87746749D01*
G75*
G02*
X171042650Y-87990499I-243750J0D01*
G01*
G37*
%TD*%
%TO.C,C20*%
G36*
G01*
X128497650Y-84132000D02*
X127585150Y-84132000D01*
G75*
G02*
X127341400Y-83888250I0J243750D01*
G01*
X127341400Y-83400750D01*
G75*
G02*
X127585150Y-83157000I243750J0D01*
G01*
X128497650Y-83157000D01*
G75*
G02*
X128741400Y-83400750I0J-243750D01*
G01*
X128741400Y-83888250D01*
G75*
G02*
X128497650Y-84132000I-243750J0D01*
G01*
G37*
G36*
G01*
X128497650Y-86007000D02*
X127585150Y-86007000D01*
G75*
G02*
X127341400Y-85763250I0J243750D01*
G01*
X127341400Y-85275750D01*
G75*
G02*
X127585150Y-85032000I243750J0D01*
G01*
X128497650Y-85032000D01*
G75*
G02*
X128741400Y-85275750I0J-243750D01*
G01*
X128741400Y-85763250D01*
G75*
G02*
X128497650Y-86007000I-243750J0D01*
G01*
G37*
%TD*%
%TO.C,C19*%
G36*
G01*
X72092400Y-57963750D02*
X72092400Y-58876250D01*
G75*
G02*
X71848650Y-59120000I-243750J0D01*
G01*
X71361150Y-59120000D01*
G75*
G02*
X71117400Y-58876250I0J243750D01*
G01*
X71117400Y-57963750D01*
G75*
G02*
X71361150Y-57720000I243750J0D01*
G01*
X71848650Y-57720000D01*
G75*
G02*
X72092400Y-57963750I0J-243750D01*
G01*
G37*
G36*
G01*
X73967400Y-57963750D02*
X73967400Y-58876250D01*
G75*
G02*
X73723650Y-59120000I-243750J0D01*
G01*
X73236150Y-59120000D01*
G75*
G02*
X72992400Y-58876250I0J243750D01*
G01*
X72992400Y-57963750D01*
G75*
G02*
X73236150Y-57720000I243750J0D01*
G01*
X73723650Y-57720000D01*
G75*
G02*
X73967400Y-57963750I0J-243750D01*
G01*
G37*
%TD*%
%TO.C,C18*%
G36*
G01*
X109066650Y-15298000D02*
X108154150Y-15298000D01*
G75*
G02*
X107910400Y-15054250I0J243750D01*
G01*
X107910400Y-14566750D01*
G75*
G02*
X108154150Y-14323000I243750J0D01*
G01*
X109066650Y-14323000D01*
G75*
G02*
X109310400Y-14566750I0J-243750D01*
G01*
X109310400Y-15054250D01*
G75*
G02*
X109066650Y-15298000I-243750J0D01*
G01*
G37*
G36*
G01*
X109066650Y-17173000D02*
X108154150Y-17173000D01*
G75*
G02*
X107910400Y-16929250I0J243750D01*
G01*
X107910400Y-16441750D01*
G75*
G02*
X108154150Y-16198000I243750J0D01*
G01*
X109066650Y-16198000D01*
G75*
G02*
X109310400Y-16441750I0J-243750D01*
G01*
X109310400Y-16929250D01*
G75*
G02*
X109066650Y-17173000I-243750J0D01*
G01*
G37*
%TD*%
%TO.C,C17*%
G36*
G01*
X143991650Y-11312499D02*
X143079150Y-11312499D01*
G75*
G02*
X142835400Y-11068749I0J243750D01*
G01*
X142835400Y-10581249D01*
G75*
G02*
X143079150Y-10337499I243750J0D01*
G01*
X143991650Y-10337499D01*
G75*
G02*
X144235400Y-10581249I0J-243750D01*
G01*
X144235400Y-11068749D01*
G75*
G02*
X143991650Y-11312499I-243750J0D01*
G01*
G37*
G36*
G01*
X143991650Y-13187499D02*
X143079150Y-13187499D01*
G75*
G02*
X142835400Y-12943749I0J243750D01*
G01*
X142835400Y-12456249D01*
G75*
G02*
X143079150Y-12212499I243750J0D01*
G01*
X143991650Y-12212499D01*
G75*
G02*
X144235400Y-12456249I0J-243750D01*
G01*
X144235400Y-12943749D01*
G75*
G02*
X143991650Y-13187499I-243750J0D01*
G01*
G37*
%TD*%
%TO.C,C16*%
G36*
G01*
X198728650Y2101000D02*
X197816150Y2101000D01*
G75*
G02*
X197572400Y2344750I0J243750D01*
G01*
X197572400Y2832250D01*
G75*
G02*
X197816150Y3076000I243750J0D01*
G01*
X198728650Y3076000D01*
G75*
G02*
X198972400Y2832250I0J-243750D01*
G01*
X198972400Y2344750D01*
G75*
G02*
X198728650Y2101000I-243750J0D01*
G01*
G37*
G36*
G01*
X198728650Y226000D02*
X197816150Y226000D01*
G75*
G02*
X197572400Y469750I0J243750D01*
G01*
X197572400Y957250D01*
G75*
G02*
X197816150Y1201000I243750J0D01*
G01*
X198728650Y1201000D01*
G75*
G02*
X198972400Y957250I0J-243750D01*
G01*
X198972400Y469750D01*
G75*
G02*
X198728650Y226000I-243750J0D01*
G01*
G37*
%TD*%
%TO.C,C15*%
G36*
G01*
X248639650Y2306499D02*
X247727150Y2306499D01*
G75*
G02*
X247483400Y2550249I0J243750D01*
G01*
X247483400Y3037749D01*
G75*
G02*
X247727150Y3281499I243750J0D01*
G01*
X248639650Y3281499D01*
G75*
G02*
X248883400Y3037749I0J-243750D01*
G01*
X248883400Y2550249D01*
G75*
G02*
X248639650Y2306499I-243750J0D01*
G01*
G37*
G36*
G01*
X248639650Y431499D02*
X247727150Y431499D01*
G75*
G02*
X247483400Y675249I0J243750D01*
G01*
X247483400Y1162749D01*
G75*
G02*
X247727150Y1406499I243750J0D01*
G01*
X248639650Y1406499D01*
G75*
G02*
X248883400Y1162749I0J-243750D01*
G01*
X248883400Y675249D01*
G75*
G02*
X248639650Y431499I-243750J0D01*
G01*
G37*
%TD*%
%TO.C,C14*%
G36*
G01*
X288644650Y-12709499D02*
X287732150Y-12709499D01*
G75*
G02*
X287488400Y-12465749I0J243750D01*
G01*
X287488400Y-11978249D01*
G75*
G02*
X287732150Y-11734499I243750J0D01*
G01*
X288644650Y-11734499D01*
G75*
G02*
X288888400Y-11978249I0J-243750D01*
G01*
X288888400Y-12465749D01*
G75*
G02*
X288644650Y-12709499I-243750J0D01*
G01*
G37*
G36*
G01*
X288644650Y-14584499D02*
X287732150Y-14584499D01*
G75*
G02*
X287488400Y-14340749I0J243750D01*
G01*
X287488400Y-13853249D01*
G75*
G02*
X287732150Y-13609499I243750J0D01*
G01*
X288644650Y-13609499D01*
G75*
G02*
X288888400Y-13853249I0J-243750D01*
G01*
X288888400Y-14340749D01*
G75*
G02*
X288644650Y-14584499I-243750J0D01*
G01*
G37*
%TD*%
%TO.C,C13*%
G36*
G01*
X338428650Y-12377000D02*
X337516150Y-12377000D01*
G75*
G02*
X337272400Y-12133250I0J243750D01*
G01*
X337272400Y-11645750D01*
G75*
G02*
X337516150Y-11402000I243750J0D01*
G01*
X338428650Y-11402000D01*
G75*
G02*
X338672400Y-11645750I0J-243750D01*
G01*
X338672400Y-12133250D01*
G75*
G02*
X338428650Y-12377000I-243750J0D01*
G01*
G37*
G36*
G01*
X338428650Y-14252000D02*
X337516150Y-14252000D01*
G75*
G02*
X337272400Y-14008250I0J243750D01*
G01*
X337272400Y-13520750D01*
G75*
G02*
X337516150Y-13277000I243750J0D01*
G01*
X338428650Y-13277000D01*
G75*
G02*
X338672400Y-13520750I0J-243750D01*
G01*
X338672400Y-14008250D01*
G75*
G02*
X338428650Y-14252000I-243750J0D01*
G01*
G37*
%TD*%
%TO.C,C12*%
G36*
G01*
X394683400Y-21411250D02*
X394683400Y-20498750D01*
G75*
G02*
X394927150Y-20255000I243750J0D01*
G01*
X395414650Y-20255000D01*
G75*
G02*
X395658400Y-20498750I0J-243750D01*
G01*
X395658400Y-21411250D01*
G75*
G02*
X395414650Y-21655000I-243750J0D01*
G01*
X394927150Y-21655000D01*
G75*
G02*
X394683400Y-21411250I0J243750D01*
G01*
G37*
G36*
G01*
X392808400Y-21411250D02*
X392808400Y-20498750D01*
G75*
G02*
X393052150Y-20255000I243750J0D01*
G01*
X393539650Y-20255000D01*
G75*
G02*
X393783400Y-20498750I0J-243750D01*
G01*
X393783400Y-21411250D01*
G75*
G02*
X393539650Y-21655000I-243750J0D01*
G01*
X393052150Y-21655000D01*
G75*
G02*
X392808400Y-21411250I0J243750D01*
G01*
G37*
%TD*%
%TO.C,C11*%
G36*
G01*
X351763650Y-80527499D02*
X350851150Y-80527499D01*
G75*
G02*
X350607400Y-80283749I0J243750D01*
G01*
X350607400Y-79796249D01*
G75*
G02*
X350851150Y-79552499I243750J0D01*
G01*
X351763650Y-79552499D01*
G75*
G02*
X352007400Y-79796249I0J-243750D01*
G01*
X352007400Y-80283749D01*
G75*
G02*
X351763650Y-80527499I-243750J0D01*
G01*
G37*
G36*
G01*
X351763650Y-82402499D02*
X350851150Y-82402499D01*
G75*
G02*
X350607400Y-82158749I0J243750D01*
G01*
X350607400Y-81671249D01*
G75*
G02*
X350851150Y-81427499I243750J0D01*
G01*
X351763650Y-81427499D01*
G75*
G02*
X352007400Y-81671249I0J-243750D01*
G01*
X352007400Y-82158749D01*
G75*
G02*
X351763650Y-82402499I-243750J0D01*
G01*
G37*
%TD*%
%TO.C,C10*%
G36*
G01*
X294994650Y-87609500D02*
X294082150Y-87609500D01*
G75*
G02*
X293838400Y-87365750I0J243750D01*
G01*
X293838400Y-86878250D01*
G75*
G02*
X294082150Y-86634500I243750J0D01*
G01*
X294994650Y-86634500D01*
G75*
G02*
X295238400Y-86878250I0J-243750D01*
G01*
X295238400Y-87365750D01*
G75*
G02*
X294994650Y-87609500I-243750J0D01*
G01*
G37*
G36*
G01*
X294994650Y-89484500D02*
X294082150Y-89484500D01*
G75*
G02*
X293838400Y-89240750I0J243750D01*
G01*
X293838400Y-88753250D01*
G75*
G02*
X294082150Y-88509500I243750J0D01*
G01*
X294994650Y-88509500D01*
G75*
G02*
X295238400Y-88753250I0J-243750D01*
G01*
X295238400Y-89240750D01*
G75*
G02*
X294994650Y-89484500I-243750J0D01*
G01*
G37*
%TD*%
%TO.C,C9*%
G36*
G01*
X238352650Y-101355499D02*
X237440150Y-101355499D01*
G75*
G02*
X237196400Y-101111749I0J243750D01*
G01*
X237196400Y-100624249D01*
G75*
G02*
X237440150Y-100380499I243750J0D01*
G01*
X238352650Y-100380499D01*
G75*
G02*
X238596400Y-100624249I0J-243750D01*
G01*
X238596400Y-101111749D01*
G75*
G02*
X238352650Y-101355499I-243750J0D01*
G01*
G37*
G36*
G01*
X238352650Y-103230499D02*
X237440150Y-103230499D01*
G75*
G02*
X237196400Y-102986749I0J243750D01*
G01*
X237196400Y-102499249D01*
G75*
G02*
X237440150Y-102255499I243750J0D01*
G01*
X238352650Y-102255499D01*
G75*
G02*
X238596400Y-102499249I0J-243750D01*
G01*
X238596400Y-102986749D01*
G75*
G02*
X238352650Y-103230499I-243750J0D01*
G01*
G37*
%TD*%
D13*
%TO.C,USB1*%
X226882400Y10048000D03*
X235522400Y10048000D03*
D14*
X226882400Y5868000D03*
X235522400Y5868000D03*
D15*
X234092400Y6398000D03*
X228312400Y6398000D03*
%TD*%
D16*
%TO.C,D_63*%
X294177400Y-81217000D03*
X294177400Y-77917000D03*
%TD*%
%TO.C,R6*%
G36*
G01*
X73000000Y-83743750D02*
X73000000Y-84656250D01*
G75*
G02*
X72756250Y-84900000I-243750J0D01*
G01*
X72268750Y-84900000D01*
G75*
G02*
X72025000Y-84656250I0J243750D01*
G01*
X72025000Y-83743750D01*
G75*
G02*
X72268750Y-83500000I243750J0D01*
G01*
X72756250Y-83500000D01*
G75*
G02*
X73000000Y-83743750I0J-243750D01*
G01*
G37*
G36*
G01*
X74875000Y-83743750D02*
X74875000Y-84656250D01*
G75*
G02*
X74631250Y-84900000I-243750J0D01*
G01*
X74143750Y-84900000D01*
G75*
G02*
X73900000Y-84656250I0J243750D01*
G01*
X73900000Y-83743750D01*
G75*
G02*
X74143750Y-83500000I243750J0D01*
G01*
X74631250Y-83500000D01*
G75*
G02*
X74875000Y-83743750I0J-243750D01*
G01*
G37*
%TD*%
D17*
%TO.C,D2*%
X65940000Y-84260000D03*
D18*
X63400000Y-84260000D03*
%TD*%
D17*
%TO.C,D3*%
X65937400Y-79717000D03*
D18*
X63397400Y-79717000D03*
%TD*%
%TO.C,C7*%
G36*
G01*
X216968216Y-50791419D02*
X216322981Y-50146184D01*
G75*
G02*
X216322981Y-49801470I172357J172357D01*
G01*
X216667696Y-49456755D01*
G75*
G02*
X217012410Y-49456755I172357J-172357D01*
G01*
X217657645Y-50101990D01*
G75*
G02*
X217657645Y-50446704I-172357J-172357D01*
G01*
X217312930Y-50791419D01*
G75*
G02*
X216968216Y-50791419I-172357J172357D01*
G01*
G37*
G36*
G01*
X215642390Y-52117245D02*
X214997155Y-51472010D01*
G75*
G02*
X214997155Y-51127296I172357J172357D01*
G01*
X215341870Y-50782581D01*
G75*
G02*
X215686584Y-50782581I172357J-172357D01*
G01*
X216331819Y-51427816D01*
G75*
G02*
X216331819Y-51772530I-172357J-172357D01*
G01*
X215987104Y-52117245D01*
G75*
G02*
X215642390Y-52117245I-172357J172357D01*
G01*
G37*
%TD*%
D16*
%TO.C,D_40*%
X300557528Y-37820961D03*
X300557528Y-34520961D03*
%TD*%
D10*
%TO.C,SPLIT_BKS1*%
X381091880Y-71680D03*
D11*
X378551880Y-5151680D03*
D10*
X374741880Y-2611680D03*
D12*
X373471880Y-5151680D03*
X383631880Y-5151680D03*
%TD*%
D16*
%TO.C,D_44*%
X386670000Y-50000D03*
X386670000Y-3350000D03*
%TD*%
D19*
%TO.C,Y1*%
G36*
X237676639Y-50297711D02*
G01*
X236828111Y-51146239D01*
X235838161Y-50156289D01*
X236686689Y-49307761D01*
X237676639Y-50297711D01*
G37*
G36*
X236121004Y-48742076D02*
G01*
X235272476Y-49590604D01*
X234282526Y-48600654D01*
X235131054Y-47752126D01*
X236121004Y-48742076D01*
G37*
G36*
X234918923Y-49944157D02*
G01*
X234070395Y-50792685D01*
X233080445Y-49802735D01*
X233928973Y-48954207D01*
X234918923Y-49944157D01*
G37*
G36*
X236474558Y-51499792D02*
G01*
X235626030Y-52348320D01*
X234636080Y-51358370D01*
X235484608Y-50509842D01*
X236474558Y-51499792D01*
G37*
%TD*%
%TO.C,U1*%
G36*
X219684700Y-58206978D02*
G01*
X220073608Y-58595886D01*
X219012948Y-59656546D01*
X218624040Y-59267638D01*
X219684700Y-58206978D01*
G37*
G36*
X220250386Y-58772663D02*
G01*
X220639294Y-59161571D01*
X219578634Y-60222231D01*
X219189726Y-59833323D01*
X220250386Y-58772663D01*
G37*
G36*
X220816071Y-59338348D02*
G01*
X221204979Y-59727256D01*
X220144319Y-60787916D01*
X219755411Y-60399008D01*
X220816071Y-59338348D01*
G37*
G36*
X221381756Y-59904034D02*
G01*
X221770664Y-60292942D01*
X220710004Y-61353602D01*
X220321096Y-60964694D01*
X221381756Y-59904034D01*
G37*
G36*
X221947442Y-60469719D02*
G01*
X222336350Y-60858627D01*
X221275690Y-61919287D01*
X220886782Y-61530379D01*
X221947442Y-60469719D01*
G37*
G36*
X222513127Y-61035405D02*
G01*
X222902035Y-61424313D01*
X221841375Y-62484973D01*
X221452467Y-62096065D01*
X222513127Y-61035405D01*
G37*
G36*
X223078813Y-61601090D02*
G01*
X223467721Y-61989998D01*
X222407061Y-63050658D01*
X222018153Y-62661750D01*
X223078813Y-61601090D01*
G37*
G36*
X223644498Y-62166776D02*
G01*
X224033406Y-62555684D01*
X222972746Y-63616344D01*
X222583838Y-63227436D01*
X223644498Y-62166776D01*
G37*
G36*
X224210184Y-62732461D02*
G01*
X224599092Y-63121369D01*
X223538432Y-64182029D01*
X223149524Y-63793121D01*
X224210184Y-62732461D01*
G37*
G36*
X224775869Y-63298146D02*
G01*
X225164777Y-63687054D01*
X224104117Y-64747714D01*
X223715209Y-64358806D01*
X224775869Y-63298146D01*
G37*
G36*
X225341554Y-63863832D02*
G01*
X225730462Y-64252740D01*
X224669802Y-65313400D01*
X224280894Y-64924492D01*
X225341554Y-63863832D01*
G37*
G36*
X226685058Y-64252740D02*
G01*
X227073966Y-63863832D01*
X228134626Y-64924492D01*
X227745718Y-65313400D01*
X226685058Y-64252740D01*
G37*
G36*
X227250743Y-63687054D02*
G01*
X227639651Y-63298146D01*
X228700311Y-64358806D01*
X228311403Y-64747714D01*
X227250743Y-63687054D01*
G37*
G36*
X227816428Y-63121369D02*
G01*
X228205336Y-62732461D01*
X229265996Y-63793121D01*
X228877088Y-64182029D01*
X227816428Y-63121369D01*
G37*
G36*
X228382114Y-62555684D02*
G01*
X228771022Y-62166776D01*
X229831682Y-63227436D01*
X229442774Y-63616344D01*
X228382114Y-62555684D01*
G37*
G36*
X228947799Y-61989998D02*
G01*
X229336707Y-61601090D01*
X230397367Y-62661750D01*
X230008459Y-63050658D01*
X228947799Y-61989998D01*
G37*
G36*
X229513485Y-61424313D02*
G01*
X229902393Y-61035405D01*
X230963053Y-62096065D01*
X230574145Y-62484973D01*
X229513485Y-61424313D01*
G37*
G36*
X230079170Y-60858627D02*
G01*
X230468078Y-60469719D01*
X231528738Y-61530379D01*
X231139830Y-61919287D01*
X230079170Y-60858627D01*
G37*
G36*
X230644856Y-60292942D02*
G01*
X231033764Y-59904034D01*
X232094424Y-60964694D01*
X231705516Y-61353602D01*
X230644856Y-60292942D01*
G37*
G36*
X231210541Y-59727256D02*
G01*
X231599449Y-59338348D01*
X232660109Y-60399008D01*
X232271201Y-60787916D01*
X231210541Y-59727256D01*
G37*
G36*
X231776226Y-59161571D02*
G01*
X232165134Y-58772663D01*
X233225794Y-59833323D01*
X232836886Y-60222231D01*
X231776226Y-59161571D01*
G37*
G36*
X232341912Y-58595886D02*
G01*
X232730820Y-58206978D01*
X233791480Y-59267638D01*
X233402572Y-59656546D01*
X232341912Y-58595886D01*
G37*
G36*
X233402572Y-55802814D02*
G01*
X233791480Y-56191722D01*
X232730820Y-57252382D01*
X232341912Y-56863474D01*
X233402572Y-55802814D01*
G37*
G36*
X232836886Y-55237129D02*
G01*
X233225794Y-55626037D01*
X232165134Y-56686697D01*
X231776226Y-56297789D01*
X232836886Y-55237129D01*
G37*
G36*
X232271201Y-54671444D02*
G01*
X232660109Y-55060352D01*
X231599449Y-56121012D01*
X231210541Y-55732104D01*
X232271201Y-54671444D01*
G37*
G36*
X231705516Y-54105758D02*
G01*
X232094424Y-54494666D01*
X231033764Y-55555326D01*
X230644856Y-55166418D01*
X231705516Y-54105758D01*
G37*
G36*
X231139830Y-53540073D02*
G01*
X231528738Y-53928981D01*
X230468078Y-54989641D01*
X230079170Y-54600733D01*
X231139830Y-53540073D01*
G37*
G36*
X230574145Y-52974387D02*
G01*
X230963053Y-53363295D01*
X229902393Y-54423955D01*
X229513485Y-54035047D01*
X230574145Y-52974387D01*
G37*
G36*
X230008459Y-52408702D02*
G01*
X230397367Y-52797610D01*
X229336707Y-53858270D01*
X228947799Y-53469362D01*
X230008459Y-52408702D01*
G37*
G36*
X229442774Y-51843016D02*
G01*
X229831682Y-52231924D01*
X228771022Y-53292584D01*
X228382114Y-52903676D01*
X229442774Y-51843016D01*
G37*
G36*
X228877088Y-51277331D02*
G01*
X229265996Y-51666239D01*
X228205336Y-52726899D01*
X227816428Y-52337991D01*
X228877088Y-51277331D01*
G37*
G36*
X228311403Y-50711646D02*
G01*
X228700311Y-51100554D01*
X227639651Y-52161214D01*
X227250743Y-51772306D01*
X228311403Y-50711646D01*
G37*
G36*
X227745718Y-50145960D02*
G01*
X228134626Y-50534868D01*
X227073966Y-51595528D01*
X226685058Y-51206620D01*
X227745718Y-50145960D01*
G37*
G36*
X224280894Y-50534868D02*
G01*
X224669802Y-50145960D01*
X225730462Y-51206620D01*
X225341554Y-51595528D01*
X224280894Y-50534868D01*
G37*
G36*
X223715209Y-51100554D02*
G01*
X224104117Y-50711646D01*
X225164777Y-51772306D01*
X224775869Y-52161214D01*
X223715209Y-51100554D01*
G37*
G36*
X223149524Y-51666239D02*
G01*
X223538432Y-51277331D01*
X224599092Y-52337991D01*
X224210184Y-52726899D01*
X223149524Y-51666239D01*
G37*
G36*
X222583838Y-52231924D02*
G01*
X222972746Y-51843016D01*
X224033406Y-52903676D01*
X223644498Y-53292584D01*
X222583838Y-52231924D01*
G37*
G36*
X222018153Y-52797610D02*
G01*
X222407061Y-52408702D01*
X223467721Y-53469362D01*
X223078813Y-53858270D01*
X222018153Y-52797610D01*
G37*
G36*
X221452467Y-53363295D02*
G01*
X221841375Y-52974387D01*
X222902035Y-54035047D01*
X222513127Y-54423955D01*
X221452467Y-53363295D01*
G37*
G36*
X220886782Y-53928981D02*
G01*
X221275690Y-53540073D01*
X222336350Y-54600733D01*
X221947442Y-54989641D01*
X220886782Y-53928981D01*
G37*
G36*
X220321096Y-54494666D02*
G01*
X220710004Y-54105758D01*
X221770664Y-55166418D01*
X221381756Y-55555326D01*
X220321096Y-54494666D01*
G37*
G36*
X219755411Y-55060352D02*
G01*
X220144319Y-54671444D01*
X221204979Y-55732104D01*
X220816071Y-56121012D01*
X219755411Y-55060352D01*
G37*
G36*
X219189726Y-55626037D02*
G01*
X219578634Y-55237129D01*
X220639294Y-56297789D01*
X220250386Y-56686697D01*
X219189726Y-55626037D01*
G37*
G36*
X218624040Y-56191722D02*
G01*
X219012948Y-55802814D01*
X220073608Y-56863474D01*
X219684700Y-57252382D01*
X218624040Y-56191722D01*
G37*
%TD*%
D20*
%TO.C,SW1*%
X216550000Y-35550000D03*
X222750000Y-35550000D03*
X216550000Y-31850000D03*
X222750000Y-31850000D03*
%TD*%
%TO.C,R9*%
G36*
G01*
X228573650Y-2262500D02*
X227661150Y-2262500D01*
G75*
G02*
X227417400Y-2018750I0J243750D01*
G01*
X227417400Y-1531250D01*
G75*
G02*
X227661150Y-1287500I243750J0D01*
G01*
X228573650Y-1287500D01*
G75*
G02*
X228817400Y-1531250I0J-243750D01*
G01*
X228817400Y-2018750D01*
G75*
G02*
X228573650Y-2262500I-243750J0D01*
G01*
G37*
G36*
G01*
X228573650Y-387500D02*
X227661150Y-387500D01*
G75*
G02*
X227417400Y-143750I0J243750D01*
G01*
X227417400Y343750D01*
G75*
G02*
X227661150Y587500I243750J0D01*
G01*
X228573650Y587500D01*
G75*
G02*
X228817400Y343750I0J-243750D01*
G01*
X228817400Y-143750D01*
G75*
G02*
X228573650Y-387500I-243750J0D01*
G01*
G37*
%TD*%
%TO.C,R8*%
G36*
G01*
X240384650Y-1346500D02*
X239472150Y-1346500D01*
G75*
G02*
X239228400Y-1102750I0J243750D01*
G01*
X239228400Y-615250D01*
G75*
G02*
X239472150Y-371500I243750J0D01*
G01*
X240384650Y-371500D01*
G75*
G02*
X240628400Y-615250I0J-243750D01*
G01*
X240628400Y-1102750D01*
G75*
G02*
X240384650Y-1346500I-243750J0D01*
G01*
G37*
G36*
G01*
X240384650Y528500D02*
X239472150Y528500D01*
G75*
G02*
X239228400Y772250I0J243750D01*
G01*
X239228400Y1259750D01*
G75*
G02*
X239472150Y1503500I243750J0D01*
G01*
X240384650Y1503500D01*
G75*
G02*
X240628400Y1259750I0J-243750D01*
G01*
X240628400Y772250D01*
G75*
G02*
X240384650Y528500I-243750J0D01*
G01*
G37*
%TD*%
%TO.C,R7*%
G36*
G01*
X73050000Y-79393750D02*
X73050000Y-80306250D01*
G75*
G02*
X72806250Y-80550000I-243750J0D01*
G01*
X72318750Y-80550000D01*
G75*
G02*
X72075000Y-80306250I0J243750D01*
G01*
X72075000Y-79393750D01*
G75*
G02*
X72318750Y-79150000I243750J0D01*
G01*
X72806250Y-79150000D01*
G75*
G02*
X73050000Y-79393750I0J-243750D01*
G01*
G37*
G36*
G01*
X74925000Y-79393750D02*
X74925000Y-80306250D01*
G75*
G02*
X74681250Y-80550000I-243750J0D01*
G01*
X74193750Y-80550000D01*
G75*
G02*
X73950000Y-80306250I0J243750D01*
G01*
X73950000Y-79393750D01*
G75*
G02*
X74193750Y-79150000I243750J0D01*
G01*
X74681250Y-79150000D01*
G75*
G02*
X74925000Y-79393750I0J-243750D01*
G01*
G37*
%TD*%
%TO.C,R5*%
G36*
G01*
X72842499Y-88293750D02*
X72842499Y-89206250D01*
G75*
G02*
X72598749Y-89450000I-243750J0D01*
G01*
X72111249Y-89450000D01*
G75*
G02*
X71867499Y-89206250I0J243750D01*
G01*
X71867499Y-88293750D01*
G75*
G02*
X72111249Y-88050000I243750J0D01*
G01*
X72598749Y-88050000D01*
G75*
G02*
X72842499Y-88293750I0J-243750D01*
G01*
G37*
G36*
G01*
X74717499Y-88293750D02*
X74717499Y-89206250D01*
G75*
G02*
X74473749Y-89450000I-243750J0D01*
G01*
X73986249Y-89450000D01*
G75*
G02*
X73742499Y-89206250I0J243750D01*
G01*
X73742499Y-88293750D01*
G75*
G02*
X73986249Y-88050000I243750J0D01*
G01*
X74473749Y-88050000D01*
G75*
G02*
X74717499Y-88293750I0J-243750D01*
G01*
G37*
%TD*%
%TO.C,R4*%
G36*
G01*
X227568216Y-68991419D02*
X226922981Y-68346184D01*
G75*
G02*
X226922981Y-68001470I172357J172357D01*
G01*
X227267696Y-67656755D01*
G75*
G02*
X227612410Y-67656755I172357J-172357D01*
G01*
X228257645Y-68301990D01*
G75*
G02*
X228257645Y-68646704I-172357J-172357D01*
G01*
X227912930Y-68991419D01*
G75*
G02*
X227568216Y-68991419I-172357J172357D01*
G01*
G37*
G36*
G01*
X226242390Y-70317245D02*
X225597155Y-69672010D01*
G75*
G02*
X225597155Y-69327296I172357J172357D01*
G01*
X225941870Y-68982581D01*
G75*
G02*
X226286584Y-68982581I172357J-172357D01*
G01*
X226931819Y-69627816D01*
G75*
G02*
X226931819Y-69972530I-172357J-172357D01*
G01*
X226587104Y-70317245D01*
G75*
G02*
X226242390Y-70317245I-172357J172357D01*
G01*
G37*
%TD*%
%TO.C,R3*%
G36*
G01*
X215914901Y-37630750D02*
X215914901Y-38543250D01*
G75*
G02*
X215671151Y-38787000I-243750J0D01*
G01*
X215183651Y-38787000D01*
G75*
G02*
X214939901Y-38543250I0J243750D01*
G01*
X214939901Y-37630750D01*
G75*
G02*
X215183651Y-37387000I243750J0D01*
G01*
X215671151Y-37387000D01*
G75*
G02*
X215914901Y-37630750I0J-243750D01*
G01*
G37*
G36*
G01*
X217789901Y-37630750D02*
X217789901Y-38543250D01*
G75*
G02*
X217546151Y-38787000I-243750J0D01*
G01*
X217058651Y-38787000D01*
G75*
G02*
X216814901Y-38543250I0J243750D01*
G01*
X216814901Y-37630750D01*
G75*
G02*
X217058651Y-37387000I243750J0D01*
G01*
X217546151Y-37387000D01*
G75*
G02*
X217789901Y-37630750I0J-243750D01*
G01*
G37*
%TD*%
%TO.C,R2*%
G36*
G01*
X230732650Y-2262500D02*
X229820150Y-2262500D01*
G75*
G02*
X229576400Y-2018750I0J243750D01*
G01*
X229576400Y-1531250D01*
G75*
G02*
X229820150Y-1287500I243750J0D01*
G01*
X230732650Y-1287500D01*
G75*
G02*
X230976400Y-1531250I0J-243750D01*
G01*
X230976400Y-2018750D01*
G75*
G02*
X230732650Y-2262500I-243750J0D01*
G01*
G37*
G36*
G01*
X230732650Y-387500D02*
X229820150Y-387500D01*
G75*
G02*
X229576400Y-143750I0J243750D01*
G01*
X229576400Y343750D01*
G75*
G02*
X229820150Y587500I243750J0D01*
G01*
X230732650Y587500D01*
G75*
G02*
X230976400Y343750I0J-243750D01*
G01*
X230976400Y-143750D01*
G75*
G02*
X230732650Y-387500I-243750J0D01*
G01*
G37*
%TD*%
%TO.C,R1*%
G36*
G01*
X232891650Y-2272500D02*
X231979150Y-2272500D01*
G75*
G02*
X231735400Y-2028750I0J243750D01*
G01*
X231735400Y-1541250D01*
G75*
G02*
X231979150Y-1297500I243750J0D01*
G01*
X232891650Y-1297500D01*
G75*
G02*
X233135400Y-1541250I0J-243750D01*
G01*
X233135400Y-2028750D01*
G75*
G02*
X232891650Y-2272500I-243750J0D01*
G01*
G37*
G36*
G01*
X232891650Y-397500D02*
X231979150Y-397500D01*
G75*
G02*
X231735400Y-153750I0J243750D01*
G01*
X231735400Y333750D01*
G75*
G02*
X231979150Y577500I243750J0D01*
G01*
X232891650Y577500D01*
G75*
G02*
X233135400Y333750I0J-243750D01*
G01*
X233135400Y-153750D01*
G75*
G02*
X232891650Y-397500I-243750J0D01*
G01*
G37*
%TD*%
D10*
%TO.C,FUNC1*%
X218660686Y-91879106D03*
D11*
X215120000Y-96320000D03*
D10*
X211921353Y-93043362D03*
D12*
X210151010Y-95263809D03*
X220088990Y-97376191D03*
%TD*%
D10*
%TO.C,lgui1*%
X188364226Y-85429946D03*
D11*
X184823540Y-89870840D03*
D10*
X181624893Y-86594202D03*
D12*
X179854550Y-88814649D03*
X189792530Y-90927031D03*
D21*
X171725207Y-94227752D03*
X195017347Y-99178650D03*
D11*
X174893781Y-79320783D03*
X198185921Y-84271680D03*
%TD*%
D10*
%TO.C,RSHIFT2*%
X377010100Y-57244540D03*
D11*
X374470100Y-62324540D03*
D10*
X370660100Y-59784540D03*
D12*
X369390100Y-62324540D03*
X379550100Y-62324540D03*
D21*
X362563850Y-55339540D03*
X386376350Y-55339540D03*
D11*
X362563850Y-70579540D03*
X386376350Y-70579540D03*
%TD*%
D10*
%TO.C,CAPS2*%
X99840000Y-38190000D03*
D11*
X97300000Y-43270000D03*
D10*
X93490000Y-40730000D03*
D12*
X92220000Y-43270000D03*
X102380000Y-43270000D03*
%TD*%
D10*
%TO.C,BACKSPACE1*%
X371530000Y-90000D03*
D11*
X368990000Y-5170000D03*
D10*
X365180000Y-2630000D03*
D12*
X363910000Y-5170000D03*
X374070000Y-5170000D03*
D21*
X357083750Y1815000D03*
X380896250Y1815000D03*
D11*
X357083750Y-13425000D03*
X380896250Y-13425000D03*
%TD*%
D10*
%TO.C,FUNCT1*%
X393670000Y-57220000D03*
D11*
X391130000Y-62300000D03*
D10*
X387320000Y-59760000D03*
D12*
X386050000Y-62300000D03*
X396210000Y-62300000D03*
%TD*%
D10*
%TO.C,RCTL1*%
X385250000Y-76350000D03*
D11*
X382710000Y-81430000D03*
D10*
X378900000Y-78890000D03*
D12*
X377630000Y-81430000D03*
X387790000Y-81430000D03*
%TD*%
D10*
%TO.C,RALT1*%
X305425704Y-78349914D03*
D11*
X303997400Y-83847000D03*
D10*
X299742562Y-82154649D03*
D12*
X299028410Y-84903191D03*
X308966390Y-82790809D03*
%TD*%
D10*
%TO.C,space2*%
X265019784Y-85425314D03*
D11*
X263591480Y-90922400D03*
D10*
X259336642Y-89230049D03*
D12*
X258622490Y-91978591D03*
X268560470Y-89866209D03*
D21*
X253397673Y-100230210D03*
X276689813Y-95279312D03*
D11*
X250229099Y-85323240D03*
X273521239Y-80372343D03*
%TD*%
D10*
%TO.C,FUNC2*%
X216370686Y-91389106D03*
D11*
X212830000Y-95830000D03*
D10*
X209631353Y-92553362D03*
D12*
X207861010Y-94773809D03*
X217798990Y-96886191D03*
%TD*%
D10*
%TO.C,SPCE2*%
X186070686Y-84949106D03*
D11*
X182530000Y-89390000D03*
D10*
X179331353Y-86113362D03*
D12*
X177561010Y-88333809D03*
X187498990Y-90446191D03*
D21*
X169431667Y-93746912D03*
X192723807Y-98697810D03*
D11*
X172600241Y-78839943D03*
X195892381Y-83790840D03*
%TD*%
D10*
%TO.C,ALT1*%
X152828086Y-79416106D03*
D11*
X149287400Y-83857000D03*
D10*
X146088753Y-80580362D03*
D12*
X144318410Y-82800809D03*
X154256390Y-84913191D03*
%TD*%
D10*
%TO.C,CTRL1*%
X98060000Y-76280000D03*
D11*
X95520000Y-81360000D03*
D10*
X91710000Y-78820000D03*
D12*
X90440000Y-81360000D03*
X100600000Y-81360000D03*
%TD*%
D10*
%TO.C,RSHIFT1*%
X367480000Y-57270000D03*
D11*
X364940000Y-62350000D03*
D10*
X361130000Y-59810000D03*
D12*
X359860000Y-62350000D03*
X370020000Y-62350000D03*
%TD*%
D10*
%TO.C,/1*%
X341270000Y-57230000D03*
D11*
X338730000Y-62310000D03*
D10*
X334920000Y-59770000D03*
D12*
X333650000Y-62310000D03*
X343810000Y-62310000D03*
%TD*%
D10*
%TO.C,.>1*%
X322240000Y-57220000D03*
D11*
X319700000Y-62300000D03*
D10*
X315890000Y-59760000D03*
D12*
X314620000Y-62300000D03*
X324780000Y-62300000D03*
%TD*%
D10*
%TO.C,\u002C<1*%
X300608304Y-58362914D03*
D11*
X299180000Y-63860000D03*
D10*
X294925162Y-62167649D03*
D12*
X294211010Y-64916191D03*
X304148990Y-62803809D03*
%TD*%
D10*
%TO.C,M1*%
X281988304Y-62352914D03*
D11*
X280560000Y-67850000D03*
D10*
X276305162Y-66157649D03*
D12*
X275591010Y-68906191D03*
X285528990Y-66793809D03*
%TD*%
D10*
%TO.C,N1*%
X263368304Y-66302914D03*
D11*
X261940000Y-71800000D03*
D10*
X257685162Y-70107649D03*
D12*
X256971010Y-72856191D03*
X266908990Y-70743809D03*
%TD*%
D10*
%TO.C,B2*%
X244708304Y-70252914D03*
D11*
X243280000Y-75750000D03*
D10*
X239025162Y-74057649D03*
D12*
X238311010Y-76806191D03*
X248248990Y-74693809D03*
%TD*%
D10*
%TO.C,B1*%
X213550686Y-71309106D03*
D11*
X210010000Y-75750000D03*
D10*
X206811353Y-72473362D03*
D12*
X205041010Y-74693809D03*
X214978990Y-76806191D03*
%TD*%
D10*
%TO.C,V1*%
X194910686Y-67359106D03*
D11*
X191370000Y-71800000D03*
D10*
X188171353Y-68523362D03*
D12*
X186401010Y-70743809D03*
X196338990Y-72856191D03*
%TD*%
D10*
%TO.C,C8*%
X176290686Y-63389106D03*
D11*
X172750000Y-67830000D03*
D10*
X169551353Y-64553362D03*
D12*
X167781010Y-66773809D03*
X177718990Y-68886191D03*
%TD*%
D10*
%TO.C,X1*%
X157640686Y-59439106D03*
D11*
X154100000Y-63880000D03*
D10*
X150901353Y-60603362D03*
D12*
X149131010Y-62823809D03*
X159068990Y-64936191D03*
%TD*%
D10*
%TO.C,Z1*%
X136140000Y-57220000D03*
D11*
X133600000Y-62300000D03*
D10*
X129790000Y-59760000D03*
D12*
X128520000Y-62300000D03*
X138680000Y-62300000D03*
%TD*%
D10*
%TO.C,SHIFT1*%
X105190000Y-57230000D03*
D11*
X102650000Y-62310000D03*
D10*
X98840000Y-59770000D03*
D12*
X97570000Y-62310000D03*
X107730000Y-62310000D03*
D21*
X90743750Y-55325000D03*
X114556250Y-55325000D03*
D11*
X90743750Y-70565000D03*
X114556250Y-70565000D03*
%TD*%
D10*
%TO.C,RETURN1*%
X377590000Y-38200000D03*
D11*
X375050000Y-43280000D03*
D10*
X371240000Y-40740000D03*
D12*
X369970000Y-43280000D03*
X380130000Y-43280000D03*
D21*
X363143750Y-50265000D03*
X386956250Y-50265000D03*
D11*
X363143750Y-35025000D03*
X386956250Y-35025000D03*
%TD*%
D10*
%TO.C,'1*%
X346640000Y-38200000D03*
D11*
X344100000Y-43280000D03*
D10*
X340290000Y-40740000D03*
D12*
X339020000Y-43280000D03*
X349180000Y-43280000D03*
%TD*%
D10*
%TO.C,;1*%
X327600000Y-38200000D03*
D11*
X325060000Y-43280000D03*
D10*
X321250000Y-40740000D03*
D12*
X319980000Y-43280000D03*
X330140000Y-43280000D03*
%TD*%
D10*
%TO.C,L1*%
X305998304Y-37752914D03*
D11*
X304570000Y-43250000D03*
D10*
X300315162Y-41557649D03*
D12*
X299601010Y-44306191D03*
X309538990Y-42193809D03*
%TD*%
D10*
%TO.C,K11*%
X287338304Y-41742914D03*
D11*
X285910000Y-47240000D03*
D10*
X281655162Y-45547649D03*
D12*
X280941010Y-48296191D03*
X290878990Y-46183809D03*
%TD*%
D10*
%TO.C,J1*%
X268718304Y-45682914D03*
D11*
X267290000Y-51180000D03*
D10*
X263035162Y-49487649D03*
D12*
X262321010Y-52236191D03*
X272258990Y-50123809D03*
%TD*%
D10*
%TO.C,H1*%
X250068304Y-49652914D03*
D11*
X248640000Y-55150000D03*
D10*
X244385162Y-53457649D03*
D12*
X243671010Y-56206191D03*
X253608990Y-54093809D03*
%TD*%
D10*
%TO.C,G1*%
X208190686Y-50689106D03*
D11*
X204650000Y-55130000D03*
D10*
X201451353Y-51853362D03*
D12*
X199681010Y-54073809D03*
X209618990Y-56186191D03*
%TD*%
D10*
%TO.C,F2*%
X189560686Y-46749106D03*
D11*
X186020000Y-51190000D03*
D10*
X182821353Y-47913362D03*
D12*
X181051010Y-50133809D03*
X190988990Y-52246191D03*
%TD*%
D10*
%TO.C,D18*%
X170920686Y-42799106D03*
D11*
X167380000Y-47240000D03*
D10*
X164181353Y-43963362D03*
D12*
X162411010Y-46183809D03*
X172348990Y-48296191D03*
%TD*%
D10*
%TO.C,S1*%
X152300686Y-38839106D03*
D11*
X148760000Y-43280000D03*
D10*
X145561353Y-40003362D03*
D12*
X143791010Y-42223809D03*
X153728990Y-44336191D03*
%TD*%
D10*
%TO.C,A1*%
X130800000Y-38170000D03*
D11*
X128260000Y-43250000D03*
D10*
X124450000Y-40710000D03*
D12*
X123180000Y-43250000D03*
X133340000Y-43250000D03*
%TD*%
D10*
%TO.C,CAPS1*%
X104580000Y-38210000D03*
D11*
X102040000Y-43290000D03*
D10*
X98230000Y-40750000D03*
D12*
X96960000Y-43290000D03*
X107120000Y-43290000D03*
%TD*%
D10*
%TO.C,PGDN1*%
X74430000Y-36050000D03*
D11*
X71890000Y-41130000D03*
D10*
X68080000Y-38590000D03*
D12*
X66810000Y-41130000D03*
X76970000Y-41130000D03*
%TD*%
D10*
%TO.C,K\u005C1*%
X380490000Y-19150000D03*
D11*
X377950000Y-24230000D03*
D10*
X374140000Y-21690000D03*
D12*
X372870000Y-24230000D03*
X383030000Y-24230000D03*
%TD*%
D10*
%TO.C,]1*%
X356660000Y-19120000D03*
D11*
X354120000Y-24200000D03*
D10*
X350310000Y-21660000D03*
D12*
X349040000Y-24200000D03*
X359200000Y-24200000D03*
%TD*%
D10*
%TO.C,[1*%
X337590000Y-19150000D03*
D11*
X335050000Y-24230000D03*
D10*
X331240000Y-21690000D03*
D12*
X329970000Y-24230000D03*
X340130000Y-24230000D03*
%TD*%
D10*
%TO.C,P1*%
X318960000Y-18090000D03*
D11*
X316420000Y-23170000D03*
D10*
X312610000Y-20630000D03*
D12*
X311340000Y-23170000D03*
X321500000Y-23170000D03*
%TD*%
D10*
%TO.C,O1*%
X297368304Y-20092914D03*
D11*
X295940000Y-25590000D03*
D10*
X291685162Y-23897649D03*
D12*
X290971010Y-26646191D03*
X300908990Y-24533809D03*
%TD*%
D10*
%TO.C,I1*%
X278738304Y-24072914D03*
D11*
X277310000Y-29570000D03*
D10*
X273055162Y-27877649D03*
D12*
X272341010Y-30626191D03*
X282278990Y-28513809D03*
%TD*%
D10*
%TO.C,U2*%
X260098304Y-28032914D03*
D11*
X258670000Y-33530000D03*
D10*
X254415162Y-31837649D03*
D12*
X253701010Y-34586191D03*
X263638990Y-32473809D03*
%TD*%
D10*
%TO.C,Y2*%
X241458304Y-31992914D03*
D11*
X240030000Y-37490000D03*
D10*
X235775162Y-35797649D03*
D12*
X235061010Y-38546191D03*
X244998990Y-36433809D03*
%TD*%
D10*
%TO.C,T1*%
X207480686Y-31069106D03*
D11*
X203940000Y-35510000D03*
D10*
X200741353Y-32233362D03*
D12*
X198971010Y-34453809D03*
X208908990Y-36566191D03*
%TD*%
D10*
%TO.C,R10*%
X188860686Y-27119106D03*
D11*
X185320000Y-31560000D03*
D10*
X182121353Y-28283362D03*
D12*
X180351010Y-30503809D03*
X190288990Y-32616191D03*
%TD*%
D10*
%TO.C,E1*%
X170230686Y-23149106D03*
D11*
X166690000Y-27590000D03*
D10*
X163491353Y-24313362D03*
D12*
X161721010Y-26533809D03*
X171658990Y-28646191D03*
%TD*%
D10*
%TO.C,W1*%
X151590686Y-19179106D03*
D11*
X148050000Y-23620000D03*
D10*
X144851353Y-20343362D03*
D12*
X143081010Y-22563809D03*
X153018990Y-24676191D03*
%TD*%
D10*
%TO.C,Q1*%
X130090000Y-19130000D03*
D11*
X127550000Y-24210000D03*
D10*
X123740000Y-21670000D03*
D12*
X122470000Y-24210000D03*
X132630000Y-24210000D03*
%TD*%
D10*
%TO.C,TAB1*%
X106300000Y-19140000D03*
D11*
X103760000Y-24220000D03*
D10*
X99950000Y-21680000D03*
D12*
X98680000Y-24220000D03*
X108840000Y-24220000D03*
%TD*%
D10*
%TO.C,PGUP1*%
X78490000Y-16990000D03*
D11*
X75950000Y-22070000D03*
D10*
X72140000Y-19530000D03*
D12*
X70870000Y-22070000D03*
X81030000Y-22070000D03*
%TD*%
D10*
%TO.C,K_14*%
X362020000Y-110000D03*
D11*
X359480000Y-5190000D03*
D10*
X355670000Y-2650000D03*
D12*
X354400000Y-5190000D03*
X364560000Y-5190000D03*
%TD*%
D10*
%TO.C,=+1*%
X342950000Y-100000D03*
D11*
X340410000Y-5180000D03*
D10*
X336600000Y-2640000D03*
D12*
X335330000Y-5180000D03*
X345490000Y-5180000D03*
%TD*%
D10*
%TO.C,_-1*%
X324330000Y2040000D03*
D11*
X321790000Y-3040000D03*
D10*
X317980000Y-500000D03*
D12*
X316710000Y-3040000D03*
X326870000Y-3040000D03*
%TD*%
D10*
%TO.C,K10*%
X302708304Y467086D03*
D11*
X301280000Y-5030000D03*
D10*
X297025162Y-3337649D03*
D12*
X296311010Y-6086191D03*
X306248990Y-3973809D03*
%TD*%
D10*
%TO.C,K9*%
X284068304Y-3482914D03*
D11*
X282640000Y-8980000D03*
D10*
X278385162Y-7287649D03*
D12*
X277671010Y-10036191D03*
X287608990Y-7923809D03*
%TD*%
D10*
%TO.C,K8*%
X265458304Y-7412914D03*
D11*
X264030000Y-12910000D03*
D10*
X259775162Y-11217649D03*
D12*
X259061010Y-13966191D03*
X268998990Y-11853809D03*
%TD*%
D10*
%TO.C,K7*%
X246808304Y-11372914D03*
D11*
X245380000Y-16870000D03*
D10*
X241125162Y-15177649D03*
D12*
X240411010Y-17926191D03*
X250348990Y-15813809D03*
%TD*%
D10*
%TO.C,K6*%
X220770686Y-14409106D03*
D11*
X217230000Y-18850000D03*
D10*
X214031353Y-15573362D03*
D12*
X212261010Y-17793809D03*
X222198990Y-19906191D03*
%TD*%
D10*
%TO.C,k5*%
X202150686Y-10459106D03*
D11*
X198610000Y-14900000D03*
D10*
X195411353Y-11623362D03*
D12*
X193641010Y-13843809D03*
X203578990Y-15956191D03*
%TD*%
D10*
%TO.C,K3*%
X164880686Y-2529106D03*
D11*
X161340000Y-6970000D03*
D10*
X158141353Y-3693362D03*
D12*
X156371010Y-5913809D03*
X166308990Y-8026191D03*
%TD*%
D10*
%TO.C,K2*%
X143370000Y2080000D03*
D11*
X140830000Y-3000000D03*
D10*
X137020000Y-460000D03*
D12*
X135750000Y-3000000D03*
X145910000Y-3000000D03*
%TD*%
D10*
%TO.C,K1*%
X124740000Y-90000D03*
D11*
X122200000Y-5170000D03*
D10*
X118390000Y-2630000D03*
D12*
X117120000Y-5170000D03*
X127280000Y-5170000D03*
%TD*%
D10*
%TO.C,KK0*%
X105680000Y-70000D03*
D11*
X103140000Y-5150000D03*
D10*
X99330000Y-2610000D03*
D12*
X98060000Y-5150000D03*
X108220000Y-5150000D03*
%TD*%
D10*
%TO.C,Esc1*%
X82650000Y2060000D03*
D11*
X80110000Y-3020000D03*
D10*
X76300000Y-480000D03*
D12*
X75030000Y-3020000D03*
X85190000Y-3020000D03*
%TD*%
%TO.C,F1*%
G36*
G01*
X224675000Y2075000D02*
X223425000Y2075000D01*
G75*
G02*
X223175000Y2325000I0J250000D01*
G01*
X223175000Y3075000D01*
G75*
G02*
X223425000Y3325000I250000J0D01*
G01*
X224675000Y3325000D01*
G75*
G02*
X224925000Y3075000I0J-250000D01*
G01*
X224925000Y2325000D01*
G75*
G02*
X224675000Y2075000I-250000J0D01*
G01*
G37*
G36*
G01*
X224675000Y-725000D02*
X223425000Y-725000D01*
G75*
G02*
X223175000Y-475000I0J250000D01*
G01*
X223175000Y275000D01*
G75*
G02*
X223425000Y525000I250000J0D01*
G01*
X224675000Y525000D01*
G75*
G02*
X224925000Y275000I0J-250000D01*
G01*
X224925000Y-475000D01*
G75*
G02*
X224675000Y-725000I-250000J0D01*
G01*
G37*
%TD*%
D16*
%TO.C,D_65*%
X398250000Y-55250000D03*
X398250000Y-58550000D03*
%TD*%
%TO.C,D_64*%
X390350000Y-76150000D03*
X390350000Y-72850000D03*
%TD*%
%TO.C,D_62*%
X274768750Y-88768750D03*
X274768750Y-85468750D03*
%TD*%
%TO.C,D_61*%
X208050000Y-88900000D03*
X208050000Y-85600000D03*
%TD*%
%TO.C,D_60*%
X202550000Y-87900000D03*
X202550000Y-84600000D03*
%TD*%
%TO.C,D_59*%
X141807400Y-80097000D03*
X141807400Y-76797000D03*
%TD*%
%TO.C,D_58*%
X103318750Y-77593750D03*
X103318750Y-74293750D03*
%TD*%
%TO.C,D_57*%
X355731250Y-53050000D03*
X355731250Y-49750000D03*
%TD*%
%TO.C,D_56*%
X334300000Y-55431250D03*
X334300000Y-52131250D03*
%TD*%
%TO.C,D_55*%
X315250000Y-55431250D03*
X315250000Y-52131250D03*
%TD*%
%TO.C,D_54*%
X294980000Y-59000000D03*
X294980000Y-55700000D03*
%TD*%
%TO.C,D_53*%
X273650000Y-63500000D03*
X273650000Y-60200000D03*
%TD*%
%TO.C,D_52*%
X257650000Y-66640000D03*
X257650000Y-63340000D03*
%TD*%
%TO.C,D_51*%
X236300000Y-70750000D03*
X236300000Y-67450000D03*
%TD*%
%TO.C,D_50*%
X205400000Y-68300000D03*
X205400000Y-65000000D03*
%TD*%
%TO.C,D_49*%
X186850000Y-64450000D03*
X186850000Y-61150000D03*
%TD*%
%TO.C,D_48*%
X168200000Y-60200000D03*
X168200000Y-56900000D03*
%TD*%
%TO.C,D_47*%
X149450000Y-56750000D03*
X149450000Y-53450000D03*
%TD*%
%TO.C,D_46*%
X127620000Y-56040000D03*
X127620000Y-52740000D03*
%TD*%
%TO.C,D_45*%
X119987500Y-57250000D03*
X119987500Y-53950000D03*
%TD*%
%TO.C,D_43*%
X382350000Y-37400000D03*
X382350000Y-34100000D03*
%TD*%
%TO.C,D_42*%
X338100000Y-37530000D03*
X338100000Y-34230000D03*
%TD*%
%TO.C,D_41*%
X318900000Y-37150000D03*
X318900000Y-33850000D03*
%TD*%
%TO.C,D_39*%
X279531250Y-41143750D03*
X279531250Y-37843750D03*
%TD*%
%TO.C,D_38*%
X260270000Y-46140000D03*
X260270000Y-42840000D03*
%TD*%
%TO.C,D_37*%
X241250000Y-50050000D03*
X241250000Y-46750000D03*
%TD*%
%TO.C,D_36*%
X200950000Y-48287500D03*
X200950000Y-44987500D03*
%TD*%
%TO.C,D_35*%
X181900000Y-44256250D03*
X181900000Y-40956250D03*
%TD*%
%TO.C,D_34*%
X162850000Y-41143750D03*
X162850000Y-37843750D03*
%TD*%
%TO.C,D_33*%
X143800000Y-36381250D03*
X143800000Y-33081250D03*
%TD*%
%TO.C,D_32*%
X122170000Y-37310000D03*
X122170000Y-34010000D03*
%TD*%
%TO.C,D_31*%
X91410000Y-36950000D03*
X91410000Y-33650000D03*
%TD*%
%TO.C,D_30*%
X80250000Y-35950000D03*
X80250000Y-32650000D03*
%TD*%
%TO.C,D_29*%
X370049999Y-22643750D03*
X370049999Y-19343750D03*
%TD*%
%TO.C,D_28*%
X346289074Y-22470545D03*
X346289074Y-19170545D03*
%TD*%
%TO.C,D_27*%
X327175000Y-22375000D03*
X327175000Y-19075000D03*
%TD*%
%TO.C,D_26*%
X307930000Y-21915001D03*
X307930000Y-18615001D03*
%TD*%
%TO.C,D_25*%
X287625000Y-26000000D03*
X287625000Y-22700000D03*
%TD*%
%TO.C,D_24*%
X269000000Y-29850000D03*
X269000000Y-26550000D03*
%TD*%
%TO.C,D_23*%
X250350000Y-34925000D03*
X250350000Y-31625000D03*
%TD*%
%TO.C,D_22*%
X231575000Y-39075000D03*
X231575000Y-35775000D03*
%TD*%
%TO.C,D_21*%
X199520000Y-28010000D03*
X199520000Y-24710000D03*
%TD*%
%TO.C,D_20*%
X179100000Y-27250000D03*
X179100000Y-23950000D03*
%TD*%
%TO.C,D_19*%
X159075000Y-25275000D03*
X159075000Y-21975000D03*
%TD*%
%TO.C,D_18*%
X139127400Y-22187000D03*
X139127400Y-18887000D03*
%TD*%
%TO.C,D_17*%
X118700000Y-23700000D03*
X118700000Y-20400000D03*
%TD*%
%TO.C,D_16*%
X96375000Y-22050000D03*
X96375000Y-18750000D03*
%TD*%
%TO.C,D_15*%
X84000000Y-22050000D03*
X84000000Y-18750000D03*
%TD*%
D22*
%TO.C,D_14*%
X370700000Y3900000D03*
X367400000Y3900000D03*
%TD*%
D16*
%TO.C,D_13*%
X334400000Y1400000D03*
X334400000Y4700000D03*
%TD*%
%TO.C,D_12*%
X313350000Y1550000D03*
X313350000Y4850000D03*
%TD*%
%TO.C,D_11*%
X294150000Y0D03*
X294150000Y3300000D03*
%TD*%
%TO.C,D_10*%
X275200000Y-4500000D03*
X275200000Y-1200000D03*
%TD*%
%TO.C,D_9*%
X257500000Y-8150000D03*
X257500000Y-4850000D03*
%TD*%
%TO.C,D_8*%
X238250000Y-12000000D03*
X238250000Y-8700000D03*
%TD*%
%TO.C,D_7*%
X214240000Y-11410000D03*
X214240000Y-8110000D03*
%TD*%
%TO.C,D_6*%
X196187500Y-7806250D03*
X196187500Y-4506250D03*
%TD*%
%TO.C,D_5*%
X177137500Y-3043750D03*
X177137500Y256250D03*
%TD*%
%TO.C,D_4*%
X158087500Y1718750D03*
X158087500Y5018750D03*
%TD*%
%TO.C,D_3*%
X134050000Y1750000D03*
X134050000Y5050000D03*
%TD*%
%TO.C,D_2*%
X116100000Y1350000D03*
X116100000Y4650000D03*
%TD*%
%TO.C,D_1*%
X97200000Y1100000D03*
X97200000Y4400000D03*
%TD*%
%TO.C,D_0*%
X87400000Y1150000D03*
X87400000Y4450000D03*
%TD*%
D23*
%TO.C,D16*%
X256277400Y3563000D03*
X256277400Y363000D03*
X251377400Y3563000D03*
X251377400Y363000D03*
%TD*%
%TO.C,D15*%
X167377400Y-84987000D03*
X167377400Y-88187000D03*
X162477400Y-84987000D03*
X162477400Y-88187000D03*
%TD*%
%TO.C,D14*%
X296327400Y-11587000D03*
X296327400Y-14787000D03*
X291427400Y-11587000D03*
X291427400Y-14787000D03*
%TD*%
%TO.C,D13*%
X124677400Y-83087000D03*
X124677400Y-86287000D03*
X119777400Y-83087000D03*
X119777400Y-86287000D03*
%TD*%
%TO.C,D12*%
X346127400Y-11787000D03*
X346127400Y-14987000D03*
X341227400Y-11787000D03*
X341227400Y-14987000D03*
%TD*%
%TO.C,D11*%
X70077400Y-53787000D03*
X70077400Y-50587000D03*
X74977400Y-53787000D03*
X74977400Y-50587000D03*
%TD*%
%TO.C,D10*%
X396677400Y-24487000D03*
X396677400Y-27687000D03*
X391777400Y-24487000D03*
X391777400Y-27687000D03*
%TD*%
%TO.C,D9*%
X116777400Y-14537000D03*
X116777400Y-17737000D03*
X111877400Y-14537000D03*
X111877400Y-17737000D03*
%TD*%
%TO.C,D8*%
X347927400Y-79887000D03*
X347927400Y-83087000D03*
X343027400Y-79887000D03*
X343027400Y-83087000D03*
%TD*%
%TO.C,D7*%
X151677400Y-10187000D03*
X151677400Y-13387000D03*
X146777400Y-10187000D03*
X146777400Y-13387000D03*
%TD*%
%TO.C,D6*%
X291477400Y-86987000D03*
X291477400Y-90187000D03*
X286577400Y-86987000D03*
X286577400Y-90187000D03*
%TD*%
%TO.C,D5*%
X206577400Y3063000D03*
X206577400Y-137000D03*
X201677400Y3063000D03*
X201677400Y-137000D03*
%TD*%
%TO.C,D4*%
X234477400Y-100787000D03*
X234477400Y-103987000D03*
X229577400Y-100787000D03*
X229577400Y-103987000D03*
%TD*%
D17*
%TO.C,D1*%
X65937400Y-88767000D03*
D18*
X63397400Y-88767000D03*
%TD*%
%TO.C,C6*%
G36*
G01*
X218745894Y-48990729D02*
X219391129Y-48345494D01*
G75*
G02*
X219735843Y-48345494I172357J-172357D01*
G01*
X220080558Y-48690209D01*
G75*
G02*
X220080558Y-49034923I-172357J-172357D01*
G01*
X219435323Y-49680158D01*
G75*
G02*
X219090609Y-49680158I-172357J172357D01*
G01*
X218745894Y-49335443D01*
G75*
G02*
X218745894Y-48990729I172357J172357D01*
G01*
G37*
G36*
G01*
X217420068Y-47664903D02*
X218065303Y-47019668D01*
G75*
G02*
X218410017Y-47019668I172357J-172357D01*
G01*
X218754732Y-47364383D01*
G75*
G02*
X218754732Y-47709097I-172357J-172357D01*
G01*
X218109497Y-48354332D01*
G75*
G02*
X217764783Y-48354332I-172357J172357D01*
G01*
X217420068Y-48009617D01*
G75*
G02*
X217420068Y-47664903I172357J172357D01*
G01*
G37*
%TD*%
%TO.C,C5*%
G36*
G01*
X220301819Y-67466184D02*
X219656584Y-68111419D01*
G75*
G02*
X219311870Y-68111419I-172357J172357D01*
G01*
X218967155Y-67766704D01*
G75*
G02*
X218967155Y-67421990I172357J172357D01*
G01*
X219612390Y-66776755D01*
G75*
G02*
X219957104Y-66776755I172357J-172357D01*
G01*
X220301819Y-67121470D01*
G75*
G02*
X220301819Y-67466184I-172357J-172357D01*
G01*
G37*
G36*
G01*
X221627645Y-68792010D02*
X220982410Y-69437245D01*
G75*
G02*
X220637696Y-69437245I-172357J172357D01*
G01*
X220292981Y-69092530D01*
G75*
G02*
X220292981Y-68747816I172357J172357D01*
G01*
X220938216Y-68102581D01*
G75*
G02*
X221282930Y-68102581I172357J-172357D01*
G01*
X221627645Y-68447296D01*
G75*
G02*
X221627645Y-68792010I-172357J-172357D01*
G01*
G37*
%TD*%
%TO.C,C4*%
G36*
G01*
X235968216Y-60791419D02*
X235322981Y-60146184D01*
G75*
G02*
X235322981Y-59801470I172357J172357D01*
G01*
X235667696Y-59456755D01*
G75*
G02*
X236012410Y-59456755I172357J-172357D01*
G01*
X236657645Y-60101990D01*
G75*
G02*
X236657645Y-60446704I-172357J-172357D01*
G01*
X236312930Y-60791419D01*
G75*
G02*
X235968216Y-60791419I-172357J172357D01*
G01*
G37*
G36*
G01*
X234642390Y-62117245D02*
X233997155Y-61472010D01*
G75*
G02*
X233997155Y-61127296I172357J172357D01*
G01*
X234341870Y-60782581D01*
G75*
G02*
X234686584Y-60782581I172357J-172357D01*
G01*
X235331819Y-61427816D01*
G75*
G02*
X235331819Y-61772530I-172357J-172357D01*
G01*
X234987104Y-62117245D01*
G75*
G02*
X234642390Y-62117245I-172357J172357D01*
G01*
G37*
%TD*%
%TO.C,C3*%
G36*
G01*
X231993671Y-47285494D02*
X232638906Y-47930729D01*
G75*
G02*
X232638906Y-48275443I-172357J-172357D01*
G01*
X232294191Y-48620158D01*
G75*
G02*
X231949477Y-48620158I-172357J172357D01*
G01*
X231304242Y-47974923D01*
G75*
G02*
X231304242Y-47630209I172357J172357D01*
G01*
X231648957Y-47285494D01*
G75*
G02*
X231993671Y-47285494I172357J-172357D01*
G01*
G37*
G36*
G01*
X233319497Y-45959668D02*
X233964732Y-46604903D01*
G75*
G02*
X233964732Y-46949617I-172357J-172357D01*
G01*
X233620017Y-47294332D01*
G75*
G02*
X233275303Y-47294332I-172357J172357D01*
G01*
X232630068Y-46649097D01*
G75*
G02*
X232630068Y-46304383I172357J172357D01*
G01*
X232974783Y-45959668D01*
G75*
G02*
X233319497Y-45959668I172357J-172357D01*
G01*
G37*
%TD*%
%TO.C,C2*%
G36*
G01*
X239018216Y-52981419D02*
X238372981Y-52336184D01*
G75*
G02*
X238372981Y-51991470I172357J172357D01*
G01*
X238717696Y-51646755D01*
G75*
G02*
X239062410Y-51646755I172357J-172357D01*
G01*
X239707645Y-52291990D01*
G75*
G02*
X239707645Y-52636704I-172357J-172357D01*
G01*
X239362930Y-52981419D01*
G75*
G02*
X239018216Y-52981419I-172357J172357D01*
G01*
G37*
G36*
G01*
X237692390Y-54307245D02*
X237047155Y-53662010D01*
G75*
G02*
X237047155Y-53317296I172357J172357D01*
G01*
X237391870Y-52972581D01*
G75*
G02*
X237736584Y-52972581I172357J-172357D01*
G01*
X238381819Y-53617816D01*
G75*
G02*
X238381819Y-53962530I-172357J-172357D01*
G01*
X238037104Y-54307245D01*
G75*
G02*
X237692390Y-54307245I-172357J172357D01*
G01*
G37*
%TD*%
%TO.C,C1*%
G36*
G01*
X216705894Y-61470729D02*
X217351129Y-60825494D01*
G75*
G02*
X217695843Y-60825494I172357J-172357D01*
G01*
X218040558Y-61170209D01*
G75*
G02*
X218040558Y-61514923I-172357J-172357D01*
G01*
X217395323Y-62160158D01*
G75*
G02*
X217050609Y-62160158I-172357J172357D01*
G01*
X216705894Y-61815443D01*
G75*
G02*
X216705894Y-61470729I172357J172357D01*
G01*
G37*
G36*
G01*
X215380068Y-60144903D02*
X216025303Y-59499668D01*
G75*
G02*
X216370017Y-59499668I172357J-172357D01*
G01*
X216714732Y-59844383D01*
G75*
G02*
X216714732Y-60189097I-172357J-172357D01*
G01*
X216069497Y-60834332D01*
G75*
G02*
X215724783Y-60834332I-172357J172357D01*
G01*
X215380068Y-60489617D01*
G75*
G02*
X215380068Y-60144903I172357J172357D01*
G01*
G37*
%TD*%
M02*
