%TF.GenerationSoftware,KiCad,Pcbnew,(5.1.6)-1*%
%TF.CreationDate,2020-07-28T20:53:14+02:00*%
%TF.ProjectId,Proyecto A,50726f79-6563-4746-9f20-412e6b696361,rev?*%
%TF.SameCoordinates,Original*%
%TF.FileFunction,Paste,Bot*%
%TF.FilePolarity,Positive*%
%FSLAX46Y46*%
G04 Gerber Fmt 4.6, Leading zero omitted, Abs format (unit mm)*
G04 Created by KiCad (PCBNEW (5.1.6)-1) date 2020-07-28 20:53:14*
%MOMM*%
%LPD*%
G01*
G04 APERTURE LIST*
%ADD10C,0.100000*%
%ADD11R,1.200000X0.900000*%
%ADD12R,1.800000X1.100000*%
%ADD13R,0.900000X1.200000*%
%ADD14R,1.500000X1.000000*%
G04 APERTURE END LIST*
%TO.C,R8*%
G36*
G01*
X234558650Y-2174501D02*
X233646150Y-2174501D01*
G75*
G02*
X233402400Y-1930751I0J243750D01*
G01*
X233402400Y-1443251D01*
G75*
G02*
X233646150Y-1199501I243750J0D01*
G01*
X234558650Y-1199501D01*
G75*
G02*
X234802400Y-1443251I0J-243750D01*
G01*
X234802400Y-1930751D01*
G75*
G02*
X234558650Y-2174501I-243750J0D01*
G01*
G37*
G36*
G01*
X234558650Y-299501D02*
X233646150Y-299501D01*
G75*
G02*
X233402400Y-55751I0J243750D01*
G01*
X233402400Y431749D01*
G75*
G02*
X233646150Y675499I243750J0D01*
G01*
X234558650Y675499D01*
G75*
G02*
X234802400Y431749I0J-243750D01*
G01*
X234802400Y-55751D01*
G75*
G02*
X234558650Y-299501I-243750J0D01*
G01*
G37*
%TD*%
D10*
%TO.C,Y1*%
G36*
X238595878Y-50368421D02*
G01*
X237323086Y-51641213D01*
X235838162Y-50156289D01*
X237110954Y-48883497D01*
X238595878Y-50368421D01*
G37*
G36*
X236545268Y-48317811D02*
G01*
X235272476Y-49590603D01*
X233787552Y-48105679D01*
X235060344Y-46832887D01*
X236545268Y-48317811D01*
G37*
G36*
X234918922Y-49944157D02*
G01*
X233646130Y-51216949D01*
X232161206Y-49732025D01*
X233433998Y-48459233D01*
X234918922Y-49944157D01*
G37*
G36*
X236969532Y-51994767D02*
G01*
X235696740Y-53267559D01*
X234211816Y-51782635D01*
X235484608Y-50509843D01*
X236969532Y-51994767D01*
G37*
%TD*%
%TO.C,C21*%
G36*
G01*
X171036401Y-86115499D02*
X170136399Y-86115499D01*
G75*
G02*
X169886400Y-85865500I0J249999D01*
G01*
X169886400Y-85215498D01*
G75*
G02*
X170136399Y-84965499I249999J0D01*
G01*
X171036401Y-84965499D01*
G75*
G02*
X171286400Y-85215498I0J-249999D01*
G01*
X171286400Y-85865500D01*
G75*
G02*
X171036401Y-86115499I-249999J0D01*
G01*
G37*
G36*
G01*
X171036401Y-88165499D02*
X170136399Y-88165499D01*
G75*
G02*
X169886400Y-87915500I0J249999D01*
G01*
X169886400Y-87265498D01*
G75*
G02*
X170136399Y-87015499I249999J0D01*
G01*
X171036401Y-87015499D01*
G75*
G02*
X171286400Y-87265498I0J-249999D01*
G01*
X171286400Y-87915500D01*
G75*
G02*
X171036401Y-88165499I-249999J0D01*
G01*
G37*
%TD*%
%TO.C,C20*%
G36*
G01*
X128491401Y-84132000D02*
X127591399Y-84132000D01*
G75*
G02*
X127341400Y-83882001I0J249999D01*
G01*
X127341400Y-83231999D01*
G75*
G02*
X127591399Y-82982000I249999J0D01*
G01*
X128491401Y-82982000D01*
G75*
G02*
X128741400Y-83231999I0J-249999D01*
G01*
X128741400Y-83882001D01*
G75*
G02*
X128491401Y-84132000I-249999J0D01*
G01*
G37*
G36*
G01*
X128491401Y-86182000D02*
X127591399Y-86182000D01*
G75*
G02*
X127341400Y-85932001I0J249999D01*
G01*
X127341400Y-85281999D01*
G75*
G02*
X127591399Y-85032000I249999J0D01*
G01*
X128491401Y-85032000D01*
G75*
G02*
X128741400Y-85281999I0J-249999D01*
G01*
X128741400Y-85932001D01*
G75*
G02*
X128491401Y-86182000I-249999J0D01*
G01*
G37*
%TD*%
%TO.C,C19*%
G36*
G01*
X72092400Y-57969999D02*
X72092400Y-58870001D01*
G75*
G02*
X71842401Y-59120000I-249999J0D01*
G01*
X71192399Y-59120000D01*
G75*
G02*
X70942400Y-58870001I0J249999D01*
G01*
X70942400Y-57969999D01*
G75*
G02*
X71192399Y-57720000I249999J0D01*
G01*
X71842401Y-57720000D01*
G75*
G02*
X72092400Y-57969999I0J-249999D01*
G01*
G37*
G36*
G01*
X74142400Y-57969999D02*
X74142400Y-58870001D01*
G75*
G02*
X73892401Y-59120000I-249999J0D01*
G01*
X73242399Y-59120000D01*
G75*
G02*
X72992400Y-58870001I0J249999D01*
G01*
X72992400Y-57969999D01*
G75*
G02*
X73242399Y-57720000I249999J0D01*
G01*
X73892401Y-57720000D01*
G75*
G02*
X74142400Y-57969999I0J-249999D01*
G01*
G37*
%TD*%
%TO.C,C18*%
G36*
G01*
X109060401Y-15298000D02*
X108160399Y-15298000D01*
G75*
G02*
X107910400Y-15048001I0J249999D01*
G01*
X107910400Y-14397999D01*
G75*
G02*
X108160399Y-14148000I249999J0D01*
G01*
X109060401Y-14148000D01*
G75*
G02*
X109310400Y-14397999I0J-249999D01*
G01*
X109310400Y-15048001D01*
G75*
G02*
X109060401Y-15298000I-249999J0D01*
G01*
G37*
G36*
G01*
X109060401Y-17348000D02*
X108160399Y-17348000D01*
G75*
G02*
X107910400Y-17098001I0J249999D01*
G01*
X107910400Y-16447999D01*
G75*
G02*
X108160399Y-16198000I249999J0D01*
G01*
X109060401Y-16198000D01*
G75*
G02*
X109310400Y-16447999I0J-249999D01*
G01*
X109310400Y-17098001D01*
G75*
G02*
X109060401Y-17348000I-249999J0D01*
G01*
G37*
%TD*%
%TO.C,C17*%
G36*
G01*
X143985401Y-11312499D02*
X143085399Y-11312499D01*
G75*
G02*
X142835400Y-11062500I0J249999D01*
G01*
X142835400Y-10412498D01*
G75*
G02*
X143085399Y-10162499I249999J0D01*
G01*
X143985401Y-10162499D01*
G75*
G02*
X144235400Y-10412498I0J-249999D01*
G01*
X144235400Y-11062500D01*
G75*
G02*
X143985401Y-11312499I-249999J0D01*
G01*
G37*
G36*
G01*
X143985401Y-13362499D02*
X143085399Y-13362499D01*
G75*
G02*
X142835400Y-13112500I0J249999D01*
G01*
X142835400Y-12462498D01*
G75*
G02*
X143085399Y-12212499I249999J0D01*
G01*
X143985401Y-12212499D01*
G75*
G02*
X144235400Y-12462498I0J-249999D01*
G01*
X144235400Y-13112500D01*
G75*
G02*
X143985401Y-13362499I-249999J0D01*
G01*
G37*
%TD*%
%TO.C,C16*%
G36*
G01*
X198722401Y2101000D02*
X197822399Y2101000D01*
G75*
G02*
X197572400Y2350999I0J249999D01*
G01*
X197572400Y3001001D01*
G75*
G02*
X197822399Y3251000I249999J0D01*
G01*
X198722401Y3251000D01*
G75*
G02*
X198972400Y3001001I0J-249999D01*
G01*
X198972400Y2350999D01*
G75*
G02*
X198722401Y2101000I-249999J0D01*
G01*
G37*
G36*
G01*
X198722401Y51000D02*
X197822399Y51000D01*
G75*
G02*
X197572400Y300999I0J249999D01*
G01*
X197572400Y951001D01*
G75*
G02*
X197822399Y1201000I249999J0D01*
G01*
X198722401Y1201000D01*
G75*
G02*
X198972400Y951001I0J-249999D01*
G01*
X198972400Y300999D01*
G75*
G02*
X198722401Y51000I-249999J0D01*
G01*
G37*
%TD*%
%TO.C,C15*%
G36*
G01*
X248633401Y2306499D02*
X247733399Y2306499D01*
G75*
G02*
X247483400Y2556498I0J249999D01*
G01*
X247483400Y3206500D01*
G75*
G02*
X247733399Y3456499I249999J0D01*
G01*
X248633401Y3456499D01*
G75*
G02*
X248883400Y3206500I0J-249999D01*
G01*
X248883400Y2556498D01*
G75*
G02*
X248633401Y2306499I-249999J0D01*
G01*
G37*
G36*
G01*
X248633401Y256499D02*
X247733399Y256499D01*
G75*
G02*
X247483400Y506498I0J249999D01*
G01*
X247483400Y1156500D01*
G75*
G02*
X247733399Y1406499I249999J0D01*
G01*
X248633401Y1406499D01*
G75*
G02*
X248883400Y1156500I0J-249999D01*
G01*
X248883400Y506498D01*
G75*
G02*
X248633401Y256499I-249999J0D01*
G01*
G37*
%TD*%
%TO.C,C14*%
G36*
G01*
X288638401Y-12709499D02*
X287738399Y-12709499D01*
G75*
G02*
X287488400Y-12459500I0J249999D01*
G01*
X287488400Y-11809498D01*
G75*
G02*
X287738399Y-11559499I249999J0D01*
G01*
X288638401Y-11559499D01*
G75*
G02*
X288888400Y-11809498I0J-249999D01*
G01*
X288888400Y-12459500D01*
G75*
G02*
X288638401Y-12709499I-249999J0D01*
G01*
G37*
G36*
G01*
X288638401Y-14759499D02*
X287738399Y-14759499D01*
G75*
G02*
X287488400Y-14509500I0J249999D01*
G01*
X287488400Y-13859498D01*
G75*
G02*
X287738399Y-13609499I249999J0D01*
G01*
X288638401Y-13609499D01*
G75*
G02*
X288888400Y-13859498I0J-249999D01*
G01*
X288888400Y-14509500D01*
G75*
G02*
X288638401Y-14759499I-249999J0D01*
G01*
G37*
%TD*%
%TO.C,C13*%
G36*
G01*
X338422401Y-12377000D02*
X337522399Y-12377000D01*
G75*
G02*
X337272400Y-12127001I0J249999D01*
G01*
X337272400Y-11476999D01*
G75*
G02*
X337522399Y-11227000I249999J0D01*
G01*
X338422401Y-11227000D01*
G75*
G02*
X338672400Y-11476999I0J-249999D01*
G01*
X338672400Y-12127001D01*
G75*
G02*
X338422401Y-12377000I-249999J0D01*
G01*
G37*
G36*
G01*
X338422401Y-14427000D02*
X337522399Y-14427000D01*
G75*
G02*
X337272400Y-14177001I0J249999D01*
G01*
X337272400Y-13526999D01*
G75*
G02*
X337522399Y-13277000I249999J0D01*
G01*
X338422401Y-13277000D01*
G75*
G02*
X338672400Y-13526999I0J-249999D01*
G01*
X338672400Y-14177001D01*
G75*
G02*
X338422401Y-14427000I-249999J0D01*
G01*
G37*
%TD*%
%TO.C,C12*%
G36*
G01*
X394683400Y-21405001D02*
X394683400Y-20504999D01*
G75*
G02*
X394933399Y-20255000I249999J0D01*
G01*
X395583401Y-20255000D01*
G75*
G02*
X395833400Y-20504999I0J-249999D01*
G01*
X395833400Y-21405001D01*
G75*
G02*
X395583401Y-21655000I-249999J0D01*
G01*
X394933399Y-21655000D01*
G75*
G02*
X394683400Y-21405001I0J249999D01*
G01*
G37*
G36*
G01*
X392633400Y-21405001D02*
X392633400Y-20504999D01*
G75*
G02*
X392883399Y-20255000I249999J0D01*
G01*
X393533401Y-20255000D01*
G75*
G02*
X393783400Y-20504999I0J-249999D01*
G01*
X393783400Y-21405001D01*
G75*
G02*
X393533401Y-21655000I-249999J0D01*
G01*
X392883399Y-21655000D01*
G75*
G02*
X392633400Y-21405001I0J249999D01*
G01*
G37*
%TD*%
%TO.C,C11*%
G36*
G01*
X351757401Y-80527499D02*
X350857399Y-80527499D01*
G75*
G02*
X350607400Y-80277500I0J249999D01*
G01*
X350607400Y-79627498D01*
G75*
G02*
X350857399Y-79377499I249999J0D01*
G01*
X351757401Y-79377499D01*
G75*
G02*
X352007400Y-79627498I0J-249999D01*
G01*
X352007400Y-80277500D01*
G75*
G02*
X351757401Y-80527499I-249999J0D01*
G01*
G37*
G36*
G01*
X351757401Y-82577499D02*
X350857399Y-82577499D01*
G75*
G02*
X350607400Y-82327500I0J249999D01*
G01*
X350607400Y-81677498D01*
G75*
G02*
X350857399Y-81427499I249999J0D01*
G01*
X351757401Y-81427499D01*
G75*
G02*
X352007400Y-81677498I0J-249999D01*
G01*
X352007400Y-82327500D01*
G75*
G02*
X351757401Y-82577499I-249999J0D01*
G01*
G37*
%TD*%
%TO.C,C10*%
G36*
G01*
X294988401Y-87609500D02*
X294088399Y-87609500D01*
G75*
G02*
X293838400Y-87359501I0J249999D01*
G01*
X293838400Y-86709499D01*
G75*
G02*
X294088399Y-86459500I249999J0D01*
G01*
X294988401Y-86459500D01*
G75*
G02*
X295238400Y-86709499I0J-249999D01*
G01*
X295238400Y-87359501D01*
G75*
G02*
X294988401Y-87609500I-249999J0D01*
G01*
G37*
G36*
G01*
X294988401Y-89659500D02*
X294088399Y-89659500D01*
G75*
G02*
X293838400Y-89409501I0J249999D01*
G01*
X293838400Y-88759499D01*
G75*
G02*
X294088399Y-88509500I249999J0D01*
G01*
X294988401Y-88509500D01*
G75*
G02*
X295238400Y-88759499I0J-249999D01*
G01*
X295238400Y-89409501D01*
G75*
G02*
X294988401Y-89659500I-249999J0D01*
G01*
G37*
%TD*%
%TO.C,C9*%
G36*
G01*
X238346401Y-101355499D02*
X237446399Y-101355499D01*
G75*
G02*
X237196400Y-101105500I0J249999D01*
G01*
X237196400Y-100455498D01*
G75*
G02*
X237446399Y-100205499I249999J0D01*
G01*
X238346401Y-100205499D01*
G75*
G02*
X238596400Y-100455498I0J-249999D01*
G01*
X238596400Y-101105500D01*
G75*
G02*
X238346401Y-101355499I-249999J0D01*
G01*
G37*
G36*
G01*
X238346401Y-103405499D02*
X237446399Y-103405499D01*
G75*
G02*
X237196400Y-103155500I0J249999D01*
G01*
X237196400Y-102505498D01*
G75*
G02*
X237446399Y-102255499I249999J0D01*
G01*
X238346401Y-102255499D01*
G75*
G02*
X238596400Y-102505498I0J-249999D01*
G01*
X238596400Y-103155500D01*
G75*
G02*
X238346401Y-103405499I-249999J0D01*
G01*
G37*
%TD*%
%TO.C,C7*%
G36*
G01*
X216963796Y-50787001D02*
X216327399Y-50150604D01*
G75*
G02*
X216327399Y-49797052I176776J176776D01*
G01*
X216787020Y-49337431D01*
G75*
G02*
X217140572Y-49337431I176776J-176776D01*
G01*
X217776969Y-49973828D01*
G75*
G02*
X217776969Y-50327380I-176776J-176776D01*
G01*
X217317348Y-50787001D01*
G75*
G02*
X216963796Y-50787001I-176776J176776D01*
G01*
G37*
G36*
G01*
X215514228Y-52236569D02*
X214877831Y-51600172D01*
G75*
G02*
X214877831Y-51246620I176776J176776D01*
G01*
X215337452Y-50786999D01*
G75*
G02*
X215691004Y-50786999I176776J-176776D01*
G01*
X216327401Y-51423396D01*
G75*
G02*
X216327401Y-51776948I-176776J-176776D01*
G01*
X215867780Y-52236569D01*
G75*
G02*
X215514228Y-52236569I-176776J176776D01*
G01*
G37*
%TD*%
%TO.C,C6*%
G36*
G01*
X218697399Y-49083396D02*
X219333796Y-48446999D01*
G75*
G02*
X219687348Y-48446999I176776J-176776D01*
G01*
X220146969Y-48906620D01*
G75*
G02*
X220146969Y-49260172I-176776J-176776D01*
G01*
X219510572Y-49896569D01*
G75*
G02*
X219157020Y-49896569I-176776J176776D01*
G01*
X218697399Y-49436948D01*
G75*
G02*
X218697399Y-49083396I176776J176776D01*
G01*
G37*
G36*
G01*
X217247831Y-47633828D02*
X217884228Y-46997431D01*
G75*
G02*
X218237780Y-46997431I176776J-176776D01*
G01*
X218697401Y-47457052D01*
G75*
G02*
X218697401Y-47810604I-176776J-176776D01*
G01*
X218061004Y-48447001D01*
G75*
G02*
X217707452Y-48447001I-176776J176776D01*
G01*
X217247831Y-47987380D01*
G75*
G02*
X217247831Y-47633828I176776J176776D01*
G01*
G37*
%TD*%
%TO.C,C5*%
G36*
G01*
X220297401Y-67470604D02*
X219661004Y-68107001D01*
G75*
G02*
X219307452Y-68107001I-176776J176776D01*
G01*
X218847831Y-67647380D01*
G75*
G02*
X218847831Y-67293828I176776J176776D01*
G01*
X219484228Y-66657431D01*
G75*
G02*
X219837780Y-66657431I176776J-176776D01*
G01*
X220297401Y-67117052D01*
G75*
G02*
X220297401Y-67470604I-176776J-176776D01*
G01*
G37*
G36*
G01*
X221746969Y-68920172D02*
X221110572Y-69556569D01*
G75*
G02*
X220757020Y-69556569I-176776J176776D01*
G01*
X220297399Y-69096948D01*
G75*
G02*
X220297399Y-68743396I176776J176776D01*
G01*
X220933796Y-68106999D01*
G75*
G02*
X221287348Y-68106999I176776J-176776D01*
G01*
X221746969Y-68566620D01*
G75*
G02*
X221746969Y-68920172I-176776J-176776D01*
G01*
G37*
%TD*%
%TO.C,C4*%
G36*
G01*
X236638796Y-60387001D02*
X236002399Y-59750604D01*
G75*
G02*
X236002399Y-59397052I176776J176776D01*
G01*
X236462020Y-58937431D01*
G75*
G02*
X236815572Y-58937431I176776J-176776D01*
G01*
X237451969Y-59573828D01*
G75*
G02*
X237451969Y-59927380I-176776J-176776D01*
G01*
X236992348Y-60387001D01*
G75*
G02*
X236638796Y-60387001I-176776J176776D01*
G01*
G37*
G36*
G01*
X235189228Y-61836569D02*
X234552831Y-61200172D01*
G75*
G02*
X234552831Y-60846620I176776J176776D01*
G01*
X235012452Y-60386999D01*
G75*
G02*
X235366004Y-60386999I176776J-176776D01*
G01*
X236002401Y-61023396D01*
G75*
G02*
X236002401Y-61376948I-176776J-176776D01*
G01*
X235542780Y-61836569D01*
G75*
G02*
X235189228Y-61836569I-176776J176776D01*
G01*
G37*
%TD*%
%TO.C,C3*%
G36*
G01*
X231998091Y-47289912D02*
X232634488Y-47926309D01*
G75*
G02*
X232634488Y-48279861I-176776J-176776D01*
G01*
X232174867Y-48739482D01*
G75*
G02*
X231821315Y-48739482I-176776J176776D01*
G01*
X231184918Y-48103085D01*
G75*
G02*
X231184918Y-47749533I176776J176776D01*
G01*
X231644539Y-47289912D01*
G75*
G02*
X231998091Y-47289912I176776J-176776D01*
G01*
G37*
G36*
G01*
X233447659Y-45840344D02*
X234084056Y-46476741D01*
G75*
G02*
X234084056Y-46830293I-176776J-176776D01*
G01*
X233624435Y-47289914D01*
G75*
G02*
X233270883Y-47289914I-176776J176776D01*
G01*
X232634486Y-46653517D01*
G75*
G02*
X232634486Y-46299965I176776J176776D01*
G01*
X233094107Y-45840344D01*
G75*
G02*
X233447659Y-45840344I176776J-176776D01*
G01*
G37*
%TD*%
%TO.C,C2*%
G36*
G01*
X239013796Y-52977001D02*
X238377399Y-52340604D01*
G75*
G02*
X238377399Y-51987052I176776J176776D01*
G01*
X238837020Y-51527431D01*
G75*
G02*
X239190572Y-51527431I176776J-176776D01*
G01*
X239826969Y-52163828D01*
G75*
G02*
X239826969Y-52517380I-176776J-176776D01*
G01*
X239367348Y-52977001D01*
G75*
G02*
X239013796Y-52977001I-176776J176776D01*
G01*
G37*
G36*
G01*
X237564228Y-54426569D02*
X236927831Y-53790172D01*
G75*
G02*
X236927831Y-53436620I176776J176776D01*
G01*
X237387452Y-52976999D01*
G75*
G02*
X237741004Y-52976999I176776J-176776D01*
G01*
X238377401Y-53613396D01*
G75*
G02*
X238377401Y-53966948I-176776J-176776D01*
G01*
X237917780Y-54426569D01*
G75*
G02*
X237564228Y-54426569I-176776J176776D01*
G01*
G37*
%TD*%
%TO.C,C1*%
G36*
G01*
X216710312Y-61466309D02*
X217346709Y-60829912D01*
G75*
G02*
X217700261Y-60829912I176776J-176776D01*
G01*
X218159882Y-61289533D01*
G75*
G02*
X218159882Y-61643085I-176776J-176776D01*
G01*
X217523485Y-62279482D01*
G75*
G02*
X217169933Y-62279482I-176776J176776D01*
G01*
X216710312Y-61819861D01*
G75*
G02*
X216710312Y-61466309I176776J176776D01*
G01*
G37*
G36*
G01*
X215260744Y-60016741D02*
X215897141Y-59380344D01*
G75*
G02*
X216250693Y-59380344I176776J-176776D01*
G01*
X216710314Y-59839965D01*
G75*
G02*
X216710314Y-60193517I-176776J-176776D01*
G01*
X216073917Y-60829914D01*
G75*
G02*
X215720365Y-60829914I-176776J176776D01*
G01*
X215260744Y-60370293D01*
G75*
G02*
X215260744Y-60016741I176776J176776D01*
G01*
G37*
%TD*%
%TO.C,R11*%
G36*
G01*
X227877401Y-98247000D02*
X226977399Y-98247000D01*
G75*
G02*
X226727400Y-97997001I0J249999D01*
G01*
X226727400Y-97346999D01*
G75*
G02*
X226977399Y-97097000I249999J0D01*
G01*
X227877401Y-97097000D01*
G75*
G02*
X228127400Y-97346999I0J-249999D01*
G01*
X228127400Y-97997001D01*
G75*
G02*
X227877401Y-98247000I-249999J0D01*
G01*
G37*
G36*
G01*
X227877401Y-100297000D02*
X226977399Y-100297000D01*
G75*
G02*
X226727400Y-100047001I0J249999D01*
G01*
X226727400Y-99396999D01*
G75*
G02*
X226977399Y-99147000I249999J0D01*
G01*
X227877401Y-99147000D01*
G75*
G02*
X228127400Y-99396999I0J-249999D01*
G01*
X228127400Y-100047001D01*
G75*
G02*
X227877401Y-100297000I-249999J0D01*
G01*
G37*
%TD*%
%TO.C,R2*%
G36*
G01*
X232058650Y-2049500D02*
X231146150Y-2049500D01*
G75*
G02*
X230902400Y-1805750I0J243750D01*
G01*
X230902400Y-1318250D01*
G75*
G02*
X231146150Y-1074500I243750J0D01*
G01*
X232058650Y-1074500D01*
G75*
G02*
X232302400Y-1318250I0J-243750D01*
G01*
X232302400Y-1805750D01*
G75*
G02*
X232058650Y-2049500I-243750J0D01*
G01*
G37*
G36*
G01*
X232058650Y-174500D02*
X231146150Y-174500D01*
G75*
G02*
X230902400Y69250I0J243750D01*
G01*
X230902400Y556750D01*
G75*
G02*
X231146150Y800500I243750J0D01*
G01*
X232058650Y800500D01*
G75*
G02*
X232302400Y556750I0J-243750D01*
G01*
X232302400Y69250D01*
G75*
G02*
X232058650Y-174500I-243750J0D01*
G01*
G37*
%TD*%
%TO.C,R1*%
G36*
G01*
X230083650Y-2024500D02*
X229171150Y-2024500D01*
G75*
G02*
X228927400Y-1780750I0J243750D01*
G01*
X228927400Y-1293250D01*
G75*
G02*
X229171150Y-1049500I243750J0D01*
G01*
X230083650Y-1049500D01*
G75*
G02*
X230327400Y-1293250I0J-243750D01*
G01*
X230327400Y-1780750D01*
G75*
G02*
X230083650Y-2024500I-243750J0D01*
G01*
G37*
G36*
G01*
X230083650Y-149500D02*
X229171150Y-149500D01*
G75*
G02*
X228927400Y94250I0J243750D01*
G01*
X228927400Y581750D01*
G75*
G02*
X229171150Y825500I243750J0D01*
G01*
X230083650Y825500D01*
G75*
G02*
X230327400Y581750I0J-243750D01*
G01*
X230327400Y94250D01*
G75*
G02*
X230083650Y-149500I-243750J0D01*
G01*
G37*
%TD*%
D11*
%TO.C,D_63*%
X294177400Y-81217000D03*
X294177400Y-77917000D03*
%TD*%
%TO.C,R6*%
G36*
G01*
X71684900Y-88130750D02*
X71684900Y-89043250D01*
G75*
G02*
X71441150Y-89287000I-243750J0D01*
G01*
X70953650Y-89287000D01*
G75*
G02*
X70709900Y-89043250I0J243750D01*
G01*
X70709900Y-88130750D01*
G75*
G02*
X70953650Y-87887000I243750J0D01*
G01*
X71441150Y-87887000D01*
G75*
G02*
X71684900Y-88130750I0J-243750D01*
G01*
G37*
G36*
G01*
X73559900Y-88130750D02*
X73559900Y-89043250D01*
G75*
G02*
X73316150Y-89287000I-243750J0D01*
G01*
X72828650Y-89287000D01*
G75*
G02*
X72584900Y-89043250I0J243750D01*
G01*
X72584900Y-88130750D01*
G75*
G02*
X72828650Y-87887000I243750J0D01*
G01*
X73316150Y-87887000D01*
G75*
G02*
X73559900Y-88130750I0J-243750D01*
G01*
G37*
%TD*%
%TO.C,D_40*%
X300557528Y-37820961D03*
X300557528Y-34520961D03*
%TD*%
%TO.C,D_44*%
X386670000Y-50000D03*
X386670000Y-3350000D03*
%TD*%
D10*
%TO.C,U1*%
G36*
X219684700Y-58206978D02*
G01*
X220073608Y-58595886D01*
X219012948Y-59656546D01*
X218624040Y-59267638D01*
X219684700Y-58206978D01*
G37*
G36*
X220250386Y-58772663D02*
G01*
X220639294Y-59161571D01*
X219578634Y-60222231D01*
X219189726Y-59833323D01*
X220250386Y-58772663D01*
G37*
G36*
X220816071Y-59338348D02*
G01*
X221204979Y-59727256D01*
X220144319Y-60787916D01*
X219755411Y-60399008D01*
X220816071Y-59338348D01*
G37*
G36*
X221381756Y-59904034D02*
G01*
X221770664Y-60292942D01*
X220710004Y-61353602D01*
X220321096Y-60964694D01*
X221381756Y-59904034D01*
G37*
G36*
X221947442Y-60469719D02*
G01*
X222336350Y-60858627D01*
X221275690Y-61919287D01*
X220886782Y-61530379D01*
X221947442Y-60469719D01*
G37*
G36*
X222513127Y-61035405D02*
G01*
X222902035Y-61424313D01*
X221841375Y-62484973D01*
X221452467Y-62096065D01*
X222513127Y-61035405D01*
G37*
G36*
X223078813Y-61601090D02*
G01*
X223467721Y-61989998D01*
X222407061Y-63050658D01*
X222018153Y-62661750D01*
X223078813Y-61601090D01*
G37*
G36*
X223644498Y-62166776D02*
G01*
X224033406Y-62555684D01*
X222972746Y-63616344D01*
X222583838Y-63227436D01*
X223644498Y-62166776D01*
G37*
G36*
X224210184Y-62732461D02*
G01*
X224599092Y-63121369D01*
X223538432Y-64182029D01*
X223149524Y-63793121D01*
X224210184Y-62732461D01*
G37*
G36*
X224775869Y-63298146D02*
G01*
X225164777Y-63687054D01*
X224104117Y-64747714D01*
X223715209Y-64358806D01*
X224775869Y-63298146D01*
G37*
G36*
X225341554Y-63863832D02*
G01*
X225730462Y-64252740D01*
X224669802Y-65313400D01*
X224280894Y-64924492D01*
X225341554Y-63863832D01*
G37*
G36*
X226685058Y-64252740D02*
G01*
X227073966Y-63863832D01*
X228134626Y-64924492D01*
X227745718Y-65313400D01*
X226685058Y-64252740D01*
G37*
G36*
X227250743Y-63687054D02*
G01*
X227639651Y-63298146D01*
X228700311Y-64358806D01*
X228311403Y-64747714D01*
X227250743Y-63687054D01*
G37*
G36*
X227816428Y-63121369D02*
G01*
X228205336Y-62732461D01*
X229265996Y-63793121D01*
X228877088Y-64182029D01*
X227816428Y-63121369D01*
G37*
G36*
X228382114Y-62555684D02*
G01*
X228771022Y-62166776D01*
X229831682Y-63227436D01*
X229442774Y-63616344D01*
X228382114Y-62555684D01*
G37*
G36*
X228947799Y-61989998D02*
G01*
X229336707Y-61601090D01*
X230397367Y-62661750D01*
X230008459Y-63050658D01*
X228947799Y-61989998D01*
G37*
G36*
X229513485Y-61424313D02*
G01*
X229902393Y-61035405D01*
X230963053Y-62096065D01*
X230574145Y-62484973D01*
X229513485Y-61424313D01*
G37*
G36*
X230079170Y-60858627D02*
G01*
X230468078Y-60469719D01*
X231528738Y-61530379D01*
X231139830Y-61919287D01*
X230079170Y-60858627D01*
G37*
G36*
X230644856Y-60292942D02*
G01*
X231033764Y-59904034D01*
X232094424Y-60964694D01*
X231705516Y-61353602D01*
X230644856Y-60292942D01*
G37*
G36*
X231210541Y-59727256D02*
G01*
X231599449Y-59338348D01*
X232660109Y-60399008D01*
X232271201Y-60787916D01*
X231210541Y-59727256D01*
G37*
G36*
X231776226Y-59161571D02*
G01*
X232165134Y-58772663D01*
X233225794Y-59833323D01*
X232836886Y-60222231D01*
X231776226Y-59161571D01*
G37*
G36*
X232341912Y-58595886D02*
G01*
X232730820Y-58206978D01*
X233791480Y-59267638D01*
X233402572Y-59656546D01*
X232341912Y-58595886D01*
G37*
G36*
X233402572Y-55802814D02*
G01*
X233791480Y-56191722D01*
X232730820Y-57252382D01*
X232341912Y-56863474D01*
X233402572Y-55802814D01*
G37*
G36*
X232836886Y-55237129D02*
G01*
X233225794Y-55626037D01*
X232165134Y-56686697D01*
X231776226Y-56297789D01*
X232836886Y-55237129D01*
G37*
G36*
X232271201Y-54671444D02*
G01*
X232660109Y-55060352D01*
X231599449Y-56121012D01*
X231210541Y-55732104D01*
X232271201Y-54671444D01*
G37*
G36*
X231705516Y-54105758D02*
G01*
X232094424Y-54494666D01*
X231033764Y-55555326D01*
X230644856Y-55166418D01*
X231705516Y-54105758D01*
G37*
G36*
X231139830Y-53540073D02*
G01*
X231528738Y-53928981D01*
X230468078Y-54989641D01*
X230079170Y-54600733D01*
X231139830Y-53540073D01*
G37*
G36*
X230574145Y-52974387D02*
G01*
X230963053Y-53363295D01*
X229902393Y-54423955D01*
X229513485Y-54035047D01*
X230574145Y-52974387D01*
G37*
G36*
X230008459Y-52408702D02*
G01*
X230397367Y-52797610D01*
X229336707Y-53858270D01*
X228947799Y-53469362D01*
X230008459Y-52408702D01*
G37*
G36*
X229442774Y-51843016D02*
G01*
X229831682Y-52231924D01*
X228771022Y-53292584D01*
X228382114Y-52903676D01*
X229442774Y-51843016D01*
G37*
G36*
X228877088Y-51277331D02*
G01*
X229265996Y-51666239D01*
X228205336Y-52726899D01*
X227816428Y-52337991D01*
X228877088Y-51277331D01*
G37*
G36*
X228311403Y-50711646D02*
G01*
X228700311Y-51100554D01*
X227639651Y-52161214D01*
X227250743Y-51772306D01*
X228311403Y-50711646D01*
G37*
G36*
X227745718Y-50145960D02*
G01*
X228134626Y-50534868D01*
X227073966Y-51595528D01*
X226685058Y-51206620D01*
X227745718Y-50145960D01*
G37*
G36*
X224280894Y-50534868D02*
G01*
X224669802Y-50145960D01*
X225730462Y-51206620D01*
X225341554Y-51595528D01*
X224280894Y-50534868D01*
G37*
G36*
X223715209Y-51100554D02*
G01*
X224104117Y-50711646D01*
X225164777Y-51772306D01*
X224775869Y-52161214D01*
X223715209Y-51100554D01*
G37*
G36*
X223149524Y-51666239D02*
G01*
X223538432Y-51277331D01*
X224599092Y-52337991D01*
X224210184Y-52726899D01*
X223149524Y-51666239D01*
G37*
G36*
X222583838Y-52231924D02*
G01*
X222972746Y-51843016D01*
X224033406Y-52903676D01*
X223644498Y-53292584D01*
X222583838Y-52231924D01*
G37*
G36*
X222018153Y-52797610D02*
G01*
X222407061Y-52408702D01*
X223467721Y-53469362D01*
X223078813Y-53858270D01*
X222018153Y-52797610D01*
G37*
G36*
X221452467Y-53363295D02*
G01*
X221841375Y-52974387D01*
X222902035Y-54035047D01*
X222513127Y-54423955D01*
X221452467Y-53363295D01*
G37*
G36*
X220886782Y-53928981D02*
G01*
X221275690Y-53540073D01*
X222336350Y-54600733D01*
X221947442Y-54989641D01*
X220886782Y-53928981D01*
G37*
G36*
X220321096Y-54494666D02*
G01*
X220710004Y-54105758D01*
X221770664Y-55166418D01*
X221381756Y-55555326D01*
X220321096Y-54494666D01*
G37*
G36*
X219755411Y-55060352D02*
G01*
X220144319Y-54671444D01*
X221204979Y-55732104D01*
X220816071Y-56121012D01*
X219755411Y-55060352D01*
G37*
G36*
X219189726Y-55626037D02*
G01*
X219578634Y-55237129D01*
X220639294Y-56297789D01*
X220250386Y-56686697D01*
X219189726Y-55626037D01*
G37*
G36*
X218624040Y-56191722D02*
G01*
X219012948Y-55802814D01*
X220073608Y-56863474D01*
X219684700Y-57252382D01*
X218624040Y-56191722D01*
G37*
%TD*%
D12*
%TO.C,SW1*%
X216550000Y-35550000D03*
X222750000Y-35550000D03*
X216550000Y-31850000D03*
X222750000Y-31850000D03*
%TD*%
%TO.C,R9*%
G36*
G01*
X227758650Y-1599500D02*
X226846150Y-1599500D01*
G75*
G02*
X226602400Y-1355750I0J243750D01*
G01*
X226602400Y-868250D01*
G75*
G02*
X226846150Y-624500I243750J0D01*
G01*
X227758650Y-624500D01*
G75*
G02*
X228002400Y-868250I0J-243750D01*
G01*
X228002400Y-1355750D01*
G75*
G02*
X227758650Y-1599500I-243750J0D01*
G01*
G37*
G36*
G01*
X227758650Y275500D02*
X226846150Y275500D01*
G75*
G02*
X226602400Y519250I0J243750D01*
G01*
X226602400Y1006750D01*
G75*
G02*
X226846150Y1250500I243750J0D01*
G01*
X227758650Y1250500D01*
G75*
G02*
X228002400Y1006750I0J-243750D01*
G01*
X228002400Y519250D01*
G75*
G02*
X227758650Y275500I-243750J0D01*
G01*
G37*
%TD*%
%TO.C,R7*%
G36*
G01*
X71664900Y-83860750D02*
X71664900Y-84773250D01*
G75*
G02*
X71421150Y-85017000I-243750J0D01*
G01*
X70933650Y-85017000D01*
G75*
G02*
X70689900Y-84773250I0J243750D01*
G01*
X70689900Y-83860750D01*
G75*
G02*
X70933650Y-83617000I243750J0D01*
G01*
X71421150Y-83617000D01*
G75*
G02*
X71664900Y-83860750I0J-243750D01*
G01*
G37*
G36*
G01*
X73539900Y-83860750D02*
X73539900Y-84773250D01*
G75*
G02*
X73296150Y-85017000I-243750J0D01*
G01*
X72808650Y-85017000D01*
G75*
G02*
X72564900Y-84773250I0J243750D01*
G01*
X72564900Y-83860750D01*
G75*
G02*
X72808650Y-83617000I243750J0D01*
G01*
X73296150Y-83617000D01*
G75*
G02*
X73539900Y-83860750I0J-243750D01*
G01*
G37*
%TD*%
%TO.C,R5*%
G36*
G01*
X71684900Y-79430750D02*
X71684900Y-80343250D01*
G75*
G02*
X71441150Y-80587000I-243750J0D01*
G01*
X70953650Y-80587000D01*
G75*
G02*
X70709900Y-80343250I0J243750D01*
G01*
X70709900Y-79430750D01*
G75*
G02*
X70953650Y-79187000I243750J0D01*
G01*
X71441150Y-79187000D01*
G75*
G02*
X71684900Y-79430750I0J-243750D01*
G01*
G37*
G36*
G01*
X73559900Y-79430750D02*
X73559900Y-80343250D01*
G75*
G02*
X73316150Y-80587000I-243750J0D01*
G01*
X72828650Y-80587000D01*
G75*
G02*
X72584900Y-80343250I0J243750D01*
G01*
X72584900Y-79430750D01*
G75*
G02*
X72828650Y-79187000I243750J0D01*
G01*
X73316150Y-79187000D01*
G75*
G02*
X73559900Y-79430750I0J-243750D01*
G01*
G37*
%TD*%
%TO.C,R4*%
G36*
G01*
X227568216Y-68991419D02*
X226922981Y-68346184D01*
G75*
G02*
X226922981Y-68001470I172357J172357D01*
G01*
X227267696Y-67656755D01*
G75*
G02*
X227612410Y-67656755I172357J-172357D01*
G01*
X228257645Y-68301990D01*
G75*
G02*
X228257645Y-68646704I-172357J-172357D01*
G01*
X227912930Y-68991419D01*
G75*
G02*
X227568216Y-68991419I-172357J172357D01*
G01*
G37*
G36*
G01*
X226242390Y-70317245D02*
X225597155Y-69672010D01*
G75*
G02*
X225597155Y-69327296I172357J172357D01*
G01*
X225941870Y-68982581D01*
G75*
G02*
X226286584Y-68982581I172357J-172357D01*
G01*
X226931819Y-69627816D01*
G75*
G02*
X226931819Y-69972530I-172357J-172357D01*
G01*
X226587104Y-70317245D01*
G75*
G02*
X226242390Y-70317245I-172357J172357D01*
G01*
G37*
%TD*%
%TO.C,R3*%
G36*
G01*
X215914901Y-37630750D02*
X215914901Y-38543250D01*
G75*
G02*
X215671151Y-38787000I-243750J0D01*
G01*
X215183651Y-38787000D01*
G75*
G02*
X214939901Y-38543250I0J243750D01*
G01*
X214939901Y-37630750D01*
G75*
G02*
X215183651Y-37387000I243750J0D01*
G01*
X215671151Y-37387000D01*
G75*
G02*
X215914901Y-37630750I0J-243750D01*
G01*
G37*
G36*
G01*
X217789901Y-37630750D02*
X217789901Y-38543250D01*
G75*
G02*
X217546151Y-38787000I-243750J0D01*
G01*
X217058651Y-38787000D01*
G75*
G02*
X216814901Y-38543250I0J243750D01*
G01*
X216814901Y-37630750D01*
G75*
G02*
X217058651Y-37387000I243750J0D01*
G01*
X217546151Y-37387000D01*
G75*
G02*
X217789901Y-37630750I0J-243750D01*
G01*
G37*
%TD*%
%TO.C,F1*%
G36*
G01*
X224675000Y2075000D02*
X223425000Y2075000D01*
G75*
G02*
X223175000Y2325000I0J250000D01*
G01*
X223175000Y3075000D01*
G75*
G02*
X223425000Y3325000I250000J0D01*
G01*
X224675000Y3325000D01*
G75*
G02*
X224925000Y3075000I0J-250000D01*
G01*
X224925000Y2325000D01*
G75*
G02*
X224675000Y2075000I-250000J0D01*
G01*
G37*
G36*
G01*
X224675000Y-725000D02*
X223425000Y-725000D01*
G75*
G02*
X223175000Y-475000I0J250000D01*
G01*
X223175000Y275000D01*
G75*
G02*
X223425000Y525000I250000J0D01*
G01*
X224675000Y525000D01*
G75*
G02*
X224925000Y275000I0J-250000D01*
G01*
X224925000Y-475000D01*
G75*
G02*
X224675000Y-725000I-250000J0D01*
G01*
G37*
%TD*%
D11*
%TO.C,D_65*%
X398250000Y-55250000D03*
X398250000Y-58550000D03*
%TD*%
%TO.C,D_64*%
X390350000Y-76150000D03*
X390350000Y-72850000D03*
%TD*%
%TO.C,D_62*%
X274768750Y-88768750D03*
X274768750Y-85468750D03*
%TD*%
%TO.C,D_61*%
X208050000Y-88900000D03*
X208050000Y-85600000D03*
%TD*%
%TO.C,D_60*%
X202550000Y-87900000D03*
X202550000Y-84600000D03*
%TD*%
%TO.C,D_59*%
X141807400Y-80097000D03*
X141807400Y-76797000D03*
%TD*%
%TO.C,D_58*%
X103318750Y-77593750D03*
X103318750Y-74293750D03*
%TD*%
%TO.C,D_57*%
X355731250Y-53050000D03*
X355731250Y-49750000D03*
%TD*%
%TO.C,D_56*%
X334300000Y-55431250D03*
X334300000Y-52131250D03*
%TD*%
%TO.C,D_55*%
X315250000Y-55431250D03*
X315250000Y-52131250D03*
%TD*%
%TO.C,D_54*%
X294980000Y-59000000D03*
X294980000Y-55700000D03*
%TD*%
%TO.C,D_53*%
X273650000Y-63500000D03*
X273650000Y-60200000D03*
%TD*%
%TO.C,D_52*%
X257650000Y-66640000D03*
X257650000Y-63340000D03*
%TD*%
%TO.C,D_51*%
X236300000Y-70750000D03*
X236300000Y-67450000D03*
%TD*%
%TO.C,D_50*%
X205400000Y-68300000D03*
X205400000Y-65000000D03*
%TD*%
%TO.C,D_49*%
X186850000Y-64450000D03*
X186850000Y-61150000D03*
%TD*%
%TO.C,D_48*%
X168200000Y-60200000D03*
X168200000Y-56900000D03*
%TD*%
%TO.C,D_47*%
X149450000Y-56750000D03*
X149450000Y-53450000D03*
%TD*%
%TO.C,D_46*%
X127620000Y-56040000D03*
X127620000Y-52740000D03*
%TD*%
%TO.C,D_45*%
X119987500Y-57250000D03*
X119987500Y-53950000D03*
%TD*%
%TO.C,D_43*%
X382350000Y-37400000D03*
X382350000Y-34100000D03*
%TD*%
%TO.C,D_42*%
X338100000Y-37530000D03*
X338100000Y-34230000D03*
%TD*%
%TO.C,D_41*%
X318900000Y-37150000D03*
X318900000Y-33850000D03*
%TD*%
%TO.C,D_39*%
X279531250Y-41143750D03*
X279531250Y-37843750D03*
%TD*%
%TO.C,D_38*%
X260270000Y-46140000D03*
X260270000Y-42840000D03*
%TD*%
%TO.C,D_37*%
X241250000Y-50050000D03*
X241250000Y-46750000D03*
%TD*%
%TO.C,D_36*%
X200950000Y-48287500D03*
X200950000Y-44987500D03*
%TD*%
%TO.C,D_35*%
X181900000Y-44256250D03*
X181900000Y-40956250D03*
%TD*%
%TO.C,D_34*%
X162850000Y-41143750D03*
X162850000Y-37843750D03*
%TD*%
%TO.C,D_33*%
X143800000Y-36381250D03*
X143800000Y-33081250D03*
%TD*%
%TO.C,D_32*%
X122170000Y-37310000D03*
X122170000Y-34010000D03*
%TD*%
%TO.C,D_31*%
X91410000Y-36950000D03*
X91410000Y-33650000D03*
%TD*%
%TO.C,D_30*%
X80250000Y-35950000D03*
X80250000Y-32650000D03*
%TD*%
%TO.C,D_29*%
X370049999Y-22643750D03*
X370049999Y-19343750D03*
%TD*%
%TO.C,D_28*%
X346289074Y-22470545D03*
X346289074Y-19170545D03*
%TD*%
%TO.C,D_27*%
X327175000Y-22375000D03*
X327175000Y-19075000D03*
%TD*%
%TO.C,D_26*%
X307930000Y-21915001D03*
X307930000Y-18615001D03*
%TD*%
%TO.C,D_25*%
X287625000Y-26000000D03*
X287625000Y-22700000D03*
%TD*%
%TO.C,D_24*%
X269000000Y-29850000D03*
X269000000Y-26550000D03*
%TD*%
%TO.C,D_23*%
X250350000Y-34925000D03*
X250350000Y-31625000D03*
%TD*%
%TO.C,D_22*%
X231575000Y-39075000D03*
X231575000Y-35775000D03*
%TD*%
%TO.C,D_21*%
X199520000Y-28010000D03*
X199520000Y-24710000D03*
%TD*%
%TO.C,D_20*%
X179100000Y-27250000D03*
X179100000Y-23950000D03*
%TD*%
%TO.C,D_19*%
X159075000Y-25275000D03*
X159075000Y-21975000D03*
%TD*%
%TO.C,D_18*%
X139127400Y-22187000D03*
X139127400Y-18887000D03*
%TD*%
%TO.C,D_17*%
X118700000Y-23700000D03*
X118700000Y-20400000D03*
%TD*%
%TO.C,D_16*%
X96375000Y-22050000D03*
X96375000Y-18750000D03*
%TD*%
%TO.C,D_15*%
X84000000Y-22050000D03*
X84000000Y-18750000D03*
%TD*%
D13*
%TO.C,D_14*%
X370700000Y3900000D03*
X367400000Y3900000D03*
%TD*%
D11*
%TO.C,D_13*%
X334400000Y1400000D03*
X334400000Y4700000D03*
%TD*%
%TO.C,D_12*%
X313350000Y1550000D03*
X313350000Y4850000D03*
%TD*%
%TO.C,D_11*%
X294150000Y0D03*
X294150000Y3300000D03*
%TD*%
%TO.C,D_10*%
X275200000Y-4500000D03*
X275200000Y-1200000D03*
%TD*%
%TO.C,D_9*%
X257500000Y-8150000D03*
X257500000Y-4850000D03*
%TD*%
%TO.C,D_8*%
X238250000Y-12000000D03*
X238250000Y-8700000D03*
%TD*%
%TO.C,D_7*%
X214240000Y-11410000D03*
X214240000Y-8110000D03*
%TD*%
%TO.C,D_6*%
X196187500Y-7806250D03*
X196187500Y-4506250D03*
%TD*%
%TO.C,D_5*%
X177137500Y-3043750D03*
X177137500Y256250D03*
%TD*%
%TO.C,D_4*%
X158087500Y1718750D03*
X158087500Y5018750D03*
%TD*%
%TO.C,D_3*%
X134050000Y1750000D03*
X134050000Y5050000D03*
%TD*%
%TO.C,D_2*%
X116100000Y1350000D03*
X116100000Y4650000D03*
%TD*%
%TO.C,D_1*%
X97200000Y1100000D03*
X97200000Y4400000D03*
%TD*%
%TO.C,D_0*%
X87400000Y1150000D03*
X87400000Y4450000D03*
%TD*%
D14*
%TO.C,D16*%
X256277400Y3563000D03*
X256277400Y363000D03*
X251377400Y3563000D03*
X251377400Y363000D03*
%TD*%
%TO.C,D15*%
X167377400Y-84987000D03*
X167377400Y-88187000D03*
X162477400Y-84987000D03*
X162477400Y-88187000D03*
%TD*%
%TO.C,D14*%
X296327400Y-11587000D03*
X296327400Y-14787000D03*
X291427400Y-11587000D03*
X291427400Y-14787000D03*
%TD*%
%TO.C,D13*%
X124677400Y-83087000D03*
X124677400Y-86287000D03*
X119777400Y-83087000D03*
X119777400Y-86287000D03*
%TD*%
%TO.C,D12*%
X346127400Y-11787000D03*
X346127400Y-14987000D03*
X341227400Y-11787000D03*
X341227400Y-14987000D03*
%TD*%
%TO.C,D11*%
X70077400Y-53787000D03*
X70077400Y-50587000D03*
X74977400Y-53787000D03*
X74977400Y-50587000D03*
%TD*%
%TO.C,D10*%
X396677400Y-24487000D03*
X396677400Y-27687000D03*
X391777400Y-24487000D03*
X391777400Y-27687000D03*
%TD*%
%TO.C,D9*%
X116777400Y-14537000D03*
X116777400Y-17737000D03*
X111877400Y-14537000D03*
X111877400Y-17737000D03*
%TD*%
%TO.C,D8*%
X347927400Y-79887000D03*
X347927400Y-83087000D03*
X343027400Y-79887000D03*
X343027400Y-83087000D03*
%TD*%
%TO.C,D7*%
X151677400Y-10187000D03*
X151677400Y-13387000D03*
X146777400Y-10187000D03*
X146777400Y-13387000D03*
%TD*%
%TO.C,D6*%
X291477400Y-86987000D03*
X291477400Y-90187000D03*
X286577400Y-86987000D03*
X286577400Y-90187000D03*
%TD*%
%TO.C,D5*%
X206577400Y3063000D03*
X206577400Y-137000D03*
X201677400Y3063000D03*
X201677400Y-137000D03*
%TD*%
%TO.C,D4*%
X234477400Y-100787000D03*
X234477400Y-103987000D03*
X229577400Y-100787000D03*
X229577400Y-103987000D03*
%TD*%
M02*
