%TF.GenerationSoftware,KiCad,Pcbnew,(5.1.6)-1*%
%TF.CreationDate,2020-07-28T20:53:14+02:00*%
%TF.ProjectId,Proyecto A,50726f79-6563-4746-9f20-412e6b696361,rev?*%
%TF.SameCoordinates,Original*%
%TF.FileFunction,Paste,Top*%
%TF.FilePolarity,Positive*%
%FSLAX46Y46*%
G04 Gerber Fmt 4.6, Leading zero omitted, Abs format (unit mm)*
G04 Created by KiCad (PCBNEW (5.1.6)-1) date 2020-07-28 20:53:14*
%MOMM*%
%LPD*%
G01*
G04 APERTURE LIST*
%ADD10R,0.600000X2.450000*%
%ADD11R,0.300000X2.450000*%
G04 APERTURE END LIST*
D10*
%TO.C,USB1*%
X227977400Y4453000D03*
X234427400Y4453000D03*
X228752400Y4453000D03*
X233652400Y4453000D03*
D11*
X232952400Y4453000D03*
X229452400Y4453000D03*
X232452400Y4453000D03*
X229952400Y4453000D03*
X231952400Y4453000D03*
X230452400Y4453000D03*
X230952400Y4453000D03*
X231452400Y4453000D03*
%TD*%
%TO.C,D3*%
G36*
G01*
X67014900Y-84937000D02*
X67014900Y-83687000D01*
G75*
G02*
X67264900Y-83437000I250000J0D01*
G01*
X68189900Y-83437000D01*
G75*
G02*
X68439900Y-83687000I0J-250000D01*
G01*
X68439900Y-84937000D01*
G75*
G02*
X68189900Y-85187000I-250000J0D01*
G01*
X67264900Y-85187000D01*
G75*
G02*
X67014900Y-84937000I0J250000D01*
G01*
G37*
G36*
G01*
X64039900Y-84937000D02*
X64039900Y-83687000D01*
G75*
G02*
X64289900Y-83437000I250000J0D01*
G01*
X65214900Y-83437000D01*
G75*
G02*
X65464900Y-83687000I0J-250000D01*
G01*
X65464900Y-84937000D01*
G75*
G02*
X65214900Y-85187000I-250000J0D01*
G01*
X64289900Y-85187000D01*
G75*
G02*
X64039900Y-84937000I0J250000D01*
G01*
G37*
%TD*%
%TO.C,D2*%
G36*
G01*
X67014900Y-89262000D02*
X67014900Y-88012000D01*
G75*
G02*
X67264900Y-87762000I250000J0D01*
G01*
X68189900Y-87762000D01*
G75*
G02*
X68439900Y-88012000I0J-250000D01*
G01*
X68439900Y-89262000D01*
G75*
G02*
X68189900Y-89512000I-250000J0D01*
G01*
X67264900Y-89512000D01*
G75*
G02*
X67014900Y-89262000I0J250000D01*
G01*
G37*
G36*
G01*
X64039900Y-89262000D02*
X64039900Y-88012000D01*
G75*
G02*
X64289900Y-87762000I250000J0D01*
G01*
X65214900Y-87762000D01*
G75*
G02*
X65464900Y-88012000I0J-250000D01*
G01*
X65464900Y-89262000D01*
G75*
G02*
X65214900Y-89512000I-250000J0D01*
G01*
X64289900Y-89512000D01*
G75*
G02*
X64039900Y-89262000I0J250000D01*
G01*
G37*
%TD*%
%TO.C,D1*%
G36*
G01*
X67014900Y-80512000D02*
X67014900Y-79262000D01*
G75*
G02*
X67264900Y-79012000I250000J0D01*
G01*
X68189900Y-79012000D01*
G75*
G02*
X68439900Y-79262000I0J-250000D01*
G01*
X68439900Y-80512000D01*
G75*
G02*
X68189900Y-80762000I-250000J0D01*
G01*
X67264900Y-80762000D01*
G75*
G02*
X67014900Y-80512000I0J250000D01*
G01*
G37*
G36*
G01*
X64039900Y-80512000D02*
X64039900Y-79262000D01*
G75*
G02*
X64289900Y-79012000I250000J0D01*
G01*
X65214900Y-79012000D01*
G75*
G02*
X65464900Y-79262000I0J-250000D01*
G01*
X65464900Y-80512000D01*
G75*
G02*
X65214900Y-80762000I-250000J0D01*
G01*
X64289900Y-80762000D01*
G75*
G02*
X64039900Y-80512000I0J250000D01*
G01*
G37*
%TD*%
M02*
