%TF.GenerationSoftware,KiCad,Pcbnew,(5.1.6)-1*%
%TF.CreationDate,2020-07-26T11:56:32+02:00*%
%TF.ProjectId,Proyecto A,50726f79-6563-4746-9f20-412e6b696361,rev?*%
%TF.SameCoordinates,Original*%
%TF.FileFunction,Copper,L1,Top*%
%TF.FilePolarity,Positive*%
%FSLAX46Y46*%
G04 Gerber Fmt 4.6, Leading zero omitted, Abs format (unit mm)*
G04 Created by KiCad (PCBNEW (5.1.6)-1) date 2020-07-26 11:56:32*
%MOMM*%
%LPD*%
G01*
G04 APERTURE LIST*
%TA.AperFunction,ComponentPad*%
%ADD10O,1.000000X2.100000*%
%TD*%
%TA.AperFunction,ComponentPad*%
%ADD11O,1.000000X1.600000*%
%TD*%
%TA.AperFunction,ComponentPad*%
%ADD12C,2.250000*%
%TD*%
%TA.AperFunction,ViaPad*%
%ADD13C,0.800000*%
%TD*%
%TA.AperFunction,Conductor*%
%ADD14C,0.381000*%
%TD*%
%TA.AperFunction,Conductor*%
%ADD15C,0.254000*%
%TD*%
G04 APERTURE END LIST*
D10*
%TO.P,USB1,13*%
%TO.N,GND*%
X226882400Y5868000D03*
X235522400Y5868000D03*
D11*
X226882400Y10048000D03*
X235522400Y10048000D03*
%TD*%
%TO.P,D3,2*%
%TO.N,num*%
%TA.AperFunction,SMDPad,CuDef*%
G36*
G01*
X67014900Y-84937000D02*
X67014900Y-83687000D01*
G75*
G02*
X67264900Y-83437000I250000J0D01*
G01*
X68189900Y-83437000D01*
G75*
G02*
X68439900Y-83687000I0J-250000D01*
G01*
X68439900Y-84937000D01*
G75*
G02*
X68189900Y-85187000I-250000J0D01*
G01*
X67264900Y-85187000D01*
G75*
G02*
X67014900Y-84937000I0J250000D01*
G01*
G37*
%TD.AperFunction*%
%TO.P,D3,1*%
%TO.N,Net-(D3-Pad1)*%
%TA.AperFunction,SMDPad,CuDef*%
G36*
G01*
X64039900Y-84937000D02*
X64039900Y-83687000D01*
G75*
G02*
X64289900Y-83437000I250000J0D01*
G01*
X65214900Y-83437000D01*
G75*
G02*
X65464900Y-83687000I0J-250000D01*
G01*
X65464900Y-84937000D01*
G75*
G02*
X65214900Y-85187000I-250000J0D01*
G01*
X64289900Y-85187000D01*
G75*
G02*
X64039900Y-84937000I0J250000D01*
G01*
G37*
%TD.AperFunction*%
%TD*%
%TO.P,D2,2*%
%TO.N,scrol*%
%TA.AperFunction,SMDPad,CuDef*%
G36*
G01*
X67014900Y-89262000D02*
X67014900Y-88012000D01*
G75*
G02*
X67264900Y-87762000I250000J0D01*
G01*
X68189900Y-87762000D01*
G75*
G02*
X68439900Y-88012000I0J-250000D01*
G01*
X68439900Y-89262000D01*
G75*
G02*
X68189900Y-89512000I-250000J0D01*
G01*
X67264900Y-89512000D01*
G75*
G02*
X67014900Y-89262000I0J250000D01*
G01*
G37*
%TD.AperFunction*%
%TO.P,D2,1*%
%TO.N,Net-(D2-Pad1)*%
%TA.AperFunction,SMDPad,CuDef*%
G36*
G01*
X64039900Y-89262000D02*
X64039900Y-88012000D01*
G75*
G02*
X64289900Y-87762000I250000J0D01*
G01*
X65214900Y-87762000D01*
G75*
G02*
X65464900Y-88012000I0J-250000D01*
G01*
X65464900Y-89262000D01*
G75*
G02*
X65214900Y-89512000I-250000J0D01*
G01*
X64289900Y-89512000D01*
G75*
G02*
X64039900Y-89262000I0J250000D01*
G01*
G37*
%TD.AperFunction*%
%TD*%
%TO.P,D1,2*%
%TO.N,caps*%
%TA.AperFunction,SMDPad,CuDef*%
G36*
G01*
X67014900Y-80512000D02*
X67014900Y-79262000D01*
G75*
G02*
X67264900Y-79012000I250000J0D01*
G01*
X68189900Y-79012000D01*
G75*
G02*
X68439900Y-79262000I0J-250000D01*
G01*
X68439900Y-80512000D01*
G75*
G02*
X68189900Y-80762000I-250000J0D01*
G01*
X67264900Y-80762000D01*
G75*
G02*
X67014900Y-80512000I0J250000D01*
G01*
G37*
%TD.AperFunction*%
%TO.P,D1,1*%
%TO.N,Net-(D1-Pad1)*%
%TA.AperFunction,SMDPad,CuDef*%
G36*
G01*
X64039900Y-80512000D02*
X64039900Y-79262000D01*
G75*
G02*
X64289900Y-79012000I250000J0D01*
G01*
X65214900Y-79012000D01*
G75*
G02*
X65464900Y-79262000I0J-250000D01*
G01*
X65464900Y-80512000D01*
G75*
G02*
X65214900Y-80762000I-250000J0D01*
G01*
X64289900Y-80762000D01*
G75*
G02*
X64039900Y-80512000I0J250000D01*
G01*
G37*
%TD.AperFunction*%
%TD*%
D12*
%TO.P,K4,2*%
%TO.N,Net-(D_5-Pad2)*%
X183500686Y-6499106D03*
%TO.P,K4,1*%
%TO.N,col5*%
X176761353Y-7663362D03*
%TD*%
%TO.P,SPLIT_BKS1,2*%
%TO.N,Net-(BACKSPACE1-Pad2)*%
X381091880Y-71680D03*
%TO.P,SPLIT_BKS1,1*%
%TO.N,col14*%
X374741880Y-2611680D03*
%TD*%
%TO.P,FUNC1,2*%
%TO.N,Net-(D_61-Pad2)*%
X218660686Y-91879106D03*
%TO.P,FUNC1,1*%
%TO.N,col6*%
X211921353Y-93043362D03*
%TD*%
%TO.P,lgui1,2*%
%TO.N,Net-(D_60-Pad2)*%
X188364226Y-85429946D03*
%TO.P,lgui1,1*%
%TO.N,col4*%
X181624893Y-86594202D03*
%TD*%
%TO.P,RSHIFT2,2*%
%TO.N,Net-(D_57-Pad2)*%
X377010100Y-57244540D03*
%TO.P,RSHIFT2,1*%
%TO.N,col13*%
X370660100Y-59784540D03*
%TD*%
%TO.P,CAPS2,2*%
%TO.N,Net-(CAPS1-Pad2)*%
X99840000Y-38190000D03*
%TO.P,CAPS2,1*%
%TO.N,col1*%
X93490000Y-40730000D03*
%TD*%
%TO.P,BACKSPACE1,2*%
%TO.N,Net-(BACKSPACE1-Pad2)*%
X371530000Y-90000D03*
%TO.P,BACKSPACE1,1*%
%TO.N,col14*%
X365180000Y-2630000D03*
%TD*%
%TO.P,FUNCT1,2*%
%TO.N,Net-(D_65-Pad2)*%
X393670000Y-57220000D03*
%TO.P,FUNCT1,1*%
%TO.N,col13*%
X387320000Y-59760000D03*
%TD*%
%TO.P,RCTL1,2*%
%TO.N,Net-(D_64-Pad2)*%
X385250000Y-76350000D03*
%TO.P,RCTL1,1*%
%TO.N,col12*%
X378900000Y-78890000D03*
%TD*%
%TO.P,RALT1,2*%
%TO.N,Net-(D_63-Pad2)*%
X305425704Y-78349914D03*
%TO.P,RALT1,1*%
%TO.N,col10*%
X299742562Y-82154649D03*
%TD*%
%TO.P,space2,2*%
%TO.N,Net-(D_62-Pad2)*%
X265019784Y-85425314D03*
%TO.P,space2,1*%
%TO.N,col8*%
X259336642Y-89230049D03*
%TD*%
%TO.P,FUNC2,2*%
%TO.N,Net-(D_61-Pad2)*%
X216370686Y-91389106D03*
%TO.P,FUNC2,1*%
%TO.N,col6*%
X209631353Y-92553362D03*
%TD*%
%TO.P,SPCE2,2*%
%TO.N,Net-(D_60-Pad2)*%
X186070686Y-84949106D03*
%TO.P,SPCE2,1*%
%TO.N,col4*%
X179331353Y-86113362D03*
%TD*%
%TO.P,ALT1,2*%
%TO.N,Net-(ALT1-Pad2)*%
X152828086Y-79416106D03*
%TO.P,ALT1,1*%
%TO.N,col3*%
X146088753Y-80580362D03*
%TD*%
%TO.P,CTRL1,2*%
%TO.N,Net-(CTRL1-Pad2)*%
X98060000Y-76280000D03*
%TO.P,CTRL1,1*%
%TO.N,col1*%
X91710000Y-78820000D03*
%TD*%
%TO.P,RSHIFT1,2*%
%TO.N,Net-(D_57-Pad2)*%
X367480000Y-57270000D03*
%TO.P,RSHIFT1,1*%
%TO.N,col13*%
X361130000Y-59810000D03*
%TD*%
%TO.P,/1,2*%
%TO.N,Net-(/1-Pad2)*%
X341270000Y-57230000D03*
%TO.P,/1,1*%
%TO.N,col12*%
X334920000Y-59770000D03*
%TD*%
%TO.P,.>1,2*%
%TO.N,Net-(.>1-Pad2)*%
X322240000Y-57220000D03*
%TO.P,.>1,1*%
%TO.N,col11*%
X315890000Y-59760000D03*
%TD*%
%TO.P,\u002C<1,2*%
%TO.N,Net-(\u002C<1-Pad2)*%
X300608304Y-58362914D03*
%TO.P,\u002C<1,1*%
%TO.N,col10*%
X294925162Y-62167649D03*
%TD*%
%TO.P,M1,2*%
%TO.N,Net-(D_53-Pad2)*%
X281988304Y-62352914D03*
%TO.P,M1,1*%
%TO.N,col9*%
X276305162Y-66157649D03*
%TD*%
%TO.P,N1,2*%
%TO.N,Net-(D_52-Pad2)*%
X263368304Y-66302914D03*
%TO.P,N1,1*%
%TO.N,col8*%
X257685162Y-70107649D03*
%TD*%
%TO.P,B2,2*%
%TO.N,Net-(B2-Pad2)*%
X244708304Y-70252914D03*
%TO.P,B2,1*%
%TO.N,col7*%
X239025162Y-74057649D03*
%TD*%
%TO.P,B1,2*%
%TO.N,Net-(B1-Pad2)*%
X213550686Y-71309106D03*
%TO.P,B1,1*%
%TO.N,col6*%
X206811353Y-72473362D03*
%TD*%
%TO.P,V1,2*%
%TO.N,Net-(D_49-Pad2)*%
X194910686Y-67359106D03*
%TO.P,V1,1*%
%TO.N,col5*%
X188171353Y-68523362D03*
%TD*%
%TO.P,C8,2*%
%TO.N,Net-(C8-Pad2)*%
X176290686Y-63389106D03*
%TO.P,C8,1*%
%TO.N,col4*%
X169551353Y-64553362D03*
%TD*%
%TO.P,X1,2*%
%TO.N,Net-(D_47-Pad2)*%
X157640686Y-59439106D03*
%TO.P,X1,1*%
%TO.N,col3*%
X150901353Y-60603362D03*
%TD*%
%TO.P,Z1,2*%
%TO.N,Net-(D_46-Pad2)*%
X136140000Y-57220000D03*
%TO.P,Z1,1*%
%TO.N,col2*%
X129790000Y-59760000D03*
%TD*%
%TO.P,SHIFT1,2*%
%TO.N,Net-(D_45-Pad2)*%
X105190000Y-57230000D03*
%TO.P,SHIFT1,1*%
%TO.N,col1*%
X98840000Y-59770000D03*
%TD*%
%TO.P,RETURN1,2*%
%TO.N,Net-(D_43-Pad2)*%
X377590000Y-38200000D03*
%TO.P,RETURN1,1*%
%TO.N,col13*%
X371240000Y-40740000D03*
%TD*%
%TO.P,'1,2*%
%TO.N,Net-('1-Pad2)*%
X346640000Y-38200000D03*
%TO.P,'1,1*%
%TO.N,col12*%
X340290000Y-40740000D03*
%TD*%
%TO.P,;1,2*%
%TO.N,Net-(;1-Pad2)*%
X327600000Y-38200000D03*
%TO.P,;1,1*%
%TO.N,col11*%
X321250000Y-40740000D03*
%TD*%
%TO.P,L1,2*%
%TO.N,Net-(D_40-Pad2)*%
X305998304Y-37752914D03*
%TO.P,L1,1*%
%TO.N,col10*%
X300315162Y-41557649D03*
%TD*%
%TO.P,K11,2*%
%TO.N,Net-(D_39-Pad2)*%
X287338304Y-41742914D03*
%TO.P,K11,1*%
%TO.N,col9*%
X281655162Y-45547649D03*
%TD*%
%TO.P,J1,2*%
%TO.N,Net-(D_38-Pad2)*%
X268718304Y-45682914D03*
%TO.P,J1,1*%
%TO.N,col8*%
X263035162Y-49487649D03*
%TD*%
%TO.P,H1,2*%
%TO.N,Net-(D_37-Pad2)*%
X250068304Y-49652914D03*
%TO.P,H1,1*%
%TO.N,col7*%
X244385162Y-53457649D03*
%TD*%
%TO.P,G1,2*%
%TO.N,Net-(D_36-Pad2)*%
X208190686Y-50689106D03*
%TO.P,G1,1*%
%TO.N,col6*%
X201451353Y-51853362D03*
%TD*%
%TO.P,F2,2*%
%TO.N,Net-(D_35-Pad2)*%
X189560686Y-46749106D03*
%TO.P,F2,1*%
%TO.N,col5*%
X182821353Y-47913362D03*
%TD*%
%TO.P,D18,2*%
%TO.N,Net-(D18-Pad2)*%
X170920686Y-42799106D03*
%TO.P,D18,1*%
%TO.N,col4*%
X164181353Y-43963362D03*
%TD*%
%TO.P,S1,2*%
%TO.N,Net-(D_33-Pad2)*%
X152300686Y-38839106D03*
%TO.P,S1,1*%
%TO.N,col3*%
X145561353Y-40003362D03*
%TD*%
%TO.P,A1,2*%
%TO.N,Net-(A1-Pad2)*%
X130800000Y-38170000D03*
%TO.P,A1,1*%
%TO.N,col2*%
X124450000Y-40710000D03*
%TD*%
%TO.P,CAPS1,2*%
%TO.N,Net-(CAPS1-Pad2)*%
X104580000Y-38210000D03*
%TO.P,CAPS1,1*%
%TO.N,col1*%
X98230000Y-40750000D03*
%TD*%
%TO.P,PGDN1,2*%
%TO.N,Net-(D_30-Pad2)*%
X74430000Y-36050000D03*
%TO.P,PGDN1,1*%
%TO.N,col0*%
X68080000Y-38590000D03*
%TD*%
%TO.P,K\u005C1,2*%
%TO.N,Net-(D_29-Pad2)*%
X380490000Y-19150000D03*
%TO.P,K\u005C1,1*%
%TO.N,col14*%
X374140000Y-21690000D03*
%TD*%
%TO.P,]1,2*%
%TO.N,Net-(D_28-Pad2)*%
X356660000Y-19120000D03*
%TO.P,]1,1*%
%TO.N,col13*%
X350310000Y-21660000D03*
%TD*%
%TO.P,[1,2*%
%TO.N,Net-(D_27-Pad2)*%
X337590000Y-19150000D03*
%TO.P,[1,1*%
%TO.N,col12*%
X331240000Y-21690000D03*
%TD*%
%TO.P,P1,2*%
%TO.N,Net-(D_26-Pad2)*%
X318960000Y-18090000D03*
%TO.P,P1,1*%
%TO.N,col11*%
X312610000Y-20630000D03*
%TD*%
%TO.P,O1,2*%
%TO.N,Net-(D_25-Pad2)*%
X297368304Y-20092914D03*
%TO.P,O1,1*%
%TO.N,col10*%
X291685162Y-23897649D03*
%TD*%
%TO.P,I1,2*%
%TO.N,Net-(D_24-Pad2)*%
X278738304Y-24072914D03*
%TO.P,I1,1*%
%TO.N,col9*%
X273055162Y-27877649D03*
%TD*%
%TO.P,U2,2*%
%TO.N,Net-(D_23-Pad2)*%
X260098304Y-28032914D03*
%TO.P,U2,1*%
%TO.N,col8*%
X254415162Y-31837649D03*
%TD*%
%TO.P,Y2,2*%
%TO.N,Net-(D_22-Pad2)*%
X241458304Y-31992914D03*
%TO.P,Y2,1*%
%TO.N,col7*%
X235775162Y-35797649D03*
%TD*%
%TO.P,T1,2*%
%TO.N,Net-(D_21-Pad2)*%
X207480686Y-31069106D03*
%TO.P,T1,1*%
%TO.N,col6*%
X200741353Y-32233362D03*
%TD*%
%TO.P,R10,2*%
%TO.N,Net-(D_20-Pad2)*%
X188860686Y-27119106D03*
%TO.P,R10,1*%
%TO.N,col5*%
X182121353Y-28283362D03*
%TD*%
%TO.P,E1,2*%
%TO.N,Net-(D_19-Pad2)*%
X170230686Y-23149106D03*
%TO.P,E1,1*%
%TO.N,col4*%
X163491353Y-24313362D03*
%TD*%
%TO.P,W1,2*%
%TO.N,Net-(D_18-Pad2)*%
X151590686Y-19179106D03*
%TO.P,W1,1*%
%TO.N,col3*%
X144851353Y-20343362D03*
%TD*%
%TO.P,Q1,2*%
%TO.N,Net-(D_17-Pad2)*%
X130090000Y-19130000D03*
%TO.P,Q1,1*%
%TO.N,col2*%
X123740000Y-21670000D03*
%TD*%
%TO.P,TAB1,2*%
%TO.N,Net-(D_16-Pad2)*%
X106300000Y-19140000D03*
%TO.P,TAB1,1*%
%TO.N,col1*%
X99950000Y-21680000D03*
%TD*%
%TO.P,PGUP1,2*%
%TO.N,Net-(D_15-Pad2)*%
X78490000Y-16990000D03*
%TO.P,PGUP1,1*%
%TO.N,col0*%
X72140000Y-19530000D03*
%TD*%
%TO.P,K_14,2*%
%TO.N,Net-(D_14-Pad2)*%
X362020000Y-110000D03*
%TO.P,K_14,1*%
%TO.N,col14*%
X355670000Y-2650000D03*
%TD*%
%TO.P,=+1,2*%
%TO.N,Net-(=+1-Pad2)*%
X342950000Y-100000D03*
%TO.P,=+1,1*%
%TO.N,col13*%
X336600000Y-2640000D03*
%TD*%
%TO.P,_-1,2*%
%TO.N,Net-(D_12-Pad2)*%
X324330000Y2040000D03*
%TO.P,_-1,1*%
%TO.N,col12*%
X317980000Y-500000D03*
%TD*%
%TO.P,K10,2*%
%TO.N,Net-(D_11-Pad2)*%
X302708304Y467086D03*
%TO.P,K10,1*%
%TO.N,col11*%
X297025162Y-3337649D03*
%TD*%
%TO.P,K9,2*%
%TO.N,Net-(D_10-Pad2)*%
X284068304Y-3482914D03*
%TO.P,K9,1*%
%TO.N,col10*%
X278385162Y-7287649D03*
%TD*%
%TO.P,K8,2*%
%TO.N,Net-(D_9-Pad2)*%
X265458304Y-7412914D03*
%TO.P,K8,1*%
%TO.N,col9*%
X259775162Y-11217649D03*
%TD*%
%TO.P,K7,2*%
%TO.N,Net-(D_8-Pad2)*%
X246808304Y-11372914D03*
%TO.P,K7,1*%
%TO.N,col8*%
X241125162Y-15177649D03*
%TD*%
%TO.P,K6,2*%
%TO.N,Net-(D_7-Pad2)*%
X220770686Y-14409106D03*
%TO.P,K6,1*%
%TO.N,col7*%
X214031353Y-15573362D03*
%TD*%
%TO.P,k5,2*%
%TO.N,Net-(D_6-Pad2)*%
X202150686Y-10459106D03*
%TO.P,k5,1*%
%TO.N,col6*%
X195411353Y-11623362D03*
%TD*%
%TO.P,K3,2*%
%TO.N,Net-(D_4-Pad2)*%
X164880686Y-2529106D03*
%TO.P,K3,1*%
%TO.N,col4*%
X158141353Y-3693362D03*
%TD*%
%TO.P,K2,2*%
%TO.N,Net-(D_3-Pad2)*%
X143370000Y2080000D03*
%TO.P,K2,1*%
%TO.N,col3*%
X137020000Y-460000D03*
%TD*%
%TO.P,K1,2*%
%TO.N,Net-(D_2-Pad2)*%
X124740000Y-90000D03*
%TO.P,K1,1*%
%TO.N,col2*%
X118390000Y-2630000D03*
%TD*%
%TO.P,KK0,2*%
%TO.N,Net-(D_1-Pad2)*%
X105680000Y-70000D03*
%TO.P,KK0,1*%
%TO.N,col1*%
X99330000Y-2610000D03*
%TD*%
%TO.P,Esc1,2*%
%TO.N,Net-(D_0-Pad2)*%
X82650000Y2060000D03*
%TO.P,Esc1,1*%
%TO.N,col0*%
X76300000Y-480000D03*
%TD*%
D13*
%TO.N,GND*%
X228959305Y-46724921D03*
X84282280Y-32534860D03*
X78247240Y-50258980D03*
X395409980Y-73577000D03*
X218204762Y-62441802D03*
X221300040Y-65600580D03*
X236245400Y-1651000D03*
X360451400Y-16129000D03*
X365150400Y-20701000D03*
X269773400Y-92202000D03*
X273329400Y-93091000D03*
X300888400Y-89027000D03*
X302793400Y-90805000D03*
X353466400Y-81915000D03*
X356641400Y-84582000D03*
X392201400Y-29083000D03*
X275615400Y-13208000D03*
X269773400Y-3302000D03*
X227482400Y-3302000D03*
X225577400Y-4953000D03*
X218465400Y-4699000D03*
X216687400Y-6604000D03*
X181635400Y127000D03*
X166014400Y-15240000D03*
X93751400Y-16891000D03*
X93314520Y-32313880D03*
X73685400Y-60071000D03*
X131216400Y-85725000D03*
X139471400Y-90043000D03*
X241452400Y-102743000D03*
X254787400Y-92710000D03*
X247167400Y-92710000D03*
X252120400Y-92710000D03*
X227846013Y-39125189D03*
X233077400Y-5812000D03*
X74557400Y-79787000D03*
X74657400Y-84307000D03*
X76126340Y-88747600D03*
X240902400Y-57387000D03*
X240727400Y-54312000D03*
%TO.N,+5V*%
X218298165Y-39082764D03*
X222927400Y-38987000D03*
X224127400Y-1587000D03*
X214727400Y-52387000D03*
X214927400Y-59187000D03*
X215127400Y-61187000D03*
X222927400Y-72387000D03*
X233527400Y-69587000D03*
X236927400Y-61788648D03*
X226127400Y-47387000D03*
X393169140Y-74300080D03*
X222455740Y-69204127D03*
X398932400Y-25781000D03*
X398424400Y-51689000D03*
X391693400Y-52705000D03*
X392328400Y-18288000D03*
X386232400Y-12319000D03*
X276377400Y-11938000D03*
X271678400Y-1905000D03*
X245389400Y2413000D03*
X234594400Y-6731000D03*
X172745400Y2540000D03*
X167157400Y-4699000D03*
X87020400Y-14732000D03*
X85934826Y-44380426D03*
X80924400Y-67183000D03*
X88036400Y-86995000D03*
X218952400Y-40712000D03*
X214877400Y-49787000D03*
X221552400Y-51962000D03*
%TO.N,caps*%
X236684820Y-54401720D03*
X230616760Y-87447120D03*
X205864460Y-88071960D03*
X205038960Y-95410020D03*
X158005780Y-80682099D03*
X156712920Y-87975440D03*
X135011977Y-80925039D03*
X142501600Y-87664990D03*
X175285400Y-89027000D03*
X166790575Y-81097673D03*
X68507400Y-77507000D03*
%TO.N,Net-(D1-Pad1)*%
X68527400Y-81397000D03*
%TO.N,Net-(D2-Pad1)*%
X68587400Y-87017000D03*
%TO.N,num*%
X230229300Y-86525232D03*
X141503400Y-88392000D03*
X204971410Y-87622000D03*
X167284400Y-80228098D03*
X157017738Y-80527900D03*
X69697400Y-82417000D03*
X135153400Y-81915000D03*
X176338298Y-90043000D03*
X204860383Y-94426092D03*
X155969624Y-88702440D03*
X236758257Y-55503291D03*
%TO.N,Net-(D3-Pad1)*%
X68587400Y-85787000D03*
%TO.N,UNDERGLOW*%
X213847400Y-56687000D03*
X227687400Y-96127000D03*
%TO.N,Net-(D5-Pad2)*%
X166268400Y1651000D03*
X161569400Y-3175000D03*
%TO.N,Net-(D16-Pad2)*%
X255676400Y-1143000D03*
X253517400Y-3429000D03*
%TO.N,Net-(D10-Pad4)*%
X394682980Y-74764900D03*
X390296400Y-25654000D03*
%TO.N,Net-(D11-Pad4)*%
X80797400Y-50546000D03*
X90068400Y-16002000D03*
%TO.N,Net-(D10-Pad2)*%
X352831400Y-12573000D03*
X357149400Y-16940989D03*
X396646400Y-17653000D03*
X396646400Y-26289000D03*
%TO.N,Net-(D11-Pad2)*%
X67985640Y-51648360D03*
X90650060Y-86329520D03*
%TO.N,Net-(D14-Pad2)*%
X273964400Y-16510000D03*
X266471400Y-2511490D03*
%TO.N,row0*%
X210327400Y-43678989D03*
X210327400Y-8187000D03*
%TO.N,row1*%
X207527400Y-42387000D03*
X202527400Y-25587000D03*
%TO.N,row2*%
X386557520Y-5539740D03*
X385246880Y-32499300D03*
%TO.N,row3*%
X210927400Y-45587000D03*
X205727400Y-64187000D03*
X218709240Y-72778620D03*
X215300560Y-67612260D03*
%TO.N,row4*%
X213127400Y-42951989D03*
X207727400Y-83987000D03*
X396727400Y-72987000D03*
X398327400Y-59987000D03*
%TO.N,col0*%
X191927400Y-60730040D03*
X191927400Y-57460000D03*
X181527400Y-57387000D03*
X181927400Y-61003031D03*
X68327400Y-45587000D03*
%TO.N,col1*%
X93727400Y-49787000D03*
%TO.N,col2*%
X124527400Y-49187000D03*
%TO.N,col3*%
X145527400Y-48387000D03*
%TO.N,col4*%
X163927400Y-51987000D03*
%TO.N,col5*%
X182727400Y-58187000D03*
%TO.N,col6*%
X228927400Y-65387000D03*
X223327400Y-70785127D03*
%TO.N,col7*%
X235960920Y-15854680D03*
%TO.N,col8*%
X263327400Y-57587000D03*
%TO.N,col9*%
X282527400Y-53587000D03*
%TO.N,col10*%
X301127400Y-50787000D03*
%TO.N,col11*%
X321127400Y-49587000D03*
%TO.N,col12*%
X339527400Y-48187000D03*
X367388140Y-66255900D03*
X335694020Y-65460880D03*
%TO.N,col13*%
X371527400Y-45587000D03*
%TO.N,col14*%
X383127400Y-45587000D03*
%TO.N,D+*%
X231577400Y-3712000D03*
X219227400Y-53062000D03*
%TO.N,D-*%
X229602400Y-3737000D03*
X217727400Y-52637000D03*
%TO.N,Net-(R3-Pad2)*%
X227991652Y-48177500D03*
X226954410Y-38672345D03*
%TO.N,Net-(B1-Pad2)*%
X213527400Y-68387000D03*
%TO.N,scrol*%
X173888400Y-84836000D03*
X169062400Y-79883000D03*
X84366100Y-89538100D03*
X154254200Y-80682099D03*
X204143698Y-87060843D03*
X230104240Y-85533081D03*
X235803474Y-55800598D03*
X81127600Y-86583520D03*
X153360829Y-89252490D03*
X203855320Y-94229010D03*
X70037400Y-86627000D03*
%TD*%
D14*
%TO.N,GND*%
X84282280Y-32534860D02*
X78247240Y-38569900D01*
X78247240Y-38569900D02*
X78247240Y-50258980D01*
X76106020Y-74805540D02*
X76106020Y-79799180D01*
X218204762Y-62441802D02*
X221300040Y-65537080D01*
X221300040Y-65537080D02*
X221300040Y-65600580D01*
X226882400Y5868000D02*
X227062400Y5868000D01*
X360451400Y-16129000D02*
X365023400Y-20701000D01*
X365023400Y-20701000D02*
X365150400Y-20701000D01*
X269773400Y-92202000D02*
X270662400Y-93091000D01*
X270662400Y-93091000D02*
X273329400Y-93091000D01*
X300888400Y-89027000D02*
X301015400Y-89027000D01*
X301015400Y-89027000D02*
X302793400Y-90805000D01*
X353466400Y-81915000D02*
X356133400Y-84582000D01*
X356133400Y-84582000D02*
X356641400Y-84582000D01*
X395409980Y-64972962D02*
X395409980Y-73577000D01*
X397475501Y-34357101D02*
X397475501Y-60519101D01*
X392201400Y-29083000D02*
X397475501Y-34357101D01*
X398043400Y-62339542D02*
X395409980Y-64972962D01*
X397475501Y-60519101D02*
X398043400Y-61087000D01*
X398043400Y-61087000D02*
X398043400Y-62339542D01*
X275615400Y-13208000D02*
X269773400Y-7366000D01*
X269773400Y-7366000D02*
X269773400Y-3302000D01*
X227482400Y-3302000D02*
X227228400Y-3302000D01*
X227228400Y-3302000D02*
X225577400Y-4953000D01*
X218465400Y-4699000D02*
X218465400Y-4826000D01*
X218465400Y-4826000D02*
X216687400Y-6604000D01*
X181635400Y127000D02*
X166268400Y-15240000D01*
X166268400Y-15240000D02*
X166014400Y-15240000D01*
X93751400Y-16891000D02*
X93314520Y-17327880D01*
X93314520Y-17327880D02*
X93314520Y-32313880D01*
X73685400Y-60071000D02*
X75463400Y-61849000D01*
X75463400Y-74162920D02*
X76106020Y-74805540D01*
X75463400Y-61849000D02*
X75463400Y-74162920D01*
X131216400Y-85725000D02*
X133629400Y-88138000D01*
X133629400Y-88138000D02*
X137439400Y-88138000D01*
X137439400Y-88138000D02*
X139344400Y-90043000D01*
X139344400Y-90043000D02*
X139471400Y-90043000D01*
X241452400Y-102743000D02*
X241452400Y-98552000D01*
X241452400Y-98552000D02*
X247294400Y-92710000D01*
X247294400Y-92710000D02*
X247167400Y-92710000D01*
X252120400Y-92710000D02*
X254787400Y-92710000D01*
X227846013Y-45611629D02*
X227846013Y-39125189D01*
X228959305Y-46724921D02*
X227846013Y-45611629D01*
X233067860Y-4828540D02*
X236245400Y-1651000D01*
X233067860Y-33903342D02*
X233067860Y-5802460D01*
X227846013Y-39125189D02*
X233067860Y-33903342D01*
X233067860Y-5802460D02*
X233077400Y-5812000D01*
X233077400Y-5812000D02*
X233067860Y-4828540D01*
X236245400Y5145000D02*
X235522400Y5868000D01*
X236245400Y-1651000D02*
X236245400Y5145000D01*
X76106020Y-79799180D02*
X74569580Y-79799180D01*
X74569580Y-79799180D02*
X74557400Y-79787000D01*
X76106020Y-84278380D02*
X74686020Y-84278380D01*
X76106020Y-79799180D02*
X76106020Y-84278380D01*
X74686020Y-84278380D02*
X74657400Y-84307000D01*
X76106020Y-84278380D02*
X76106020Y-88727280D01*
X76106020Y-88727280D02*
X76126340Y-88747600D01*
X240902400Y-57387000D02*
X240902400Y-54487000D01*
X240902400Y-54487000D02*
X240727400Y-54312000D01*
%TO.N,+5V*%
X218327400Y-39111999D02*
X218298165Y-39082764D01*
X222927400Y-38987000D02*
X224127400Y-37787000D01*
X214727400Y-58987000D02*
X214927400Y-59187000D01*
X215127400Y-61187000D02*
X222527400Y-68587000D01*
X222527400Y-71987000D02*
X222927400Y-72387000D01*
X233527400Y-69587000D02*
X236927400Y-66187000D01*
X236927400Y-66187000D02*
X236927400Y-61788648D01*
X214727400Y-53987000D02*
X214727400Y-58987000D01*
X214727400Y-52387000D02*
X214727400Y-53987000D01*
X224127400Y-4820580D02*
X224127400Y-1587000D01*
X224127400Y-37787000D02*
X224127400Y-4820580D01*
X222510367Y-69149500D02*
X222455740Y-69204127D01*
X222527400Y-69149500D02*
X222510367Y-69149500D01*
X222527400Y-69149500D02*
X222527400Y-71987000D01*
X222527400Y-68587000D02*
X222527400Y-69149500D01*
X398932400Y-25781000D02*
X398932400Y-51562000D01*
X398932400Y-51562000D02*
X398805400Y-51689000D01*
X398805400Y-51689000D02*
X398424400Y-51689000D01*
X393514401Y-73954819D02*
X393169140Y-74300080D01*
X394106400Y-73362820D02*
X393514401Y-73954819D01*
X391693400Y-52705000D02*
X391693400Y-57486342D01*
X393514401Y-59307343D02*
X393596743Y-59307343D01*
X391693400Y-57486342D02*
X393514401Y-59307343D01*
X393596743Y-59307343D02*
X394106400Y-59817000D01*
X394106400Y-59817000D02*
X394106400Y-73362820D01*
X392328400Y-18288000D02*
X386359400Y-12319000D01*
X386359400Y-12319000D02*
X386232400Y-12319000D01*
X276377400Y-11938000D02*
X271678400Y-7239000D01*
X271678400Y-7239000D02*
X271678400Y-1905000D01*
X245389400Y2413000D02*
X236245400Y-6731000D01*
X236245400Y-6731000D02*
X234594400Y-6731000D01*
X172745400Y2540000D02*
X167157400Y-3048000D01*
X167157400Y-3048000D02*
X167157400Y-4699000D01*
X87020400Y-14732000D02*
X87020400Y-43294852D01*
X87020400Y-43294852D02*
X85934826Y-44380426D01*
X80924400Y-67183000D02*
X80924400Y-79883000D01*
X80924400Y-79883000D02*
X88036400Y-86995000D01*
X216327400Y-53987000D02*
X219527400Y-53987000D01*
X214727400Y-53987000D02*
X216327400Y-53987000D01*
X218952400Y-40712000D02*
X214877400Y-44787000D01*
X214877400Y-44787000D02*
X214877400Y-49787000D01*
X219527400Y-53987000D02*
X221552400Y-51962000D01*
X221552400Y-51962000D02*
X226127400Y-47387000D01*
D15*
%TO.N,caps*%
X205864460Y-88071960D02*
X205864460Y-94584520D01*
X205864460Y-94584520D02*
X205038960Y-95410020D01*
X158005780Y-80682099D02*
X156712920Y-81974959D01*
X156712920Y-81974959D02*
X156712920Y-87975440D01*
X135011977Y-80925039D02*
X135761649Y-80925039D01*
X135761649Y-80925039D02*
X142501600Y-87664990D01*
X175285400Y-89027000D02*
X167356073Y-81097673D01*
X167356073Y-81097673D02*
X166790575Y-81097673D01*
X67727400Y-79887000D02*
X67727400Y-78287000D01*
X67727400Y-78287000D02*
X68507400Y-77507000D01*
X237109000Y-73824849D02*
X237109000Y-80954880D01*
X241124740Y-69809109D02*
X237109000Y-73824849D01*
X237109000Y-80954880D02*
X230616760Y-87447120D01*
X241124740Y-58841640D02*
X241124740Y-69809109D01*
X236684820Y-54401720D02*
X241124740Y-58841640D01*
%TO.N,Net-(D1-Pad1)*%
X66262400Y-81397000D02*
X64752400Y-79887000D01*
X68527400Y-81397000D02*
X66262400Y-81397000D01*
%TO.N,Net-(D2-Pad1)*%
X66372400Y-87017000D02*
X64752400Y-88637000D01*
X68587400Y-87017000D02*
X66372400Y-87017000D01*
%TO.N,num*%
X167850085Y-80228098D02*
X167284400Y-80228098D01*
X67727400Y-84312000D02*
X67802400Y-84312000D01*
X176338298Y-88716311D02*
X167850085Y-80228098D01*
X67802400Y-84312000D02*
X69697400Y-82417000D01*
X176338298Y-90043000D02*
X176338298Y-88716311D01*
X141503400Y-88265000D02*
X141503400Y-88392000D01*
X135153400Y-81915000D02*
X141503400Y-88265000D01*
X204971410Y-88623520D02*
X205410450Y-89062560D01*
X205410450Y-93876025D02*
X204860383Y-94426092D01*
X205410450Y-89062560D02*
X205410450Y-93876025D01*
X204971410Y-87622000D02*
X204971410Y-88623520D01*
X155969624Y-81576014D02*
X155969624Y-88702440D01*
X157017738Y-80527900D02*
X155969624Y-81576014D01*
X240670730Y-59415764D02*
X236758257Y-55503291D01*
X240670730Y-69583758D02*
X240670730Y-59415764D01*
X236654990Y-73599498D02*
X240670730Y-69583758D01*
X230229300Y-86525232D02*
X236654990Y-80099542D01*
X236654990Y-80099542D02*
X236654990Y-73599498D01*
%TO.N,Net-(D3-Pad1)*%
X66227400Y-85787000D02*
X64752400Y-84312000D01*
X68587400Y-85787000D02*
X66227400Y-85787000D01*
%TO.N,UNDERGLOW*%
X229367400Y-85517000D02*
X215467400Y-71617000D01*
X215467400Y-71617000D02*
X215467400Y-70377000D01*
X215467400Y-70377000D02*
X214427400Y-69337000D01*
X214427400Y-69337000D02*
X214427400Y-62947000D01*
X214427400Y-62947000D02*
X213847400Y-62367000D01*
X213847400Y-62367000D02*
X213847400Y-56687000D01*
X229367400Y-94447000D02*
X229367400Y-85517000D01*
X227687400Y-96127000D02*
X229367400Y-94447000D01*
%TO.N,Net-(D5-Pad2)*%
X166268400Y1651000D02*
X161569400Y-3048000D01*
X161569400Y-3048000D02*
X161569400Y-3175000D01*
%TO.N,Net-(D16-Pad2)*%
X255676400Y-1143000D02*
X253517400Y-3302000D01*
X253517400Y-3302000D02*
X253517400Y-3429000D01*
%TO.N,Net-(D10-Pad4)*%
X395341008Y-57697954D02*
X394682980Y-58355982D01*
X395341008Y-54955608D02*
X395341008Y-57697954D01*
X390296400Y-25654000D02*
X390296400Y-49911000D01*
X394682980Y-58355982D02*
X394682980Y-74764900D01*
X390296400Y-49911000D02*
X395341008Y-54955608D01*
%TO.N,Net-(D11-Pad4)*%
X90068400Y-41275000D02*
X90068400Y-16002000D01*
X80797400Y-50546000D02*
X90068400Y-41275000D01*
%TO.N,Net-(D10-Pad2)*%
X352831400Y-12573000D02*
X357149400Y-16891000D01*
X357149400Y-16891000D02*
X357149400Y-16940989D01*
X396646400Y-17653000D02*
X396646400Y-26289000D01*
%TO.N,Net-(D11-Pad2)*%
X67985640Y-51648360D02*
X89001600Y-72664320D01*
X89001600Y-84681060D02*
X90650060Y-86329520D01*
X89001600Y-72664320D02*
X89001600Y-84681060D01*
%TO.N,Net-(D14-Pad2)*%
X273964400Y-13770048D02*
X266471400Y-6277048D01*
X266471400Y-6277048D02*
X266471400Y-2511490D01*
X273964400Y-16510000D02*
X273964400Y-13770048D01*
%TO.N,row0*%
X210327400Y-43678989D02*
X210327400Y-8187000D01*
%TO.N,row1*%
X207527400Y-41640000D02*
X207527400Y-42387000D01*
X207035400Y-41148000D02*
X207527400Y-41640000D01*
X207035400Y-33909000D02*
X207035400Y-41148000D01*
X202527400Y-25587000D02*
X202527400Y-29401000D01*
X202527400Y-29401000D02*
X207035400Y-33909000D01*
%TO.N,row2*%
X386557520Y-5539740D02*
X385246880Y-6850380D01*
X385246880Y-6850380D02*
X385246880Y-32499300D01*
%TO.N,row3*%
X210927400Y-45587000D02*
X210927400Y-58987000D01*
X210927400Y-58987000D02*
X205727400Y-64187000D01*
X215300560Y-68804255D02*
X215300560Y-67612260D01*
X218709240Y-72778620D02*
X218709240Y-72212935D01*
X218709240Y-72212935D02*
X215300560Y-68804255D01*
%TO.N,row4*%
X212098685Y-43980704D02*
X212098685Y-72006067D01*
X213127400Y-42951989D02*
X212098685Y-43980704D01*
X212098685Y-72006067D02*
X213127400Y-73034782D01*
X213127400Y-73034782D02*
X213127400Y-78587000D01*
X213127400Y-78587000D02*
X207727400Y-83987000D01*
X396727400Y-72987000D02*
X398727399Y-70987001D01*
X398727399Y-60386999D02*
X398327400Y-59987000D01*
X398727399Y-70987001D02*
X398727399Y-60386999D01*
%TO.N,col0*%
X191927400Y-60730040D02*
X191927400Y-57460000D01*
X181527400Y-57387000D02*
X181927400Y-57787000D01*
X181927400Y-57787000D02*
X181927400Y-61003031D01*
X68327400Y-38837400D02*
X68080000Y-38590000D01*
X68327400Y-45587000D02*
X68327400Y-38837400D01*
X68080000Y-38590000D02*
X72140000Y-34530000D01*
X76300000Y-15370000D02*
X76300000Y-480000D01*
X72140000Y-19530000D02*
X76300000Y-15370000D01*
X72140000Y-19530000D02*
X72140000Y-20171600D01*
X72140000Y-20171600D02*
X72669400Y-20701000D01*
X72669400Y-34000600D02*
X72140000Y-34530000D01*
X72669400Y-20701000D02*
X72669400Y-34000600D01*
%TO.N,col1*%
X93727400Y-40967400D02*
X93490000Y-40730000D01*
X93727400Y-49787000D02*
X93727400Y-40967400D01*
X99950000Y-34270000D02*
X99950000Y-21680000D01*
X93490000Y-40730000D02*
X99950000Y-34270000D01*
X99950000Y-4905066D02*
X99330000Y-4285066D01*
X99330000Y-4285066D02*
X99330000Y-2610000D01*
X99950000Y-21680000D02*
X99950000Y-4905066D01*
X93727400Y-54657400D02*
X98840000Y-59770000D01*
X93727400Y-49787000D02*
X93727400Y-54657400D01*
X98210000Y-40730000D02*
X98230000Y-40750000D01*
X93490000Y-40730000D02*
X98210000Y-40730000D01*
X91710000Y-78820000D02*
X98840000Y-71690000D01*
X98840000Y-59770000D02*
X98840000Y-60079600D01*
X98840000Y-60079600D02*
X99466400Y-60706000D01*
X99466400Y-71063600D02*
X98840000Y-71690000D01*
X99466400Y-60706000D02*
X99466400Y-71063600D01*
%TO.N,col2*%
X124527400Y-40787400D02*
X124450000Y-40710000D01*
X124527400Y-49187000D02*
X124527400Y-40787400D01*
X118390000Y-16320000D02*
X123740000Y-21670000D01*
X118390000Y-2630000D02*
X118390000Y-16320000D01*
X123740000Y-40000000D02*
X124450000Y-40710000D01*
X123740000Y-21670000D02*
X123740000Y-40000000D01*
X124527400Y-54497400D02*
X129790000Y-59760000D01*
X124527400Y-49187000D02*
X124527400Y-54497400D01*
%TO.N,col3*%
X145527400Y-40037315D02*
X145561353Y-40003362D01*
X145527400Y-48387000D02*
X145527400Y-40037315D01*
X150333011Y-61171704D02*
X150901353Y-60603362D01*
X150333011Y-76336104D02*
X150333011Y-61171704D01*
X146088753Y-80580362D02*
X150333011Y-76336104D01*
X150901353Y-53760953D02*
X145527400Y-48387000D01*
X150901353Y-60603362D02*
X150901353Y-53760953D01*
X145561353Y-21053362D02*
X144851353Y-20343362D01*
X145561353Y-40003362D02*
X145561353Y-21053362D01*
X137820400Y-6880000D02*
X144851353Y-13910953D01*
X144851353Y-13910953D02*
X144851353Y-20343362D01*
X137820400Y-2667000D02*
X137820400Y-6880000D01*
X137020000Y-460000D02*
X137020000Y-1866600D01*
X137020000Y-1866600D02*
X137820400Y-2667000D01*
%TO.N,col4*%
X163927400Y-44217315D02*
X164181353Y-43963362D01*
X163927400Y-51987000D02*
X163927400Y-44217315D01*
X158141353Y-18963362D02*
X163491353Y-24313362D01*
X158141353Y-3693362D02*
X158141353Y-18963362D01*
X163491353Y-43273362D02*
X164181353Y-43963362D01*
X163491353Y-24313362D02*
X163491353Y-43273362D01*
X163927400Y-58929409D02*
X169551353Y-64553362D01*
X163927400Y-51987000D02*
X163927400Y-58929409D01*
X176438726Y-86113362D02*
X179331353Y-86113362D01*
X169551353Y-79225989D02*
X176438726Y-86113362D01*
X169551353Y-64553362D02*
X169551353Y-79225989D01*
%TO.N,col5*%
X182727400Y-48007315D02*
X182821353Y-47913362D01*
X182727400Y-58187000D02*
X182727400Y-48007315D01*
X182727400Y-63079409D02*
X188171353Y-68523362D01*
X182727400Y-58187000D02*
X182727400Y-63079409D01*
X182821353Y-28983362D02*
X182121353Y-28283362D01*
X182121353Y-28283362D02*
X182121353Y-18601233D01*
X182121353Y-18601233D02*
X177639099Y-14118979D01*
X182121353Y-47213362D02*
X182821353Y-47913362D01*
X182121353Y-28283362D02*
X182121353Y-47213362D01*
X176761353Y-9254352D02*
X176682400Y-9333305D01*
X176761353Y-7663362D02*
X176761353Y-9254352D01*
X176682400Y-9333305D02*
X176682400Y-13081000D01*
X177639099Y-14037699D02*
X177639099Y-14118979D01*
X176682400Y-13081000D02*
X177639099Y-14037699D01*
%TO.N,col6*%
X228927400Y-65387000D02*
X223529273Y-70785127D01*
X223529273Y-70785127D02*
X223327400Y-70785127D01*
X206811353Y-72473362D02*
X202329099Y-67991108D01*
X201451353Y-32943362D02*
X200741353Y-32233362D01*
X206811353Y-72473362D02*
X206811353Y-84903047D01*
X206659009Y-89581018D02*
X209631353Y-92553362D01*
X206659009Y-85055391D02*
X206659009Y-89581018D01*
X206811353Y-84903047D02*
X206659009Y-85055391D01*
X211431353Y-92553362D02*
X211921353Y-93043362D01*
X209631353Y-92553362D02*
X211431353Y-92553362D01*
X200741353Y-51143362D02*
X201451353Y-51853362D01*
X200741353Y-32233362D02*
X200741353Y-51143362D01*
X195411353Y-11623362D02*
X195411353Y-17077953D01*
X195411353Y-17077953D02*
X197256400Y-18923000D01*
X197256400Y-28748409D02*
X200741353Y-32233362D01*
X197256400Y-18923000D02*
X197256400Y-28748409D01*
X201451353Y-67113362D02*
X202329099Y-67991108D01*
X201451353Y-51853362D02*
X201451353Y-67113362D01*
%TO.N,col7*%
X244385162Y-53457649D02*
X244385162Y-46125462D01*
X235775162Y-37515462D02*
X235775162Y-35797649D01*
X244385162Y-46125462D02*
X235775162Y-37515462D01*
X235960920Y-35611891D02*
X235775162Y-35797649D01*
X235960920Y-15854680D02*
X235960920Y-35611891D01*
X246160305Y-65415612D02*
X239025162Y-72550755D01*
X239025162Y-72550755D02*
X239025162Y-74057649D01*
X246160305Y-55232792D02*
X246160305Y-65415612D01*
X244385162Y-53457649D02*
X246160305Y-55232792D01*
%TO.N,col8*%
X263727399Y-50179886D02*
X263035162Y-49487649D01*
X263727399Y-57187001D02*
X263727399Y-50179886D01*
X263327400Y-57587000D02*
X263727399Y-57187001D01*
X263035162Y-49487649D02*
X263035162Y-39151178D01*
X254415162Y-32710096D02*
X254415162Y-31837649D01*
X257555967Y-35850901D02*
X254415162Y-32710096D01*
X259734885Y-35850901D02*
X257555967Y-35850901D01*
X263035162Y-39151178D02*
X259734885Y-35850901D01*
X242250161Y-16302648D02*
X241125162Y-15177649D01*
X242250161Y-19672648D02*
X242250161Y-16302648D01*
X254415162Y-31837649D02*
X242250161Y-19672648D01*
X263327400Y-57587000D02*
X263327400Y-62958460D01*
X257685162Y-68600698D02*
X257685162Y-70107649D01*
X263327400Y-62958460D02*
X257685162Y-68600698D01*
X258810161Y-88703568D02*
X259336642Y-89230049D01*
X258810161Y-71232648D02*
X258810161Y-88703568D01*
X257685162Y-70107649D02*
X258810161Y-71232648D01*
%TO.N,col9*%
X282527400Y-46419887D02*
X281655162Y-45547649D01*
X282527400Y-53587000D02*
X282527400Y-46419887D01*
X273055162Y-26088639D02*
X273055162Y-27877649D01*
X259775162Y-12808639D02*
X273055162Y-26088639D01*
X259775162Y-11217649D02*
X259775162Y-12808639D01*
X281655162Y-38161381D02*
X281655162Y-45547649D01*
X273055162Y-29561381D02*
X281655162Y-38161381D01*
X273055162Y-27877649D02*
X273055162Y-29561381D01*
X282527400Y-53587000D02*
X282527400Y-57355080D01*
X276305162Y-63577318D02*
X276305162Y-66157649D01*
X282527400Y-57355080D02*
X276305162Y-63577318D01*
%TO.N,col10*%
X301127400Y-42369887D02*
X300315162Y-41557649D01*
X301127400Y-50787000D02*
X301127400Y-42369887D01*
X296050161Y-78462248D02*
X296050161Y-63292648D01*
X296050161Y-63292648D02*
X294925162Y-62167649D01*
X299742562Y-82154649D02*
X296050161Y-78462248D01*
X294925162Y-62167649D02*
X297314620Y-59778191D01*
X297314620Y-54599780D02*
X301127400Y-50787000D01*
X297314620Y-59778191D02*
X297314620Y-54599780D01*
X300315162Y-41557649D02*
X295686480Y-36928967D01*
X292173011Y-24385498D02*
X291685162Y-23897649D01*
X292173011Y-26913191D02*
X292173011Y-24385498D01*
X295686480Y-30426660D02*
X292173011Y-26913191D01*
X295686480Y-36928967D02*
X295686480Y-30426660D01*
X278385162Y-9006659D02*
X278385162Y-7287649D01*
X291685162Y-22306659D02*
X278385162Y-9006659D01*
X291685162Y-23897649D02*
X291685162Y-22306659D01*
%TO.N,col11*%
X321250000Y-49464400D02*
X321250000Y-40740000D01*
X321127400Y-49587000D02*
X321250000Y-49464400D01*
X321127400Y-54522600D02*
X315890000Y-59760000D01*
X321127400Y-49587000D02*
X321127400Y-54522600D01*
X314099099Y-22119099D02*
X312610000Y-20630000D01*
X314099099Y-33589099D02*
X314099099Y-22119099D01*
X321250000Y-40740000D02*
X314099099Y-33589099D01*
X297025162Y-5045162D02*
X297025162Y-3337649D01*
X312610000Y-20630000D02*
X297025162Y-5045162D01*
%TO.N,col12*%
X340290000Y-43719401D02*
X340290000Y-40740000D01*
X339527400Y-44482001D02*
X340290000Y-43719401D01*
X339527400Y-48187000D02*
X339527400Y-44482001D01*
X317980000Y-2664934D02*
X318998600Y-3683534D01*
X317980000Y-500000D02*
X317980000Y-2664934D01*
X318998600Y-3683534D02*
X318998600Y-4030980D01*
X331240000Y-16272380D02*
X331240000Y-21690000D01*
X318998600Y-4030980D02*
X331240000Y-16272380D01*
X331240000Y-23854934D02*
X336054700Y-28669634D01*
X331240000Y-21690000D02*
X331240000Y-23854934D01*
X336054700Y-36504700D02*
X340290000Y-40740000D01*
X336054700Y-28669634D02*
X336054700Y-36504700D01*
X339527400Y-55162600D02*
X334920000Y-59770000D01*
X339527400Y-48187000D02*
X339527400Y-55162600D01*
X378900000Y-78890000D02*
X367347500Y-67337500D01*
X367347500Y-67337500D02*
X367347500Y-66296540D01*
X367347500Y-66296540D02*
X367388140Y-66255900D01*
X335694020Y-60544020D02*
X334920000Y-59770000D01*
X335694020Y-65460880D02*
X335694020Y-60544020D01*
%TO.N,col13*%
X371527400Y-41027400D02*
X371240000Y-40740000D01*
X371527400Y-45587000D02*
X371527400Y-41027400D01*
X350310000Y-18514934D02*
X350310000Y-21660000D01*
X336600000Y-4804934D02*
X350310000Y-18514934D01*
X336600000Y-2640000D02*
X336600000Y-4804934D01*
X350310000Y-21660000D02*
X350310000Y-27288040D01*
X363761960Y-40740000D02*
X371240000Y-40740000D01*
X350310000Y-27288040D02*
X363761960Y-40740000D01*
X371527400Y-58917240D02*
X370660100Y-59784540D01*
X371527400Y-45587000D02*
X371527400Y-58917240D01*
%TO.N,col14*%
X383127400Y-45587000D02*
X383127400Y-39187000D01*
X374140000Y-30199600D02*
X374140000Y-21690000D01*
X383127400Y-39187000D02*
X374140000Y-30199600D01*
X375272001Y-3141801D02*
X374741880Y-2611680D01*
X375272001Y-20557999D02*
X375272001Y-3141801D01*
X374140000Y-21690000D02*
X375272001Y-20557999D01*
%TO.N,D+*%
X231577400Y-3712000D02*
X227927400Y-7362000D01*
X227927400Y-7362000D02*
X227927400Y-36087000D01*
X227927400Y-36087000D02*
X225977400Y-38037000D01*
X225977400Y-38037000D02*
X225977400Y-46312000D01*
X225977400Y-46312000D02*
X219227400Y-53062000D01*
%TO.N,D-*%
X224902400Y-37387000D02*
X224902400Y-45462000D01*
X226227400Y-36062000D02*
X224902400Y-37387000D01*
X229602400Y-3737000D02*
X226227400Y-7112000D01*
X224902400Y-45462000D02*
X217727400Y-52637000D01*
X226227400Y-7112000D02*
X226227400Y-36062000D01*
%TO.N,Net-(R3-Pad2)*%
X226954410Y-47140258D02*
X226954410Y-38672345D01*
X227991652Y-48177500D02*
X226954410Y-47140258D01*
%TO.N,Net-(B1-Pad2)*%
X213527400Y-71285820D02*
X213550686Y-71309106D01*
X213527400Y-68387000D02*
X213527400Y-71285820D01*
%TO.N,scrol*%
X154254200Y-80682099D02*
X152895119Y-82041180D01*
X173888400Y-84709000D02*
X173888400Y-84836000D01*
X204143698Y-93940632D02*
X203855320Y-94229010D01*
X236200980Y-73411440D02*
X236200980Y-73448735D01*
X240216720Y-69395701D02*
X237650573Y-71961847D01*
X169062400Y-79883000D02*
X173888400Y-84709000D01*
X152895119Y-82041180D02*
X152895119Y-88786780D01*
X84366100Y-89538100D02*
X81411520Y-86583520D01*
X240216720Y-60213844D02*
X240216720Y-69395701D01*
X236200980Y-73448735D02*
X236200980Y-79436341D01*
X152895119Y-88786780D02*
X153360829Y-89252490D01*
X235803474Y-55800598D02*
X240216720Y-60213844D01*
X237650573Y-71961847D02*
X236200980Y-73411440D01*
X204143698Y-87060843D02*
X204143698Y-93940632D01*
X81411520Y-86583520D02*
X81127600Y-86583520D01*
X236200980Y-79436341D02*
X230104240Y-85533081D01*
X67727400Y-88637000D02*
X68107400Y-88637000D01*
X68107400Y-88637000D02*
X70037400Y-86707000D01*
X70037400Y-86707000D02*
X70037400Y-86627000D01*
%TD*%
M02*
